<?xml version="1.0" encoding="UTF-8"?>
<svg xmlns="http://www.w3.org/2000/svg" id="_x32_0y_FSG_Logo" version="1.1" viewBox="0 0 200 100" shape-rendering="geometricPrecision">
  <defs>
    <style>
      .st0 {
        fill-rule: evenodd;
      }

      .st0, .st1 {
        fill: #1d1d1b;
      }

      .st2 {
        fill: #e40f1b;
      }

      .st3 {
        display: none;
      }

      .st3, .st4 {
        fill: #fdd315;
      }

      .st5 {
        fill: #fff;
      }
    </style>
  </defs>
  <g id="_x32_0y_FSG_Logo1" data-name="_x32_0y_FSG_Logo">
    <g id="Logo">
      <rect id="white_germany" class="st5" x="100.21" y="77.85" width="58.19" height="8.2"></rect>
      <path id="germany" class="st0" d="M99.37,86.33c-.95,0-1.71-.76-1.71-1.71v-5.26c0-.92.76-1.68,1.71-1.68h59c.92,0,1.68.76,1.68,1.68v5.26c0,.95-.76,1.71-1.68,1.71h-59M149,80.09c0-1.02-.92-1.52-2.71-1.52h-1.97c-1.81,0-2.73.53-2.73,1.55v3.42c0,.24.08.37.23.42.08.03.24.03.53.03s.44-.13.44-.45v-3.44c0-.24.21-.42.6-.47.16-.03.48-.05.95-.05h1.94c.45,0,.74.03.9.05.39.05.61.21.61.47v3.44c0,.24.08.37.23.42.08.03.24.03.53.03s.45-.13.45-.45v-3.44ZM156.91,79.01c0-.21-.08-.37-.24-.42-.08-.03-.23-.03-.53-.03s-.44.16-.44.45v3.94h-3.58c-1,0-1.5-.21-1.5-.63v-3.31c0-.29-.13-.45-.42-.45s-.45,0-.52.03c-.16.05-.24.18-.24.42v3.31c0,1.08.89,1.63,2.68,1.63h3.58c0,.34-.53.53-1.6.53,0,0-.34,0-.45,0-.18-.01-.2-.02-.26-.03-.31-.03-.45.16-.45.45,0,.21,0,.34.05.42.08.11.18.16.39.16,1.05,0,1.79-.03,2.18-.13.89-.21,1.34-.68,1.34-1.44v-4.89ZM136.91,82.98h-1.44c-.26,0-.53-.03-.79-.13-.37-.1-.55-.26-.55-.45v-.68c0-.19.18-.34.53-.45.26-.11.53-.16.76-.16h4.26v.97c0,.34-.05.58-.21.68-.16.16-.5.21-1.05.21h-1.5M136.93,83.97h1.5c1.63,0,2.44-.52,2.44-1.63v-2.13c0-.74-.44-1.24-1.31-1.47-.45-.13-1.18-.18-2.18-.18-.29,0-.45.16-.45.45v.11c0,.32.16.45.45.45h.71c1.02,0,1.55.18,1.61.55h-4.23c-.63,0-1.18.13-1.63.34-.6.29-.89.71-.89,1.26v.71c0,.5.31.92.92,1.21.5.24,1.05.34,1.63.34h1.44ZM121.03,79.11c0-.37-.16-.55-.45-.55-2.08,0-3.1.55-3.1,1.68v3.29c0,.32.13.45.45.45.26,0,.45,0,.53-.03.16-.05.24-.18.24-.42v-3.29c0-.45.45-.68,1.37-.68h.53c.29,0,.45-.13.45-.45M132.18,80.32c0-1.18-.84-1.76-2.5-1.76-.68,0-1.13,0-1.34.03-.47.07-.9.21-1.26.45-.39-.24-.79-.39-1.24-.45-.16-.03-.6-.03-1.31-.03-1.73,0-2.6.58-2.6,1.76v3.21c0,.32.13.45.42.45s.45,0,.53-.03c.16-.05.23-.18.23-.42v-3.31c0-.45.53-.66,1.55-.66h.68c.34,0,.61.05.76.13.24.1.34.32.34.66v3.18c0,.32.16.45.45.45s.45,0,.53-.03c.16-.05.24-.18.24-.42v-3.18c0-.52.39-.79,1.21-.79h.6c1,0,1.5.21,1.5.63v3.34c0,.24.11.37.26.42.05.03.24.03.5.03.32,0,.45-.13.45-.45v-3.21ZM112.84,80.82h-2.4v-.63c0-.42.61-.63,1.81-.63l.89-.03c1.63,0,2.44.21,2.44.63v.66h-2.75ZM113,83.96c.24-.03.36-.17.36-.43,0-.31-.1-.53-.34-.55h-.4s-.32,0-.32,0c-1.26,0-1.87-.37-1.81-1.13h5.99c.16,0,.27-.16.27-.47v-1.32c0-.53-.29-.92-.87-1.18-.42-.21-.95-.31-1.55-.33h-2.21c-.74.02-1.34.12-1.84.33-.68.32-1.03.76-1.03,1.39v2c0,.47.21.87.66,1.21.31.24.79.39,1.45.47.26.03,1.64.01,1.64.01ZM105.68,79.56c.34,0,.66.05.97.13.48.16.68.34.68.63v2.63h-3.31c-1.16,0-1.76-.24-1.76-.71v-2.02c0-.29.21-.5.61-.58.18-.05.5-.08.92-.08h1.89ZM107.31,83.95c0,.11-.24.24-.68.37-.37.11-.66.16-.84.16,0,0-.75.02-1,.04-.21.01-.31.17-.31.41,0,.32.1.54.31.56.03,0,.63-.01.63-.01.74,0,1.39-.11,1.94-.29.79-.31,1.19-.76,1.19-1.39v-3.52c0-.63-.37-1.1-1.13-1.39-.55-.21-1.18-.33-1.92-.33h-1.08c-2.21,0-3.34.57-3.34,1.7v2.02c0,.63.37,1.1,1.08,1.39.5.18,1.13.29,1.89.29h3.26Z"></path>
      <path id="student" class="st0" d="M89.81,86.13c0,.5-.24.74-.74.74-.45,0-.74-.03-.84-.05-.26-.11-.39-.32-.39-.68v-5.65c0-.39-.34-.65-1-.79-.23-.03-.74-.05-1.44-.05h-3.21c-.76,0-1.26.03-1.5.05-.68.13-1.03.39-1.03.81v5.62c0,.5-.24.74-.71.74s-.73-.03-.84-.05c-.26-.11-.39-.32-.39-.68v-5.62c0-1.68,1.5-2.52,4.47-2.52h3.21c2.94,0,4.41.84,4.41,2.52v5.62ZM97.49,78.98c0,.47-.26.71-.74.71h-3.1v6.44c0,.5-.24.74-.71.74-.45,0-.73-.03-.84-.08-.26-.08-.4-.29-.4-.66v-6.44h-.68c-.5,0-.76-.26-.76-.82s.26-.81.76-.81h.68v-1.73c0-.5.24-.74.71-.74s.74.03.84.05c.26.1.39.31.39.68v1.73h3.1c.47,0,.74.32.74.92M74.62,81.69v-1.08c0-.68-1.32-1-3.97-1,0,0-1.52.03-1.5.03-1.95,0-2.94.34-2.94,1.02v1.03h8.41ZM70.42,85.24c.37.05.58.37.58.89,0,.42-.19.72-.56.74,0,0-2.28-.03-2.72-.08-1.08-.1-1.87-.34-2.36-.76-.71-.55-1.08-1.21-1.08-1.97v-3.26c0-1.03.55-1.79,1.68-2.26.81-.37,1.81-.55,3-.55h3.65c.94,0,1.79.18,2.52.5.95.45,1.39,1.1,1.39,1.97v2.13c0,.53-.18.81-.52.81h-9.7c-.08,1.21.92,1.84,2.97,1.84h1.16M28.08,84.32c0,1.71-1.29,2.55-3.86,2.55h-6.6c-.47,0-.71-.24-.71-.74,0-.6.24-.92.71-.92h6.62c1.21,0,1.81-.29,1.81-.89v-.31c0-.55-.55-.81-1.66-.81h-3.18c-2.92,0-4.36-.82-4.36-2.44v-.47c0-1.08.74-1.79,2.23-2.1.58-.11,1.74-.18,3.42-.18.47,0,.71.26.71.74v.21c0,.47-.23.71-.71.71h-1.42c-.71,0-1.16,0-1.31.03-.66.08-.97.26-.97.6v.47c0,.37.34.6,1,.71.26.05.74.08,1.45.08h3.23c2.39,0,3.6.79,3.6,2.39v.39ZM58.15,85.21c2,0,3-.37,3-1.1v-4.42h-5.86c-1.76,0-2.63.39-2.63,1.16v3.15c0,.58.34.95,1,1.1.29.08.84.1,1.68.1h2.81ZM55.36,86.87c-3.05,0-4.63-.84-4.68-2.52-.03-.92-.03-2.1.03-3.52.05-1.84,1.6-2.76,4.63-2.76h5.81v-1.73c0-.47.26-.71.74-.71.45,0,.71,0,.81.05.29.08.42.31.42.66v7.81c0,.94-.61,1.65-1.81,2.15-.89.39-1.89.58-2.97.58h-2.97ZM35.75,78.98c0,.47-.24.71-.74.71h-3.07v6.44c0,.5-.24.74-.74.74-.44,0-.73-.03-.84-.08-.26-.08-.39-.29-.39-.66v-6.44h-.68c-.5,0-.74-.26-.74-.82s.24-.81.74-.81h.68v-1.73c0-.5.26-.74.74-.74.45,0,.74.03.84.05.26.1.4.31.4.68v1.73h3.07c.5,0,.74.32.74.92M49.37,84.21c0,1.79-1.89,2.68-5.68,2.68-.29,0-.68,0-1.13-.03h-.84c-3.18,0-4.76-.89-4.76-2.65v-5.49c0-.47.24-.74.71-.74s.74.03.84.08c.26.08.4.29.4.66v5.49c0,.68.95,1.03,2.81,1.03h2.92c1.81,0,2.73-.34,2.73-1v-5.52c0-.37.13-.58.39-.66.11-.05.39-.08.87-.08s.74.26.74.74v5.49Z"></path>
      <path id="formula" class="st0" d="M131.99,73.59c.87,0,1.44-.13,1.71-.34.24-.21.37-.58.37-1.15,0-.13,0-.37-.03-.71,0-.34-.03-.61-.03-.84h-6.91c-.42,0-.82.08-1.26.21-.55.18-.84.45-.84.76v1.1c0,.34.29.58.87.77.44.13.87.21,1.29.21h4.83ZM127.21,75.22c-.95,0-1.84-.21-2.66-.58-1-.5-1.5-1.15-1.5-2v-1.13c0-.92.47-1.6,1.45-2.08.74-.37,1.63-.52,2.66-.52h6.91c-.11-.63-1-.95-2.66-.95-.18,0-.39,0-.66.03h-.47c-.5,0-.74-.24-.74-.71v-.21c0-.47.24-.71.71-.71,1.66,0,2.84.08,3.57.32,1.42.39,2.16,1.18,2.16,2.39v3.5c0,1.76-1.34,2.65-3.99,2.65h-4.78ZM86.82,67.29c0,.47-.24.71-.71.71h-.84c-1.5,0-2.26.37-2.26,1.13v5.36c0,.37-.13.58-.39.68-.11.03-.39.05-.84.05-.5,0-.74-.24-.74-.74l.03-5.39c0-1.84,1.68-2.73,5.05-2.73.47,0,.71.29.71.92M105.05,74.49c0,.5-.26.74-.74.74-.45,0-.73-.03-.84-.05-.24-.11-.37-.32-.37-.68v-5.47c0-.71-.84-1.05-2.5-1.05-.16,0-.34,0-.58.03h-.39c-1.31,0-1.97.42-1.97,1.29v5.2c0,.37-.13.58-.39.68-.1.03-.39.05-.84.05-.47,0-.71-.24-.71-.74v-5.23c0-.53-.21-.87-.58-1.05-.24-.13-.68-.21-1.26-.21h-.47c-.26-.03-.47-.03-.66-.03-1.68,0-2.5.37-2.5,1.08v5.44c0,.37-.13.58-.39.68-.11.03-.4.05-.84.05-.5,0-.74-.24-.74-.74v-5.23c0-1.94,1.42-2.89,4.26-2.89,1.18,0,1.92,0,2.18.03.71.1,1.37.34,2.02.71.61-.37,1.29-.58,2.05-.68.34-.05,1.08-.05,2.18-.05,2.71,0,4.07.95,4.07,2.89v5.23ZM118.64,72.57c0,1.79-1.89,2.68-5.68,2.68-.29,0-.66,0-1.13-.03h-.84c-3.18,0-4.76-.87-4.76-2.65v-5.49c0-.47.24-.71.74-.71.45,0,.71,0,.84.05.24.08.37.29.37.66v5.49c0,.68.95,1.02,2.81,1.02h2.92c1.84,0,2.73-.34,2.73-1v-5.52c0-.37.13-.58.42-.66.08-.05.37-.05.84-.05s.73.24.73.71v5.49ZM121.79,74.49c0,.5-.24.74-.74.74-.45,0-.74-.03-.84-.08-.24-.08-.37-.29-.37-.66v-9.8c0-.5.24-.74.71-.74s.74.03.84.08c.26.08.39.29.39.66v9.8ZM66.82,67.16c0,.61-.23.89-.71.89h-2.97v6.44c0,.5-.26.74-.74.74-.45,0-.74-.03-.84-.05-.26-.11-.39-.32-.39-.68v-7.91c0-1.76,1.47-2.63,4.39-2.63h.55c.29.03.5.11.61.26.08.13.1.34.1.63,0,.5-.23.74-.71.74-.92,0-1.47.03-1.71.05-.84.11-1.23.37-1.23.79h2.94c.47,0,.71.24.71.74M72.26,75.22c-1.1,0-2.07-.18-2.89-.55-1.08-.47-1.63-1.21-1.63-2.21v-3.26c0-.97.55-1.73,1.63-2.26.84-.39,1.81-.58,2.89-.58h3.26c2.89,0,4.34.92,4.34,2.81v3.28c0,1-.5,1.74-1.52,2.21-.74.37-1.68.55-2.81.55M75.46,73.59c.53,0,1-.08,1.45-.24.63-.21.95-.5.95-.89v-3.42c0-.71-.79-1.05-2.39-1.05h-3.18c-.58,0-1.1.08-1.6.21-.66.24-.97.55-.97,1v3.26c0,.42.34.74,1.03.92.45.13.97.21,1.55.21h3.18Z"></path>
      <path id="rear_wheel" class="st0" d="M49.39,67.43c5.44-.14,10.59-3.88,12.68-9.63h0c2.86-7.91-.61-15.32-7.28-17.91-6.81-2.65-14.64,1.46-17.37,8.88-2.05,5.58-.71,11.61,3.02,15.26h.01s-19.58,0-19.58,0l-3.1,3.39h31.61ZM53.9,43.29c4.67,1.96,6.96,7.63,4.99,13.21-2.02,5.72-7.77,8.85-12.97,6.96-4.76-1.73-7.35-7.57-5.2-13.55,1.85-5.16,7.53-8.99,13.19-6.61"></path>
      <path id="front_wheel" class="st1" d="M158.01,58.46c-2.52,6.86-9.62,10.56-15.85,8.27-6.23-2.29-9.24-9.71-6.72-16.57,2.52-6.86,9.62-10.56,15.85-8.27,6.23,2.29,9.24,9.71,6.72,16.57M150.24,45.18c-4.75-1.77-9.87,1.39-11.62,6.14-1.75,4.75.22,10.55,4.56,12.05,5.29,1.82,9.67-1.16,11.62-6.14,1.84-4.71-.25-10.44-4.56-12.04"></path>
      <path id="head" class="st3" d="M105.68,28.79c0,6.16-4.99,11.16-11.15,11.16s-11.16-4.99-11.16-11.16,4.99-11.16,11.16-11.16,11.15,5,11.15,11.16M94.53,21.06c-4.27,0-7.72,3.46-7.72,7.72s3.46,7.73,7.72,7.73,7.72-3.46,7.72-7.73-3.46-7.72-7.72-7.72"></path>
      <path id="car" class="st2" d="M170.25,59.75c-.91.26-1.86-.27-2.12-1.19-.26-.92.27-1.87,1.19-2.12,8.31-2.35,13.68-4.56,16.11-6.61.85-.72,1.21-1.29,1.1-1.71-.17-.64-1.03-1.38-2.58-2.2-4.87-2.61-15.21-5.05-31-7.32h0s0,0,0,0c-3.77-.56-7.87-1.1-12.28-1.63-4.35-.52-8.85-1.02-13.5-1.49-.61.42-1.27.86-1.96,1.32-.92.61-1.72,1.12-2.42,1.56-.02,0-.03.02-.06.03-.24.15-.65.4-1.25.76-.48.29-.91.55-1.29.77-2.24,1.32-4.36,2.47-6.38,3.45-.04.02-.09.04-.13.06-6.35,3.1-11.95,4.74-16.79,4.92-4.03.15-7.54-.71-10.53-2.56-2.97-1.85-5.38-4.66-7.24-8.44-2.24-4.56-3.67-10.57-4.28-18.01-.95,1.07-1.93,2.09-2.95,3.07-5.43,5.22-12.15,9.52-20.13,12.88-.87.37-1.88-.04-2.25-.92-.37-.88.04-1.88.92-2.25,7.59-3.19,13.95-7.26,19.08-12.2,1.01-.97,1.95-1.95,2.84-2.96.87-.99,1.73-2.04,2.56-3.16h0c.3-.4.78-.67,1.32-.69.95-.03,1.74.71,1.78,1.66.33,9.04,1.73,16.07,4.19,21.07,1.56,3.18,3.55,5.52,5.97,7.02,2.4,1.49,5.26,2.17,8.59,2.05,4.36-.16,9.49-1.68,15.41-4.57.04-.03.08-.05.13-.07,2.01-.98,4.06-2.09,6.15-3.32.46-.27.88-.52,1.25-.74.2-.12.6-.37,1.21-.75.04-.02.08-.05.11-.07h0c.85-.53,1.63-1.03,2.3-1.47.72-.47,1.51-1.01,2.39-1.63h0c.33-.23.73-.35,1.16-.3,5.16.52,9.9,1.04,14.2,1.55,4.43.53,8.55,1.08,12.38,1.64,16.18,2.33,26.88,4.9,32.12,7.69,2.43,1.3,3.86,2.75,4.29,4.36.48,1.82-.25,3.56-2.2,5.21-2.81,2.38-8.61,4.81-17.4,7.3"></path>
    </g>
    <path id="party" class="st4" d="M81.95,21.47c.7-1.23,1.56-2.35,2.56-3.34l2.19.58c-1.65,1.4-2.97,3.18-3.83,5.21l-.92-2.45ZM81.28,19.66l-1-2.66,2.55.68c-.56.62-1.08,1.28-1.55,1.98ZM95.58,39.19c2.82,0,5.37-1.18,7.18-3.06h2.95c-2.2,3.23-5.92,5.36-10.12,5.36-6.76,0-12.24-5.48-12.24-12.24s5.48-12.24,12.24-12.24c5.42,0,10.03,3.53,11.64,8.42h-2.45c-1.5-3.6-5.05-6.12-9.19-6.12-5.49,0-9.95,4.45-9.95,9.95s4.45,9.95,9.95,9.95ZM89.69,28.36l-1.22-.92c1.65-2.2,4.94-2.2,6.58,0l-1.22.92c-1.03-1.38-3.1-1.38-4.13,0h0ZM97.34,28.36l-1.22-.92c1.65-2.2,4.94-2.2,6.58,0l-1.22.92c-1.03-1.38-3.1-1.38-4.13,0ZM100.17,32.11c0,.33-.15.63-.35.88-.02.03-.05.05-.07.08h9.6v-4.59h-3.06v1.53h2.3v1.53h-3.83v-4.59h6.12v7.65h-11.13s.05.05.07.08c.21.24.35.55.35.88s-.15.63-.35.88c-.21.25-.48.46-.8.64-.64.35-1.46.59-2.3.59l-.19-.72h0s.02-.02.04-.03c.04-.02.1-.06.16-.1.13-.09.31-.22.49-.36s.34-.32.46-.48c.12-.17.17-.31.17-.41s-.05-.24-.17-.41c-.12-.17-.28-.33-.46-.48-.18-.15-.35-.27-.49-.36-.07-.04-.12-.08-.16-.1-.02,0-.03-.02-.04-.02h0v-.67h0s.02-.02.04-.03c.04-.02.1-.06.16-.1.13-.09.31-.22.49-.36s.34-.32.46-.48c.12-.17.17-.31.17-.41s-.05-.24-.17-.41c-.12-.17-.28-.33-.46-.48-.18-.15-.35-.27-.49-.36-.07-.04-.12-.08-.16-.1-.02,0-.03-.02-.04-.02h0s.19-.72.19-.72c.83,0,1.66.23,2.29.59.32.18.6.39.8.64.21.24.35.55.35.88h0ZM98.6,33.83s.02,0,.04.01v-.03s-.02,0-.04.01h0Z"></path>
    <g id="years">
      <path class="st2" d="M36.62,73.66c-.28.25-.67.37-1.19.37-.57,0-1.01-.13-1.33-.38-.31-.25-.47-.64-.47-1.16,0-.07,0-.16.02-.26.01-.1.03-.21.05-.32l.53-2.74h1.24l-.53,2.76c-.03.16-.05.29-.05.38,0,.27.07.45.2.55.14.1.34.16.61.16.2,0,.37-.02.51-.05.14-.04.26-.09.35-.17.09-.08.17-.19.23-.34.06-.14.11-.32.15-.53l.53-2.75h1.25l-.89,4.55c-.08.4-.18.73-.32,1.02-.13.28-.3.51-.52.69-.21.18-.46.31-.75.39-.29.08-.63.13-1.02.13h-.97c-.3,0-.62,0-.97-.02l.39-1.01c.23,0,.48.01.73.01.26,0,.52,0,.79,0,.4,0,.7-.08.91-.24.21-.16.36-.46.45-.88l.03-.15Z"></path>
      <path class="st2" d="M40.33,72.16s-.01.09-.01.13c0,.04,0,.07,0,.11,0,.3.08.53.23.67s.42.21.8.21h.49c.15,0,.29,0,.42,0,.13,0,.26,0,.39,0s.26-.01.41-.02l-.37.96c-.21.02-.44.03-.69.04-.25,0-.53,0-.84,0-.39,0-.71-.05-.98-.14-.26-.09-.47-.22-.63-.37-.16-.16-.27-.35-.34-.57-.07-.22-.1-.46-.1-.72,0-.14,0-.29.02-.43.02-.15.04-.3.07-.46.1-.53.25-.95.43-1.28.18-.33.4-.59.64-.77.24-.18.5-.31.79-.38.29-.07.58-.1.88-.1.65,0,1.13.12,1.43.36.3.24.45.57.45.99,0,.15-.02.31-.06.49-.1.46-.33.79-.68,1-.35.21-.89.31-1.6.31h-1.15ZM41.85,69.96c-.38,0-.67.09-.88.28-.2.18-.36.52-.48,1h.98c.19,0,.36,0,.49-.02.13-.02.24-.05.32-.09.08-.04.14-.1.19-.16s.08-.15.12-.24c.02-.06.03-.11.04-.16,0-.05,0-.08,0-.12,0-.15-.06-.27-.18-.36-.12-.09-.32-.13-.62-.13Z"></path>
      <path class="st2" d="M46.27,70.97c.32,0,.59.03.83.1.23.06.43.17.58.32l.03-.14c.01-.07.03-.15.04-.24.01-.09.02-.16.02-.21,0-.22-.08-.38-.23-.48-.16-.1-.42-.15-.79-.15h-.86c-.14,0-.28,0-.43,0-.15,0-.32,0-.51.01l.39-1.02c.21-.01.44-.02.71-.02h.81c.72,0,1.24.13,1.57.38.32.26.49.63.49,1.13,0,.1,0,.2-.02.3s-.03.21-.05.33l-.38,2.03c-.06.32-.18.55-.34.68-.16.13-.4.21-.72.24-.17.02-.37.04-.61.05-.24.01-.46.02-.67.02-.67,0-1.16-.11-1.48-.32-.32-.21-.48-.55-.48-1.01,0-.21.02-.41.07-.61.1-.44.31-.78.63-1.03.32-.25.8-.37,1.43-.37ZM46.41,71.85c-.34,0-.59.05-.75.16-.16.1-.27.29-.32.56-.02.11-.03.2-.03.27,0,.23.08.38.24.45.16.07.41.1.75.1.18,0,.35,0,.51,0s.31-.02.46-.04l.1-.47c.02-.08.03-.16.04-.23,0-.07,0-.13,0-.17,0-.23-.08-.39-.24-.49-.16-.1-.41-.15-.76-.15Z"></path>
      <path class="st2" d="M52.39,69.15c.19,0,.36,0,.52,0,.16,0,.28.01.36.02l-.4,1.03c-.1,0-.19-.01-.27-.01-.08,0-.17,0-.24,0-.21,0-.38.01-.53.04-.14.03-.26.09-.35.17-.09.08-.17.2-.22.34-.06.14-.11.33-.16.55l-.57,2.93h-1.24l.58-3.01c.08-.43.2-.78.34-1.05.14-.27.31-.48.52-.63.2-.15.44-.25.72-.31.28-.06.59-.08.95-.08Z"></path>
      <path class="st2" d="M54.84,70.67c0,.09.03.16.1.21.06.05.17.1.3.14l.83.23c.44.13.76.29.96.48.2.19.3.45.3.78,0,.13-.02.29-.05.47-.08.42-.3.74-.67.95s-.92.32-1.64.32h-.94c-.32,0-.65,0-1-.02l.37-1.03c.2,0,.37.01.51.01.14,0,.27,0,.39,0h.76c.18,0,.33,0,.45,0,.12,0,.22-.02.3-.04.08-.02.14-.06.18-.11.04-.05.07-.12.09-.2.01-.05.02-.1.02-.16,0-.1-.03-.18-.1-.25s-.19-.12-.35-.17l-.93-.25c-.32-.09-.57-.23-.76-.41-.19-.18-.28-.45-.28-.79,0-.06,0-.12,0-.19,0-.07.02-.14.03-.21.08-.43.3-.75.64-.96.34-.21.85-.32,1.52-.32h.48c.14,0,.29,0,.43,0,.15,0,.3,0,.46.01.16,0,.35.01.56.02l-.38,1.02c-.23,0-.42-.01-.58-.01-.16,0-.3,0-.43,0s-.24,0-.35,0h-.34c-.27,0-.46.02-.58.05-.12.03-.21.12-.26.25-.03.06-.04.13-.04.19Z"></path>
    </g>
    <g id="_x32_">
      <path class="st2" d="M20.11,61.88c-.83.33-1.52.68-2.06,1.04-.54.36-.98.78-1.33,1.25-.35.47-.62,1.03-.83,1.66-.21.64-.41,1.43-.6,2.37-.09.42-.19.84-.28,1.25,4.56.02,9.12.05,13.68.07-.43,1.14-.86,2.27-1.29,3.41H10l.87-4.53c.28-1.52.6-2.81.98-3.87.37-1.05.85-1.96,1.43-2.72.58-.76,1.31-1.42,2.18-1.98.87-.55,1.95-1.09,3.22-1.62l3.87-1.62c.91-.36,1.65-.71,2.2-1.06.55-.35.99-.72,1.31-1.12.32-.4.53-.86.64-1.37.11-.51.17-1.12.17-1.81,0-1.03-.32-1.77-.96-2.22-.64-.46-1.76-.69-3.37-.69h-2.27c-.68,0-1.33,0-1.95.02-.62.01-1.25.03-1.89.04-.64.01-1.33.04-2.08.06l1.41-3.7c.86-.03,1.61-.06,2.25-.08.64-.03,1.21-.05,1.73-.06.51-.01,1-.02,1.48-.02h1.54c2.97,0,5.14.53,6.53,1.6,1.39,1.07,2.08,2.6,2.08,4.6,0,.75-.08,1.54-.25,2.37-.19.91-.46,1.72-.81,2.41-.35.69-.8,1.31-1.37,1.85-.57.54-1.25,1.04-2.04,1.5-.79.46-1.73.91-2.81,1.35l-3.99,1.62Z"></path>
    </g>
  </g>
</svg>
