  0
SECTION
  2
HEADER
  9
$ACADVER
  1
AC1014
  9
$HANDSEED
  5
FFFF
  9
$MEASUREMENT
 70
     1
  0
ENDSEC
  0
SECTION
  2
TABLES
  0
TABLE
  2
VPORT
  5
8
330
0
100
AcDbSymbolTable
 70
     4
  0
VPORT
  5
2E
330
8
100
AcDbSymbolTableRecord
100
AcDbViewportTableRecord
  2
*ACTIVE
 70
     0
 10
0.0
 20
0.0
 11
1.0
 21
1.0
 12
210.0
 22
148.5
 13
0.0
 23
0.0
 14
10.0
 24
10.0
 15
10.0
 25
10.0
 16
0.0
 26
0.0
 36
1.0
 17
0.0
 27
0.0
 37
0.0
 40
341.0
 41
1.24
 42
50.0
 43
0.0
 44
0.0
 50
0.0
 51
0.0
 71
     0
 72
   100
 73
     1
 74
     3
 75
     0
 76
     0
 77
     0
 78
     0
  0
ENDTAB
  0
TABLE
  2
LTYPE
  5
5
330
0
100
AcDbSymbolTable
 70
     1
  0
LTYPE
  5
14
330
5
100
AcDbSymbolTableRecord
100
AcDbLinetypeTableRecord
  2
BYBLOCK
 70
     0
  3

 72
    65
 73
     0
 40
0.0
  0
LTYPE
  5
15
330
5
100
AcDbSymbolTableRecord
100
AcDbLinetypeTableRecord
  2
BYLAYER
 70
     0
  3

 72
    65
 73
     0
 40
0.0
  0
LTYPE
  5
16
330
5
100
AcDbSymbolTableRecord
100
AcDbLinetypeTableRecord
  2
CONTINUOUS
 70
     0
  3
Solid line
 72
    65
 73
     0
 40
0.0
  0
ENDTAB
  0
TABLE
  2
LAYER
  5
2
100
AcDbSymbolTable
 70
1
  0
LAYER
  5
50
100
AcDbSymbolTableRecord
100
AcDbLayerTableRecord
  2
0
 70
0
  6
CONTINUOUS
  0
ENDTAB
  0
TABLE
  2
STYLE
  5
3
330
0
100
AcDbSymbolTable
 70
     1
  0
STYLE
  5
11
330
3
100
AcDbSymbolTableRecord
100
AcDbTextStyleTableRecord
  2
STANDARD
 70
     0
 40
0.0
 41
1.0
 50
0.0
 71
     0
 42
2.5
  3
txt
  4

  0
ENDTAB
  0
TABLE
  2
VIEW
  5
6
330
0
100
AcDbSymbolTable
 70
     0
  0
ENDTAB
  0
TABLE
  2
UCS
  5
7
330
0
100
AcDbSymbolTable
 70
     0
  0
ENDTAB
  0
TABLE
  2
APPID
  5
9
330
0
100
AcDbSymbolTable
 70
     2
  0
APPID
  5
12
330
9
100
AcDbSymbolTableRecord
100
AcDbRegAppTableRecord
  2
ACAD
 70
     0
  0
ENDTAB
  0
TABLE
  2
DIMSTYLE
  5
A
330
0
100
AcDbSymbolTable
 70
     1
  0
DIMSTYLE
105
27
330
A
100
AcDbSymbolTableRecord
100
AcDbDimStyleTableRecord
  2
ISO-25
 70
     0
  3

  4

  5

  6

  7

 40
1.0
 41
2.5
 42
0.625
 43
3.75
 44
1.25
 45
0.0
 46
0.0
 47
0.0
 48
0.0
140
2.5
141
2.5
142
0.0
143
0.03937007874016
144
1.0
145
0.0
146
1.0
147
0.625
 71
     0
 72
     0
 73
     0
 74
     0
 75
     0
 76
     0
 77
     1
 78
     8
170
     0
171
     3
172
     1
173
     0
174
     0
175
     0
176
     0
177
     0
178
     0
270
     2
271
     2
272
     2
273
     2
274
     3
340
11
275
     0
280
     0
281
     0
282
     0
283
     0
284
     8
285
     0
286
     0
287
     3
288
     0
  0
ENDTAB
  0
TABLE
  2
BLOCK_RECORD
  5
1
330
0
100
AcDbSymbolTable
 70
     1
  0
BLOCK_RECORD
  5
1F
330
1
100
AcDbSymbolTableRecord
100
AcDbBlockTableRecord
  2
*MODEL_SPACE
  0
BLOCK_RECORD
  5
1B
330
1
100
AcDbSymbolTableRecord
100
AcDbBlockTableRecord
  2
*PAPER_SPACE
  0
ENDTAB
  0
ENDSEC
  0
SECTION
  2
BLOCKS
  0
BLOCK
  5
20
330
1F
100
AcDbEntity
  8
0
100
AcDbBlockBegin
  2
*MODEL_SPACE
 70
     0
 10
0.0
 20
0.0
 30
0.0
  3
*MODEL_SPACE
  1

  0
ENDBLK
  5
21
330
1F
100
AcDbEntity
  8
0
100
AcDbBlockEnd
  0
BLOCK
  5
1C
330
1B
100
AcDbEntity
 67
     1
  8
0
100
AcDbBlockBegin
  2
*PAPER_SPACE
  1

  0
ENDBLK
  5
1D
330
1B
100
AcDbEntity
 67
     1
  8
0
100
AcDbBlockEnd
  0
ENDSEC
  0
SECTION
  2
ENTITIES
  0
SPLINE
  5
100
100
AcDbEntity
  8
0
 62
7
100
AcDbSpline
 70
8
 71
3
 72
8
 73
4
 74
0
 40
0
 40
0
 40
0
 40
0
 40
1
 40
1
 40
1
 40
1
 10
74.527500
 20
10.252500
 30
0.0
 10
73.815000
 20
10.252500
 30
0.0
 10
73.245000
 20
10.822500
 30
0.0
 10
73.245000
 20
11.535000
 30
0.0
  0
LWPOLYLINE
  5
101
100
AcDbEntity
  8
0
 62
7
100
AcDbPolyline
 90
4
 70
1
 10
75.157500
 20
16.612500
 30
0.0
 10
118.800000
 20
16.612500
 30
0.0
 10
118.800000
 20
10.462500
 30
0.0
 10
75.157500
 20
10.462500
 30
0.0
  0
SPLINE
  5
102
100
AcDbEntity
  8
0
 62
7
100
AcDbSpline
 70
8
 71
3
 72
8
 73
4
 74
0
 40
0
 40
0
 40
0
 40
0
 40
1
 40
1
 40
1
 40
1
 10
73.245000
 20
15.480000
 30
0.0
 10
73.245000
 20
16.170000
 30
0.0
 10
73.815000
 20
16.740000
 30
0.0
 10
74.527500
 20
16.740000
 30
0.0
  0
LWPOLYLINE
  5
103
100
AcDbEntity
  8
0
 62
7
100
AcDbPolyline
 90
2
 70
0
 10
73.245000
 20
11.535000
 30
0.0
 10
73.245000
 20
15.480000
 30
0.0
  0
SPLINE
  5
104
100
AcDbEntity
  8
0
 62
7
100
AcDbSpline
 70
8
 71
3
 72
8
 73
4
 74
0
 40
0
 40
0
 40
0
 40
0
 40
1
 40
1
 40
1
 40
1
 10
118.777500
 20
16.740000
 30
0.0
 10
119.467500
 20
16.740000
 30
0.0
 10
120.037500
 20
16.170000
 30
0.0
 10
120.037500
 20
15.480000
 30
0.0
  0
LWPOLYLINE
  5
105
100
AcDbEntity
  8
0
 62
7
100
AcDbPolyline
 90
2
 70
0
 10
74.527500
 20
16.740000
 30
0.0
 10
118.777500
 20
16.740000
 30
0.0
  0
SPLINE
  5
106
100
AcDbEntity
  8
0
 62
7
100
AcDbSpline
 70
8
 71
3
 72
8
 73
4
 74
0
 40
0
 40
0
 40
0
 40
0
 40
1
 40
1
 40
1
 40
1
 10
120.037500
 20
11.535000
 30
0.0
 10
120.037500
 20
10.822500
 30
0.0
 10
119.467500
 20
10.252500
 30
0.0
 10
118.777500
 20
10.252500
 30
0.0
  0
LWPOLYLINE
  5
107
100
AcDbEntity
  8
0
 62
7
100
AcDbPolyline
 90
2
 70
0
 10
120.037500
 20
15.480000
 30
0.0
 10
120.037500
 20
11.535000
 30
0.0
  0
SPLINE
  5
108
100
AcDbEntity
  8
0
 62
7
100
AcDbSpline
 70
8
 71
3
 72
8
 73
4
 74
0
 40
0
 40
0
 40
0
 40
0
 40
1
 40
1
 40
1
 40
1
 10
111.750000
 20
14.932500
 30
0.0
 10
111.750000
 20
15.697500
 30
0.0
 10
111.060000
 20
16.072500
 30
0.0
 10
109.717500
 20
16.072500
 30
0.0
  0
LWPOLYLINE
  5
109
100
AcDbEntity
  8
0
 62
7
100
AcDbPolyline
 90
2
 70
0
 10
118.777500
 20
10.252500
 30
0.0
 10
74.527500
 20
10.252500
 30
0.0
  0
SPLINE
  5
10a
100
AcDbEntity
  8
0
 62
7
100
AcDbSpline
 70
8
 71
3
 72
8
 73
4
 74
0
 40
0
 40
0
 40
0
 40
0
 40
1
 40
1
 40
1
 40
1
 10
108.240000
 20
16.072500
 30
0.0
 10
106.882500
 20
16.072500
 30
0.0
 10
106.192500
 20
15.675000
 30
0.0
 10
106.192500
 20
14.910000
 30
0.0
  0
LWPOLYLINE
  5
10b
100
AcDbEntity
  8
0
 62
7
100
AcDbPolyline
 90
2
 70
0
 10
109.717500
 20
16.072500
 30
0.0
 10
108.240000
 20
16.072500
 30
0.0
  0
SPLINE
  5
10c
100
AcDbEntity
  8
0
 62
7
100
AcDbSpline
 70
8
 71
3
 72
8
 73
4
 74
0
 40
0
 40
0
 40
0
 40
0
 40
1
 40
1
 40
1
 40
1
 10
106.192500
 20
12.345000
 30
0.0
 10
106.192500
 20
12.165000
 30
0.0
 10
106.252500
 20
12.067500
 30
0.0
 10
106.365000
 20
12.030000
 30
0.0
  0
SPLINE
  5
10d
100
AcDbEntity
  8
0
 62
7
100
AcDbSpline
 70
8
 71
3
 72
8
 73
4
 74
0
 40
0
 40
0
 40
0
 40
0
 40
1
 40
1
 40
1
 40
1
 10
106.365000
 20
12.030000
 30
0.0
 10
106.425000
 20
12.007500
 30
0.0
 10
106.545000
 20
12.007500
 30
0.0
 10
106.762500
 20
12.007500
 30
0.0
  0
SPLINE
  5
10e
100
AcDbEntity
  8
0
 62
7
100
AcDbSpline
 70
8
 71
3
 72
8
 73
4
 74
0
 40
0
 40
0
 40
0
 40
0
 40
1
 40
1
 40
1
 40
1
 10
106.762500
 20
12.007500
 30
0.0
 10
106.980000
 20
12.007500
 30
0.0
 10
107.092500
 20
12.105000
 30
0.0
 10
107.092500
 20
12.345000
 30
0.0
  0
LWPOLYLINE
  5
10f
100
AcDbEntity
  8
0
 62
7
100
AcDbPolyline
 90
2
 70
0
 10
106.192500
 20
14.910000
 30
0.0
 10
106.192500
 20
12.345000
 30
0.0
  0
SPLINE
  5
110
100
AcDbEntity
  8
0
 62
7
100
AcDbSpline
 70
8
 71
3
 72
8
 73
4
 74
0
 40
0
 40
0
 40
0
 40
0
 40
1
 40
1
 40
1
 40
1
 10
107.092500
 20
14.925000
 30
0.0
 10
107.092500
 20
15.105000
 30
0.0
 10
107.250000
 20
15.240000
 30
0.0
 10
107.542500
 20
15.277500
 30
0.0
  0
SPLINE
  5
111
100
AcDbEntity
  8
0
 62
7
100
AcDbSpline
 70
8
 71
3
 72
8
 73
4
 74
0
 40
0
 40
0
 40
0
 40
0
 40
1
 40
1
 40
1
 40
1
 10
107.542500
 20
15.277500
 30
0.0
 10
107.662500
 20
15.300000
 30
0.0
 10
107.902500
 20
15.315000
 30
0.0
 10
108.255000
 20
15.315000
 30
0.0
  0
LWPOLYLINE
  5
112
100
AcDbEntity
  8
0
 62
7
100
AcDbPolyline
 90
2
 70
0
 10
107.092500
 20
12.345000
 30
0.0
 10
107.092500
 20
14.925000
 30
0.0
  0
SPLINE
  5
113
100
AcDbEntity
  8
0
 62
7
100
AcDbSpline
 70
8
 71
3
 72
8
 73
4
 74
0
 40
0
 40
0
 40
0
 40
0
 40
1
 40
1
 40
1
 40
1
 10
109.710000
 20
15.315000
 30
0.0
 10
110.047500
 20
15.315000
 30
0.0
 10
110.265000
 20
15.292500
 30
0.0
 10
110.385000
 20
15.277500
 30
0.0
  0
SPLINE
  5
114
100
AcDbEntity
  8
0
 62
7
100
AcDbSpline
 70
8
 71
3
 72
8
 73
4
 74
0
 40
0
 40
0
 40
0
 40
0
 40
1
 40
1
 40
1
 40
1
 10
110.385000
 20
15.277500
 30
0.0
 10
110.677500
 20
15.240000
 30
0.0
 10
110.842500
 20
15.120000
 30
0.0
 10
110.842500
 20
14.925000
 30
0.0
  0
LWPOLYLINE
  5
115
100
AcDbEntity
  8
0
 62
7
100
AcDbPolyline
 90
2
 70
0
 10
108.255000
 20
15.315000
 30
0.0
 10
109.710000
 20
15.315000
 30
0.0
  0
SPLINE
  5
116
100
AcDbEntity
  8
0
 62
7
100
AcDbSpline
 70
8
 71
3
 72
8
 73
4
 74
0
 40
0
 40
0
 40
0
 40
0
 40
1
 40
1
 40
1
 40
1
 10
110.842500
 20
12.345000
 30
0.0
 10
110.842500
 20
12.165000
 30
0.0
 10
110.902500
 20
12.067500
 30
0.0
 10
111.015000
 20
12.030000
 30
0.0
  0
SPLINE
  5
117
100
AcDbEntity
  8
0
 62
7
100
AcDbSpline
 70
8
 71
3
 72
8
 73
4
 74
0
 40
0
 40
0
 40
0
 40
0
 40
1
 40
1
 40
1
 40
1
 10
111.015000
 20
12.030000
 30
0.0
 10
111.075000
 20
12.007500
 30
0.0
 10
111.195000
 20
12.007500
 30
0.0
 10
111.412500
 20
12.007500
 30
0.0
  0
SPLINE
  5
118
100
AcDbEntity
  8
0
 62
7
100
AcDbSpline
 70
8
 71
3
 72
8
 73
4
 74
0
 40
0
 40
0
 40
0
 40
0
 40
1
 40
1
 40
1
 40
1
 10
111.412500
 20
12.007500
 30
0.0
 10
111.630000
 20
12.007500
 30
0.0
 10
111.750000
 20
12.105000
 30
0.0
 10
111.750000
 20
12.345000
 30
0.0
  0
LWPOLYLINE
  5
119
100
AcDbEntity
  8
0
 62
7
100
AcDbPolyline
 90
2
 70
0
 10
110.842500
 20
14.925000
 30
0.0
 10
110.842500
 20
12.345000
 30
0.0
  0
SPLINE
  5
11a
100
AcDbEntity
  8
0
 62
7
100
AcDbSpline
 70
8
 71
3
 72
8
 73
4
 74
0
 40
0
 40
0
 40
0
 40
0
 40
1
 40
1
 40
1
 40
1
 10
117.682500
 20
15.742500
 30
0.0
 10
117.682500
 20
15.900000
 30
0.0
 10
117.622500
 20
16.020000
 30
0.0
 10
117.502500
 20
16.057500
 30
0.0
  0
SPLINE
  5
11b
100
AcDbEntity
  8
0
 62
7
100
AcDbSpline
 70
8
 71
3
 72
8
 73
4
 74
0
 40
0
 40
0
 40
0
 40
0
 40
1
 40
1
 40
1
 40
1
 10
117.502500
 20
16.057500
 30
0.0
 10
117.442500
 20
16.080000
 30
0.0
 10
117.330000
 20
16.080000
 30
0.0
 10
117.105000
 20
16.080000
 30
0.0
  0
SPLINE
  5
11c
100
AcDbEntity
  8
0
 62
7
100
AcDbSpline
 70
8
 71
3
 72
8
 73
4
 74
0
 40
0
 40
0
 40
0
 40
0
 40
1
 40
1
 40
1
 40
1
 10
117.105000
 20
16.080000
 30
0.0
 10
116.880000
 20
16.080000
 30
0.0
 10
116.775000
 20
15.960000
 30
0.0
 10
116.775000
 20
15.742500
 30
0.0
  0
LWPOLYLINE
  5
11d
100
AcDbEntity
  8
0
 62
7
100
AcDbPolyline
 90
3
 70
0
 10
111.750000
 20
12.345000
 30
0.0
 10
111.750000
 20
14.925000
 30
0.0
 10
111.750000
 20
14.932500
 30
0.0
  0
SPLINE
  5
11e
100
AcDbEntity
  8
0
 62
7
100
AcDbSpline
 70
8
 71
3
 72
8
 73
4
 74
0
 40
0
 40
0
 40
0
 40
0
 40
1
 40
1
 40
1
 40
1
 10
114.090000
 20
12.787500
 30
0.0
 10
113.340000
 20
12.787500
 30
0.0
 10
112.965000
 20
12.945000
 30
0.0
 10
112.965000
 20
13.260000
 30
0.0
  0
LWPOLYLINE
  5
11f
100
AcDbEntity
  8
0
 62
7
100
AcDbPolyline
 90
3
 70
0
 10
116.775000
 20
15.742500
 30
0.0
 10
116.775000
 20
12.787500
 30
0.0
 10
114.090000
 20
12.787500
 30
0.0
  0
SPLINE
  5
120
100
AcDbEntity
  8
0
 62
7
100
AcDbSpline
 70
8
 71
3
 72
8
 73
4
 74
0
 40
0
 40
0
 40
0
 40
0
 40
1
 40
1
 40
1
 40
1
 10
112.965000
 20
15.742500
 30
0.0
 10
112.965000
 20
15.960000
 30
0.0
 10
112.867500
 20
16.080000
 30
0.0
 10
112.650000
 20
16.080000
 30
0.0
  0
SPLINE
  5
121
100
AcDbEntity
  8
0
 62
7
100
AcDbSpline
 70
8
 71
3
 72
8
 73
4
 74
0
 40
0
 40
0
 40
0
 40
0
 40
1
 40
1
 40
1
 40
1
 10
112.650000
 20
16.080000
 30
0.0
 10
112.432500
 20
16.080000
 30
0.0
 10
112.312500
 20
16.080000
 30
0.0
 10
112.260000
 20
16.057500
 30
0.0
  0
SPLINE
  5
122
100
AcDbEntity
  8
0
 62
7
100
AcDbSpline
 70
8
 71
3
 72
8
 73
4
 74
0
 40
0
 40
0
 40
0
 40
0
 40
1
 40
1
 40
1
 40
1
 10
112.260000
 20
16.057500
 30
0.0
 10
112.140000
 20
16.020000
 30
0.0
 10
112.080000
 20
15.922500
 30
0.0
 10
112.080000
 20
15.742500
 30
0.0
  0
LWPOLYLINE
  5
123
100
AcDbEntity
  8
0
 62
7
100
AcDbPolyline
 90
2
 70
0
 10
112.965000
 20
13.260000
 30
0.0
 10
112.965000
 20
15.742500
 30
0.0
  0
SPLINE
  5
124
100
AcDbEntity
  8
0
 62
7
100
AcDbSpline
 70
8
 71
3
 72
8
 73
4
 74
0
 40
0
 40
0
 40
0
 40
0
 40
1
 40
1
 40
1
 40
1
 10
112.080000
 20
13.260000
 30
0.0
 10
112.080000
 20
12.450000
 30
0.0
 10
112.747500
 20
12.037500
 30
0.0
 10
114.090000
 20
12.037500
 30
0.0
  0
LWPOLYLINE
  5
125
100
AcDbEntity
  8
0
 62
7
100
AcDbPolyline
 90
2
 70
0
 10
112.080000
 20
15.742500
 30
0.0
 10
112.080000
 20
13.260000
 30
0.0
  0
SPLINE
  5
126
100
AcDbEntity
  8
0
 62
7
100
AcDbSpline
 70
8
 71
3
 72
8
 73
4
 74
0
 40
0
 40
0
 40
0
 40
0
 40
1
 40
1
 40
1
 40
1
 10
116.775000
 20
12.037500
 30
0.0
 10
116.775000
 20
11.782500
 30
0.0
 10
116.377500
 20
11.640000
 30
0.0
 10
115.575000
 20
11.640000
 30
0.0
  0
SPLINE
  5
127
100
AcDbEntity
  8
0
 62
7
100
AcDbSpline
 70
8
 71
3
 72
8
 73
4
 74
0
 40
0
 40
0
 40
0
 40
0
 40
1
 40
1
 40
1
 40
1
 10
115.575000
 20
11.640000
 30
0.0
 10
115.575000
 20
11.640000
 30
0.0
 10
115.320000
 20
11.640000
 30
0.0
 10
115.237500
 20
11.640000
 30
0.0
  0
SPLINE
  5
128
100
AcDbEntity
  8
0
 62
7
100
AcDbSpline
 70
8
 71
3
 72
8
 73
4
 74
0
 40
0
 40
0
 40
0
 40
0
 40
1
 40
1
 40
1
 40
1
 10
115.237500
 20
11.640000
 30
0.0
 10
115.102500
 20
11.647500
 30
0.0
 10
115.087500
 20
11.655000
 30
0.0
 10
115.042500
 20
11.662500
 30
0.0
  0
SPLINE
  5
129
100
AcDbEntity
  8
0
 62
7
100
AcDbSpline
 70
8
 71
3
 72
8
 73
4
 74
0
 40
0
 40
0
 40
0
 40
0
 40
1
 40
1
 40
1
 40
1
 10
115.042500
 20
11.662500
 30
0.0
 10
114.810000
 20
11.685000
 30
0.0
 10
114.705000
 20
11.542500
 30
0.0
 10
114.705000
 20
11.325000
 30
0.0
  0
SPLINE
  5
12a
100
AcDbEntity
  8
0
 62
7
100
AcDbSpline
 70
8
 71
3
 72
8
 73
4
 74
0
 40
0
 40
0
 40
0
 40
0
 40
1
 40
1
 40
1
 40
1
 10
114.705000
 20
11.325000
 30
0.0
 10
114.705000
 20
11.167500
 30
0.0
 10
114.705000
 20
11.070000
 30
0.0
 10
114.742500
 20
11.010000
 30
0.0
  0
SPLINE
  5
12b
100
AcDbEntity
  8
0
 62
7
100
AcDbSpline
 70
8
 71
3
 72
8
 73
4
 74
0
 40
0
 40
0
 40
0
 40
0
 40
1
 40
1
 40
1
 40
1
 10
114.742500
 20
11.010000
 30
0.0
 10
114.802500
 20
10.927500
 30
0.0
 10
114.877500
 20
10.890000
 30
0.0
 10
115.035000
 20
10.890000
 30
0.0
  0
SPLINE
  5
12c
100
AcDbEntity
  8
0
 62
7
100
AcDbSpline
 70
8
 71
3
 72
8
 73
4
 74
0
 40
0
 40
0
 40
0
 40
0
 40
1
 40
1
 40
1
 40
1
 10
115.035000
 20
10.890000
 30
0.0
 10
115.822500
 20
10.890000
 30
0.0
 10
116.377500
 20
10.912500
 30
0.0
 10
116.670000
 20
10.987500
 30
0.0
  0
SPLINE
  5
12d
100
AcDbEntity
  8
0
 62
7
100
AcDbSpline
 70
8
 71
3
 72
8
 73
4
 74
0
 40
0
 40
0
 40
0
 40
0
 40
1
 40
1
 40
1
 40
1
 10
116.670000
 20
10.987500
 30
0.0
 10
117.337500
 20
11.145000
 30
0.0
 10
117.675000
 20
11.497500
 30
0.0
 10
117.675000
 20
12.067500
 30
0.0
  0
LWPOLYLINE
  5
12e
100
AcDbEntity
  8
0
 62
7
100
AcDbPolyline
 90
2
 70
0
 10
114.090000
 20
12.037500
 30
0.0
 10
116.775000
 20
12.037500
 30
0.0
  0
LWPOLYLINE
  5
12f
100
AcDbEntity
  8
0
 62
7
100
AcDbPolyline
 90
3
 70
0
 10
117.675000
 20
12.067500
 30
0.0
 10
117.675000
 20
15.735000
 30
0.0
 10
117.682500
 20
15.742500
 30
0.0
  0
SPLINE
  5
130
100
AcDbEntity
  8
0
 62
7
100
AcDbSpline
 70
8
 71
3
 72
8
 73
4
 74
0
 40
0
 40
0
 40
0
 40
0
 40
1
 40
1
 40
1
 40
1
 10
101.602500
 20
12.765000
 30
0.0
 10
101.407500
 20
12.765000
 30
0.0
 10
101.205000
 20
12.787500
 30
0.0
 10
101.010000
 20
12.862500
 30
0.0
  0
SPLINE
  5
131
100
AcDbEntity
  8
0
 62
7
100
AcDbSpline
 70
8
 71
3
 72
8
 73
4
 74
0
 40
0
 40
0
 40
0
 40
0
 40
1
 40
1
 40
1
 40
1
 10
101.010000
 20
12.862500
 30
0.0
 10
100.732500
 20
12.937500
 30
0.0
 10
100.597500
 20
13.057500
 30
0.0
 10
100.597500
 20
13.200000
 30
0.0
  0
LWPOLYLINE
  5
132
100
AcDbEntity
  8
0
 62
7
100
AcDbPolyline
 90
2
 70
0
 10
102.682500
 20
12.765000
 30
0.0
 10
101.602500
 20
12.765000
 30
0.0
  0
SPLINE
  5
133
100
AcDbEntity
  8
0
 62
7
100
AcDbSpline
 70
8
 71
3
 72
8
 73
4
 74
0
 40
0
 40
0
 40
0
 40
0
 40
1
 40
1
 40
1
 40
1
 10
100.597500
 20
13.710000
 30
0.0
 10
100.597500
 20
13.852500
 30
0.0
 10
100.732500
 20
13.965000
 30
0.0
 10
100.995000
 20
14.047500
 30
0.0
  0
SPLINE
  5
134
100
AcDbEntity
  8
0
 62
7
100
AcDbSpline
 70
8
 71
3
 72
8
 73
4
 74
0
 40
0
 40
0
 40
0
 40
0
 40
1
 40
1
 40
1
 40
1
 10
100.995000
 20
14.047500
 30
0.0
 10
101.190000
 20
14.130000
 30
0.0
 10
101.392500
 20
14.167500
 30
0.0
 10
101.565000
 20
14.167500
 30
0.0
  0
LWPOLYLINE
  5
135
100
AcDbEntity
  8
0
 62
7
100
AcDbPolyline
 90
2
 70
0
 10
100.597500
 20
13.200000
 30
0.0
 10
100.597500
 20
13.710000
 30
0.0
  0
SPLINE
  5
136
100
AcDbEntity
  8
0
 62
7
100
AcDbSpline
 70
8
 71
3
 72
8
 73
4
 74
0
 40
0
 40
0
 40
0
 40
0
 40
1
 40
1
 40
1
 40
1
 10
104.760000
 20
13.440000
 30
0.0
 10
104.760000
 20
13.185000
 30
0.0
 10
104.722500
 20
13.005000
 30
0.0
 10
104.602500
 20
12.930000
 30
0.0
  0
SPLINE
  5
137
100
AcDbEntity
  8
0
 62
7
100
AcDbSpline
 70
8
 71
3
 72
8
 73
4
 74
0
 40
0
 40
0
 40
0
 40
0
 40
1
 40
1
 40
1
 40
1
 10
104.602500
 20
12.930000
 30
0.0
 10
104.482500
 20
12.810000
 30
0.0
 10
104.227500
 20
12.772500
 30
0.0
 10
103.815000
 20
12.772500
 30
0.0
  0
LWPOLYLINE
  5
138
100
AcDbEntity
  8
0
 62
7
100
AcDbPolyline
 90
3
 70
0
 10
101.565000
 20
14.167500
 30
0.0
 10
104.760000
 20
14.167500
 30
0.0
 10
104.760000
 20
13.440000
 30
0.0
  0
LWPOLYLINE
  5
139
100
AcDbEntity
  8
0
 62
7
100
AcDbPolyline
 90
2
 70
0
 10
103.815000
 20
12.772500
 30
0.0
 10
102.690000
 20
12.772500
 30
0.0
  0
SPLINE
  5
13a
100
AcDbEntity
  8
0
 62
7
100
AcDbSpline
 70
8
 71
3
 72
8
 73
4
 74
0
 40
0
 40
0
 40
0
 40
0
 40
1
 40
1
 40
1
 40
1
 10
103.822500
 20
12.022500
 30
0.0
 10
105.045000
 20
12.022500
 30
0.0
 10
105.652500
 20
12.412500
 30
0.0
 10
105.652500
 20
13.245000
 30
0.0
  0
LWPOLYLINE
  5
13b
100
AcDbEntity
  8
0
 62
7
100
AcDbPolyline
 90
2
 70
0
 10
102.697500
 20
12.022500
 30
0.0
 10
103.822500
 20
12.022500
 30
0.0
  0
SPLINE
  5
13c
100
AcDbEntity
  8
0
 62
7
100
AcDbSpline
 70
8
 71
3
 72
8
 73
4
 74
0
 40
0
 40
0
 40
0
 40
0
 40
1
 40
1
 40
1
 40
1
 10
105.652500
 20
14.842500
 30
0.0
 10
105.652500
 20
15.397500
 30
0.0
 10
105.322500
 20
15.772500
 30
0.0
 10
104.670000
 20
15.945000
 30
0.0
  0
SPLINE
  5
13d
100
AcDbEntity
  8
0
 62
7
100
AcDbSpline
 70
8
 71
3
 72
8
 73
4
 74
0
 40
0
 40
0
 40
0
 40
0
 40
1
 40
1
 40
1
 40
1
 10
104.670000
 20
15.945000
 30
0.0
 10
104.332500
 20
16.042500
 30
0.0
 10
103.785000
 20
16.080000
 30
0.0
 10
103.035000
 20
16.080000
 30
0.0
  0
SPLINE
  5
13e
100
AcDbEntity
  8
0
 62
7
100
AcDbSpline
 70
8
 71
3
 72
8
 73
4
 74
0
 40
0
 40
0
 40
0
 40
0
 40
1
 40
1
 40
1
 40
1
 10
103.035000
 20
16.080000
 30
0.0
 10
102.817500
 20
16.080000
 30
0.0
 10
102.697500
 20
15.960000
 30
0.0
 10
102.697500
 20
15.742500
 30
0.0
  0
LWPOLYLINE
  5
13f
100
AcDbEntity
  8
0
 62
7
100
AcDbPolyline
 90
2
 70
0
 10
105.652500
 20
13.245000
 30
0.0
 10
105.652500
 20
14.842500
 30
0.0
  0
SPLINE
  5
140
100
AcDbEntity
  8
0
 62
7
100
AcDbSpline
 70
8
 71
3
 72
8
 73
4
 74
0
 40
0
 40
0
 40
0
 40
0
 40
1
 40
1
 40
1
 40
1
 10
102.697500
 20
15.660000
 30
0.0
 10
102.697500
 20
15.420000
 30
0.0
 10
102.817500
 20
15.322500
 30
0.0
 10
103.035000
 20
15.322500
 30
0.0
  0
LWPOLYLINE
  5
141
100
AcDbEntity
  8
0
 62
7
100
AcDbPolyline
 90
2
 70
0
 10
102.697500
 20
15.742500
 30
0.0
 10
102.697500
 20
15.660000
 30
0.0
  0
SPLINE
  5
142
100
AcDbEntity
  8
0
 62
7
100
AcDbSpline
 70
8
 71
3
 72
8
 73
4
 74
0
 40
0
 40
0
 40
0
 40
0
 40
1
 40
1
 40
1
 40
1
 10
103.567500
 20
15.322500
 30
0.0
 10
104.332500
 20
15.322500
 30
0.0
 10
104.730000
 20
15.187500
 30
0.0
 10
104.775000
 20
14.910000
 30
0.0
  0
LWPOLYLINE
  5
143
100
AcDbEntity
  8
0
 62
7
100
AcDbPolyline
 90
2
 70
0
 10
103.035000
 20
15.322500
 30
0.0
 10
103.567500
 20
15.322500
 30
0.0
  0
SPLINE
  5
144
100
AcDbEntity
  8
0
 62
7
100
AcDbSpline
 70
8
 71
3
 72
8
 73
4
 74
0
 40
0
 40
0
 40
0
 40
0
 40
1
 40
1
 40
1
 40
1
 10
101.602500
 20
14.910000
 30
0.0
 10
101.130000
 20
14.910000
 30
0.0
 10
100.717500
 20
14.812500
 30
0.0
 10
100.380000
 20
14.655000
 30
0.0
  0
SPLINE
  5
145
100
AcDbEntity
  8
0
 62
7
100
AcDbSpline
 70
8
 71
3
 72
8
 73
4
 74
0
 40
0
 40
0
 40
0
 40
0
 40
1
 40
1
 40
1
 40
1
 10
100.380000
 20
14.655000
 30
0.0
 10
99.930000
 20
14.437500
 30
0.0
 10
99.712500
 20
14.122500
 30
0.0
 10
99.712500
 20
13.710000
 30
0.0
  0
LWPOLYLINE
  5
146
100
AcDbEntity
  8
0
 62
7
100
AcDbPolyline
 90
2
 70
0
 10
104.775000
 20
14.910000
 30
0.0
 10
101.602500
 20
14.910000
 30
0.0
  0
SPLINE
  5
147
100
AcDbEntity
  8
0
 62
7
100
AcDbSpline
 70
8
 71
3
 72
8
 73
4
 74
0
 40
0
 40
0
 40
0
 40
0
 40
1
 40
1
 40
1
 40
1
 10
99.712500
 20
13.177500
 30
0.0
 10
99.712500
 20
12.802500
 30
0.0
 10
99.945000
 20
12.487500
 30
0.0
 10
100.402500
 20
12.270000
 30
0.0
  0
SPLINE
  5
148
100
AcDbEntity
  8
0
 62
7
100
AcDbSpline
 70
8
 71
3
 72
8
 73
4
 74
0
 40
0
 40
0
 40
0
 40
0
 40
1
 40
1
 40
1
 40
1
 10
100.402500
 20
12.270000
 30
0.0
 10
100.777500
 20
12.090000
 30
0.0
 10
101.190000
 20
12.015000
 30
0.0
 10
101.625000
 20
12.015000
 30
0.0
  0
LWPOLYLINE
  5
149
100
AcDbEntity
  8
0
 62
7
100
AcDbPolyline
 90
2
 70
0
 10
99.712500
 20
13.710000
 30
0.0
 10
99.712500
 20
13.177500
 30
0.0
  0
SPLINE
  5
14a
100
AcDbEntity
  8
0
 62
7
100
AcDbSpline
 70
8
 71
3
 72
8
 73
4
 74
0
 40
0
 40
0
 40
0
 40
0
 40
1
 40
1
 40
1
 40
1
 10
90.772500
 20
15.667500
 30
0.0
 10
90.772500
 20
15.945000
 30
0.0
 10
90.652500
 20
16.080000
 30
0.0
 10
90.435000
 20
16.080000
 30
0.0
  0
SPLINE
  5
14b
100
AcDbEntity
  8
0
 62
7
100
AcDbSpline
 70
8
 71
3
 72
8
 73
4
 74
0
 40
0
 40
0
 40
0
 40
0
 40
1
 40
1
 40
1
 40
1
 10
90.435000
 20
16.080000
 30
0.0
 10
88.875000
 20
16.080000
 30
0.0
 10
88.110000
 20
15.667500
 30
0.0
 10
88.110000
 20
14.820000
 30
0.0
  0
LWPOLYLINE
  5
14c
100
AcDbEntity
  8
0
 62
7
100
AcDbPolyline
 90
3
 70
0
 10
101.625000
 20
12.015000
 30
0.0
 10
102.705000
 20
12.015000
 30
0.0
 10
102.697500
 20
12.022500
 30
0.0
  0
SPLINE
  5
14d
100
AcDbEntity
  8
0
 62
7
100
AcDbSpline
 70
8
 71
3
 72
8
 73
4
 74
0
 40
0
 40
0
 40
0
 40
0
 40
1
 40
1
 40
1
 40
1
 10
88.110000
 20
12.352500
 30
0.0
 10
88.110000
 20
12.112500
 30
0.0
 10
88.207500
 20
12.015000
 30
0.0
 10
88.447500
 20
12.015000
 30
0.0
  0
SPLINE
  5
14e
100
AcDbEntity
  8
0
 62
7
100
AcDbSpline
 70
8
 71
3
 72
8
 73
4
 74
0
 40
0
 40
0
 40
0
 40
0
 40
1
 40
1
 40
1
 40
1
 10
88.447500
 20
12.015000
 30
0.0
 10
88.642500
 20
12.015000
 30
0.0
 10
88.785000
 20
12.015000
 30
0.0
 10
88.845000
 20
12.037500
 30
0.0
  0
SPLINE
  5
14f
100
AcDbEntity
  8
0
 62
7
100
AcDbSpline
 70
8
 71
3
 72
8
 73
4
 74
0
 40
0
 40
0
 40
0
 40
0
 40
1
 40
1
 40
1
 40
1
 10
88.845000
 20
12.037500
 30
0.0
 10
88.965000
 20
12.075000
 30
0.0
 10
89.025000
 20
12.172500
 30
0.0
 10
89.025000
 20
12.352500
 30
0.0
  0
LWPOLYLINE
  5
150
100
AcDbEntity
  8
0
 62
7
100
AcDbPolyline
 90
2
 70
0
 10
88.110000
 20
14.820000
 30
0.0
 10
88.110000
 20
12.352500
 30
0.0
  0
SPLINE
  5
151
100
AcDbEntity
  8
0
 62
7
100
AcDbSpline
 70
8
 71
3
 72
8
 73
4
 74
0
 40
0
 40
0
 40
0
 40
0
 40
1
 40
1
 40
1
 40
1
 10
89.025000
 20
14.820000
 30
0.0
 10
89.025000
 20
15.157500
 30
0.0
 10
89.362500
 20
15.330000
 30
0.0
 10
90.052500
 20
15.330000
 30
0.0
  0
LWPOLYLINE
  5
152
100
AcDbEntity
  8
0
 62
7
100
AcDbPolyline
 90
2
 70
0
 10
89.025000
 20
12.352500
 30
0.0
 10
89.025000
 20
14.820000
 30
0.0
  0
SPLINE
  5
153
100
AcDbEntity
  8
0
 62
7
100
AcDbSpline
 70
8
 71
3
 72
8
 73
4
 74
0
 40
0
 40
0
 40
0
 40
0
 40
1
 40
1
 40
1
 40
1
 10
90.450000
 20
15.330000
 30
0.0
 10
90.667500
 20
15.330000
 30
0.0
 10
90.787500
 20
15.427500
 30
0.0
 10
90.787500
 20
15.667500
 30
0.0
  0
SPLINE
  5
154
100
AcDbEntity
  8
0
 62
7
100
AcDbSpline
 70
8
 71
3
 72
8
 73
4
 74
0
 40
0
 40
0
 40
0
 40
0
 40
1
 40
1
 40
1
 40
1
 10
99.135000
 20
14.760000
 30
0.0
 10
99.135000
 20
15.645000
 30
0.0
 10
98.505000
 20
16.080000
 30
0.0
 10
97.260000
 20
16.080000
 30
0.0
  0
SPLINE
  5
155
100
AcDbEntity
  8
0
 62
7
100
AcDbSpline
 70
8
 71
3
 72
8
 73
4
 74
0
 40
0
 40
0
 40
0
 40
0
 40
1
 40
1
 40
1
 40
1
 10
97.260000
 20
16.080000
 30
0.0
 10
96.750000
 20
16.080000
 30
0.0
 10
96.412500
 20
16.080000
 30
0.0
 10
96.255000
 20
16.057500
 30
0.0
  0
SPLINE
  5
156
100
AcDbEntity
  8
0
 62
7
100
AcDbSpline
 70
8
 71
3
 72
8
 73
4
 74
0
 40
0
 40
0
 40
0
 40
0
 40
1
 40
1
 40
1
 40
1
 10
96.255000
 20
16.057500
 30
0.0
 10
95.902500
 20
16.005000
 30
0.0
 10
95.580000
 20
15.900000
 30
0.0
 10
95.310000
 20
15.720000
 30
0.0
  0
SPLINE
  5
157
100
AcDbEntity
  8
0
 62
7
100
AcDbSpline
 70
8
 71
3
 72
8
 73
4
 74
0
 40
0
 40
0
 40
0
 40
0
 40
1
 40
1
 40
1
 40
1
 10
95.310000
 20
15.720000
 30
0.0
 10
95.017500
 20
15.900000
 30
0.0
 10
94.717500
 20
16.012500
 30
0.0
 10
94.380000
 20
16.057500
 30
0.0
  0
SPLINE
  5
158
100
AcDbEntity
  8
0
 62
7
100
AcDbSpline
 70
8
 71
3
 72
8
 73
4
 74
0
 40
0
 40
0
 40
0
 40
0
 40
1
 40
1
 40
1
 40
1
 10
94.380000
 20
16.057500
 30
0.0
 10
94.260000
 20
16.080000
 30
0.0
 10
93.930000
 20
16.080000
 30
0.0
 10
93.397500
 20
16.080000
 30
0.0
  0
SPLINE
  5
159
100
AcDbEntity
  8
0
 62
7
100
AcDbSpline
 70
8
 71
3
 72
8
 73
4
 74
0
 40
0
 40
0
 40
0
 40
0
 40
1
 40
1
 40
1
 40
1
 10
93.397500
 20
16.080000
 30
0.0
 10
92.100000
 20
16.080000
 30
0.0
 10
91.447500
 20
15.645000
 30
0.0
 10
91.447500
 20
14.760000
 30
0.0
  0
LWPOLYLINE
  5
15a
100
AcDbEntity
  8
0
 62
7
100
AcDbPolyline
 90
2
 70
0
 10
90.052500
 20
15.330000
 30
0.0
 10
90.450000
 20
15.330000
 30
0.0
  0
SPLINE
  5
15b
100
AcDbEntity
  8
0
 62
7
100
AcDbSpline
 70
8
 71
3
 72
8
 73
4
 74
0
 40
0
 40
0
 40
0
 40
0
 40
1
 40
1
 40
1
 40
1
 10
91.447500
 20
12.352500
 30
0.0
 10
91.447500
 20
12.112500
 30
0.0
 10
91.545000
 20
12.015000
 30
0.0
 10
91.762500
 20
12.015000
 30
0.0
  0
SPLINE
  5
15c
100
AcDbEntity
  8
0
 62
7
100
AcDbSpline
 70
8
 71
3
 72
8
 73
4
 74
0
 40
0
 40
0
 40
0
 40
0
 40
1
 40
1
 40
1
 40
1
 10
91.762500
 20
12.015000
 30
0.0
 10
91.980000
 20
12.015000
 30
0.0
 10
92.100000
 20
12.015000
 30
0.0
 10
92.160000
 20
12.037500
 30
0.0
  0
SPLINE
  5
15d
100
AcDbEntity
  8
0
 62
7
100
AcDbSpline
 70
8
 71
3
 72
8
 73
4
 74
0
 40
0
 40
0
 40
0
 40
0
 40
1
 40
1
 40
1
 40
1
 10
92.160000
 20
12.037500
 30
0.0
 10
92.280000
 20
12.075000
 30
0.0
 10
92.332500
 20
12.172500
 30
0.0
 10
92.332500
 20
12.352500
 30
0.0
  0
LWPOLYLINE
  5
15e
100
AcDbEntity
  8
0
 62
7
100
AcDbPolyline
 90
2
 70
0
 10
91.447500
 20
14.760000
 30
0.0
 10
91.447500
 20
12.352500
 30
0.0
  0
SPLINE
  5
15f
100
AcDbEntity
  8
0
 62
7
100
AcDbSpline
 70
8
 71
3
 72
8
 73
4
 74
0
 40
0
 40
0
 40
0
 40
0
 40
1
 40
1
 40
1
 40
1
 10
92.332500
 20
14.835000
 30
0.0
 10
92.332500
 20
15.172500
 30
0.0
 10
92.730000
 20
15.330000
 30
0.0
 10
93.495000
 20
15.330000
 30
0.0
  0
LWPOLYLINE
  5
160
100
AcDbEntity
  8
0
 62
7
100
AcDbPolyline
 90
2
 70
0
 10
92.332500
 20
12.352500
 30
0.0
 10
92.332500
 20
14.835000
 30
0.0
  0
SPLINE
  5
161
100
AcDbEntity
  8
0
 62
7
100
AcDbSpline
 70
8
 71
3
 72
8
 73
4
 74
0
 40
0
 40
0
 40
0
 40
0
 40
1
 40
1
 40
1
 40
1
 10
94.005000
 20
15.330000
 30
0.0
 10
94.260000
 20
15.330000
 30
0.0
 10
94.462500
 20
15.292500
 30
0.0
 10
94.575000
 20
15.232500
 30
0.0
  0
SPLINE
  5
162
100
AcDbEntity
  8
0
 62
7
100
AcDbSpline
 70
8
 71
3
 72
8
 73
4
 74
0
 40
0
 40
0
 40
0
 40
0
 40
1
 40
1
 40
1
 40
1
 10
94.575000
 20
15.232500
 30
0.0
 10
94.755000
 20
15.157500
 30
0.0
 10
94.830000
 20
14.992500
 30
0.0
 10
94.830000
 20
14.737500
 30
0.0
  0
LWPOLYLINE
  5
163
100
AcDbEntity
  8
0
 62
7
100
AcDbPolyline
 90
2
 70
0
 10
93.495000
 20
15.330000
 30
0.0
 10
94.005000
 20
15.330000
 30
0.0
  0
SPLINE
  5
164
100
AcDbEntity
  8
0
 62
7
100
AcDbSpline
 70
8
 71
3
 72
8
 73
4
 74
0
 40
0
 40
0
 40
0
 40
0
 40
1
 40
1
 40
1
 40
1
 10
94.830000
 20
12.352500
 30
0.0
 10
94.830000
 20
12.112500
 30
0.0
 10
94.950000
 20
12.015000
 30
0.0
 10
95.167500
 20
12.015000
 30
0.0
  0
SPLINE
  5
165
100
AcDbEntity
  8
0
 62
7
100
AcDbSpline
 70
8
 71
3
 72
8
 73
4
 74
0
 40
0
 40
0
 40
0
 40
0
 40
1
 40
1
 40
1
 40
1
 10
95.167500
 20
12.015000
 30
0.0
 10
95.385000
 20
12.015000
 30
0.0
 10
95.505000
 20
12.015000
 30
0.0
 10
95.565000
 20
12.037500
 30
0.0
  0
SPLINE
  5
166
100
AcDbEntity
  8
0
 62
7
100
AcDbSpline
 70
8
 71
3
 72
8
 73
4
 74
0
 40
0
 40
0
 40
0
 40
0
 40
1
 40
1
 40
1
 40
1
 10
95.565000
 20
12.037500
 30
0.0
 10
95.685000
 20
12.075000
 30
0.0
 10
95.745000
 20
12.172500
 30
0.0
 10
95.745000
 20
12.352500
 30
0.0
  0
LWPOLYLINE
  5
167
100
AcDbEntity
  8
0
 62
7
100
AcDbPolyline
 90
2
 70
0
 10
94.830000
 20
14.737500
 30
0.0
 10
94.830000
 20
12.352500
 30
0.0
  0
SPLINE
  5
168
100
AcDbEntity
  8
0
 62
7
100
AcDbSpline
 70
8
 71
3
 72
8
 73
4
 74
0
 40
0
 40
0
 40
0
 40
0
 40
1
 40
1
 40
1
 40
1
 10
95.745000
 20
14.737500
 30
0.0
 10
95.745000
 20
15.127500
 30
0.0
 10
96.037500
 20
15.330000
 30
0.0
 10
96.652500
 20
15.330000
 30
0.0
  0
LWPOLYLINE
  5
169
100
AcDbEntity
  8
0
 62
7
100
AcDbPolyline
 90
2
 70
0
 10
95.745000
 20
12.352500
 30
0.0
 10
95.745000
 20
14.737500
 30
0.0
  0
SPLINE
  5
16a
100
AcDbEntity
  8
0
 62
7
100
AcDbSpline
 70
8
 71
3
 72
8
 73
4
 74
0
 40
0
 40
0
 40
0
 40
0
 40
1
 40
1
 40
1
 40
1
 10
97.102500
 20
15.330000
 30
0.0
 10
97.852500
 20
15.330000
 30
0.0
 10
98.227500
 20
15.172500
 30
0.0
 10
98.227500
 20
14.857500
 30
0.0
  0
LWPOLYLINE
  5
16b
100
AcDbEntity
  8
0
 62
7
100
AcDbPolyline
 90
2
 70
0
 10
96.652500
 20
15.330000
 30
0.0
 10
97.102500
 20
15.330000
 30
0.0
  0
SPLINE
  5
16c
100
AcDbEntity
  8
0
 62
7
100
AcDbSpline
 70
8
 71
3
 72
8
 73
4
 74
0
 40
0
 40
0
 40
0
 40
0
 40
1
 40
1
 40
1
 40
1
 10
98.227500
 20
12.352500
 30
0.0
 10
98.227500
 20
12.172500
 30
0.0
 10
98.310000
 20
12.075000
 30
0.0
 10
98.422500
 20
12.037500
 30
0.0
  0
SPLINE
  5
16d
100
AcDbEntity
  8
0
 62
7
100
AcDbSpline
 70
8
 71
3
 72
8
 73
4
 74
0
 40
0
 40
0
 40
0
 40
0
 40
1
 40
1
 40
1
 40
1
 10
98.422500
 20
12.037500
 30
0.0
 10
98.460000
 20
12.015000
 30
0.0
 10
98.602500
 20
12.015000
 30
0.0
 10
98.797500
 20
12.015000
 30
0.0
  0
SPLINE
  5
16e
100
AcDbEntity
  8
0
 62
7
100
AcDbSpline
 70
8
 71
3
 72
8
 73
4
 74
0
 40
0
 40
0
 40
0
 40
0
 40
1
 40
1
 40
1
 40
1
 10
98.797500
 20
12.015000
 30
0.0
 10
99.037500
 20
12.015000
 30
0.0
 10
99.135000
 20
12.112500
 30
0.0
 10
99.135000
 20
12.352500
 30
0.0
  0
LWPOLYLINE
  5
16f
100
AcDbEntity
  8
0
 62
7
100
AcDbPolyline
 90
2
 70
0
 10
98.227500
 20
14.857500
 30
0.0
 10
98.227500
 20
12.352500
 30
0.0
  0
LWPOLYLINE
  5
170
100
AcDbEntity
  8
0
 62
7
100
AcDbPolyline
 90
3
 70
0
 10
99.135000
 20
12.352500
 30
0.0
 10
99.135000
 20
14.760000
 30
0.0
 10
99.135000
 20
14.760000
 30
0.0
  0
SPLINE
  5
171
100
AcDbEntity
  8
0
 62
7
100
AcDbSpline
 70
8
 71
3
 72
8
 73
4
 74
0
 40
0
 40
0
 40
0
 40
0
 40
1
 40
1
 40
1
 40
1
 10
82.830000
 20
14.857500
 30
0.0
 10
82.830000
 20
15.172500
 30
0.0
 10
83.287500
 20
15.330000
 30
0.0
 10
84.187500
 20
15.330000
 30
0.0
  0
LWPOLYLINE
  5
172
100
AcDbEntity
  8
0
 62
7
100
AcDbPolyline
 90
3
 70
0
 10
84.630000
 20
14.385000
 30
0.0
 10
82.830000
 20
14.385000
 30
0.0
 10
82.830000
 20
14.857500
 30
0.0
  0
SPLINE
  5
173
100
AcDbEntity
  8
0
 62
7
100
AcDbSpline
 70
8
 71
3
 72
8
 73
4
 74
0
 40
0
 40
0
 40
0
 40
0
 40
1
 40
1
 40
1
 40
1
 10
84.855000
 20
15.352500
 30
0.0
 10
86.077500
 20
15.352500
 30
0.0
 10
86.685000
 20
15.195000
 30
0.0
 10
86.685000
 20
14.880000
 30
0.0
  0
LWPOLYLINE
  5
174
100
AcDbEntity
  8
0
 62
7
100
AcDbPolyline
 90
2
 70
0
 10
84.187500
 20
15.330000
 30
0.0
 10
84.855000
 20
15.352500
 30
0.0
  0
SPLINE
  5
175
100
AcDbEntity
  8
0
 62
7
100
AcDbSpline
 70
8
 71
3
 72
8
 73
4
 74
0
 40
0
 40
0
 40
0
 40
0
 40
1
 40
1
 40
1
 40
1
 10
84.750000
 20
12.030000
 30
0.0
 10
84.930000
 20
12.052500
 30
0.0
 10
85.020000
 20
12.157500
 30
0.0
 10
85.020000
 20
12.352500
 30
0.0
  0
SPLINE
  5
176
100
AcDbEntity
  8
0
 62
7
100
AcDbSpline
 70
8
 71
3
 72
8
 73
4
 74
0
 40
0
 40
0
 40
0
 40
0
 40
1
 40
1
 40
1
 40
1
 10
85.020000
 20
12.352500
 30
0.0
 10
85.020000
 20
12.585000
 30
0.0
 10
84.945000
 20
12.750000
 30
0.0
 10
84.765000
 20
12.765000
 30
0.0
  0
LWPOLYLINE
  5
177
100
AcDbEntity
  8
0
 62
7
100
AcDbPolyline
 90
4
 70
0
 10
86.685000
 20
14.880000
 30
0.0
 10
86.685000
 20
14.385000
 30
0.0
 10
84.622500
 20
14.385000
 30
0.0
 10
84.630000
 20
14.385000
 30
0.0
  0
SPLINE
  5
178
100
AcDbEntity
  8
0
 62
7
100
AcDbSpline
 70
8
 71
3
 72
8
 73
4
 74
0
 40
0
 40
0
 40
0
 40
0
 40
1
 40
1
 40
1
 40
1
 10
84.225000
 20
12.765000
 30
0.0
 10
83.280000
 20
12.765000
 30
0.0
 10
82.822500
 20
13.042500
 30
0.0
 10
82.867500
 20
13.612500
 30
0.0
  0
LWPOLYLINE
  5
179
100
AcDbEntity
  8
0
 62
7
100
AcDbPolyline
 90
3
 70
0
 10
84.765000
 20
12.765000
 30
0.0
 10
84.465000
 20
12.765000
 30
0.0
 10
84.225000
 20
12.765000
 30
0.0
  0
SPLINE
  5
17a
100
AcDbEntity
  8
0
 62
7
100
AcDbSpline
 70
8
 71
3
 72
8
 73
4
 74
0
 40
0
 40
0
 40
0
 40
0
 40
1
 40
1
 40
1
 40
1
 10
87.360000
 20
13.612500
 30
0.0
 10
87.480000
 20
13.612500
 30
0.0
 10
87.562500
 20
13.732500
 30
0.0
 10
87.562500
 20
13.965000
 30
0.0
  0
LWPOLYLINE
  5
17b
100
AcDbEntity
  8
0
 62
7
100
AcDbPolyline
 90
2
 70
0
 10
82.867500
 20
13.612500
 30
0.0
 10
87.360000
 20
13.612500
 30
0.0
  0
SPLINE
  5
17c
100
AcDbEntity
  8
0
 62
7
100
AcDbSpline
 70
8
 71
3
 72
8
 73
4
 74
0
 40
0
 40
0
 40
0
 40
0
 40
1
 40
1
 40
1
 40
1
 10
87.562500
 20
14.955000
 30
0.0
 10
87.562500
 20
15.352500
 30
0.0
 10
87.345000
 20
15.645000
 30
0.0
 10
86.910000
 20
15.840000
 30
0.0
  0
SPLINE
  5
17d
100
AcDbEntity
  8
0
 62
7
100
AcDbSpline
 70
8
 71
3
 72
8
 73
4
 74
0
 40
0
 40
0
 40
0
 40
0
 40
1
 40
1
 40
1
 40
1
 10
86.910000
 20
15.840000
 30
0.0
 10
86.595000
 20
15.997500
 30
0.0
 10
86.197500
 20
16.072500
 30
0.0
 10
85.747500
 20
16.087500
 30
0.0
  0
LWPOLYLINE
  5
17e
100
AcDbEntity
  8
0
 62
7
100
AcDbPolyline
 90
2
 70
0
 10
87.562500
 20
13.965000
 30
0.0
 10
87.562500
 20
14.955000
 30
0.0
  0
SPLINE
  5
17f
100
AcDbEntity
  8
0
 62
7
100
AcDbSpline
 70
8
 71
3
 72
8
 73
4
 74
0
 40
0
 40
0
 40
0
 40
0
 40
1
 40
1
 40
1
 40
1
 10
84.090000
 20
16.087500
 30
0.0
 10
83.535000
 20
16.072500
 30
0.0
 10
83.085000
 20
15.997500
 30
0.0
 10
82.710000
 20
15.840000
 30
0.0
  0
SPLINE
  5
180
100
AcDbEntity
  8
0
 62
7
100
AcDbSpline
 70
8
 71
3
 72
8
 73
4
 74
0
 40
0
 40
0
 40
0
 40
0
 40
1
 40
1
 40
1
 40
1
 10
82.710000
 20
15.840000
 30
0.0
 10
82.200000
 20
15.600000
 30
0.0
 10
81.937500
 20
15.270000
 30
0.0
 10
81.937500
 20
14.797500
 30
0.0
  0
LWPOLYLINE
  5
181
100
AcDbEntity
  8
0
 62
7
100
AcDbPolyline
 90
2
 70
0
 10
85.747500
 20
16.087500
 30
0.0
 10
84.090000
 20
16.087500
 30
0.0
  0
SPLINE
  5
182
100
AcDbEntity
  8
0
 62
7
100
AcDbSpline
 70
8
 71
3
 72
8
 73
4
 74
0
 40
0
 40
0
 40
0
 40
0
 40
1
 40
1
 40
1
 40
1
 10
81.937500
 20
13.297500
 30
0.0
 10
81.937500
 20
12.945000
 30
0.0
 10
82.095000
 20
12.645000
 30
0.0
 10
82.432500
 20
12.390000
 30
0.0
  0
SPLINE
  5
183
100
AcDbEntity
  8
0
 62
7
100
AcDbSpline
 70
8
 71
3
 72
8
 73
4
 74
0
 40
0
 40
0
 40
0
 40
0
 40
1
 40
1
 40
1
 40
1
 10
82.432500
 20
12.390000
 30
0.0
 10
82.665000
 20
12.210000
 30
0.0
 10
83.025000
 20
12.097500
 30
0.0
 10
83.520000
 20
12.037500
 30
0.0
  0
SPLINE
  5
184
100
AcDbEntity
  8
0
 62
7
100
AcDbSpline
 70
8
 71
3
 72
8
 73
4
 74
0
 40
0
 40
0
 40
0
 40
0
 40
1
 40
1
 40
1
 40
1
 10
83.520000
 20
12.037500
 30
0.0
 10
83.715000
 20
12.015000
 30
0.0
 10
84.750000
 20
12.030000
 30
0.0
 10
84.750000
 20
12.030000
 30
0.0
  0
LWPOLYLINE
  5
185
100
AcDbEntity
  8
0
 62
7
100
AcDbPolyline
 90
2
 70
0
 10
81.937500
 20
14.797500
 30
0.0
 10
81.937500
 20
13.297500
 30
0.0
  0
SPLINE
  5
186
100
AcDbEntity
  8
0
 62
7
100
AcDbSpline
 70
8
 71
3
 72
8
 73
4
 74
0
 40
0
 40
0
 40
0
 40
0
 40
1
 40
1
 40
1
 40
1
 10
79.260000
 20
15.330000
 30
0.0
 10
79.515000
 20
15.330000
 30
0.0
 10
79.755000
 20
15.292500
 30
0.0
 10
79.987500
 20
15.232500
 30
0.0
  0
SPLINE
  5
187
100
AcDbEntity
  8
0
 62
7
100
AcDbSpline
 70
8
 71
3
 72
8
 73
4
 74
0
 40
0
 40
0
 40
0
 40
0
 40
1
 40
1
 40
1
 40
1
 10
79.987500
 20
15.232500
 30
0.0
 10
80.347500
 20
15.112500
 30
0.0
 10
80.497500
 20
14.977500
 30
0.0
 10
80.497500
 20
14.760000
 30
0.0
  0
LWPOLYLINE
  5
188
100
AcDbEntity
  8
0
 62
7
100
AcDbPolyline
 90
1
 70
1
 10
84.750000
 20
12.030000
 30
0.0
  0
SPLINE
  5
189
100
AcDbEntity
  8
0
 62
7
100
AcDbSpline
 70
8
 71
3
 72
8
 73
4
 74
0
 40
0
 40
0
 40
0
 40
0
 40
1
 40
1
 40
1
 40
1
 10
78.015000
 20
12.787500
 30
0.0
 10
77.145000
 20
12.787500
 30
0.0
 10
76.695000
 20
12.967500
 30
0.0
 10
76.695000
 20
13.320000
 30
0.0
  0
LWPOLYLINE
  5
18a
100
AcDbEntity
  8
0
 62
7
100
AcDbPolyline
 90
3
 70
0
 10
80.497500
 20
14.760000
 30
0.0
 10
80.497500
 20
12.787500
 30
0.0
 10
78.015000
 20
12.787500
 30
0.0
  0
SPLINE
  5
18b
100
AcDbEntity
  8
0
 62
7
100
AcDbSpline
 70
8
 71
3
 72
8
 73
4
 74
0
 40
0
 40
0
 40
0
 40
0
 40
1
 40
1
 40
1
 40
1
 10
76.695000
 20
14.835000
 30
0.0
 10
76.695000
 20
15.052500
 30
0.0
 10
76.852500
 20
15.210000
 30
0.0
 10
77.152500
 20
15.270000
 30
0.0
  0
SPLINE
  5
18c
100
AcDbEntity
  8
0
 62
7
100
AcDbSpline
 70
8
 71
3
 72
8
 73
4
 74
0
 40
0
 40
0
 40
0
 40
0
 40
1
 40
1
 40
1
 40
1
 10
77.152500
 20
15.270000
 30
0.0
 10
77.287500
 20
15.307500
 30
0.0
 10
77.527500
 20
15.330000
 30
0.0
 10
77.842500
 20
15.330000
 30
0.0
  0
LWPOLYLINE
  5
18d
100
AcDbEntity
  8
0
 62
7
100
AcDbPolyline
 90
2
 70
0
 10
76.695000
 20
13.320000
 30
0.0
 10
76.695000
 20
14.835000
 30
0.0
  0
SPLINE
  5
18e
100
AcDbEntity
  8
0
 62
7
100
AcDbSpline
 70
8
 71
3
 72
8
 73
4
 74
0
 40
0
 40
0
 40
0
 40
0
 40
1
 40
1
 40
1
 40
1
 10
80.482500
 20
12.037500
 30
0.0
 10
80.482500
 20
11.955000
 30
0.0
 10
80.302500
 20
11.857500
 30
0.0
 10
79.972500
 20
11.760000
 30
0.0
  0
SPLINE
  5
18f
100
AcDbEntity
  8
0
 62
7
100
AcDbSpline
 70
8
 71
3
 72
8
 73
4
 74
0
 40
0
 40
0
 40
0
 40
0
 40
1
 40
1
 40
1
 40
1
 10
79.972500
 20
11.760000
 30
0.0
 10
79.695000
 20
11.677500
 30
0.0
 10
79.477500
 20
11.640000
 30
0.0
 10
79.342500
 20
11.640000
 30
0.0
  0
SPLINE
  5
190
100
AcDbEntity
  8
0
 62
7
100
AcDbSpline
 70
8
 71
3
 72
8
 73
4
 74
0
 40
0
 40
0
 40
0
 40
0
 40
1
 40
1
 40
1
 40
1
 10
79.342500
 20
11.640000
 30
0.0
 10
79.342500
 20
11.640000
 30
0.0
 10
78.780000
 20
11.625000
 30
0.0
 10
78.592500
 20
11.610000
 30
0.0
  0
SPLINE
  5
191
100
AcDbEntity
  8
0
 62
7
100
AcDbSpline
 70
8
 71
3
 72
8
 73
4
 74
0
 40
0
 40
0
 40
0
 40
0
 40
1
 40
1
 40
1
 40
1
 10
78.592500
 20
11.610000
 30
0.0
 10
78.435000
 20
11.602500
 30
0.0
 10
78.360000
 20
11.482500
 30
0.0
 10
78.360000
 20
11.302500
 30
0.0
  0
SPLINE
  5
192
100
AcDbEntity
  8
0
 62
7
100
AcDbSpline
 70
8
 71
3
 72
8
 73
4
 74
0
 40
0
 40
0
 40
0
 40
0
 40
1
 40
1
 40
1
 40
1
 10
78.360000
 20
11.302500
 30
0.0
 10
78.360000
 20
11.062500
 30
0.0
 10
78.435000
 20
10.897500
 30
0.0
 10
78.592500
 20
10.882500
 30
0.0
  0
SPLINE
  5
193
100
AcDbEntity
  8
0
 62
7
100
AcDbSpline
 70
8
 71
3
 72
8
 73
4
 74
0
 40
0
 40
0
 40
0
 40
0
 40
1
 40
1
 40
1
 40
1
 10
78.592500
 20
10.882500
 30
0.0
 10
78.615000
 20
10.882500
 30
0.0
 10
79.065000
 20
10.890000
 30
0.0
 10
79.065000
 20
10.890000
 30
0.0
  0
SPLINE
  5
194
100
AcDbEntity
  8
0
 62
7
100
AcDbSpline
 70
8
 71
3
 72
8
 73
4
 74
0
 40
0
 40
0
 40
0
 40
0
 40
1
 40
1
 40
1
 40
1
 10
79.065000
 20
10.890000
 30
0.0
 10
79.620000
 20
10.890000
 30
0.0
 10
80.107500
 20
10.972500
 30
0.0
 10
80.520000
 20
11.107500
 30
0.0
  0
SPLINE
  5
195
100
AcDbEntity
  8
0
 62
7
100
AcDbSpline
 70
8
 71
3
 72
8
 73
4
 74
0
 40
0
 40
0
 40
0
 40
0
 40
1
 40
1
 40
1
 40
1
 10
80.520000
 20
11.107500
 30
0.0
 10
81.112500
 20
11.340000
 30
0.0
 10
81.412500
 20
11.677500
 30
0.0
 10
81.412500
 20
12.150000
 30
0.0
  0
LWPOLYLINE
  5
196
100
AcDbEntity
  8
0
 62
7
100
AcDbPolyline
 90
3
 70
0
 10
77.842500
 20
15.330000
 30
0.0
 10
79.260000
 20
15.330000
 30
0.0
 10
79.260000
 20
15.330000
 30
0.0
  0
SPLINE
  5
197
100
AcDbEntity
  8
0
 62
7
100
AcDbSpline
 70
8
 71
3
 72
8
 73
4
 74
0
 40
0
 40
0
 40
0
 40
0
 40
1
 40
1
 40
1
 40
1
 10
81.412500
 20
14.790000
 30
0.0
 10
81.412500
 20
15.262500
 30
0.0
 10
81.135000
 20
15.615000
 30
0.0
 10
80.565000
 20
15.832500
 30
0.0
  0
SPLINE
  5
198
100
AcDbEntity
  8
0
 62
7
100
AcDbSpline
 70
8
 71
3
 72
8
 73
4
 74
0
 40
0
 40
0
 40
0
 40
0
 40
1
 40
1
 40
1
 40
1
 10
80.565000
 20
15.832500
 30
0.0
 10
80.152500
 20
15.990000
 30
0.0
 10
79.680000
 20
16.080000
 30
0.0
 10
79.125000
 20
16.080000
 30
0.0
  0
LWPOLYLINE
  5
199
100
AcDbEntity
  8
0
 62
7
100
AcDbPolyline
 90
2
 70
0
 10
81.412500
 20
12.150000
 30
0.0
 10
81.412500
 20
14.790000
 30
0.0
  0
SPLINE
  5
19a
100
AcDbEntity
  8
0
 62
7
100
AcDbSpline
 70
8
 71
3
 72
8
 73
4
 74
0
 40
0
 40
0
 40
0
 40
0
 40
1
 40
1
 40
1
 40
1
 10
78.315000
 20
16.080000
 30
0.0
 10
76.657500
 20
16.080000
 30
0.0
 10
75.810000
 20
15.652500
 30
0.0
 10
75.810000
 20
14.805000
 30
0.0
  0
LWPOLYLINE
  5
19b
100
AcDbEntity
  8
0
 62
7
100
AcDbPolyline
 90
2
 70
0
 10
79.125000
 20
16.080000
 30
0.0
 10
78.315000
 20
16.080000
 30
0.0
  0
SPLINE
  5
19c
100
AcDbEntity
  8
0
 62
7
100
AcDbSpline
 70
8
 71
3
 72
8
 73
4
 74
0
 40
0
 40
0
 40
0
 40
0
 40
1
 40
1
 40
1
 40
1
 10
75.810000
 20
13.290000
 30
0.0
 10
75.810000
 20
12.817500
 30
0.0
 10
76.087500
 20
12.465000
 30
0.0
 10
76.620000
 20
12.247500
 30
0.0
  0
SPLINE
  5
19d
100
AcDbEntity
  8
0
 62
7
100
AcDbSpline
 70
8
 71
3
 72
8
 73
4
 74
0
 40
0
 40
0
 40
0
 40
0
 40
1
 40
1
 40
1
 40
1
 10
76.620000
 20
12.247500
 30
0.0
 10
76.995000
 20
12.112500
 30
0.0
 10
77.467500
 20
12.030000
 30
0.0
 10
78.037500
 20
12.030000
 30
0.0
  0
LWPOLYLINE
  5
19e
100
AcDbEntity
  8
0
 62
7
100
AcDbPolyline
 90
2
 70
0
 10
75.810000
 20
14.805000
 30
0.0
 10
75.810000
 20
13.290000
 30
0.0
  0
SPLINE
  5
19f
100
AcDbEntity
  8
0
 62
7
100
AcDbSpline
 70
8
 71
3
 72
8
 73
4
 74
0
 40
0
 40
0
 40
0
 40
0
 40
1
 40
1
 40
1
 40
1
 10
67.357500
 20
10.402500
 30
0.0
 10
67.357500
 20
10.027500
 30
0.0
 10
67.177500
 20
9.847500
 30
0.0
 10
66.802500
 20
9.847500
 30
0.0
  0
SPLINE
  5
1a0
100
AcDbEntity
  8
0
 62
7
100
AcDbSpline
 70
8
 71
3
 72
8
 73
4
 74
0
 40
0
 40
0
 40
0
 40
0
 40
1
 40
1
 40
1
 40
1
 10
66.802500
 20
9.847500
 30
0.0
 10
66.465000
 20
9.847500
 30
0.0
 10
66.247500
 20
9.870000
 30
0.0
 10
66.172500
 20
9.885000
 30
0.0
  0
SPLINE
  5
1a1
100
AcDbEntity
  8
0
 62
7
100
AcDbSpline
 70
8
 71
3
 72
8
 73
4
 74
0
 40
0
 40
0
 40
0
 40
0
 40
1
 40
1
 40
1
 40
1
 10
66.172500
 20
9.885000
 30
0.0
 10
65.977500
 20
9.967500
 30
0.0
 10
65.880000
 20
10.125000
 30
0.0
 10
65.880000
 20
10.395000
 30
0.0
  0
LWPOLYLINE
  5
1a2
100
AcDbEntity
  8
0
 62
7
100
AcDbPolyline
 90
3
 70
0
 10
78.037500
 20
12.030000
 30
0.0
 10
80.482500
 20
12.030000
 30
0.0
 10
80.482500
 20
12.037500
 30
0.0
  0
SPLINE
  5
1a3
100
AcDbEntity
  8
0
 62
7
100
AcDbSpline
 70
8
 71
3
 72
8
 73
4
 74
0
 40
0
 40
0
 40
0
 40
0
 40
1
 40
1
 40
1
 40
1
 10
65.880000
 20
14.632500
 30
0.0
 10
65.880000
 20
14.925000
 30
0.0
 10
65.625000
 20
15.120000
 30
0.0
 10
65.130000
 20
15.225000
 30
0.0
  0
SPLINE
  5
1a4
100
AcDbEntity
  8
0
 62
7
100
AcDbSpline
 70
8
 71
3
 72
8
 73
4
 74
0
 40
0
 40
0
 40
0
 40
0
 40
1
 40
1
 40
1
 40
1
 10
65.130000
 20
15.225000
 30
0.0
 10
64.957500
 20
15.247500
 30
0.0
 10
64.575000
 20
15.262500
 30
0.0
 10
64.050000
 20
15.262500
 30
0.0
  0
LWPOLYLINE
  5
1a5
100
AcDbEntity
  8
0
 62
7
100
AcDbPolyline
 90
2
 70
0
 10
65.880000
 20
10.395000
 30
0.0
 10
65.880000
 20
14.632500
 30
0.0
  0
SPLINE
  5
1a6
100
AcDbEntity
  8
0
 62
7
100
AcDbSpline
 70
8
 71
3
 72
8
 73
4
 74
0
 40
0
 40
0
 40
0
 40
0
 40
1
 40
1
 40
1
 40
1
 10
61.642500
 20
15.262500
 30
0.0
 10
61.072500
 20
15.262500
 30
0.0
 10
60.697500
 20
15.240000
 30
0.0
 10
60.517500
 20
15.225000
 30
0.0
  0
SPLINE
  5
1a7
100
AcDbEntity
  8
0
 62
7
100
AcDbSpline
 70
8
 71
3
 72
8
 73
4
 74
0
 40
0
 40
0
 40
0
 40
0
 40
1
 40
1
 40
1
 40
1
 10
60.517500
 20
15.225000
 30
0.0
 10
60.007500
 20
15.127500
 30
0.0
 10
59.745000
 20
14.932500
 30
0.0
 10
59.745000
 20
14.617500
 30
0.0
  0
LWPOLYLINE
  5
1a8
100
AcDbEntity
  8
0
 62
7
100
AcDbPolyline
 90
2
 70
0
 10
64.050000
 20
15.262500
 30
0.0
 10
61.642500
 20
15.262500
 30
0.0
  0
SPLINE
  5
1a9
100
AcDbEntity
  8
0
 62
7
100
AcDbSpline
 70
8
 71
3
 72
8
 73
4
 74
0
 40
0
 40
0
 40
0
 40
0
 40
1
 40
1
 40
1
 40
1
 10
59.745000
 20
10.402500
 30
0.0
 10
59.745000
 20
10.027500
 30
0.0
 10
59.565000
 20
9.847500
 30
0.0
 10
59.212500
 20
9.847500
 30
0.0
  0
SPLINE
  5
1aa
100
AcDbEntity
  8
0
 62
7
100
AcDbSpline
 70
8
 71
3
 72
8
 73
4
 74
0
 40
0
 40
0
 40
0
 40
0
 40
1
 40
1
 40
1
 40
1
 10
59.212500
 20
9.847500
 30
0.0
 10
58.860000
 20
9.847500
 30
0.0
 10
58.665000
 20
9.870000
 30
0.0
 10
58.582500
 20
9.885000
 30
0.0
  0
SPLINE
  5
1ab
100
AcDbEntity
  8
0
 62
7
100
AcDbSpline
 70
8
 71
3
 72
8
 73
4
 74
0
 40
0
 40
0
 40
0
 40
0
 40
1
 40
1
 40
1
 40
1
 10
58.582500
 20
9.885000
 30
0.0
 10
58.387500
 20
9.967500
 30
0.0
 10
58.290000
 20
10.125000
 30
0.0
 10
58.290000
 20
10.395000
 30
0.0
  0
LWPOLYLINE
  5
1ac
100
AcDbEntity
  8
0
 62
7
100
AcDbPolyline
 90
2
 70
0
 10
59.745000
 20
14.617500
 30
0.0
 10
59.745000
 20
10.402500
 30
0.0
  0
SPLINE
  5
1ad
100
AcDbEntity
  8
0
 62
7
100
AcDbSpline
 70
8
 71
3
 72
8
 73
4
 74
0
 40
0
 40
0
 40
0
 40
0
 40
1
 40
1
 40
1
 40
1
 10
58.290000
 20
14.610000
 30
0.0
 10
58.290000
 20
15.870000
 30
0.0
 10
59.415000
 20
16.500000
 30
0.0
 10
61.642500
 20
16.500000
 30
0.0
  0
LWPOLYLINE
  5
1ae
100
AcDbEntity
  8
0
 62
7
100
AcDbPolyline
 90
2
 70
0
 10
58.290000
 20
10.395000
 30
0.0
 10
58.290000
 20
14.610000
 30
0.0
  0
SPLINE
  5
1af
100
AcDbEntity
  8
0
 62
7
100
AcDbSpline
 70
8
 71
3
 72
8
 73
4
 74
0
 40
0
 40
0
 40
0
 40
0
 40
1
 40
1
 40
1
 40
1
 10
64.050000
 20
16.500000
 30
0.0
 10
66.255000
 20
16.500000
 30
0.0
 10
67.357500
 20
15.870000
 30
0.0
 10
67.357500
 20
14.610000
 30
0.0
  0
LWPOLYLINE
  5
1b0
100
AcDbEntity
  8
0
 62
7
100
AcDbPolyline
 90
2
 70
0
 10
61.642500
 20
16.500000
 30
0.0
 10
64.050000
 20
16.500000
 30
0.0
  0
SPLINE
  5
1b1
100
AcDbEntity
  8
0
 62
7
100
AcDbSpline
 70
8
 71
3
 72
8
 73
4
 74
0
 40
0
 40
0
 40
0
 40
0
 40
1
 40
1
 40
1
 40
1
 10
73.117500
 20
15.765000
 30
0.0
 10
73.117500
 20
15.412500
 30
0.0
 10
72.922500
 20
15.232500
 30
0.0
 10
72.562500
 20
15.232500
 30
0.0
  0
LWPOLYLINE
  5
1b2
100
AcDbEntity
  8
0
 62
7
100
AcDbPolyline
 90
3
 70
0
 10
67.357500
 20
14.610000
 30
0.0
 10
67.357500
 20
10.395000
 30
0.0
 10
67.357500
 20
10.402500
 30
0.0
  0
SPLINE
  5
1b3
100
AcDbEntity
  8
0
 62
7
100
AcDbSpline
 70
8
 71
3
 72
8
 73
4
 74
0
 40
0
 40
0
 40
0
 40
0
 40
1
 40
1
 40
1
 40
1
 10
70.237500
 20
10.402500
 30
0.0
 10
70.237500
 20
10.027500
 30
0.0
 10
70.057500
 20
9.847500
 30
0.0
 10
69.705000
 20
9.847500
 30
0.0
  0
SPLINE
  5
1b4
100
AcDbEntity
  8
0
 62
7
100
AcDbSpline
 70
8
 71
3
 72
8
 73
4
 74
0
 40
0
 40
0
 40
0
 40
0
 40
1
 40
1
 40
1
 40
1
 10
69.705000
 20
9.847500
 30
0.0
 10
69.367500
 20
9.847500
 30
0.0
 10
69.157500
 20
9.870000
 30
0.0
 10
69.075000
 20
9.907500
 30
0.0
  0
SPLINE
  5
1b5
100
AcDbEntity
  8
0
 62
7
100
AcDbSpline
 70
8
 71
3
 72
8
 73
4
 74
0
 40
0
 40
0
 40
0
 40
0
 40
1
 40
1
 40
1
 40
1
 10
69.075000
 20
9.907500
 30
0.0
 10
68.880000
 20
9.967500
 30
0.0
 10
68.775000
 20
10.125000
 30
0.0
 10
68.775000
 20
10.402500
 30
0.0
  0
LWPOLYLINE
  5
1b6
100
AcDbEntity
  8
0
 62
7
100
AcDbPolyline
 90
3
 70
0
 10
72.562500
 20
15.232500
 30
0.0
 10
70.237500
 20
15.232500
 30
0.0
 10
70.237500
 20
10.402500
 30
0.0
  0
SPLINE
  5
1b7
100
AcDbEntity
  8
0
 62
7
100
AcDbSpline
 70
8
 71
3
 72
8
 73
4
 74
0
 40
0
 40
0
 40
0
 40
0
 40
1
 40
1
 40
1
 40
1
 10
68.265000
 20
15.232500
 30
0.0
 10
67.890000
 20
15.232500
 30
0.0
 10
67.695000
 20
15.427500
 30
0.0
 10
67.695000
 20
15.847500
 30
0.0
  0
SPLINE
  5
1b8
100
AcDbEntity
  8
0
 62
7
100
AcDbSpline
 70
8
 71
3
 72
8
 73
4
 74
0
 40
0
 40
0
 40
0
 40
0
 40
1
 40
1
 40
1
 40
1
 10
67.695000
 20
15.847500
 30
0.0
 10
67.695000
 20
16.267500
 30
0.0
 10
67.890000
 20
16.455000
 30
0.0
 10
68.265000
 20
16.455000
 30
0.0
  0
LWPOLYLINE
  5
1b9
100
AcDbEntity
  8
0
 62
7
100
AcDbPolyline
 90
3
 70
0
 10
68.775000
 20
10.402500
 30
0.0
 10
68.775000
 20
15.232500
 30
0.0
 10
68.265000
 20
15.232500
 30
0.0
  0
SPLINE
  5
1ba
100
AcDbEntity
  8
0
 62
7
100
AcDbSpline
 70
8
 71
3
 72
8
 73
4
 74
0
 40
0
 40
0
 40
0
 40
0
 40
1
 40
1
 40
1
 40
1
 10
68.775000
 20
17.752500
 30
0.0
 10
68.775000
 20
18.127500
 30
0.0
 10
68.955000
 20
18.307500
 30
0.0
 10
69.307500
 20
18.307500
 30
0.0
  0
SPLINE
  5
1bb
100
AcDbEntity
  8
0
 62
7
100
AcDbSpline
 70
8
 71
3
 72
8
 73
4
 74
0
 40
0
 40
0
 40
0
 40
0
 40
1
 40
1
 40
1
 40
1
 10
69.307500
 20
18.307500
 30
0.0
 10
69.660000
 20
18.307500
 30
0.0
 10
69.862500
 20
18.285000
 30
0.0
 10
69.937500
 20
18.270000
 30
0.0
  0
SPLINE
  5
1bc
100
AcDbEntity
  8
0
 62
7
100
AcDbSpline
 70
8
 71
3
 72
8
 73
4
 74
0
 40
0
 40
0
 40
0
 40
0
 40
1
 40
1
 40
1
 40
1
 10
69.937500
 20
18.270000
 30
0.0
 10
70.132500
 20
18.195000
 30
0.0
 10
70.230000
 20
18.037500
 30
0.0
 10
70.230000
 20
17.760000
 30
0.0
  0
LWPOLYLINE
  5
1bd
100
AcDbEntity
  8
0
 62
7
100
AcDbPolyline
 90
3
 70
0
 10
68.265000
 20
16.455000
 30
0.0
 10
68.775000
 20
16.455000
 30
0.0
 10
68.775000
 20
17.752500
 30
0.0
  0
SPLINE
  5
1be
100
AcDbEntity
  8
0
 62
7
100
AcDbSpline
 70
8
 71
3
 72
8
 73
4
 74
0
 40
0
 40
0
 40
0
 40
0
 40
1
 40
1
 40
1
 40
1
 10
72.555000
 20
16.462500
 30
0.0
 10
72.907500
 20
16.462500
 30
0.0
 10
73.110000
 20
16.222500
 30
0.0
 10
73.110000
 20
15.772500
 30
0.0
  0
LWPOLYLINE
  5
1bf
100
AcDbEntity
  8
0
 62
7
100
AcDbPolyline
 90
3
 70
0
 10
70.230000
 20
17.760000
 30
0.0
 10
70.230000
 20
16.462500
 30
0.0
 10
72.555000
 20
16.462500
 30
0.0
  0
SPLINE
  5
1c0
100
AcDbEntity
  8
0
 62
7
100
AcDbSpline
 70
8
 71
3
 72
8
 73
4
 74
0
 40
0
 40
0
 40
0
 40
0
 40
1
 40
1
 40
1
 40
1
 10
55.965000
 20
14.542500
 30
0.0
 10
55.965000
 20
15.052500
 30
0.0
 10
54.975000
 20
15.292500
 30
0.0
 10
52.987500
 20
15.292500
 30
0.0
  0
SPLINE
  5
1c1
100
AcDbEntity
  8
0
 62
7
100
AcDbSpline
 70
8
 71
3
 72
8
 73
4
 74
0
 40
0
 40
0
 40
0
 40
0
 40
1
 40
1
 40
1
 40
1
 10
52.987500
 20
15.292500
 30
0.0
 10
52.987500
 20
15.292500
 30
0.0
 10
51.847500
 20
15.270000
 30
0.0
 10
51.862500
 20
15.270000
 30
0.0
  0
SPLINE
  5
1c2
100
AcDbEntity
  8
0
 62
7
100
AcDbSpline
 70
8
 71
3
 72
8
 73
4
 74
0
 40
0
 40
0
 40
0
 40
0
 40
1
 40
1
 40
1
 40
1
 10
51.862500
 20
15.270000
 30
0.0
 10
50.400000
 20
15.270000
 30
0.0
 10
49.657500
 20
15.015000
 30
0.0
 10
49.657500
 20
14.505000
 30
0.0
  0
LWPOLYLINE
  5
1c3
100
AcDbEntity
  8
0
 62
7
100
AcDbPolyline
 90
2
 70
0
 10
55.965000
 20
13.732500
 30
0.0
 10
55.965000
 20
14.542500
 30
0.0
  0
SPLINE
  5
1c4
100
AcDbEntity
  8
0
 62
7
100
AcDbSpline
 70
8
 71
3
 72
8
 73
4
 74
0
 40
0
 40
0
 40
0
 40
0
 40
1
 40
1
 40
1
 40
1
 10
52.815000
 20
11.070000
 30
0.0
 10
53.092500
 20
11.032500
 30
0.0
 10
53.250000
 20
10.792500
 30
0.0
 10
53.250000
 20
10.402500
 30
0.0
  0
SPLINE
  5
1c5
100
AcDbEntity
  8
0
 62
7
100
AcDbSpline
 70
8
 71
3
 72
8
 73
4
 74
0
 40
0
 40
0
 40
0
 40
0
 40
1
 40
1
 40
1
 40
1
 10
53.250000
 20
10.402500
 30
0.0
 10
53.250000
 20
10.087500
 30
0.0
 10
53.107500
 20
9.862500
 30
0.0
 10
52.830000
 20
9.847500
 30
0.0
  0
SPLINE
  5
1c6
100
AcDbEntity
  8
0
 62
7
100
AcDbSpline
 70
8
 71
3
 72
8
 73
4
 74
0
 40
0
 40
0
 40
0
 40
0
 40
1
 40
1
 40
1
 40
1
 10
52.830000
 20
9.847500
 30
0.0
 10
52.830000
 20
9.847500
 30
0.0
 10
51.120000
 20
9.870000
 30
0.0
 10
50.790000
 20
9.907500
 30
0.0
  0
SPLINE
  5
1c7
100
AcDbEntity
  8
0
 62
7
100
AcDbSpline
 70
8
 71
3
 72
8
 73
4
 74
0
 40
0
 40
0
 40
0
 40
0
 40
1
 40
1
 40
1
 40
1
 10
50.790000
 20
9.907500
 30
0.0
 10
49.980000
 20
9.982500
 30
0.0
 10
49.387500
 20
10.162500
 30
0.0
 10
49.020000
 20
10.477500
 30
0.0
  0
SPLINE
  5
1c8
100
AcDbEntity
  8
0
 62
7
100
AcDbSpline
 70
8
 71
3
 72
8
 73
4
 74
0
 40
0
 40
0
 40
0
 40
0
 40
1
 40
1
 40
1
 40
1
 10
49.020000
 20
10.477500
 30
0.0
 10
48.487500
 20
10.890000
 30
0.0
 10
48.210000
 20
11.385000
 30
0.0
 10
48.210000
 20
11.955000
 30
0.0
  0
LWPOLYLINE
  5
1c9
100
AcDbEntity
  8
0
 62
7
100
AcDbPolyline
 90
4
 70
0
 10
49.657500
 20
14.505000
 30
0.0
 10
49.657500
 20
13.732500
 30
0.0
 10
55.965000
 20
13.732500
 30
0.0
 10
55.965000
 20
13.732500
 30
0.0
  0
SPLINE
  5
1ca
100
AcDbEntity
  8
0
 62
7
100
AcDbSpline
 70
8
 71
3
 72
8
 73
4
 74
0
 40
0
 40
0
 40
0
 40
0
 40
1
 40
1
 40
1
 40
1
 10
48.210000
 20
14.400000
 30
0.0
 10
48.210000
 20
15.172500
 30
0.0
 10
48.622500
 20
15.742500
 30
0.0
 10
49.470000
 20
16.095000
 30
0.0
  0
SPLINE
  5
1cb
100
AcDbEntity
  8
0
 62
7
100
AcDbSpline
 70
8
 71
3
 72
8
 73
4
 74
0
 40
0
 40
0
 40
0
 40
0
 40
1
 40
1
 40
1
 40
1
 10
49.470000
 20
16.095000
 30
0.0
 10
50.077500
 20
16.372500
 30
0.0
 10
50.827500
 20
16.507500
 30
0.0
 10
51.720000
 20
16.507500
 30
0.0
  0
LWPOLYLINE
  5
1cc
100
AcDbEntity
  8
0
 62
7
100
AcDbPolyline
 90
2
 70
0
 10
48.210000
 20
11.955000
 30
0.0
 10
48.210000
 20
14.400000
 30
0.0
  0
SPLINE
  5
1cd
100
AcDbEntity
  8
0
 62
7
100
AcDbSpline
 70
8
 71
3
 72
8
 73
4
 74
0
 40
0
 40
0
 40
0
 40
0
 40
1
 40
1
 40
1
 40
1
 10
54.457500
 20
16.507500
 30
0.0
 10
55.162500
 20
16.507500
 30
0.0
 10
55.800000
 20
16.372500
 30
0.0
 10
56.347500
 20
16.132500
 30
0.0
  0
SPLINE
  5
1ce
100
AcDbEntity
  8
0
 62
7
100
AcDbSpline
 70
8
 71
3
 72
8
 73
4
 74
0
 40
0
 40
0
 40
0
 40
0
 40
1
 40
1
 40
1
 40
1
 10
56.347500
 20
16.132500
 30
0.0
 10
57.060000
 20
15.795000
 30
0.0
 10
57.390000
 20
15.307500
 30
0.0
 10
57.390000
 20
14.655000
 30
0.0
  0
LWPOLYLINE
  5
1cf
100
AcDbEntity
  8
0
 62
7
100
AcDbPolyline
 90
2
 70
0
 10
51.720000
 20
16.507500
 30
0.0
 10
54.457500
 20
16.507500
 30
0.0
  0
SPLINE
  5
1d0
100
AcDbEntity
  8
0
 62
7
100
AcDbSpline
 70
8
 71
3
 72
8
 73
4
 74
0
 40
0
 40
0
 40
0
 40
0
 40
1
 40
1
 40
1
 40
1
 10
57.390000
 20
13.057500
 30
0.0
 10
57.390000
 20
12.660000
 30
0.0
 10
57.255000
 20
12.450000
 30
0.0
 10
57.000000
 20
12.450000
 30
0.0
  0
LWPOLYLINE
  5
1d1
100
AcDbEntity
  8
0
 62
7
100
AcDbPolyline
 90
2
 70
0
 10
57.390000
 20
14.655000
 30
0.0
 10
57.390000
 20
13.057500
 30
0.0
  0
SPLINE
  5
1d2
100
AcDbEntity
  8
0
 62
7
100
AcDbSpline
 70
8
 71
3
 72
8
 73
4
 74
0
 40
0
 40
0
 40
0
 40
0
 40
1
 40
1
 40
1
 40
1
 10
49.725000
 20
12.450000
 30
0.0
 10
49.665000
 20
11.542500
 30
0.0
 10
50.415000
 20
11.070000
 30
0.0
 10
51.952500
 20
11.070000
 30
0.0
  0
LWPOLYLINE
  5
1d3
100
AcDbEntity
  8
0
 62
7
100
AcDbPolyline
 90
2
 70
0
 10
57.000000
 20
12.450000
 30
0.0
 10
49.725000
 20
12.450000
 30
0.0
  0
SPLINE
  5
1d4
100
AcDbEntity
  8
0
 62
7
100
AcDbSpline
 70
8
 71
3
 72
8
 73
4
 74
0
 40
0
 40
0
 40
0
 40
0
 40
1
 40
1
 40
1
 40
1
 10
21.060000
 20
11.760000
 30
0.0
 10
21.060000
 20
10.477500
 30
0.0
 10
20.092500
 20
9.847500
 30
0.0
 10
18.165000
 20
9.847500
 30
0.0
  0
LWPOLYLINE
  5
1d5
100
AcDbEntity
  8
0
 62
7
100
AcDbPolyline
 90
2
 70
0
 10
51.952500
 20
11.070000
 30
0.0
 10
52.822500
 20
11.070000
 30
0.0
  0
SPLINE
  5
1d6
100
AcDbEntity
  8
0
 62
7
100
AcDbSpline
 70
8
 71
3
 72
8
 73
4
 74
0
 40
0
 40
0
 40
0
 40
0
 40
1
 40
1
 40
1
 40
1
 10
13.215000
 20
9.847500
 30
0.0
 10
12.862500
 20
9.847500
 30
0.0
 10
12.682500
 20
10.027500
 30
0.0
 10
12.682500
 20
10.402500
 30
0.0
  0
SPLINE
  5
1d7
100
AcDbEntity
  8
0
 62
7
100
AcDbSpline
 70
8
 71
3
 72
8
 73
4
 74
0
 40
0
 40
0
 40
0
 40
0
 40
1
 40
1
 40
1
 40
1
 10
12.682500
 20
10.402500
 30
0.0
 10
12.682500
 20
10.852500
 30
0.0
 10
12.862500
 20
11.092500
 30
0.0
 10
13.215000
 20
11.092500
 30
0.0
  0
LWPOLYLINE
  5
1d8
100
AcDbEntity
  8
0
 62
7
100
AcDbPolyline
 90
2
 70
0
 10
18.165000
 20
9.847500
 30
0.0
 10
13.215000
 20
9.847500
 30
0.0
  0
SPLINE
  5
1d9
100
AcDbEntity
  8
0
 62
7
100
AcDbSpline
 70
8
 71
3
 72
8
 73
4
 74
0
 40
0
 40
0
 40
0
 40
0
 40
1
 40
1
 40
1
 40
1
 10
18.180000
 20
11.092500
 30
0.0
 10
19.087500
 20
11.092500
 30
0.0
 10
19.537500
 20
11.310000
 30
0.0
 10
19.537500
 20
11.760000
 30
0.0
  0
LWPOLYLINE
  5
1da
100
AcDbEntity
  8
0
 62
7
100
AcDbPolyline
 90
2
 70
0
 10
13.215000
 20
11.092500
 30
0.0
 10
18.180000
 20
11.092500
 30
0.0
  0
SPLINE
  5
1db
100
AcDbEntity
  8
0
 62
7
100
AcDbSpline
 70
8
 71
3
 72
8
 73
4
 74
0
 40
0
 40
0
 40
0
 40
0
 40
1
 40
1
 40
1
 40
1
 10
19.537500
 20
11.992500
 30
0.0
 10
19.537500
 20
12.405000
 30
0.0
 10
19.125000
 20
12.600000
 30
0.0
 10
18.292500
 20
12.600000
 30
0.0
  0
LWPOLYLINE
  5
1dc
100
AcDbEntity
  8
0
 62
7
100
AcDbPolyline
 90
2
 70
0
 10
19.537500
 20
11.760000
 30
0.0
 10
19.537500
 20
11.992500
 30
0.0
  0
SPLINE
  5
1dd
100
AcDbEntity
  8
0
 62
7
100
AcDbSpline
 70
8
 71
3
 72
8
 73
4
 74
0
 40
0
 40
0
 40
0
 40
0
 40
1
 40
1
 40
1
 40
1
 10
15.907500
 20
12.600000
 30
0.0
 10
13.717500
 20
12.600000
 30
0.0
 10
12.637500
 20
13.215000
 30
0.0
 10
12.637500
 20
14.430000
 30
0.0
  0
LWPOLYLINE
  5
1de
100
AcDbEntity
  8
0
 62
7
100
AcDbPolyline
 90
2
 70
0
 10
18.292500
 20
12.600000
 30
0.0
 10
15.907500
 20
12.600000
 30
0.0
  0
SPLINE
  5
1df
100
AcDbEntity
  8
0
 62
7
100
AcDbSpline
 70
8
 71
3
 72
8
 73
4
 74
0
 40
0
 40
0
 40
0
 40
0
 40
1
 40
1
 40
1
 40
1
 10
12.637500
 20
14.782500
 30
0.0
 10
12.637500
 20
15.592500
 30
0.0
 10
13.192500
 20
16.125000
 30
0.0
 10
14.310000
 20
16.357500
 30
0.0
  0
SPLINE
  5
1e0
100
AcDbEntity
  8
0
 62
7
100
AcDbSpline
 70
8
 71
3
 72
8
 73
4
 74
0
 40
0
 40
0
 40
0
 40
0
 40
1
 40
1
 40
1
 40
1
 10
14.310000
 20
16.357500
 30
0.0
 10
14.745000
 20
16.440000
 30
0.0
 10
15.615000
 20
16.492500
 30
0.0
 10
16.875000
 20
16.492500
 30
0.0
  0
SPLINE
  5
1e1
100
AcDbEntity
  8
0
 62
7
100
AcDbSpline
 70
8
 71
3
 72
8
 73
4
 74
0
 40
0
 40
0
 40
0
 40
0
 40
1
 40
1
 40
1
 40
1
 10
16.875000
 20
16.492500
 30
0.0
 10
17.227500
 20
16.492500
 30
0.0
 10
17.407500
 20
16.297500
 30
0.0
 10
17.407500
 20
15.937500
 30
0.0
  0
LWPOLYLINE
  5
1e2
100
AcDbEntity
  8
0
 62
7
100
AcDbPolyline
 90
2
 70
0
 10
12.637500
 20
14.430000
 30
0.0
 10
12.637500
 20
14.782500
 30
0.0
  0
SPLINE
  5
1e3
100
AcDbEntity
  8
0
 62
7
100
AcDbSpline
 70
8
 71
3
 72
8
 73
4
 74
0
 40
0
 40
0
 40
0
 40
0
 40
1
 40
1
 40
1
 40
1
 10
17.407500
 20
15.780000
 30
0.0
 10
17.407500
 20
15.427500
 30
0.0
 10
17.235000
 20
15.247500
 30
0.0
 10
16.875000
 20
15.247500
 30
0.0
  0
LWPOLYLINE
  5
1e4
100
AcDbEntity
  8
0
 62
7
100
AcDbPolyline
 90
2
 70
0
 10
17.407500
 20
15.937500
 30
0.0
 10
17.407500
 20
15.780000
 30
0.0
  0
SPLINE
  5
1e5
100
AcDbEntity
  8
0
 62
7
100
AcDbSpline
 70
8
 71
3
 72
8
 73
4
 74
0
 40
0
 40
0
 40
0
 40
0
 40
1
 40
1
 40
1
 40
1
 10
15.810000
 20
15.247500
 30
0.0
 10
15.277500
 20
15.247500
 30
0.0
 10
14.940000
 20
15.247500
 30
0.0
 10
14.827500
 20
15.225000
 30
0.0
  0
SPLINE
  5
1e6
100
AcDbEntity
  8
0
 62
7
100
AcDbSpline
 70
8
 71
3
 72
8
 73
4
 74
0
 40
0
 40
0
 40
0
 40
0
 40
1
 40
1
 40
1
 40
1
 10
14.827500
 20
15.225000
 30
0.0
 10
14.332500
 20
15.165000
 30
0.0
 10
14.100000
 20
15.030000
 30
0.0
 10
14.100000
 20
14.775000
 30
0.0
  0
LWPOLYLINE
  5
1e7
100
AcDbEntity
  8
0
 62
7
100
AcDbPolyline
 90
2
 70
0
 10
16.875000
 20
15.247500
 30
0.0
 10
15.810000
 20
15.247500
 30
0.0
  0
SPLINE
  5
1e8
100
AcDbEntity
  8
0
 62
7
100
AcDbSpline
 70
8
 71
3
 72
8
 73
4
 74
0
 40
0
 40
0
 40
0
 40
0
 40
1
 40
1
 40
1
 40
1
 10
14.100000
 20
14.422500
 30
0.0
 10
14.100000
 20
14.145000
 30
0.0
 10
14.355000
 20
13.972500
 30
0.0
 10
14.850000
 20
13.890000
 30
0.0
  0
SPLINE
  5
1e9
100
AcDbEntity
  8
0
 62
7
100
AcDbSpline
 70
8
 71
3
 72
8
 73
4
 74
0
 40
0
 40
0
 40
0
 40
0
 40
1
 40
1
 40
1
 40
1
 10
14.850000
 20
13.890000
 30
0.0
 10
15.045000
 20
13.852500
 30
0.0
 10
15.405000
 20
13.830000
 30
0.0
 10
15.937500
 20
13.830000
 30
0.0
  0
LWPOLYLINE
  5
1ea
100
AcDbEntity
  8
0
 62
7
100
AcDbPolyline
 90
2
 70
0
 10
14.100000
 20
14.775000
 30
0.0
 10
14.100000
 20
14.422500
 30
0.0
  0
SPLINE
  5
1eb
100
AcDbEntity
  8
0
 62
7
100
AcDbSpline
 70
8
 71
3
 72
8
 73
4
 74
0
 40
0
 40
0
 40
0
 40
0
 40
1
 40
1
 40
1
 40
1
 10
18.360000
 20
13.830000
 30
0.0
 10
20.152500
 20
13.830000
 30
0.0
 10
21.060000
 20
13.237500
 30
0.0
 10
21.060000
 20
12.037500
 30
0.0
  0
LWPOLYLINE
  5
1ec
100
AcDbEntity
  8
0
 62
7
100
AcDbPolyline
 90
2
 70
0
 10
15.937500
 20
13.830000
 30
0.0
 10
18.360000
 20
13.830000
 30
0.0
  0
SPLINE
  5
1ed
100
AcDbEntity
  8
0
 62
7
100
AcDbSpline
 70
8
 71
3
 72
8
 73
4
 74
0
 40
0
 40
0
 40
0
 40
0
 40
1
 40
1
 40
1
 40
1
 10
43.612500
 20
11.092500
 30
0.0
 10
45.112500
 20
11.092500
 30
0.0
 10
45.862500
 20
11.370000
 30
0.0
 10
45.862500
 20
11.917500
 30
0.0
  0
LWPOLYLINE
  5
1ee
100
AcDbEntity
  8
0
 62
7
100
AcDbPolyline
 90
3
 70
0
 10
21.060000
 20
12.037500
 30
0.0
 10
21.060000
 20
11.745000
 30
0.0
 10
21.060000
 20
11.760000
 30
0.0
  0
SPLINE
  5
1ef
100
AcDbEntity
  8
0
 62
7
100
AcDbSpline
 70
8
 71
3
 72
8
 73
4
 74
0
 40
0
 40
0
 40
0
 40
0
 40
1
 40
1
 40
1
 40
1
 10
41.467500
 20
15.232500
 30
0.0
 10
40.147500
 20
15.232500
 30
0.0
 10
39.495000
 20
14.940000
 30
0.0
 10
39.495000
 20
14.362500
 30
0.0
  0
LWPOLYLINE
  5
1f0
100
AcDbEntity
  8
0
 62
7
100
AcDbPolyline
 90
3
 70
0
 10
45.862500
 20
11.917500
 30
0.0
 10
45.862500
 20
15.232500
 30
0.0
 10
41.467500
 20
15.232500
 30
0.0
  0
SPLINE
  5
1f1
100
AcDbEntity
  8
0
 62
7
100
AcDbSpline
 70
8
 71
3
 72
8
 73
4
 74
0
 40
0
 40
0
 40
0
 40
0
 40
1
 40
1
 40
1
 40
1
 10
39.495000
 20
12.000000
 30
0.0
 10
39.495000
 20
11.565000
 30
0.0
 10
39.750000
 20
11.287500
 30
0.0
 10
40.245000
 20
11.175000
 30
0.0
  0
SPLINE
  5
1f2
100
AcDbEntity
  8
0
 62
7
100
AcDbSpline
 70
8
 71
3
 72
8
 73
4
 74
0
 40
0
 40
0
 40
0
 40
0
 40
1
 40
1
 40
1
 40
1
 10
40.245000
 20
11.175000
 30
0.0
 10
40.462500
 20
11.115000
 30
0.0
 10
40.875000
 20
11.100000
 30
0.0
 10
41.505000
 20
11.100000
 30
0.0
  0
LWPOLYLINE
  5
1f3
100
AcDbEntity
  8
0
 62
7
100
AcDbPolyline
 90
2
 70
0
 10
39.495000
 20
14.362500
 30
0.0
 10
39.495000
 20
12.000000
 30
0.0
  0
SPLINE
  5
1f4
100
AcDbEntity
  8
0
 62
7
100
AcDbSpline
 70
8
 71
3
 72
8
 73
4
 74
0
 40
0
 40
0
 40
0
 40
0
 40
1
 40
1
 40
1
 40
1
 10
41.520000
 20
9.847500
 30
0.0
 10
39.232500
 20
9.847500
 30
0.0
 10
38.047500
 20
10.477500
 30
0.0
 10
38.010000
 20
11.737500
 30
0.0
  0
SPLINE
  5
1f5
100
AcDbEntity
  8
0
 62
7
100
AcDbSpline
 70
8
 71
3
 72
8
 73
4
 74
0
 40
0
 40
0
 40
0
 40
0
 40
1
 40
1
 40
1
 40
1
 10
38.010000
 20
11.737500
 30
0.0
 10
37.987500
 20
12.427500
 30
0.0
 10
37.987500
 20
13.312500
 30
0.0
 10
38.032500
 20
14.377500
 30
0.0
  0
SPLINE
  5
1f6
100
AcDbEntity
  8
0
 62
7
100
AcDbSpline
 70
8
 71
3
 72
8
 73
4
 74
0
 40
0
 40
0
 40
0
 40
0
 40
1
 40
1
 40
1
 40
1
 10
38.032500
 20
14.377500
 30
0.0
 10
38.070000
 20
15.757500
 30
0.0
 10
39.232500
 20
16.447500
 30
0.0
 10
41.505000
 20
16.447500
 30
0.0
  0
LWPOLYLINE
  5
1f7
100
AcDbEntity
  8
0
 62
7
100
AcDbPolyline
 90
3
 70
0
 10
41.505000
 20
11.100000
 30
0.0
 10
43.612500
 20
11.100000
 30
0.0
 10
43.612500
 20
11.092500
 30
0.0
  0
SPLINE
  5
1f8
100
AcDbEntity
  8
0
 62
7
100
AcDbSpline
 70
8
 71
3
 72
8
 73
4
 74
0
 40
0
 40
0
 40
0
 40
0
 40
1
 40
1
 40
1
 40
1
 10
45.862500
 20
17.745000
 30
0.0
 10
45.862500
 20
18.097500
 30
0.0
 10
46.057500
 20
18.277500
 30
0.0
 10
46.417500
 20
18.277500
 30
0.0
  0
SPLINE
  5
1f9
100
AcDbEntity
  8
0
 62
7
100
AcDbSpline
 70
8
 71
3
 72
8
 73
4
 74
0
 40
0
 40
0
 40
0
 40
0
 40
1
 40
1
 40
1
 40
1
 10
46.417500
 20
18.277500
 30
0.0
 10
46.755000
 20
18.277500
 30
0.0
 10
46.950000
 20
18.277500
 30
0.0
 10
47.025000
 20
18.240000
 30
0.0
  0
SPLINE
  5
1fa
100
AcDbEntity
  8
0
 62
7
100
AcDbSpline
 70
8
 71
3
 72
8
 73
4
 74
0
 40
0
 40
0
 40
0
 40
0
 40
1
 40
1
 40
1
 40
1
 10
47.025000
 20
18.240000
 30
0.0
 10
47.242500
 20
18.180000
 30
0.0
 10
47.340000
 20
18.007500
 30
0.0
 10
47.340000
 20
17.745000
 30
0.0
  0
LWPOLYLINE
  5
1fb
100
AcDbEntity
  8
0
 62
7
100
AcDbPolyline
 90
3
 70
0
 10
41.505000
 20
16.447500
 30
0.0
 10
45.862500
 20
16.447500
 30
0.0
 10
45.862500
 20
17.745000
 30
0.0
  0
SPLINE
  5
1fc
100
AcDbEntity
  8
0
 62
7
100
AcDbSpline
 70
8
 71
3
 72
8
 73
4
 74
0
 40
0
 40
0
 40
0
 40
0
 40
1
 40
1
 40
1
 40
1
 10
47.340000
 20
11.887500
 30
0.0
 10
47.340000
 20
11.182500
 30
0.0
 10
46.882500
 20
10.650000
 30
0.0
 10
45.982500
 20
10.275000
 30
0.0
  0
SPLINE
  5
1fd
100
AcDbEntity
  8
0
 62
7
100
AcDbSpline
 70
8
 71
3
 72
8
 73
4
 74
0
 40
0
 40
0
 40
0
 40
0
 40
1
 40
1
 40
1
 40
1
 10
45.982500
 20
10.275000
 30
0.0
 10
45.315000
 20
9.982500
 30
0.0
 10
44.565000
 20
9.840000
 30
0.0
 10
43.755000
 20
9.840000
 30
0.0
  0
LWPOLYLINE
  5
1fe
100
AcDbEntity
  8
0
 62
7
100
AcDbPolyline
 90
2
 70
0
 10
47.340000
 20
17.745000
 30
0.0
 10
47.340000
 20
11.887500
 30
0.0
  0
SPLINE
  5
1ff
100
AcDbEntity
  8
0
 62
7
100
AcDbSpline
 70
8
 71
3
 72
8
 73
4
 74
0
 40
0
 40
0
 40
0
 40
0
 40
1
 40
1
 40
1
 40
1
 10
26.812500
 20
15.765000
 30
0.0
 10
26.812500
 20
15.412500
 30
0.0
 10
26.632500
 20
15.232500
 30
0.0
 10
26.257500
 20
15.232500
 30
0.0
  0
LWPOLYLINE
  5
200
100
AcDbEntity
  8
0
 62
7
100
AcDbPolyline
 90
3
 70
0
 10
43.755000
 20
9.840000
 30
0.0
 10
41.527500
 20
9.840000
 30
0.0
 10
41.520000
 20
9.847500
 30
0.0
  0
SPLINE
  5
201
100
AcDbEntity
  8
0
 62
7
100
AcDbSpline
 70
8
 71
3
 72
8
 73
4
 74
0
 40
0
 40
0
 40
0
 40
0
 40
1
 40
1
 40
1
 40
1
 10
23.955000
 20
10.402500
 30
0.0
 10
23.955000
 20
10.027500
 30
0.0
 10
23.775000
 20
9.847500
 30
0.0
 10
23.400000
 20
9.847500
 30
0.0
  0
SPLINE
  5
202
100
AcDbEntity
  8
0
 62
7
100
AcDbSpline
 70
8
 71
3
 72
8
 73
4
 74
0
 40
0
 40
0
 40
0
 40
0
 40
1
 40
1
 40
1
 40
1
 10
23.400000
 20
9.847500
 30
0.0
 10
23.070000
 20
9.847500
 30
0.0
 10
22.852500
 20
9.870000
 30
0.0
 10
22.770000
 20
9.907500
 30
0.0
  0
SPLINE
  5
203
100
AcDbEntity
  8
0
 62
7
100
AcDbSpline
 70
8
 71
3
 72
8
 73
4
 74
0
 40
0
 40
0
 40
0
 40
0
 40
1
 40
1
 40
1
 40
1
 10
22.770000
 20
9.907500
 30
0.0
 10
22.575000
 20
9.967500
 30
0.0
 10
22.477500
 20
10.125000
 30
0.0
 10
22.477500
 20
10.402500
 30
0.0
  0
LWPOLYLINE
  5
204
100
AcDbEntity
  8
0
 62
7
100
AcDbPolyline
 90
3
 70
0
 10
26.257500
 20
15.232500
 30
0.0
 10
23.955000
 20
15.232500
 30
0.0
 10
23.955000
 20
10.402500
 30
0.0
  0
SPLINE
  5
205
100
AcDbEntity
  8
0
 62
7
100
AcDbSpline
 70
8
 71
3
 72
8
 73
4
 74
0
 40
0
 40
0
 40
0
 40
0
 40
1
 40
1
 40
1
 40
1
 10
21.967500
 20
15.232500
 30
0.0
 10
21.592500
 20
15.232500
 30
0.0
 10
21.412500
 20
15.427500
 30
0.0
 10
21.412500
 20
15.847500
 30
0.0
  0
SPLINE
  5
206
100
AcDbEntity
  8
0
 62
7
100
AcDbSpline
 70
8
 71
3
 72
8
 73
4
 74
0
 40
0
 40
0
 40
0
 40
0
 40
1
 40
1
 40
1
 40
1
 10
21.412500
 20
15.847500
 30
0.0
 10
21.412500
 20
16.267500
 30
0.0
 10
21.592500
 20
16.455000
 30
0.0
 10
21.967500
 20
16.455000
 30
0.0
  0
LWPOLYLINE
  5
207
100
AcDbEntity
  8
0
 62
7
100
AcDbPolyline
 90
3
 70
0
 10
22.477500
 20
10.402500
 30
0.0
 10
22.477500
 20
15.232500
 30
0.0
 10
21.967500
 20
15.232500
 30
0.0
  0
SPLINE
  5
208
100
AcDbEntity
  8
0
 62
7
100
AcDbSpline
 70
8
 71
3
 72
8
 73
4
 74
0
 40
0
 40
0
 40
0
 40
0
 40
1
 40
1
 40
1
 40
1
 10
22.477500
 20
17.752500
 30
0.0
 10
22.477500
 20
18.127500
 30
0.0
 10
22.672500
 20
18.307500
 30
0.0
 10
23.032500
 20
18.307500
 30
0.0
  0
SPLINE
  5
209
100
AcDbEntity
  8
0
 62
7
100
AcDbSpline
 70
8
 71
3
 72
8
 73
4
 74
0
 40
0
 40
0
 40
0
 40
0
 40
1
 40
1
 40
1
 40
1
 10
23.032500
 20
18.307500
 30
0.0
 10
23.370000
 20
18.307500
 30
0.0
 10
23.587500
 20
18.285000
 30
0.0
 10
23.662500
 20
18.270000
 30
0.0
  0
SPLINE
  5
20a
100
AcDbEntity
  8
0
 62
7
100
AcDbSpline
 70
8
 71
3
 72
8
 73
4
 74
0
 40
0
 40
0
 40
0
 40
0
 40
1
 40
1
 40
1
 40
1
 10
23.662500
 20
18.270000
 30
0.0
 10
23.857500
 20
18.195000
 30
0.0
 10
23.962500
 20
18.037500
 30
0.0
 10
23.962500
 20
17.760000
 30
0.0
  0
LWPOLYLINE
  5
20b
100
AcDbEntity
  8
0
 62
7
100
AcDbPolyline
 90
3
 70
0
 10
21.967500
 20
16.455000
 30
0.0
 10
22.477500
 20
16.455000
 30
0.0
 10
22.477500
 20
17.752500
 30
0.0
  0
SPLINE
  5
20c
100
AcDbEntity
  8
0
 62
7
100
AcDbSpline
 70
8
 71
3
 72
8
 73
4
 74
0
 40
0
 40
0
 40
0
 40
0
 40
1
 40
1
 40
1
 40
1
 10
26.265000
 20
16.462500
 30
0.0
 10
26.640000
 20
16.462500
 30
0.0
 10
26.820000
 20
16.222500
 30
0.0
 10
26.820000
 20
15.772500
 30
0.0
  0
SPLINE
  5
20d
100
AcDbEntity
  8
0
 62
7
100
AcDbSpline
 70
8
 71
3
 72
8
 73
4
 74
0
 40
0
 40
0
 40
0
 40
0
 40
1
 40
1
 40
1
 40
1
 10
37.027500
 20
11.842500
 30
0.0
 10
37.027500
 20
10.500000
 30
0.0
 10
35.610000
 20
9.832500
 30
0.0
 10
32.767500
 20
9.832500
 30
0.0
  0
SPLINE
  5
20e
100
AcDbEntity
  8
0
 62
7
100
AcDbSpline
 70
8
 71
3
 72
8
 73
4
 74
0
 40
0
 40
0
 40
0
 40
0
 40
1
 40
1
 40
1
 40
1
 10
32.767500
 20
9.832500
 30
0.0
 10
32.550000
 20
9.832500
 30
0.0
 10
32.257500
 20
9.832500
 30
0.0
 10
31.920000
 20
9.855000
 30
0.0
  0
LWPOLYLINE
  5
20f
100
AcDbEntity
  8
0
 62
7
100
AcDbPolyline
 90
3
 70
0
 10
23.962500
 20
17.760000
 30
0.0
 10
23.962500
 20
16.462500
 30
0.0
 10
26.265000
 20
16.462500
 30
0.0
  0
SPLINE
  5
210
100
AcDbEntity
  8
0
 62
7
100
AcDbSpline
 70
8
 71
3
 72
8
 73
4
 74
0
 40
0
 40
0
 40
0
 40
0
 40
1
 40
1
 40
1
 40
1
 10
31.290000
 20
9.855000
 30
0.0
 10
28.905000
 20
9.855000
 30
0.0
 10
27.720000
 20
10.522500
 30
0.0
 10
27.720000
 20
11.842500
 30
0.0
  0
LWPOLYLINE
  5
211
100
AcDbEntity
  8
0
 62
7
100
AcDbPolyline
 90
2
 70
0
 10
31.920000
 20
9.855000
 30
0.0
 10
31.290000
 20
9.855000
 30
0.0
  0
SPLINE
  5
212
100
AcDbEntity
  8
0
 62
7
100
AcDbSpline
 70
8
 71
3
 72
8
 73
4
 74
0
 40
0
 40
0
 40
0
 40
0
 40
1
 40
1
 40
1
 40
1
 10
27.720000
 20
15.960000
 30
0.0
 10
27.720000
 20
16.312500
 30
0.0
 10
27.900000
 20
16.515000
 30
0.0
 10
28.252500
 20
16.515000
 30
0.0
  0
SPLINE
  5
213
100
AcDbEntity
  8
0
 62
7
100
AcDbSpline
 70
8
 71
3
 72
8
 73
4
 74
0
 40
0
 40
0
 40
0
 40
0
 40
1
 40
1
 40
1
 40
1
 10
28.252500
 20
16.515000
 30
0.0
 10
28.605000
 20
16.515000
 30
0.0
 10
28.807500
 20
16.492500
 30
0.0
 10
28.882500
 20
16.455000
 30
0.0
  0
SPLINE
  5
214
100
AcDbEntity
  8
0
 62
7
100
AcDbSpline
 70
8
 71
3
 72
8
 73
4
 74
0
 40
0
 40
0
 40
0
 40
0
 40
1
 40
1
 40
1
 40
1
 10
28.882500
 20
16.455000
 30
0.0
 10
29.077500
 20
16.395000
 30
0.0
 10
29.182500
 20
16.237500
 30
0.0
 10
29.182500
 20
15.960000
 30
0.0
  0
LWPOLYLINE
  5
215
100
AcDbEntity
  8
0
 62
7
100
AcDbPolyline
 90
2
 70
0
 10
27.720000
 20
11.842500
 30
0.0
 10
27.720000
 20
15.960000
 30
0.0
  0
SPLINE
  5
216
100
AcDbEntity
  8
0
 62
7
100
AcDbSpline
 70
8
 71
3
 72
8
 73
4
 74
0
 40
0
 40
0
 40
0
 40
0
 40
1
 40
1
 40
1
 40
1
 10
29.182500
 20
11.842500
 30
0.0
 10
29.182500
 20
11.332500
 30
0.0
 10
29.895000
 20
11.070000
 30
0.0
 10
31.290000
 20
11.070000
 30
0.0
  0
LWPOLYLINE
  5
217
100
AcDbEntity
  8
0
 62
7
100
AcDbPolyline
 90
2
 70
0
 10
29.182500
 20
15.960000
 30
0.0
 10
29.182500
 20
11.842500
 30
0.0
  0
SPLINE
  5
218
100
AcDbEntity
  8
0
 62
7
100
AcDbSpline
 70
8
 71
3
 72
8
 73
4
 74
0
 40
0
 40
0
 40
0
 40
0
 40
1
 40
1
 40
1
 40
1
 10
33.480000
 20
11.070000
 30
0.0
 10
34.837500
 20
11.070000
 30
0.0
 10
35.527500
 20
11.325000
 30
0.0
 10
35.527500
 20
11.820000
 30
0.0
  0
LWPOLYLINE
  5
219
100
AcDbEntity
  8
0
 62
7
100
AcDbPolyline
 90
2
 70
0
 10
31.290000
 20
11.070000
 30
0.0
 10
33.480000
 20
11.070000
 30
0.0
  0
SPLINE
  5
21a
100
AcDbEntity
  8
0
 62
7
100
AcDbSpline
 70
8
 71
3
 72
8
 73
4
 74
0
 40
0
 40
0
 40
0
 40
0
 40
1
 40
1
 40
1
 40
1
 10
35.527500
 20
15.960000
 30
0.0
 10
35.527500
 20
16.237500
 30
0.0
 10
35.625000
 20
16.395000
 30
0.0
 10
35.820000
 20
16.455000
 30
0.0
  0
SPLINE
  5
21b
100
AcDbEntity
  8
0
 62
7
100
AcDbSpline
 70
8
 71
3
 72
8
 73
4
 74
0
 40
0
 40
0
 40
0
 40
0
 40
1
 40
1
 40
1
 40
1
 10
35.820000
 20
16.455000
 30
0.0
 10
35.902500
 20
16.492500
 30
0.0
 10
36.112500
 20
16.515000
 30
0.0
 10
36.472500
 20
16.515000
 30
0.0
  0
SPLINE
  5
21c
100
AcDbEntity
  8
0
 62
7
100
AcDbSpline
 70
8
 71
3
 72
8
 73
4
 74
0
 40
0
 40
0
 40
0
 40
0
 40
1
 40
1
 40
1
 40
1
 10
36.472500
 20
16.515000
 30
0.0
 10
36.832500
 20
16.515000
 30
0.0
 10
37.027500
 20
16.320000
 30
0.0
 10
37.027500
 20
15.960000
 30
0.0
  0
LWPOLYLINE
  5
21d
100
AcDbEntity
  8
0
 62
7
100
AcDbPolyline
 90
2
 70
0
 10
35.527500
 20
11.820000
 30
0.0
 10
35.527500
 20
15.960000
 30
0.0
  0
SPLINE
  5
21e
100
AcDbEntity
  8
0
 62
7
100
AcDbSpline
 70
8
 71
3
 72
8
 73
4
 74
0
 40
0
 40
0
 40
0
 40
0
 40
1
 40
1
 40
1
 40
1
 10
98.992500
 20
19.807500
 30
0.0
 10
99.645000
 20
19.807500
 30
0.0
 10
100.072500
 20
19.905000
 30
0.0
 10
100.275000
 20
20.062500
 30
0.0
  0
SPLINE
  5
21f
100
AcDbEntity
  8
0
 62
7
100
AcDbSpline
 70
8
 71
3
 72
8
 73
4
 74
0
 40
0
 40
0
 40
0
 40
0
 40
1
 40
1
 40
1
 40
1
 10
100.275000
 20
20.062500
 30
0.0
 10
100.455000
 20
20.220000
 30
0.0
 10
100.552500
 20
20.497500
 30
0.0
 10
100.552500
 20
20.925000
 30
0.0
  0
SPLINE
  5
220
100
AcDbEntity
  8
0
 62
7
100
AcDbSpline
 70
8
 71
3
 72
8
 73
4
 74
0
 40
0
 40
0
 40
0
 40
0
 40
1
 40
1
 40
1
 40
1
 10
100.552500
 20
20.925000
 30
0.0
 10
100.552500
 20
21.022500
 30
0.0
 10
100.552500
 20
21.202500
 30
0.0
 10
100.530000
 20
21.457500
 30
0.0
  0
SPLINE
  5
221
100
AcDbEntity
  8
0
 62
7
100
AcDbSpline
 70
8
 71
3
 72
8
 73
4
 74
0
 40
0
 40
0
 40
0
 40
0
 40
1
 40
1
 40
1
 40
1
 10
100.530000
 20
21.457500
 30
0.0
 10
100.530000
 20
21.712500
 30
0.0
 10
100.507500
 20
21.915000
 30
0.0
 10
100.507500
 20
22.087500
 30
0.0
  0
LWPOLYLINE
  5
222
100
AcDbEntity
  8
0
 62
7
100
AcDbPolyline
 90
3
 70
0
 10
37.027500
 20
15.960000
 30
0.0
 10
37.027500
 20
11.842500
 30
0.0
 10
37.027500
 20
11.842500
 30
0.0
  0
SPLINE
  5
223
100
AcDbEntity
  8
0
 62
7
100
AcDbSpline
 70
8
 71
3
 72
8
 73
4
 74
0
 40
0
 40
0
 40
0
 40
0
 40
1
 40
1
 40
1
 40
1
 10
95.325000
 20
22.087500
 30
0.0
 10
95.010000
 20
22.087500
 30
0.0
 10
94.710000
 20
22.027500
 30
0.0
 10
94.380000
 20
21.930000
 30
0.0
  0
SPLINE
  5
224
100
AcDbEntity
  8
0
 62
7
100
AcDbSpline
 70
8
 71
3
 72
8
 73
4
 74
0
 40
0
 40
0
 40
0
 40
0
 40
1
 40
1
 40
1
 40
1
 10
94.380000
 20
21.930000
 30
0.0
 10
93.967500
 20
21.795000
 30
0.0
 10
93.750000
 20
21.592500
 30
0.0
 10
93.750000
 20
21.360000
 30
0.0
  0
LWPOLYLINE
  5
225
100
AcDbEntity
  8
0
 62
7
100
AcDbPolyline
 90
2
 70
0
 10
100.507500
 20
22.087500
 30
0.0
 10
95.325000
 20
22.087500
 30
0.0
  0
SPLINE
  5
226
100
AcDbEntity
  8
0
 62
7
100
AcDbSpline
 70
8
 71
3
 72
8
 73
4
 74
0
 40
0
 40
0
 40
0
 40
0
 40
1
 40
1
 40
1
 40
1
 10
93.750000
 20
20.535000
 30
0.0
 10
93.750000
 20
20.280000
 30
0.0
 10
93.967500
 20
20.100000
 30
0.0
 10
94.402500
 20
19.957500
 30
0.0
  0
SPLINE
  5
227
100
AcDbEntity
  8
0
 62
7
100
AcDbSpline
 70
8
 71
3
 72
8
 73
4
 74
0
 40
0
 40
0
 40
0
 40
0
 40
1
 40
1
 40
1
 40
1
 10
94.402500
 20
19.957500
 30
0.0
 10
94.732500
 20
19.860000
 30
0.0
 10
95.055000
 20
19.800000
 30
0.0
 10
95.370000
 20
19.800000
 30
0.0
  0
LWPOLYLINE
  5
228
100
AcDbEntity
  8
0
 62
7
100
AcDbPolyline
 90
2
 70
0
 10
93.750000
 20
21.360000
 30
0.0
 10
93.750000
 20
20.535000
 30
0.0
  0
SPLINE
  5
229
100
AcDbEntity
  8
0
 62
7
100
AcDbSpline
 70
8
 71
3
 72
8
 73
4
 74
0
 40
0
 40
0
 40
0
 40
0
 40
1
 40
1
 40
1
 40
1
 10
95.407500
 20
18.585000
 30
0.0
 10
94.695000
 20
18.585000
 30
0.0
 10
94.027500
 20
18.742500
 30
0.0
 10
93.412500
 20
19.020000
 30
0.0
  0
SPLINE
  5
22a
100
AcDbEntity
  8
0
 62
7
100
AcDbSpline
 70
8
 71
3
 72
8
 73
4
 74
0
 40
0
 40
0
 40
0
 40
0
 40
1
 40
1
 40
1
 40
1
 10
93.412500
 20
19.020000
 30
0.0
 10
92.662500
 20
19.395000
 30
0.0
 10
92.287500
 20
19.882500
 30
0.0
 10
92.287500
 20
20.520000
 30
0.0
  0
LWPOLYLINE
  5
22b
100
AcDbEntity
  8
0
 62
7
100
AcDbPolyline
 90
3
 70
0
 10
95.370000
 20
19.800000
 30
0.0
 10
98.992500
 20
19.800000
 30
0.0
 10
98.992500
 20
19.807500
 30
0.0
  0
SPLINE
  5
22c
100
AcDbEntity
  8
0
 62
7
100
AcDbSpline
 70
8
 71
3
 72
8
 73
4
 74
0
 40
0
 40
0
 40
0
 40
0
 40
1
 40
1
 40
1
 40
1
 10
92.287500
 20
21.367500
 30
0.0
 10
92.287500
 20
22.057500
 30
0.0
 10
92.640000
 20
22.567500
 30
0.0
 10
93.375000
 20
22.927500
 30
0.0
  0
SPLINE
  5
22d
100
AcDbEntity
  8
0
 62
7
100
AcDbSpline
 70
8
 71
3
 72
8
 73
4
 74
0
 40
0
 40
0
 40
0
 40
0
 40
1
 40
1
 40
1
 40
1
 10
93.375000
 20
22.927500
 30
0.0
 10
93.930000
 20
23.205000
 30
0.0
 10
94.597500
 20
23.317500
 30
0.0
 10
95.370000
 20
23.317500
 30
0.0
  0
LWPOLYLINE
  5
22e
100
AcDbEntity
  8
0
 62
7
100
AcDbPolyline
 90
2
 70
0
 10
92.287500
 20
20.520000
 30
0.0
 10
92.287500
 20
21.367500
 30
0.0
  0
SPLINE
  5
22f
100
AcDbEntity
  8
0
 62
7
100
AcDbSpline
 70
8
 71
3
 72
8
 73
4
 74
0
 40
0
 40
0
 40
0
 40
0
 40
1
 40
1
 40
1
 40
1
 10
100.552500
 20
23.317500
 30
0.0
 10
100.470000
 20
23.790000
 30
0.0
 10
99.802500
 20
24.030000
 30
0.0
 10
98.557500
 20
24.030000
 30
0.0
  0
SPLINE
  5
230
100
AcDbEntity
  8
0
 62
7
100
AcDbSpline
 70
8
 71
3
 72
8
 73
4
 74
0
 40
0
 40
0
 40
0
 40
0
 40
1
 40
1
 40
1
 40
1
 10
98.557500
 20
24.030000
 30
0.0
 10
98.422500
 20
24.030000
 30
0.0
 10
98.265000
 20
24.030000
 30
0.0
 10
98.062500
 20
24.007500
 30
0.0
  0
LWPOLYLINE
  5
231
100
AcDbEntity
  8
0
 62
7
100
AcDbPolyline
 90
2
 70
0
 10
95.370000
 20
23.317500
 30
0.0
 10
100.552500
 20
23.317500
 30
0.0
  0
SPLINE
  5
232
100
AcDbEntity
  8
0
 62
7
100
AcDbSpline
 70
8
 71
3
 72
8
 73
4
 74
0
 40
0
 40
0
 40
0
 40
0
 40
1
 40
1
 40
1
 40
1
 10
97.710000
 20
24.007500
 30
0.0
 10
97.335000
 20
24.007500
 30
0.0
 10
97.155000
 20
24.187500
 30
0.0
 10
97.155000
 20
24.540000
 30
0.0
  0
LWPOLYLINE
  5
233
100
AcDbEntity
  8
0
 62
7
100
AcDbPolyline
 90
2
 70
0
 10
98.062500
 20
24.007500
 30
0.0
 10
97.710000
 20
24.007500
 30
0.0
  0
SPLINE
  5
234
100
AcDbEntity
  8
0
 62
7
100
AcDbSpline
 70
8
 71
3
 72
8
 73
4
 74
0
 40
0
 40
0
 40
0
 40
0
 40
1
 40
1
 40
1
 40
1
 10
97.155000
 20
24.697500
 30
0.0
 10
97.155000
 20
25.050000
 30
0.0
 10
97.335000
 20
25.230000
 30
0.0
 10
97.687500
 20
25.230000
 30
0.0
  0
SPLINE
  5
235
100
AcDbEntity
  8
0
 62
7
100
AcDbSpline
 70
8
 71
3
 72
8
 73
4
 74
0
 40
0
 40
0
 40
0
 40
0
 40
1
 40
1
 40
1
 40
1
 10
97.687500
 20
25.230000
 30
0.0
 10
98.932500
 20
25.230000
 30
0.0
 10
99.817500
 20
25.170000
 30
0.0
 10
100.365000
 20
24.990000
 30
0.0
  0
SPLINE
  5
236
100
AcDbEntity
  8
0
 62
7
100
AcDbSpline
 70
8
 71
3
 72
8
 73
4
 74
0
 40
0
 40
0
 40
0
 40
0
 40
1
 40
1
 40
1
 40
1
 10
100.365000
 20
24.990000
 30
0.0
 10
101.430000
 20
24.697500
 30
0.0
 10
101.985000
 20
24.105000
 30
0.0
 10
101.985000
 20
23.197500
 30
0.0
  0
LWPOLYLINE
  5
237
100
AcDbEntity
  8
0
 62
7
100
AcDbPolyline
 90
2
 70
0
 10
97.155000
 20
24.540000
 30
0.0
 10
97.155000
 20
24.697500
 30
0.0
  0
SPLINE
  5
238
100
AcDbEntity
  8
0
 62
7
100
AcDbSpline
 70
8
 71
3
 72
8
 73
4
 74
0
 40
0
 40
0
 40
0
 40
0
 40
1
 40
1
 40
1
 40
1
 10
101.985000
 20
20.572500
 30
0.0
 10
101.985000
 20
19.252500
 30
0.0
 10
100.980000
 20
18.585000
 30
0.0
 10
98.992500
 20
18.585000
 30
0.0
  0
LWPOLYLINE
  5
239
100
AcDbEntity
  8
0
 62
7
100
AcDbPolyline
 90
2
 70
0
 10
101.985000
 20
23.197500
 30
0.0
 10
101.985000
 20
20.572500
 30
0.0
  0
SPLINE
  5
23a
100
AcDbEntity
  8
0
 62
7
100
AcDbSpline
 70
8
 71
3
 72
8
 73
4
 74
0
 40
0
 40
0
 40
0
 40
0
 40
1
 40
1
 40
1
 40
1
 10
65.115000
 20
24.532500
 30
0.0
 10
65.115000
 20
24.180000
 30
0.0
 10
64.935000
 20
24.000000
 30
0.0
 10
64.582500
 20
24.000000
 30
0.0
  0
LWPOLYLINE
  5
23b
100
AcDbEntity
  8
0
 62
7
100
AcDbPolyline
 90
3
 70
0
 10
98.992500
 20
18.585000
 30
0.0
 10
95.407500
 20
18.585000
 30
0.0
 10
95.407500
 20
18.585000
 30
0.0
  0
SPLINE
  5
23c
100
AcDbEntity
  8
0
 62
7
100
AcDbSpline
 70
8
 71
3
 72
8
 73
4
 74
0
 40
0
 40
0
 40
0
 40
0
 40
1
 40
1
 40
1
 40
1
 10
63.952500
 20
24.000000
 30
0.0
 10
62.827500
 20
24.000000
 30
0.0
 10
62.257500
 20
23.722500
 30
0.0
 10
62.257500
 20
23.152500
 30
0.0
  0
LWPOLYLINE
  5
23d
100
AcDbEntity
  8
0
 62
7
100
AcDbPolyline
 90
2
 70
0
 10
64.582500
 20
24.000000
 30
0.0
 10
63.952500
 20
24.000000
 30
0.0
  0
SPLINE
  5
23e
100
AcDbEntity
  8
0
 62
7
100
AcDbSpline
 70
8
 71
3
 72
8
 73
4
 74
0
 40
0
 40
0
 40
0
 40
0
 40
1
 40
1
 40
1
 40
1
 10
62.257500
 20
19.132500
 30
0.0
 10
62.257500
 20
18.855000
 30
0.0
 10
62.160000
 20
18.697500
 30
0.0
 10
61.965000
 20
18.622500
 30
0.0
  0
SPLINE
  5
23f
100
AcDbEntity
  8
0
 62
7
100
AcDbSpline
 70
8
 71
3
 72
8
 73
4
 74
0
 40
0
 40
0
 40
0
 40
0
 40
1
 40
1
 40
1
 40
1
 10
61.965000
 20
18.622500
 30
0.0
 10
61.882500
 20
18.600000
 30
0.0
 10
61.672500
 20
18.585000
 30
0.0
 10
61.335000
 20
18.585000
 30
0.0
  0
SPLINE
  5
240
100
AcDbEntity
  8
0
 62
7
100
AcDbSpline
 70
8
 71
3
 72
8
 73
4
 74
0
 40
0
 40
0
 40
0
 40
0
 40
1
 40
1
 40
1
 40
1
 10
61.335000
 20
18.585000
 30
0.0
 10
60.960000
 20
18.585000
 30
0.0
 10
60.780000
 20
18.765000
 30
0.0
 10
60.780000
 20
19.140000
 30
0.0
  0
LWPOLYLINE
  5
241
100
AcDbEntity
  8
0
 62
7
100
AcDbPolyline
 90
2
 70
0
 10
62.257500
 20
23.152500
 30
0.0
 10
62.257500
 20
19.132500
 30
0.0
  0
SPLINE
  5
242
100
AcDbEntity
  8
0
 62
7
100
AcDbSpline
 70
8
 71
3
 72
8
 73
4
 74
0
 40
0
 40
0
 40
0
 40
0
 40
1
 40
1
 40
1
 40
1
 10
60.802500
 20
23.182500
 30
0.0
 10
60.802500
 20
24.562500
 30
0.0
 10
62.062500
 20
25.230000
 30
0.0
 10
64.590000
 20
25.230000
 30
0.0
  0
SPLINE
  5
243
100
AcDbEntity
  8
0
 62
7
100
AcDbSpline
 70
8
 71
3
 72
8
 73
4
 74
0
 40
0
 40
0
 40
0
 40
0
 40
1
 40
1
 40
1
 40
1
 10
64.590000
 20
25.230000
 30
0.0
 10
64.942500
 20
25.230000
 30
0.0
 10
65.122500
 20
25.012500
 30
0.0
 10
65.122500
 20
24.540000
 30
0.0
  0
SPLINE
  5
244
100
AcDbEntity
  8
0
 62
7
100
AcDbSpline
 70
8
 71
3
 72
8
 73
4
 74
0
 40
0
 40
0
 40
0
 40
0
 40
1
 40
1
 40
1
 40
1
 10
78.787500
 20
19.132500
 30
0.0
 10
78.787500
 20
18.757500
 30
0.0
 10
78.592500
 20
18.577500
 30
0.0
 10
78.232500
 20
18.577500
 30
0.0
  0
SPLINE
  5
245
100
AcDbEntity
  8
0
 62
7
100
AcDbSpline
 70
8
 71
3
 72
8
 73
4
 74
0
 40
0
 40
0
 40
0
 40
0
 40
1
 40
1
 40
1
 40
1
 10
78.232500
 20
18.577500
 30
0.0
 10
77.895000
 20
18.577500
 30
0.0
 10
77.685000
 20
18.600000
 30
0.0
 10
77.602500
 20
18.615000
 30
0.0
  0
SPLINE
  5
246
100
AcDbEntity
  8
0
 62
7
100
AcDbSpline
 70
8
 71
3
 72
8
 73
4
 74
0
 40
0
 40
0
 40
0
 40
0
 40
1
 40
1
 40
1
 40
1
 10
77.602500
 20
18.615000
 30
0.0
 10
77.422500
 20
18.697500
 30
0.0
 10
77.325000
 20
18.855000
 30
0.0
 10
77.325000
 20
19.125000
 30
0.0
  0
LWPOLYLINE
  5
247
100
AcDbEntity
  8
0
 62
7
100
AcDbPolyline
 90
2
 70
0
 10
60.780000
 20
19.140000
 30
0.0
 10
60.802500
 20
23.182500
 30
0.0
  0
SPLINE
  5
248
100
AcDbEntity
  8
0
 62
7
100
AcDbSpline
 70
8
 71
3
 72
8
 73
4
 74
0
 40
0
 40
0
 40
0
 40
0
 40
1
 40
1
 40
1
 40
1
 10
77.325000
 20
23.227500
 30
0.0
 10
77.325000
 20
23.760000
 30
0.0
 10
76.695000
 20
24.015000
 30
0.0
 10
75.450000
 20
24.015000
 30
0.0
  0
SPLINE
  5
249
100
AcDbEntity
  8
0
 62
7
100
AcDbSpline
 70
8
 71
3
 72
8
 73
4
 74
0
 40
0
 40
0
 40
0
 40
0
 40
1
 40
1
 40
1
 40
1
 10
75.450000
 20
24.015000
 30
0.0
 10
75.330000
 20
24.015000
 30
0.0
 10
75.195000
 20
24.015000
 30
0.0
 10
75.015000
 20
23.992500
 30
0.0
  0
LWPOLYLINE
  5
24a
100
AcDbEntity
  8
0
 62
7
100
AcDbPolyline
 90
2
 70
0
 10
77.325000
 20
19.125000
 30
0.0
 10
77.325000
 20
23.227500
 30
0.0
  0
SPLINE
  5
24b
100
AcDbEntity
  8
0
 62
7
100
AcDbSpline
 70
8
 71
3
 72
8
 73
4
 74
0
 40
0
 40
0
 40
0
 40
0
 40
1
 40
1
 40
1
 40
1
 10
74.722500
 20
23.992500
 30
0.0
 10
73.740000
 20
23.992500
 30
0.0
 10
73.245000
 20
23.677500
 30
0.0
 10
73.245000
 20
23.025000
 30
0.0
  0
LWPOLYLINE
  5
24c
100
AcDbEntity
  8
0
 62
7
100
AcDbPolyline
 90
2
 70
0
 10
75.015000
 20
23.992500
 30
0.0
 10
74.722500
 20
23.992500
 30
0.0
  0
SPLINE
  5
24d
100
AcDbEntity
  8
0
 62
7
100
AcDbSpline
 70
8
 71
3
 72
8
 73
4
 74
0
 40
0
 40
0
 40
0
 40
0
 40
1
 40
1
 40
1
 40
1
 10
73.245000
 20
19.125000
 30
0.0
 10
73.245000
 20
18.847500
 30
0.0
 10
73.147500
 20
18.690000
 30
0.0
 10
72.952500
 20
18.615000
 30
0.0
  0
SPLINE
  5
24e
100
AcDbEntity
  8
0
 62
7
100
AcDbSpline
 70
8
 71
3
 72
8
 73
4
 74
0
 40
0
 40
0
 40
0
 40
0
 40
1
 40
1
 40
1
 40
1
 10
72.952500
 20
18.615000
 30
0.0
 10
72.877500
 20
18.592500
 30
0.0
 10
72.660000
 20
18.577500
 30
0.0
 10
72.322500
 20
18.577500
 30
0.0
  0
SPLINE
  5
24f
100
AcDbEntity
  8
0
 62
7
100
AcDbSpline
 70
8
 71
3
 72
8
 73
4
 74
0
 40
0
 40
0
 40
0
 40
0
 40
1
 40
1
 40
1
 40
1
 10
72.322500
 20
18.577500
 30
0.0
 10
71.970000
 20
18.577500
 30
0.0
 10
71.790000
 20
18.757500
 30
0.0
 10
71.790000
 20
19.132500
 30
0.0
  0
LWPOLYLINE
  5
250
100
AcDbEntity
  8
0
 62
7
100
AcDbPolyline
 90
2
 70
0
 10
73.245000
 20
23.025000
 30
0.0
 10
73.245000
 20
19.125000
 30
0.0
  0
SPLINE
  5
251
100
AcDbEntity
  8
0
 62
7
100
AcDbSpline
 70
8
 71
3
 72
8
 73
4
 74
0
 40
0
 40
0
 40
0
 40
0
 40
1
 40
1
 40
1
 40
1
 10
71.790000
 20
23.055000
 30
0.0
 10
71.790000
 20
23.452500
 30
0.0
 10
71.632500
 20
23.707500
 30
0.0
 10
71.355000
 20
23.842500
 30
0.0
  0
SPLINE
  5
252
100
AcDbEntity
  8
0
 62
7
100
AcDbSpline
 70
8
 71
3
 72
8
 73
4
 74
0
 40
0
 40
0
 40
0
 40
0
 40
1
 40
1
 40
1
 40
1
 10
71.355000
 20
23.842500
 30
0.0
 10
71.175000
 20
23.940000
 30
0.0
 10
70.845000
 20
24.000000
 30
0.0
 10
70.410000
 20
24.000000
 30
0.0
  0
LWPOLYLINE
  5
253
100
AcDbEntity
  8
0
 62
7
100
AcDbPolyline
 90
2
 70
0
 10
71.790000
 20
19.132500
 30
0.0
 10
71.790000
 20
23.055000
 30
0.0
  0
SPLINE
  5
254
100
AcDbEntity
  8
0
 62
7
100
AcDbSpline
 70
8
 71
3
 72
8
 73
4
 74
0
 40
0
 40
0
 40
0
 40
0
 40
1
 40
1
 40
1
 40
1
 10
70.057500
 20
24.000000
 30
0.0
 10
69.862500
 20
24.022500
 30
0.0
 10
69.705000
 20
24.022500
 30
0.0
 10
69.562500
 20
24.022500
 30
0.0
  0
SPLINE
  5
255
100
AcDbEntity
  8
0
 62
7
100
AcDbSpline
 70
8
 71
3
 72
8
 73
4
 74
0
 40
0
 40
0
 40
0
 40
0
 40
1
 40
1
 40
1
 40
1
 10
69.562500
 20
24.022500
 30
0.0
 10
68.302500
 20
24.022500
 30
0.0
 10
67.687500
 20
23.745000
 30
0.0
 10
67.687500
 20
23.212500
 30
0.0
  0
LWPOLYLINE
  5
256
100
AcDbEntity
  8
0
 62
7
100
AcDbPolyline
 90
2
 70
0
 10
70.410000
 20
24.000000
 30
0.0
 10
70.057500
 20
24.000000
 30
0.0
  0
SPLINE
  5
257
100
AcDbEntity
  8
0
 62
7
100
AcDbSpline
 70
8
 71
3
 72
8
 73
4
 74
0
 40
0
 40
0
 40
0
 40
0
 40
1
 40
1
 40
1
 40
1
 10
67.687500
 20
19.132500
 30
0.0
 10
67.687500
 20
18.855000
 30
0.0
 10
67.590000
 20
18.697500
 30
0.0
 10
67.395000
 20
18.622500
 30
0.0
  0
SPLINE
  5
258
100
AcDbEntity
  8
0
 62
7
100
AcDbSpline
 70
8
 71
3
 72
8
 73
4
 74
0
 40
0
 40
0
 40
0
 40
0
 40
1
 40
1
 40
1
 40
1
 10
67.395000
 20
18.622500
 30
0.0
 10
67.312500
 20
18.600000
 30
0.0
 10
67.095000
 20
18.585000
 30
0.0
 10
66.765000
 20
18.585000
 30
0.0
  0
SPLINE
  5
259
100
AcDbEntity
  8
0
 62
7
100
AcDbSpline
 70
8
 71
3
 72
8
 73
4
 74
0
 40
0
 40
0
 40
0
 40
0
 40
1
 40
1
 40
1
 40
1
 10
66.765000
 20
18.585000
 30
0.0
 10
66.390000
 20
18.585000
 30
0.0
 10
66.210000
 20
18.765000
 30
0.0
 10
66.210000
 20
19.140000
 30
0.0
  0
LWPOLYLINE
  5
25a
100
AcDbEntity
  8
0
 62
7
100
AcDbPolyline
 90
2
 70
0
 10
67.687500
 20
23.212500
 30
0.0
 10
67.687500
 20
19.132500
 30
0.0
  0
SPLINE
  5
25b
100
AcDbEntity
  8
0
 62
7
100
AcDbSpline
 70
8
 71
3
 72
8
 73
4
 74
0
 40
0
 40
0
 40
0
 40
0
 40
1
 40
1
 40
1
 40
1
 10
66.210000
 20
23.062500
 30
0.0
 10
66.210000
 20
24.517500
 30
0.0
 10
67.275000
 20
25.230000
 30
0.0
 10
69.405000
 20
25.230000
 30
0.0
  0
SPLINE
  5
25c
100
AcDbEntity
  8
0
 62
7
100
AcDbSpline
 70
8
 71
3
 72
8
 73
4
 74
0
 40
0
 40
0
 40
0
 40
0
 40
1
 40
1
 40
1
 40
1
 10
69.405000
 20
25.230000
 30
0.0
 10
70.290000
 20
25.230000
 30
0.0
 10
70.845000
 20
25.230000
 30
0.0
 10
71.040000
 20
25.207500
 30
0.0
  0
SPLINE
  5
25d
100
AcDbEntity
  8
0
 62
7
100
AcDbSpline
 70
8
 71
3
 72
8
 73
4
 74
0
 40
0
 40
0
 40
0
 40
0
 40
1
 40
1
 40
1
 40
1
 10
71.040000
 20
25.207500
 30
0.0
 10
71.572500
 20
25.132500
 30
0.0
 10
72.067500
 20
24.952500
 30
0.0
 10
72.555000
 20
24.675000
 30
0.0
  0
SPLINE
  5
25e
100
AcDbEntity
  8
0
 62
7
100
AcDbSpline
 70
8
 71
3
 72
8
 73
4
 74
0
 40
0
 40
0
 40
0
 40
0
 40
1
 40
1
 40
1
 40
1
 10
72.555000
 20
24.675000
 30
0.0
 10
73.012500
 20
24.952500
 30
0.0
 10
73.522500
 20
25.110000
 30
0.0
 10
74.092500
 20
25.185000
 30
0.0
  0
SPLINE
  5
25f
100
AcDbEntity
  8
0
 62
7
100
AcDbSpline
 70
8
 71
3
 72
8
 73
4
 74
0
 40
0
 40
0
 40
0
 40
0
 40
1
 40
1
 40
1
 40
1
 10
74.092500
 20
25.185000
 30
0.0
 10
74.347500
 20
25.222500
 30
0.0
 10
74.902500
 20
25.222500
 30
0.0
 10
75.727500
 20
25.222500
 30
0.0
  0
SPLINE
  5
260
100
AcDbEntity
  8
0
 62
7
100
AcDbSpline
 70
8
 71
3
 72
8
 73
4
 74
0
 40
0
 40
0
 40
0
 40
0
 40
1
 40
1
 40
1
 40
1
 10
75.727500
 20
25.222500
 30
0.0
 10
77.760000
 20
25.222500
 30
0.0
 10
78.780000
 20
24.510000
 30
0.0
 10
78.780000
 20
23.055000
 30
0.0
  0
LWPOLYLINE
  5
261
100
AcDbEntity
  8
0
 62
7
100
AcDbPolyline
 90
2
 70
0
 10
66.210000
 20
19.140000
 30
0.0
 10
66.210000
 20
23.062500
 30
0.0
  0
SPLINE
  5
262
100
AcDbEntity
  8
0
 62
7
100
AcDbSpline
 70
8
 71
3
 72
8
 73
4
 74
0
 40
0
 40
0
 40
0
 40
0
 40
1
 40
1
 40
1
 40
1
 10
88.980000
 20
20.572500
 30
0.0
 10
88.980000
 20
19.230000
 30
0.0
 10
87.562500
 20
18.562500
 30
0.0
 10
84.720000
 20
18.562500
 30
0.0
  0
SPLINE
  5
263
100
AcDbEntity
  8
0
 62
7
100
AcDbSpline
 70
8
 71
3
 72
8
 73
4
 74
0
 40
0
 40
0
 40
0
 40
0
 40
1
 40
1
 40
1
 40
1
 10
84.720000
 20
18.562500
 30
0.0
 10
84.502500
 20
18.562500
 30
0.0
 10
84.225000
 20
18.562500
 30
0.0
 10
83.872500
 20
18.585000
 30
0.0
  0
LWPOLYLINE
  5
264
100
AcDbEntity
  8
0
 62
7
100
AcDbPolyline
 90
3
 70
0
 10
78.780000
 20
23.055000
 30
0.0
 10
78.780000
 20
19.132500
 30
0.0
 10
78.787500
 20
19.132500
 30
0.0
  0
SPLINE
  5
265
100
AcDbEntity
  8
0
 62
7
100
AcDbSpline
 70
8
 71
3
 72
8
 73
4
 74
0
 40
0
 40
0
 40
0
 40
0
 40
1
 40
1
 40
1
 40
1
 10
83.242500
 20
18.585000
 30
0.0
 10
80.857500
 20
18.585000
 30
0.0
 10
79.672500
 20
19.237500
 30
0.0
 10
79.672500
 20
20.572500
 30
0.0
  0
LWPOLYLINE
  5
266
100
AcDbEntity
  8
0
 62
7
100
AcDbPolyline
 90
2
 70
0
 10
83.872500
 20
18.585000
 30
0.0
 10
83.242500
 20
18.585000
 30
0.0
  0
SPLINE
  5
267
100
AcDbEntity
  8
0
 62
7
100
AcDbSpline
 70
8
 71
3
 72
8
 73
4
 74
0
 40
0
 40
0
 40
0
 40
0
 40
1
 40
1
 40
1
 40
1
 10
79.672500
 20
24.690000
 30
0.0
 10
79.672500
 20
25.042500
 30
0.0
 10
79.852500
 20
25.222500
 30
0.0
 10
80.227500
 20
25.222500
 30
0.0
  0
SPLINE
  5
268
100
AcDbEntity
  8
0
 62
7
100
AcDbSpline
 70
8
 71
3
 72
8
 73
4
 74
0
 40
0
 40
0
 40
0
 40
0
 40
1
 40
1
 40
1
 40
1
 10
80.227500
 20
25.222500
 30
0.0
 10
80.565000
 20
25.222500
 30
0.0
 10
80.760000
 20
25.222500
 30
0.0
 10
80.857500
 20
25.185000
 30
0.0
  0
SPLINE
  5
269
100
AcDbEntity
  8
0
 62
7
100
AcDbSpline
 70
8
 71
3
 72
8
 73
4
 74
0
 40
0
 40
0
 40
0
 40
0
 40
1
 40
1
 40
1
 40
1
 10
80.857500
 20
25.185000
 30
0.0
 10
81.037500
 20
25.125000
 30
0.0
 10
81.135000
 20
24.967500
 30
0.0
 10
81.135000
 20
24.690000
 30
0.0
  0
LWPOLYLINE
  5
26a
100
AcDbEntity
  8
0
 62
7
100
AcDbPolyline
 90
2
 70
0
 10
79.672500
 20
20.572500
 30
0.0
 10
79.672500
 20
24.690000
 30
0.0
  0
SPLINE
  5
26b
100
AcDbEntity
  8
0
 62
7
100
AcDbSpline
 70
8
 71
3
 72
8
 73
4
 74
0
 40
0
 40
0
 40
0
 40
0
 40
1
 40
1
 40
1
 40
1
 10
81.135000
 20
20.572500
 30
0.0
 10
81.135000
 20
20.062500
 30
0.0
 10
81.847500
 20
19.807500
 30
0.0
 10
83.242500
 20
19.807500
 30
0.0
  0
LWPOLYLINE
  5
26c
100
AcDbEntity
  8
0
 62
7
100
AcDbPolyline
 90
2
 70
0
 10
81.135000
 20
24.690000
 30
0.0
 10
81.135000
 20
20.572500
 30
0.0
  0
SPLINE
  5
26d
100
AcDbEntity
  8
0
 62
7
100
AcDbSpline
 70
8
 71
3
 72
8
 73
4
 74
0
 40
0
 40
0
 40
0
 40
0
 40
1
 40
1
 40
1
 40
1
 10
85.432500
 20
19.807500
 30
0.0
 10
86.812500
 20
19.807500
 30
0.0
 10
87.480000
 20
20.062500
 30
0.0
 10
87.480000
 20
20.557500
 30
0.0
  0
LWPOLYLINE
  5
26e
100
AcDbEntity
  8
0
 62
7
100
AcDbPolyline
 90
2
 70
0
 10
83.242500
 20
19.807500
 30
0.0
 10
85.432500
 20
19.807500
 30
0.0
  0
SPLINE
  5
26f
100
AcDbEntity
  8
0
 62
7
100
AcDbSpline
 70
8
 71
3
 72
8
 73
4
 74
0
 40
0
 40
0
 40
0
 40
0
 40
1
 40
1
 40
1
 40
1
 10
87.480000
 20
24.697500
 30
0.0
 10
87.480000
 20
24.975000
 30
0.0
 10
87.577500
 20
25.132500
 30
0.0
 10
87.795000
 20
25.192500
 30
0.0
  0
SPLINE
  5
270
100
AcDbEntity
  8
0
 62
7
100
AcDbSpline
 70
8
 71
3
 72
8
 73
4
 74
0
 40
0
 40
0
 40
0
 40
0
 40
1
 40
1
 40
1
 40
1
 10
87.795000
 20
25.192500
 30
0.0
 10
87.855000
 20
25.230000
 30
0.0
 10
88.072500
 20
25.230000
 30
0.0
 10
88.425000
 20
25.230000
 30
0.0
  0
SPLINE
  5
271
100
AcDbEntity
  8
0
 62
7
100
AcDbSpline
 70
8
 71
3
 72
8
 73
4
 74
0
 40
0
 40
0
 40
0
 40
0
 40
1
 40
1
 40
1
 40
1
 10
88.425000
 20
25.230000
 30
0.0
 10
88.777500
 20
25.230000
 30
0.0
 10
88.972500
 20
25.050000
 30
0.0
 10
88.972500
 20
24.697500
 30
0.0
  0
LWPOLYLINE
  5
272
100
AcDbEntity
  8
0
 62
7
100
AcDbPolyline
 90
2
 70
0
 10
87.480000
 20
20.557500
 30
0.0
 10
87.480000
 20
24.697500
 30
0.0
  0
SPLINE
  5
273
100
AcDbEntity
  8
0
 62
7
100
AcDbSpline
 70
8
 71
3
 72
8
 73
4
 74
0
 40
0
 40
0
 40
0
 40
0
 40
1
 40
1
 40
1
 40
1
 10
91.342500
 20
19.132500
 30
0.0
 10
91.342500
 20
18.757500
 30
0.0
 10
91.162500
 20
18.577500
 30
0.0
 10
90.787500
 20
18.577500
 30
0.0
  0
SPLINE
  5
274
100
AcDbEntity
  8
0
 62
7
100
AcDbSpline
 70
8
 71
3
 72
8
 73
4
 74
0
 40
0
 40
0
 40
0
 40
0
 40
1
 40
1
 40
1
 40
1
 10
90.787500
 20
18.577500
 30
0.0
 10
90.450000
 20
18.577500
 30
0.0
 10
90.232500
 20
18.600000
 30
0.0
 10
90.157500
 20
18.637500
 30
0.0
  0
SPLINE
  5
275
100
AcDbEntity
  8
0
 62
7
100
AcDbSpline
 70
8
 71
3
 72
8
 73
4
 74
0
 40
0
 40
0
 40
0
 40
0
 40
1
 40
1
 40
1
 40
1
 10
90.157500
 20
18.637500
 30
0.0
 10
89.977500
 20
18.697500
 30
0.0
 10
89.880000
 20
18.855000
 30
0.0
 10
89.880000
 20
19.132500
 30
0.0
  0
LWPOLYLINE
  5
276
100
AcDbEntity
  8
0
 62
7
100
AcDbPolyline
 90
3
 70
0
 10
88.972500
 20
24.697500
 30
0.0
 10
88.972500
 20
20.580000
 30
0.0
 10
88.980000
 20
20.572500
 30
0.0
  0
SPLINE
  5
277
100
AcDbEntity
  8
0
 62
7
100
AcDbSpline
 70
8
 71
3
 72
8
 73
4
 74
0
 40
0
 40
0
 40
0
 40
0
 40
1
 40
1
 40
1
 40
1
 10
89.880000
 20
26.482500
 30
0.0
 10
89.880000
 20
26.857500
 30
0.0
 10
90.060000
 20
27.037500
 30
0.0
 10
90.412500
 20
27.037500
 30
0.0
  0
SPLINE
  5
278
100
AcDbEntity
  8
0
 62
7
100
AcDbSpline
 70
8
 71
3
 72
8
 73
4
 74
0
 40
0
 40
0
 40
0
 40
0
 40
1
 40
1
 40
1
 40
1
 10
90.412500
 20
27.037500
 30
0.0
 10
90.765000
 20
27.037500
 30
0.0
 10
90.967500
 20
27.015000
 30
0.0
 10
91.042500
 20
26.977500
 30
0.0
  0
SPLINE
  5
279
100
AcDbEntity
  8
0
 62
7
100
AcDbSpline
 70
8
 71
3
 72
8
 73
4
 74
0
 40
0
 40
0
 40
0
 40
0
 40
1
 40
1
 40
1
 40
1
 10
91.042500
 20
26.977500
 30
0.0
 10
91.237500
 20
26.917500
 30
0.0
 10
91.335000
 20
26.760000
 30
0.0
 10
91.335000
 20
26.482500
 30
0.0
  0
LWPOLYLINE
  5
27a
100
AcDbEntity
  8
0
 62
7
100
AcDbPolyline
 90
2
 70
0
 10
89.880000
 20
19.132500
 30
0.0
 10
89.880000
 20
26.482500
 30
0.0
  0
SPLINE
  5
27b
100
AcDbEntity
  8
0
 62
7
100
AcDbSpline
 70
8
 71
3
 72
8
 73
4
 74
0
 40
0
 40
0
 40
0
 40
0
 40
1
 40
1
 40
1
 40
1
 10
50.115000
 20
24.630000
 30
0.0
 10
50.115000
 20
24.172500
 30
0.0
 10
49.942500
 20
23.962500
 30
0.0
 10
49.582500
 20
23.962500
 30
0.0
  0
LWPOLYLINE
  5
27c
100
AcDbEntity
  8
0
 62
7
100
AcDbPolyline
 90
3
 70
0
 10
91.335000
 20
26.482500
 30
0.0
 10
91.335000
 20
19.132500
 30
0.0
 10
91.342500
 20
19.132500
 30
0.0
  0
SPLINE
  5
27d
100
AcDbEntity
  8
0
 62
7
100
AcDbSpline
 70
8
 71
3
 72
8
 73
4
 74
0
 40
0
 40
0
 40
0
 40
0
 40
1
 40
1
 40
1
 40
1
 10
47.355000
 20
19.132500
 30
0.0
 10
47.355000
 20
18.757500
 30
0.0
 10
47.160000
 20
18.577500
 30
0.0
 10
46.800000
 20
18.577500
 30
0.0
  0
SPLINE
  5
27e
100
AcDbEntity
  8
0
 62
7
100
AcDbSpline
 70
8
 71
3
 72
8
 73
4
 74
0
 40
0
 40
0
 40
0
 40
0
 40
1
 40
1
 40
1
 40
1
 10
46.800000
 20
18.577500
 30
0.0
 10
46.462500
 20
18.577500
 30
0.0
 10
46.245000
 20
18.600000
 30
0.0
 10
46.170000
 20
18.615000
 30
0.0
  0
SPLINE
  5
27f
100
AcDbEntity
  8
0
 62
7
100
AcDbSpline
 70
8
 71
3
 72
8
 73
4
 74
0
 40
0
 40
0
 40
0
 40
0
 40
1
 40
1
 40
1
 40
1
 10
46.170000
 20
18.615000
 30
0.0
 10
45.975000
 20
18.697500
 30
0.0
 10
45.877500
 20
18.855000
 30
0.0
 10
45.877500
 20
19.125000
 30
0.0
  0
LWPOLYLINE
  5
280
100
AcDbEntity
  8
0
 62
7
100
AcDbPolyline
 90
3
 70
0
 10
49.582500
 20
23.962500
 30
0.0
 10
47.355000
 20
23.962500
 30
0.0
 10
47.355000
 20
19.132500
 30
0.0
  0
SPLINE
  5
281
100
AcDbEntity
  8
0
 62
7
100
AcDbSpline
 70
8
 71
3
 72
8
 73
4
 74
0
 40
0
 40
0
 40
0
 40
0
 40
1
 40
1
 40
1
 40
1
 10
45.877500
 20
25.057500
 30
0.0
 10
45.877500
 20
26.377500
 30
0.0
 10
46.980000
 20
27.030000
 30
0.0
 10
49.170000
 20
27.030000
 30
0.0
  0
LWPOLYLINE
  5
282
100
AcDbEntity
  8
0
 62
7
100
AcDbPolyline
 90
2
 70
0
 10
45.877500
 20
19.125000
 30
0.0
 10
45.877500
 20
25.057500
 30
0.0
  0
SPLINE
  5
283
100
AcDbEntity
  8
0
 62
7
100
AcDbSpline
 70
8
 71
3
 72
8
 73
4
 74
0
 40
0
 40
0
 40
0
 40
0
 40
1
 40
1
 40
1
 40
1
 10
49.582500
 20
27.030000
 30
0.0
 10
49.800000
 20
27.007500
 30
0.0
 10
49.957500
 20
26.947500
 30
0.0
 10
50.040000
 20
26.835000
 30
0.0
  0
SPLINE
  5
284
100
AcDbEntity
  8
0
 62
7
100
AcDbSpline
 70
8
 71
3
 72
8
 73
4
 74
0
 40
0
 40
0
 40
0
 40
0
 40
1
 40
1
 40
1
 40
1
 10
50.040000
 20
26.835000
 30
0.0
 10
50.100000
 20
26.737500
 30
0.0
 10
50.115000
 20
26.580000
 30
0.0
 10
50.115000
 20
26.362500
 30
0.0
  0
SPLINE
  5
285
100
AcDbEntity
  8
0
 62
7
100
AcDbSpline
 70
8
 71
3
 72
8
 73
4
 74
0
 40
0
 40
0
 40
0
 40
0
 40
1
 40
1
 40
1
 40
1
 10
50.115000
 20
26.362500
 30
0.0
 10
50.115000
 20
25.987500
 30
0.0
 10
49.942500
 20
25.807500
 30
0.0
 10
49.582500
 20
25.807500
 30
0.0
  0
SPLINE
  5
286
100
AcDbEntity
  8
0
 62
7
100
AcDbSpline
 70
8
 71
3
 72
8
 73
4
 74
0
 40
0
 40
0
 40
0
 40
0
 40
1
 40
1
 40
1
 40
1
 10
49.582500
 20
25.807500
 30
0.0
 10
48.892500
 20
25.807500
 30
0.0
 10
48.480000
 20
25.785000
 30
0.0
 10
48.300000
 20
25.770000
 30
0.0
  0
SPLINE
  5
287
100
AcDbEntity
  8
0
 62
7
100
AcDbSpline
 70
8
 71
3
 72
8
 73
4
 74
0
 40
0
 40
0
 40
0
 40
0
 40
1
 40
1
 40
1
 40
1
 10
48.300000
 20
25.770000
 30
0.0
 10
47.670000
 20
25.687500
 30
0.0
 10
47.377500
 20
25.492500
 30
0.0
 10
47.377500
 20
25.177500
 30
0.0
  0
LWPOLYLINE
  5
288
100
AcDbEntity
  8
0
 62
7
100
AcDbPolyline
 90
2
 70
0
 10
49.170000
 20
27.030000
 30
0.0
 10
49.582500
 20
27.030000
 30
0.0
  0
SPLINE
  5
289
100
AcDbEntity
  8
0
 62
7
100
AcDbSpline
 70
8
 71
3
 72
8
 73
4
 74
0
 40
0
 40
0
 40
0
 40
0
 40
1
 40
1
 40
1
 40
1
 10
49.582500
 20
25.177500
 30
0.0
 10
49.935000
 20
25.177500
 30
0.0
 10
50.115000
 20
24.997500
 30
0.0
 10
50.115000
 20
24.622500
 30
0.0
  0
SPLINE
  5
28a
100
AcDbEntity
  8
0
 62
7
100
AcDbSpline
 70
8
 71
3
 72
8
 73
4
 74
0
 40
0
 40
0
 40
0
 40
0
 40
1
 40
1
 40
1
 40
1
 10
54.195000
 20
18.585000
 30
0.0
 10
53.370000
 20
18.585000
 30
0.0
 10
52.642500
 20
18.720000
 30
0.0
 10
52.027500
 20
18.997500
 30
0.0
  0
SPLINE
  5
28b
100
AcDbEntity
  8
0
 62
7
100
AcDbSpline
 70
8
 71
3
 72
8
 73
4
 74
0
 40
0
 40
0
 40
0
 40
0
 40
1
 40
1
 40
1
 40
1
 10
52.027500
 20
18.997500
 30
0.0
 10
51.217500
 20
19.350000
 30
0.0
 10
50.805000
 20
19.905000
 30
0.0
 10
50.805000
 20
20.655000
 30
0.0
  0
LWPOLYLINE
  5
28c
100
AcDbEntity
  8
0
 62
7
100
AcDbPolyline
 90
2
 70
0
 10
47.377500
 20
25.177500
 30
0.0
 10
49.582500
 20
25.177500
 30
0.0
  0
SPLINE
  5
28d
100
AcDbEntity
  8
0
 62
7
100
AcDbSpline
 70
8
 71
3
 72
8
 73
4
 74
0
 40
0
 40
0
 40
0
 40
0
 40
1
 40
1
 40
1
 40
1
 10
50.805000
 20
23.100000
 30
0.0
 10
50.805000
 20
23.827500
 30
0.0
 10
51.217500
 20
24.397500
 30
0.0
 10
52.027500
 20
24.795000
 30
0.0
  0
SPLINE
  5
28e
100
AcDbEntity
  8
0
 62
7
100
AcDbSpline
 70
8
 71
3
 72
8
 73
4
 74
0
 40
0
 40
0
 40
0
 40
0
 40
1
 40
1
 40
1
 40
1
 10
52.027500
 20
24.795000
 30
0.0
 10
52.657500
 20
25.087500
 30
0.0
 10
53.385000
 20
25.230000
 30
0.0
 10
54.195000
 20
25.230000
 30
0.0
  0
LWPOLYLINE
  5
28f
100
AcDbEntity
  8
0
 62
7
100
AcDbPolyline
 90
2
 70
0
 10
50.805000
 20
20.655000
 30
0.0
 10
50.805000
 20
23.100000
 30
0.0
  0
SPLINE
  5
290
100
AcDbEntity
  8
0
 62
7
100
AcDbSpline
 70
8
 71
3
 72
8
 73
4
 74
0
 40
0
 40
0
 40
0
 40
0
 40
1
 40
1
 40
1
 40
1
 10
56.640000
 20
25.230000
 30
0.0
 10
58.807500
 20
25.230000
 30
0.0
 10
59.895000
 20
24.540000
 30
0.0
 10
59.895000
 20
23.122500
 30
0.0
  0
LWPOLYLINE
  5
291
100
AcDbEntity
  8
0
 62
7
100
AcDbPolyline
 90
2
 70
0
 10
54.195000
 20
25.230000
 30
0.0
 10
56.640000
 20
25.230000
 30
0.0
  0
SPLINE
  5
292
100
AcDbEntity
  8
0
 62
7
100
AcDbSpline
 70
8
 71
3
 72
8
 73
4
 74
0
 40
0
 40
0
 40
0
 40
0
 40
1
 40
1
 40
1
 40
1
 10
59.895000
 20
20.662500
 30
0.0
 10
59.895000
 20
19.912500
 30
0.0
 10
59.520000
 20
19.357500
 30
0.0
 10
58.755000
 20
19.005000
 30
0.0
  0
SPLINE
  5
293
100
AcDbEntity
  8
0
 62
7
100
AcDbSpline
 70
8
 71
3
 72
8
 73
4
 74
0
 40
0
 40
0
 40
0
 40
0
 40
1
 40
1
 40
1
 40
1
 10
58.755000
 20
19.005000
 30
0.0
 10
58.200000
 20
18.727500
 30
0.0
 10
57.495000
 20
18.592500
 30
0.0
 10
56.647500
 20
18.592500
 30
0.0
  0
SPLINE
  5
294
100
AcDbEntity
  8
0
 62
7
100
AcDbSpline
 70
8
 71
3
 72
8
 73
4
 74
0
 40
0
 40
0
 40
0
 40
0
 40
1
 40
1
 40
1
 40
1
 10
56.595000
 20
19.807500
 30
0.0
 10
56.992500
 20
19.807500
 30
0.0
 10
57.345000
 20
19.867500
 30
0.0
 10
57.682500
 20
19.987500
 30
0.0
  0
SPLINE
  5
295
100
AcDbEntity
  8
0
 62
7
100
AcDbSpline
 70
8
 71
3
 72
8
 73
4
 74
0
 40
0
 40
0
 40
0
 40
0
 40
1
 40
1
 40
1
 40
1
 10
57.682500
 20
19.987500
 30
0.0
 10
58.155000
 20
20.145000
 30
0.0
 10
58.395000
 20
20.362500
 30
0.0
 10
58.395000
 20
20.655000
 30
0.0
  0
LWPOLYLINE
  5
296
100
AcDbEntity
  8
0
 62
7
100
AcDbPolyline
 90
2
 70
0
 10
59.895000
 20
23.122500
 30
0.0
 10
59.895000
 20
20.662500
 30
0.0
  0
SPLINE
  5
297
100
AcDbEntity
  8
0
 62
7
100
AcDbSpline
 70
8
 71
3
 72
8
 73
4
 74
0
 40
0
 40
0
 40
0
 40
0
 40
1
 40
1
 40
1
 40
1
 10
58.395000
 20
23.220000
 30
0.0
 10
58.395000
 20
23.752500
 30
0.0
 10
57.802500
 20
24.007500
 30
0.0
 10
56.602500
 20
24.007500
 30
0.0
  0
LWPOLYLINE
  5
298
100
AcDbEntity
  8
0
 62
7
100
AcDbPolyline
 90
2
 70
0
 10
58.395000
 20
20.655000
 30
0.0
 10
58.395000
 20
23.220000
 30
0.0
  0
SPLINE
  5
299
100
AcDbEntity
  8
0
 62
7
100
AcDbSpline
 70
8
 71
3
 72
8
 73
4
 74
0
 40
0
 40
0
 40
0
 40
0
 40
1
 40
1
 40
1
 40
1
 10
54.217500
 20
24.007500
 30
0.0
 10
53.782500
 20
24.007500
 30
0.0
 10
53.392500
 20
23.947500
 30
0.0
 10
53.017500
 20
23.850000
 30
0.0
  0
SPLINE
  5
29a
100
AcDbEntity
  8
0
 62
7
100
AcDbSpline
 70
8
 71
3
 72
8
 73
4
 74
0
 40
0
 40
0
 40
0
 40
0
 40
1
 40
1
 40
1
 40
1
 10
53.017500
 20
23.850000
 30
0.0
 10
52.522500
 20
23.670000
 30
0.0
 10
52.290000
 20
23.437500
 30
0.0
 10
52.290000
 20
23.100000
 30
0.0
  0
LWPOLYLINE
  5
29b
100
AcDbEntity
  8
0
 62
7
100
AcDbPolyline
 90
2
 70
0
 10
56.602500
 20
24.007500
 30
0.0
 10
54.217500
 20
24.007500
 30
0.0
  0
SPLINE
  5
29c
100
AcDbEntity
  8
0
 62
7
100
AcDbSpline
 70
8
 71
3
 72
8
 73
4
 74
0
 40
0
 40
0
 40
0
 40
0
 40
1
 40
1
 40
1
 40
1
 10
52.290000
 20
20.655000
 30
0.0
 10
52.290000
 20
20.340000
 30
0.0
 10
52.545000
 20
20.100000
 30
0.0
 10
53.062500
 20
19.965000
 30
0.0
  0
SPLINE
  5
29d
100
AcDbEntity
  8
0
 62
7
100
AcDbSpline
 70
8
 71
3
 72
8
 73
4
 74
0
 40
0
 40
0
 40
0
 40
0
 40
1
 40
1
 40
1
 40
1
 10
53.062500
 20
19.965000
 30
0.0
 10
53.400000
 20
19.867500
 30
0.0
 10
53.790000
 20
19.807500
 30
0.0
 10
54.225000
 20
19.807500
 30
0.0
  0
LWPOLYLINE
  5
29e
100
AcDbEntity
  8
0
 62
7
100
AcDbPolyline
 90
2
 70
0
 10
52.290000
 20
23.100000
 30
0.0
 10
52.290000
 20
20.655000
 30
0.0
  0
SPLINE
  5
29f
100
AcDbEntity
  8
0
 62
7
100
AcDbSpline
 70
8
 71
3
 72
8
 73
4
 74
0
 40
0
 40
0
 40
0
 40
0
 40
1
 40
1
 40
1
 40
1
 10
37.042500
 20
24.427500
 30
0.0
 10
41.122500
 20
24.532500
 30
0.0
 10
44.985000
 20
27.337500
 30
0.0
 10
46.552500
 20
31.650000
 30
0.0
  0
LWPOLYLINE
  5
2a0
100
AcDbEntity
  8
0
 62
7
100
AcDbPolyline
 90
3
 70
0
 10
54.225000
 20
19.807500
 30
0.0
 10
56.610000
 20
19.807500
 30
0.0
 10
56.595000
 20
19.807500
 30
0.0
  0
SPLINE
  5
2a1
100
AcDbEntity
  8
0
 62
7
100
AcDbSpline
 70
8
 71
3
 72
8
 73
4
 74
0
 40
0
 40
0
 40
0
 40
0
 40
1
 40
1
 40
1
 40
1
 10
46.552500
 20
31.650000
 30
0.0
 10
48.697500
 20
37.582500
 30
0.0
 10
46.095000
 20
43.140000
 30
0.0
 10
41.092500
 20
45.082500
 30
0.0
  0
SPLINE
  5
2a2
100
AcDbEntity
  8
0
 62
7
100
AcDbSpline
 70
8
 71
3
 72
8
 73
4
 74
0
 40
0
 40
0
 40
0
 40
0
 40
1
 40
1
 40
1
 40
1
 10
41.092500
 20
45.082500
 30
0.0
 10
35.985000
 20
47.070000
 30
0.0
 10
30.112500
 20
43.987500
 30
0.0
 10
28.065000
 20
38.422500
 30
0.0
  0
SPLINE
  5
2a3
100
AcDbEntity
  8
0
 62
7
100
AcDbSpline
 70
8
 71
3
 72
8
 73
4
 74
0
 40
0
 40
0
 40
0
 40
0
 40
1
 40
1
 40
1
 40
1
 10
28.065000
 20
38.422500
 30
0.0
 10
26.527500
 20
34.237500
 30
0.0
 10
27.532500
 20
29.715000
 30
0.0
 10
30.330000
 20
26.977500
 30
0.0
  0
LWPOLYLINE
  5
2a4
100
AcDbEntity
  8
0
 62
7
100
AcDbPolyline
 90
1
 70
1
 10
46.552500
 20
31.650000
 30
0.0
  0
SPLINE
  5
2a5
100
AcDbEntity
  8
0
 62
7
100
AcDbSpline
 70
8
 71
3
 72
8
 73
4
 74
0
 40
0
 40
0
 40
0
 40
0
 40
1
 40
1
 40
1
 40
1
 10
40.425000
 20
42.532500
 30
0.0
 10
43.927500
 20
41.062500
 30
0.0
 10
45.645000
 20
36.810000
 30
0.0
 10
44.167500
 20
32.625000
 30
0.0
  0
SPLINE
  5
2a6
100
AcDbEntity
  8
0
 62
7
100
AcDbSpline
 70
8
 71
3
 72
8
 73
4
 74
0
 40
0
 40
0
 40
0
 40
0
 40
1
 40
1
 40
1
 40
1
 10
44.167500
 20
32.625000
 30
0.0
 10
42.652500
 20
28.335000
 30
0.0
 10
38.340000
 20
25.987500
 30
0.0
 10
34.440000
 20
27.405000
 30
0.0
  0
SPLINE
  5
2a7
100
AcDbEntity
  8
0
 62
7
100
AcDbSpline
 70
8
 71
3
 72
8
 73
4
 74
0
 40
0
 40
0
 40
0
 40
0
 40
1
 40
1
 40
1
 40
1
 10
34.440000
 20
27.405000
 30
0.0
 10
30.870000
 20
28.702500
 30
0.0
 10
28.927500
 20
33.082500
 30
0.0
 10
30.540000
 20
37.567500
 30
0.0
  0
SPLINE
  5
2a8
100
AcDbEntity
  8
0
 62
7
100
AcDbSpline
 70
8
 71
3
 72
8
 73
4
 74
0
 40
0
 40
0
 40
0
 40
0
 40
1
 40
1
 40
1
 40
1
 10
30.540000
 20
37.567500
 30
0.0
 10
31.927500
 20
41.437500
 30
0.0
 10
36.187500
 20
44.310000
 30
0.0
 10
40.432500
 20
42.525000
 30
0.0
  0
SPLINE
  5
2a9
100
AcDbEntity
  8
0
 62
7
100
AcDbSpline
 70
8
 71
3
 72
8
 73
4
 74
0
 40
0
 40
0
 40
0
 40
0
 40
1
 40
1
 40
1
 40
1
 10
118.507500
 20
31.155000
 30
0.0
 10
116.617500
 20
26.010000
 30
0.0
 10
111.292500
 20
23.235000
 30
0.0
 10
106.620000
 20
24.952500
 30
0.0
  0
SPLINE
  5
2aa
100
AcDbEntity
  8
0
 62
7
100
AcDbSpline
 70
8
 71
3
 72
8
 73
4
 74
0
 40
0
 40
0
 40
0
 40
0
 40
1
 40
1
 40
1
 40
1
 10
106.620000
 20
24.952500
 30
0.0
 10
101.947500
 20
26.670000
 30
0.0
 10
99.690000
 20
32.235000
 30
0.0
 10
101.580000
 20
37.380000
 30
0.0
  0
SPLINE
  5
2ab
100
AcDbEntity
  8
0
 62
7
100
AcDbSpline
 70
8
 71
3
 72
8
 73
4
 74
0
 40
0
 40
0
 40
0
 40
0
 40
1
 40
1
 40
1
 40
1
 10
101.580000
 20
37.380000
 30
0.0
 10
103.470000
 20
42.525000
 30
0.0
 10
108.795000
 20
45.300000
 30
0.0
 10
113.467500
 20
43.582500
 30
0.0
  0
SPLINE
  5
2ac
100
AcDbEntity
  8
0
 62
7
100
AcDbSpline
 70
8
 71
3
 72
8
 73
4
 74
0
 40
0
 40
0
 40
0
 40
0
 40
1
 40
1
 40
1
 40
1
 10
113.467500
 20
43.582500
 30
0.0
 10
118.140000
 20
41.865000
 30
0.0
 10
120.397500
 20
36.300000
 30
0.0
 10
118.507500
 20
31.155000
 30
0.0
  0
SPLINE
  5
2ad
100
AcDbEntity
  8
0
 62
7
100
AcDbSpline
 70
8
 71
3
 72
8
 73
4
 74
0
 40
0
 40
0
 40
0
 40
0
 40
1
 40
1
 40
1
 40
1
 10
112.680000
 20
41.115000
 30
0.0
 10
109.117500
 20
42.442500
 30
0.0
 10
105.277500
 20
40.072500
 30
0.0
 10
103.965000
 20
36.510000
 30
0.0
  0
SPLINE
  5
2ae
100
AcDbEntity
  8
0
 62
7
100
AcDbSpline
 70
8
 71
3
 72
8
 73
4
 74
0
 40
0
 40
0
 40
0
 40
0
 40
1
 40
1
 40
1
 40
1
 10
103.965000
 20
36.510000
 30
0.0
 10
102.652500
 20
32.947500
 30
0.0
 10
104.130000
 20
28.597500
 30
0.0
 10
107.385000
 20
27.472500
 30
0.0
  0
SPLINE
  5
2af
100
AcDbEntity
  8
0
 62
7
100
AcDbSpline
 70
8
 71
3
 72
8
 73
4
 74
0
 40
0
 40
0
 40
0
 40
0
 40
1
 40
1
 40
1
 40
1
 10
107.385000
 20
27.472500
 30
0.0
 10
111.352500
 20
26.107500
 30
0.0
 10
114.637500
 20
28.342500
 30
0.0
 10
116.100000
 20
32.077500
 30
0.0
  0
SPLINE
  5
2b0
100
AcDbEntity
  8
0
 62
7
100
AcDbSpline
 70
8
 71
3
 72
8
 73
4
 74
0
 40
0
 40
0
 40
0
 40
0
 40
1
 40
1
 40
1
 40
1
 10
116.100000
 20
32.077500
 30
0.0
 10
117.480000
 20
35.610000
 30
0.0
 10
115.912500
 20
39.907500
 30
0.0
 10
112.680000
 20
41.107500
 30
0.0
  0
SPLINE
  5
2b1
100
AcDbEntity
  8
0
 62
7
100
AcDbSpline
 70
8
 71
3
 72
8
 73
4
 74
0
 40
0
 40
0
 40
0
 40
0
 40
1
 40
1
 40
1
 40
1
 10
79.260000
 20
53.407500
 30
0.0
 10
79.260000
 20
48.787500
 30
0.0
 10
75.517500
 20
45.037500
 30
0.0
 10
70.897500
 20
45.037500
 30
0.0
  0
SPLINE
  5
2b2
100
AcDbEntity
  8
0
 62
7
100
AcDbSpline
 70
8
 71
3
 72
8
 73
4
 74
0
 40
0
 40
0
 40
0
 40
0
 40
1
 40
1
 40
1
 40
1
 10
70.897500
 20
45.037500
 30
0.0
 10
66.277500
 20
45.037500
 30
0.0
 10
62.527500
 20
48.780000
 30
0.0
 10
62.527500
 20
53.407500
 30
0.0
  0
SPLINE
  5
2b3
100
AcDbEntity
  8
0
 62
7
100
AcDbSpline
 70
8
 71
3
 72
8
 73
4
 74
0
 40
0
 40
0
 40
0
 40
0
 40
1
 40
1
 40
1
 40
1
 10
62.527500
 20
53.407500
 30
0.0
 10
62.527500
 20
58.035000
 30
0.0
 10
66.270000
 20
61.777500
 30
0.0
 10
70.897500
 20
61.777500
 30
0.0
  0
SPLINE
  5
2b4
100
AcDbEntity
  8
0
 62
7
100
AcDbSpline
 70
8
 71
3
 72
8
 73
4
 74
0
 40
0
 40
0
 40
0
 40
0
 40
1
 40
1
 40
1
 40
1
 10
70.897500
 20
61.777500
 30
0.0
 10
75.525000
 20
61.777500
 30
0.0
 10
79.260000
 20
58.027500
 30
0.0
 10
79.260000
 20
53.407500
 30
0.0
  0
SPLINE
  5
2b5
100
AcDbEntity
  8
0
 62
7
100
AcDbSpline
 70
8
 71
3
 72
8
 73
4
 74
0
 40
0
 40
0
 40
0
 40
0
 40
1
 40
1
 40
1
 40
1
 10
70.897500
 20
59.205000
 30
0.0
 10
67.695000
 20
59.205000
 30
0.0
 10
65.107500
 20
56.610000
 30
0.0
 10
65.107500
 20
53.415000
 30
0.0
  0
SPLINE
  5
2b6
100
AcDbEntity
  8
0
 62
7
100
AcDbSpline
 70
8
 71
3
 72
8
 73
4
 74
0
 40
0
 40
0
 40
0
 40
0
 40
1
 40
1
 40
1
 40
1
 10
65.107500
 20
53.415000
 30
0.0
 10
65.107500
 20
50.220000
 30
0.0
 10
67.702500
 20
47.617500
 30
0.0
 10
70.897500
 20
47.617500
 30
0.0
  0
SPLINE
  5
2b7
100
AcDbEntity
  8
0
 62
7
100
AcDbSpline
 70
8
 71
3
 72
8
 73
4
 74
0
 40
0
 40
0
 40
0
 40
0
 40
1
 40
1
 40
1
 40
1
 10
70.897500
 20
47.617500
 30
0.0
 10
74.092500
 20
47.617500
 30
0.0
 10
76.687500
 20
50.212500
 30
0.0
 10
76.687500
 20
53.415000
 30
0.0
  0
SPLINE
  5
2b8
100
AcDbEntity
  8
0
 62
7
100
AcDbSpline
 70
8
 71
3
 72
8
 73
4
 74
0
 40
0
 40
0
 40
0
 40
0
 40
1
 40
1
 40
1
 40
1
 10
76.687500
 20
53.415000
 30
0.0
 10
76.687500
 20
56.617500
 30
0.0
 10
74.092500
 20
59.205000
 30
0.0
 10
70.897500
 20
59.205000
 30
0.0
  0
SPLINE
  5
2b9
100
AcDbEntity
  8
0
 62
7
100
AcDbSpline
 70
8
 71
3
 72
8
 73
4
 74
0
 40
0
 40
0
 40
0
 40
0
 40
1
 40
1
 40
1
 40
1
 10
127.687500
 20
30.187500
 30
0.0
 10
127.005000
 20
29.992500
 30
0.0
 10
126.292500
 20
30.390000
 30
0.0
 10
126.097500
 20
31.080000
 30
0.0
  0
SPLINE
  5
2ba
100
AcDbEntity
  8
0
 62
7
100
AcDbSpline
 70
8
 71
3
 72
8
 73
4
 74
0
 40
0
 40
0
 40
0
 40
0
 40
1
 40
1
 40
1
 40
1
 10
126.097500
 20
31.080000
 30
0.0
 10
125.902500
 20
31.770000
 30
0.0
 10
126.300000
 20
32.482500
 30
0.0
 10
126.990000
 20
32.670000
 30
0.0
  0
SPLINE
  5
2bb
100
AcDbEntity
  8
0
 62
7
100
AcDbSpline
 70
8
 71
3
 72
8
 73
4
 74
0
 40
0
 40
0
 40
0
 40
0
 40
1
 40
1
 40
1
 40
1
 10
126.990000
 20
32.670000
 30
0.0
 10
133.222500
 20
34.432500
 30
0.0
 10
137.250000
 20
36.090000
 30
0.0
 10
139.072500
 20
37.627500
 30
0.0
  0
SPLINE
  5
2bc
100
AcDbEntity
  8
0
 62
7
100
AcDbSpline
 70
8
 71
3
 72
8
 73
4
 74
0
 40
0
 40
0
 40
0
 40
0
 40
1
 40
1
 40
1
 40
1
 10
139.072500
 20
37.627500
 30
0.0
 10
139.710000
 20
38.167500
 30
0.0
 10
139.980000
 20
38.595000
 30
0.0
 10
139.897500
 20
38.910000
 30
0.0
  0
SPLINE
  5
2bd
100
AcDbEntity
  8
0
 62
7
100
AcDbSpline
 70
8
 71
3
 72
8
 73
4
 74
0
 40
0
 40
0
 40
0
 40
0
 40
1
 40
1
 40
1
 40
1
 10
139.897500
 20
38.910000
 30
0.0
 10
139.770000
 20
39.390000
 30
0.0
 10
139.125000
 20
39.945000
 30
0.0
 10
137.962500
 20
40.560000
 30
0.0
  0
SPLINE
  5
2be
100
AcDbEntity
  8
0
 62
7
100
AcDbSpline
 70
8
 71
3
 72
8
 73
4
 74
0
 40
0
 40
0
 40
0
 40
0
 40
1
 40
1
 40
1
 40
1
 10
137.962500
 20
40.560000
 30
0.0
 10
134.310000
 20
42.517500
 30
0.0
 10
126.555000
 20
44.347500
 30
0.0
 10
114.712500
 20
46.050000
 30
0.0
  0
LWPOLYLINE
  5
2bf
100
AcDbEntity
  8
0
 62
7
100
AcDbPolyline
 90
6
 70
0
 10
30.330000
 20
26.977500
 30
0.0
 10
30.337500
 20
26.977500
 30
0.0
 10
15.652500
 20
26.977500
 30
0.0
 10
13.327500
 20
24.435000
 30
0.0
 10
37.035000
 20
24.435000
 30
0.0
 10
37.042500
 20
24.427500
 30
0.0
  0
SPLINE
  5
2c0
100
AcDbEntity
  8
0
 62
7
100
AcDbSpline
 70
8
 71
3
 72
8
 73
4
 74
0
 40
0
 40
0
 40
0
 40
0
 40
1
 40
1
 40
1
 40
1
 10
114.712500
 20
46.050000
 30
0.0
 10
111.885000
 20
46.470000
 30
0.0
 10
108.810000
 20
46.875000
 30
0.0
 10
105.502500
 20
47.272500
 30
0.0
  0
SPLINE
  5
2c1
100
AcDbEntity
  8
0
 62
7
100
AcDbSpline
 70
8
 71
3
 72
8
 73
4
 74
0
 40
0
 40
0
 40
0
 40
0
 40
1
 40
1
 40
1
 40
1
 10
105.502500
 20
47.272500
 30
0.0
 10
102.240000
 20
47.662500
 30
0.0
 10
98.865000
 20
48.037500
 30
0.0
 10
95.377500
 20
48.390000
 30
0.0
  0
SPLINE
  5
2c2
100
AcDbEntity
  8
0
 62
7
100
AcDbSpline
 70
8
 71
3
 72
8
 73
4
 74
0
 40
0
 40
0
 40
0
 40
0
 40
1
 40
1
 40
1
 40
1
 10
95.377500
 20
48.390000
 30
0.0
 10
94.920000
 20
48.075000
 30
0.0
 10
94.425000
 20
47.745000
 30
0.0
 10
93.907500
 20
47.400000
 30
0.0
  0
SPLINE
  5
2c3
100
AcDbEntity
  8
0
 62
7
100
AcDbSpline
 70
8
 71
3
 72
8
 73
4
 74
0
 40
0
 40
0
 40
0
 40
0
 40
1
 40
1
 40
1
 40
1
 10
93.907500
 20
47.400000
 30
0.0
 10
93.217500
 20
46.942500
 30
0.0
 10
92.617500
 20
46.560000
 30
0.0
 10
92.092500
 20
46.230000
 30
0.0
  0
SPLINE
  5
2c4
100
AcDbEntity
  8
0
 62
7
100
AcDbSpline
 70
8
 71
3
 72
8
 73
4
 74
0
 40
0
 40
0
 40
0
 40
0
 40
1
 40
1
 40
1
 40
1
 10
92.092500
 20
46.230000
 30
0.0
 10
92.077500
 20
46.230000
 30
0.0
 10
92.070000
 20
46.215000
 30
0.0
 10
92.047500
 20
46.207500
 30
0.0
  0
SPLINE
  5
2c5
100
AcDbEntity
  8
0
 62
7
100
AcDbSpline
 70
8
 71
3
 72
8
 73
4
 74
0
 40
0
 40
0
 40
0
 40
0
 40
1
 40
1
 40
1
 40
1
 10
92.047500
 20
46.207500
 30
0.0
 10
91.867500
 20
46.095000
 30
0.0
 10
91.560000
 20
45.907500
 30
0.0
 10
91.110000
 20
45.637500
 30
0.0
  0
SPLINE
  5
2c6
100
AcDbEntity
  8
0
 62
7
100
AcDbSpline
 70
8
 71
3
 72
8
 73
4
 74
0
 40
0
 40
0
 40
0
 40
0
 40
1
 40
1
 40
1
 40
1
 10
91.110000
 20
45.637500
 30
0.0
 10
90.750000
 20
45.420000
 30
0.0
 10
90.427500
 20
45.225000
 30
0.0
 10
90.142500
 20
45.060000
 30
0.0
  0
SPLINE
  5
2c7
100
AcDbEntity
  8
0
 62
7
100
AcDbSpline
 70
8
 71
3
 72
8
 73
4
 74
0
 40
0
 40
0
 40
0
 40
0
 40
1
 40
1
 40
1
 40
1
 10
90.142500
 20
45.060000
 30
0.0
 10
88.462500
 20
44.070000
 30
0.0
 10
86.872500
 20
43.207500
 30
0.0
 10
85.357500
 20
42.472500
 30
0.0
  0
SPLINE
  5
2c8
100
AcDbEntity
  8
0
 62
7
100
AcDbSpline
 70
8
 71
3
 72
8
 73
4
 74
0
 40
0
 40
0
 40
0
 40
0
 40
1
 40
1
 40
1
 40
1
 10
85.357500
 20
42.472500
 30
0.0
 10
85.327500
 20
42.457500
 30
0.0
 10
85.290000
 20
42.442500
 30
0.0
 10
85.260000
 20
42.427500
 30
0.0
  0
SPLINE
  5
2c9
100
AcDbEntity
  8
0
 62
7
100
AcDbSpline
 70
8
 71
3
 72
8
 73
4
 74
0
 40
0
 40
0
 40
0
 40
0
 40
1
 40
1
 40
1
 40
1
 10
85.260000
 20
42.427500
 30
0.0
 10
80.497500
 20
40.102500
 30
0.0
 10
76.297500
 20
38.872500
 30
0.0
 10
72.667500
 20
38.737500
 30
0.0
  0
SPLINE
  5
2ca
100
AcDbEntity
  8
0
 62
7
100
AcDbSpline
 70
8
 71
3
 72
8
 73
4
 74
0
 40
0
 40
0
 40
0
 40
0
 40
1
 40
1
 40
1
 40
1
 10
72.667500
 20
38.737500
 30
0.0
 10
69.645000
 20
38.625000
 30
0.0
 10
67.012500
 20
39.270000
 30
0.0
 10
64.770000
 20
40.657500
 30
0.0
  0
SPLINE
  5
2cb
100
AcDbEntity
  8
0
 62
7
100
AcDbSpline
 70
8
 71
3
 72
8
 73
4
 74
0
 40
0
 40
0
 40
0
 40
0
 40
1
 40
1
 40
1
 40
1
 10
64.770000
 20
40.657500
 30
0.0
 10
62.542500
 20
42.045000
 30
0.0
 10
60.735000
 20
44.152500
 30
0.0
 10
59.340000
 20
46.987500
 30
0.0
  0
SPLINE
  5
2cc
100
AcDbEntity
  8
0
 62
7
100
AcDbSpline
 70
8
 71
3
 72
8
 73
4
 74
0
 40
0
 40
0
 40
0
 40
0
 40
1
 40
1
 40
1
 40
1
 10
59.340000
 20
46.987500
 30
0.0
 10
57.660000
 20
50.407500
 30
0.0
 10
56.587500
 20
54.915000
 30
0.0
 10
56.130000
 20
60.495000
 30
0.0
  0
SPLINE
  5
2cd
100
AcDbEntity
  8
0
 62
7
100
AcDbSpline
 70
8
 71
3
 72
8
 73
4
 74
0
 40
0
 40
0
 40
0
 40
0
 40
1
 40
1
 40
1
 40
1
 10
56.130000
 20
60.495000
 30
0.0
 10
55.417500
 20
59.692500
 30
0.0
 10
54.682500
 20
58.927500
 30
0.0
 10
53.917500
 20
58.192500
 30
0.0
  0
SPLINE
  5
2ce
100
AcDbEntity
  8
0
 62
7
100
AcDbSpline
 70
8
 71
3
 72
8
 73
4
 74
0
 40
0
 40
0
 40
0
 40
0
 40
1
 40
1
 40
1
 40
1
 10
53.917500
 20
58.192500
 30
0.0
 10
49.845000
 20
54.277500
 30
0.0
 10
44.805000
 20
51.052500
 30
0.0
 10
38.820000
 20
48.532500
 30
0.0
  0
SPLINE
  5
2cf
100
AcDbEntity
  8
0
 62
7
100
AcDbSpline
 70
8
 71
3
 72
8
 73
4
 74
0
 40
0
 40
0
 40
0
 40
0
 40
1
 40
1
 40
1
 40
1
 10
38.820000
 20
48.532500
 30
0.0
 10
38.167500
 20
48.255000
 30
0.0
 10
37.410000
 20
48.562500
 30
0.0
 10
37.132500
 20
49.222500
 30
0.0
  0
SPLINE
  5
2d0
100
AcDbEntity
  8
0
 62
7
100
AcDbSpline
 70
8
 71
3
 72
8
 73
4
 74
0
 40
0
 40
0
 40
0
 40
0
 40
1
 40
1
 40
1
 40
1
 10
37.132500
 20
49.222500
 30
0.0
 10
36.855000
 20
49.882500
 30
0.0
 10
37.162500
 20
50.632500
 30
0.0
 10
37.822500
 20
50.910000
 30
0.0
  0
SPLINE
  5
2d1
100
AcDbEntity
  8
0
 62
7
100
AcDbSpline
 70
8
 71
3
 72
8
 73
4
 74
0
 40
0
 40
0
 40
0
 40
0
 40
1
 40
1
 40
1
 40
1
 10
37.822500
 20
50.910000
 30
0.0
 10
43.515000
 20
53.302500
 30
0.0
 10
48.285000
 20
56.355000
 30
0.0
 10
52.132500
 20
60.060000
 30
0.0
  0
SPLINE
  5
2d2
100
AcDbEntity
  8
0
 62
7
100
AcDbSpline
 70
8
 71
3
 72
8
 73
4
 74
0
 40
0
 40
0
 40
0
 40
0
 40
1
 40
1
 40
1
 40
1
 10
52.132500
 20
60.060000
 30
0.0
 10
52.890000
 20
60.787500
 30
0.0
 10
53.595000
 20
61.522500
 30
0.0
 10
54.262500
 20
62.280000
 30
0.0
  0
SPLINE
  5
2d3
100
AcDbEntity
  8
0
 62
7
100
AcDbSpline
 70
8
 71
3
 72
8
 73
4
 74
0
 40
0
 40
0
 40
0
 40
0
 40
1
 40
1
 40
1
 40
1
 10
54.262500
 20
62.280000
 30
0.0
 10
54.915000
 20
63.022500
 30
0.0
 10
55.560000
 20
63.810000
 30
0.0
 10
56.182500
 20
64.650000
 30
0.0
  0
LWPOLYLINE
  5
2d4
100
AcDbEntity
  8
0
 62
7
100
AcDbPolyline
 90
2
 70
1
 10
114.712500
 20
46.050000
 30
0.0
 10
114.712500
 20
46.050000
 30
0.0
  0
SPLINE
  5
2d5
100
AcDbEntity
  8
0
 62
7
100
AcDbSpline
 70
8
 71
3
 72
8
 73
4
 74
0
 40
0
 40
0
 40
0
 40
0
 40
1
 40
1
 40
1
 40
1
 10
56.182500
 20
64.650000
 30
0.0
 10
56.407500
 20
64.950000
 30
0.0
 10
56.767500
 20
65.152500
 30
0.0
 10
57.172500
 20
65.167500
 30
0.0
  0
SPLINE
  5
2d6
100
AcDbEntity
  8
0
 62
7
100
AcDbSpline
 70
8
 71
3
 72
8
 73
4
 74
0
 40
0
 40
0
 40
0
 40
0
 40
1
 40
1
 40
1
 40
1
 10
57.172500
 20
65.167500
 30
0.0
 10
57.885000
 20
65.190000
 30
0.0
 10
58.477500
 20
64.635000
 30
0.0
 10
58.507500
 20
63.922500
 30
0.0
  0
SPLINE
  5
2d7
100
AcDbEntity
  8
0
 62
7
100
AcDbSpline
 70
8
 71
3
 72
8
 73
4
 74
0
 40
0
 40
0
 40
0
 40
0
 40
1
 40
1
 40
1
 40
1
 10
58.507500
 20
63.922500
 30
0.0
 10
58.755000
 20
57.142500
 30
0.0
 10
59.805000
 20
51.870000
 30
0.0
 10
61.650000
 20
48.120000
 30
0.0
  0
SPLINE
  5
2d8
100
AcDbEntity
  8
0
 62
7
100
AcDbSpline
 70
8
 71
3
 72
8
 73
4
 74
0
 40
0
 40
0
 40
0
 40
0
 40
1
 40
1
 40
1
 40
1
 10
61.650000
 20
48.120000
 30
0.0
 10
62.820000
 20
45.735000
 30
0.0
 10
64.312500
 20
43.980000
 30
0.0
 10
66.127500
 20
42.855000
 30
0.0
  0
SPLINE
  5
2d9
100
AcDbEntity
  8
0
 62
7
100
AcDbSpline
 70
8
 71
3
 72
8
 73
4
 74
0
 40
0
 40
0
 40
0
 40
0
 40
1
 40
1
 40
1
 40
1
 10
66.127500
 20
42.855000
 30
0.0
 10
67.927500
 20
41.737500
 30
0.0
 10
70.072500
 20
41.227500
 30
0.0
 10
72.570000
 20
41.317500
 30
0.0
  0
SPLINE
  5
2da
100
AcDbEntity
  8
0
 62
7
100
AcDbSpline
 70
8
 71
3
 72
8
 73
4
 74
0
 40
0
 40
0
 40
0
 40
0
 40
1
 40
1
 40
1
 40
1
 10
72.570000
 20
41.317500
 30
0.0
 10
75.840000
 20
41.437500
 30
0.0
 10
79.687500
 20
42.577500
 30
0.0
 10
84.127500
 20
44.745000
 30
0.0
  0
SPLINE
  5
2db
100
AcDbEntity
  8
0
 62
7
100
AcDbSpline
 70
8
 71
3
 72
8
 73
4
 74
0
 40
0
 40
0
 40
0
 40
0
 40
1
 40
1
 40
1
 40
1
 10
84.127500
 20
44.745000
 30
0.0
 10
84.157500
 20
44.767500
 30
0.0
 10
84.187500
 20
44.782500
 30
0.0
 10
84.225000
 20
44.797500
 30
0.0
  0
SPLINE
  5
2dc
100
AcDbEntity
  8
0
 62
7
100
AcDbSpline
 70
8
 71
3
 72
8
 73
4
 74
0
 40
0
 40
0
 40
0
 40
0
 40
1
 40
1
 40
1
 40
1
 10
84.225000
 20
44.797500
 30
0.0
 10
85.732500
 20
45.532500
 30
0.0
 10
87.270000
 20
46.365000
 30
0.0
 10
88.837500
 20
47.287500
 30
0.0
  0
SPLINE
  5
2dd
100
AcDbEntity
  8
0
 62
7
100
AcDbSpline
 70
8
 71
3
 72
8
 73
4
 74
0
 40
0
 40
0
 40
0
 40
0
 40
1
 40
1
 40
1
 40
1
 10
88.837500
 20
47.287500
 30
0.0
 10
89.182500
 20
47.490000
 30
0.0
 10
89.497500
 20
47.677500
 30
0.0
 10
89.775000
 20
47.842500
 30
0.0
  0
SPLINE
  5
2de
100
AcDbEntity
  8
0
 62
7
100
AcDbSpline
 70
8
 71
3
 72
8
 73
4
 74
0
 40
0
 40
0
 40
0
 40
0
 40
1
 40
1
 40
1
 40
1
 10
89.775000
 20
47.842500
 30
0.0
 10
89.925000
 20
47.932500
 30
0.0
 10
90.225000
 20
48.120000
 30
0.0
 10
90.682500
 20
48.405000
 30
0.0
  0
SPLINE
  5
2df
100
AcDbEntity
  8
0
 62
7
100
AcDbSpline
 70
8
 71
3
 72
8
 73
4
 74
0
 40
0
 40
0
 40
0
 40
0
 40
1
 40
1
 40
1
 40
1
 10
90.682500
 20
48.405000
 30
0.0
 10
90.712500
 20
48.420000
 30
0.0
 10
90.742500
 20
48.442500
 30
0.0
 10
90.765000
 20
48.457500
 30
0.0
  0
LWPOLYLINE
  5
2e0
100
AcDbEntity
  8
0
 62
7
100
AcDbPolyline
 90
1
 70
1
 10
56.182500
 20
64.650000
 30
0.0
  0
SPLINE
  5
2e1
100
AcDbEntity
  8
0
 62
7
100
AcDbSpline
 70
8
 71
3
 72
8
 73
4
 74
0
 40
0
 40
0
 40
0
 40
0
 40
1
 40
1
 40
1
 40
1
 10
90.765000
 20
48.457500
 30
0.0
 10
91.402500
 20
48.855000
 30
0.0
 10
91.987500
 20
49.230000
 30
0.0
 10
92.490000
 20
49.560000
 30
0.0
  0
SPLINE
  5
2e2
100
AcDbEntity
  8
0
 62
7
100
AcDbSpline
 70
8
 71
3
 72
8
 73
4
 74
0
 40
0
 40
0
 40
0
 40
0
 40
1
 40
1
 40
1
 40
1
 10
92.490000
 20
49.560000
 30
0.0
 10
93.030000
 20
49.912500
 30
0.0
 10
93.622500
 20
50.317500
 30
0.0
 10
94.282500
 20
50.782500
 30
0.0
  0
LWPOLYLINE
  5
2e3
100
AcDbEntity
  8
0
 62
7
100
AcDbPolyline
 90
1
 70
1
 10
90.765000
 20
48.457500
 30
0.0
  0
SPLINE
  5
2e4
100
AcDbEntity
  8
0
 62
7
100
AcDbSpline
 70
8
 71
3
 72
8
 73
4
 74
0
 40
0
 40
0
 40
0
 40
0
 40
1
 40
1
 40
1
 40
1
 10
94.282500
 20
50.782500
 30
0.0
 10
94.530000
 20
50.955000
 30
0.0
 10
94.830000
 20
51.045000
 30
0.0
 10
95.152500
 20
51.007500
 30
0.0
  0
SPLINE
  5
2e5
100
AcDbEntity
  8
0
 62
7
100
AcDbSpline
 70
8
 71
3
 72
8
 73
4
 74
0
 40
0
 40
0
 40
0
 40
0
 40
1
 40
1
 40
1
 40
1
 10
95.152500
 20
51.007500
 30
0.0
 10
99.022500
 20
50.617500
 30
0.0
 10
102.577500
 20
50.227500
 30
0.0
 10
105.802500
 20
49.845000
 30
0.0
  0
SPLINE
  5
2e6
100
AcDbEntity
  8
0
 62
7
100
AcDbSpline
 70
8
 71
3
 72
8
 73
4
 74
0
 40
0
 40
0
 40
0
 40
0
 40
1
 40
1
 40
1
 40
1
 10
105.802500
 20
49.845000
 30
0.0
 10
109.125000
 20
49.447500
 30
0.0
 10
112.215000
 20
49.035000
 30
0.0
 10
115.087500
 20
48.615000
 30
0.0
  0
SPLINE
  5
2e7
100
AcDbEntity
  8
0
 62
7
100
AcDbSpline
 70
8
 71
3
 72
8
 73
4
 74
0
 40
0
 40
0
 40
0
 40
0
 40
1
 40
1
 40
1
 40
1
 10
115.087500
 20
48.615000
 30
0.0
 10
127.222500
 20
46.867500
 30
0.0
 10
135.247500
 20
44.940000
 30
0.0
 10
139.177500
 20
42.847500
 30
0.0
  0
SPLINE
  5
2e8
100
AcDbEntity
  8
0
 62
7
100
AcDbSpline
 70
8
 71
3
 72
8
 73
4
 74
0
 40
0
 40
0
 40
0
 40
0
 40
1
 40
1
 40
1
 40
1
 10
139.177500
 20
42.847500
 30
0.0
 10
141.000000
 20
41.872500
 30
0.0
 10
142.072500
 20
40.785000
 30
0.0
 10
142.395000
 20
39.577500
 30
0.0
  0
SPLINE
  5
2e9
100
AcDbEntity
  8
0
 62
7
100
AcDbSpline
 70
8
 71
3
 72
8
 73
4
 74
0
 40
0
 40
0
 40
0
 40
0
 40
1
 40
1
 40
1
 40
1
 10
142.395000
 20
39.577500
 30
0.0
 10
142.755000
 20
38.212500
 30
0.0
 10
142.207500
 20
36.907500
 30
0.0
 10
140.745000
 20
35.670000
 30
0.0
  0
SPLINE
  5
2ea
100
AcDbEntity
  8
0
 62
7
100
AcDbSpline
 70
8
 71
3
 72
8
 73
4
 74
0
 40
0
 40
0
 40
0
 40
0
 40
1
 40
1
 40
1
 40
1
 10
140.745000
 20
35.670000
 30
0.0
 10
138.637500
 20
33.885000
 30
0.0
 10
134.287500
 20
32.062500
 30
0.0
 10
127.695000
 20
30.195000
 30
0.0
  0
SPLINE
  5
2eb
100
AcDbEntity
  8
0
 62
7
100
AcDbSpline
 70
8
 71
3
 72
8
 73
4
 74
0
 40
0
 40
0
 40
0
 40
0
 40
1
 40
1
 40
1
 40
1
 10
61.462500
 20
58.897500
 30
0.0
 10
61.987500
 20
59.820000
 30
0.0
 10
62.632500
 20
60.660000
 30
0.0
 10
63.382500
 20
61.402500
 30
0.0
  0
LWPOLYLINE
  5
2ec
100
AcDbEntity
  8
0
 62
7
100
AcDbPolyline
 90
1
 70
1
 10
94.282500
 20
50.782500
 30
0.0
  0
SPLINE
  5
2ed
100
AcDbEntity
  8
0
 62
7
100
AcDbSpline
 70
8
 71
3
 72
8
 73
4
 74
0
 40
0
 40
0
 40
0
 40
0
 40
1
 40
1
 40
1
 40
1
 10
65.025000
 20
60.967500
 30
0.0
 10
63.787500
 20
59.917500
 30
0.0
 10
62.797500
 20
58.582500
 30
0.0
 10
62.152500
 20
57.060000
 30
0.0
  0
LWPOLYLINE
  5
2ee
100
AcDbEntity
  8
0
 62
7
100
AcDbPolyline
 90
2
 70
0
 10
63.382500
 20
61.402500
 30
0.0
 10
65.025000
 20
60.967500
 30
0.0
  0
LWPOLYLINE
  5
2ef
100
AcDbEntity
  8
0
 62
7
100
AcDbPolyline
 90
3
 70
0
 10
62.152500
 20
57.060000
 30
0.0
 10
61.462500
 20
58.897500
 30
0.0
 10
61.462500
 20
58.897500
 30
0.0
  0
SPLINE
  5
2f0
100
AcDbEntity
  8
0
 62
7
100
AcDbSpline
 70
8
 71
3
 72
8
 73
4
 74
0
 40
0
 40
0
 40
0
 40
0
 40
1
 40
1
 40
1
 40
1
 10
62.122500
 20
61.740000
 30
0.0
 10
61.702500
 20
61.275000
 30
0.0
 10
61.312500
 20
60.780000
 30
0.0
 10
60.960000
 20
60.255000
 30
0.0
  0
LWPOLYLINE
  5
2f1
100
AcDbEntity
  8
0
 62
7
100
AcDbPolyline
 90
3
 70
0
 10
60.960000
 20
60.255000
 30
0.0
 10
60.210000
 20
62.250000
 30
0.0
 10
62.122500
 20
61.740000
 30
0.0
  0
SPLINE
  5
2f2
100
AcDbEntity
  8
0
 62
7
100
AcDbSpline
 70
8
 71
3
 72
8
 73
4
 74
0
 40
0
 40
0
 40
0
 40
0
 40
1
 40
1
 40
1
 40
1
 10
71.685000
 20
45.607500
 30
0.0
 10
73.800000
 20
45.607500
 30
0.0
 10
75.712500
 20
46.492500
 30
0.0
 10
77.070000
 20
47.902500
 30
0.0
  0
LWPOLYLINE
  5
2f3
100
AcDbEntity
  8
0
 62
7
100
AcDbPolyline
 90
1
 70
1
 10
60.960000
 20
60.255000
 30
0.0
  0
SPLINE
  5
2f4
100
AcDbEntity
  8
0
 62
7
100
AcDbSpline
 70
8
 71
3
 72
8
 73
4
 74
0
 40
0
 40
0
 40
0
 40
0
 40
1
 40
1
 40
1
 40
1
 10
79.282500
 20
47.902500
 30
0.0
 10
77.632500
 20
45.480000
 30
0.0
 10
74.842500
 20
43.882500
 30
0.0
 10
71.692500
 20
43.882500
 30
0.0
  0
SPLINE
  5
2f5
100
AcDbEntity
  8
0
 62
7
100
AcDbSpline
 70
8
 71
3
 72
8
 73
4
 74
0
 40
0
 40
0
 40
0
 40
0
 40
1
 40
1
 40
1
 40
1
 10
71.692500
 20
43.882500
 30
0.0
 10
66.622500
 20
43.882500
 30
0.0
 10
62.512500
 20
47.992500
 30
0.0
 10
62.512500
 20
53.062500
 30
0.0
  0
SPLINE
  5
2f6
100
AcDbEntity
  8
0
 62
7
100
AcDbSpline
 70
8
 71
3
 72
8
 73
4
 74
0
 40
0
 40
0
 40
0
 40
0
 40
1
 40
1
 40
1
 40
1
 10
62.512500
 20
53.062500
 30
0.0
 10
62.512500
 20
58.132500
 30
0.0
 10
66.622500
 20
62.242500
 30
0.0
 10
71.692500
 20
62.242500
 30
0.0
  0
SPLINE
  5
2f7
100
AcDbEntity
  8
0
 62
7
100
AcDbSpline
 70
8
 71
3
 72
8
 73
4
 74
0
 40
0
 40
0
 40
0
 40
0
 40
1
 40
1
 40
1
 40
1
 10
71.692500
 20
62.242500
 30
0.0
 10
75.757500
 20
62.242500
 30
0.0
 10
79.215000
 20
59.595000
 30
0.0
 10
80.422500
 20
55.927500
 30
0.0
  0
LWPOLYLINE
  5
2f8
100
AcDbEntity
  8
0
 62
7
100
AcDbPolyline
 90
2
 70
0
 10
77.070000
 20
47.902500
 30
0.0
 10
79.282500
 20
47.902500
 30
0.0
  0
SPLINE
  5
2f9
100
AcDbEntity
  8
0
 62
7
100
AcDbSpline
 70
8
 71
3
 72
8
 73
4
 74
0
 40
0
 40
0
 40
0
 40
0
 40
1
 40
1
 40
1
 40
1
 10
78.585000
 20
55.927500
 30
0.0
 10
77.460000
 20
58.627500
 30
0.0
 10
74.797500
 20
60.517500
 30
0.0
 10
71.692500
 20
60.517500
 30
0.0
  0
SPLINE
  5
2fa
100
AcDbEntity
  8
0
 62
7
100
AcDbSpline
 70
8
 71
3
 72
8
 73
4
 74
0
 40
0
 40
0
 40
0
 40
0
 40
1
 40
1
 40
1
 40
1
 10
71.692500
 20
60.517500
 30
0.0
 10
67.575000
 20
60.517500
 30
0.0
 10
64.230000
 20
57.180000
 30
0.0
 10
64.230000
 20
53.055000
 30
0.0
  0
SPLINE
  5
2fb
100
AcDbEntity
  8
0
 62
7
100
AcDbSpline
 70
8
 71
3
 72
8
 73
4
 74
0
 40
0
 40
0
 40
0
 40
0
 40
1
 40
1
 40
1
 40
1
 10
64.230000
 20
53.055000
 30
0.0
 10
64.230000
 20
48.930000
 30
0.0
 10
67.567500
 20
45.592500
 30
0.0
 10
71.692500
 20
45.592500
 30
0.0
  0
LWPOLYLINE
  5
2fc
100
AcDbEntity
  8
0
 62
7
100
AcDbPolyline
 90
2
 70
0
 10
80.422500
 20
55.927500
 30
0.0
 10
78.585000
 20
55.927500
 30
0.0
  0
LWPOLYLINE
  5
2fd
100
AcDbEntity
  8
0
 62
7
100
AcDbPolyline
 90
2
 70
0
 10
71.692500
 20
45.592500
 30
0.0
 10
71.685000
 20
45.607500
 30
0.0
  0
SPLINE
  5
2fe
100
AcDbEntity
  8
0
 62
7
100
AcDbSpline
 70
8
 71
3
 72
8
 73
4
 74
0
 40
0
 40
0
 40
0
 40
0
 40
1
 40
1
 40
1
 40
1
 10
66.352500
 20
54.420000
 30
0.0
 10
67.590000
 20
56.070000
 30
0.0
 10
70.057500
 20
56.070000
 30
0.0
 10
71.287500
 20
54.420000
 30
0.0
  0
LWPOLYLINE
  5
2ff
100
AcDbEntity
  8
0
 62
7
100
AcDbPolyline
 90
2
 70
0
 10
67.267500
 20
53.730000
 30
0.0
 10
66.352500
 20
54.420000
 30
0.0
  0
SPLINE
  5
300
100
AcDbEntity
  8
0
 62
7
100
AcDbSpline
 70
8
 71
3
 72
8
 73
4
 74
0
 40
0
 40
0
 40
0
 40
0
 40
1
 40
1
 40
1
 40
1
 10
70.372500
 20
53.730000
 30
0.0
 10
69.600000
 20
54.765000
 30
0.0
 10
68.047500
 20
54.765000
 30
0.0
 10
67.275000
 20
53.730000
 30
0.0
  0
LWPOLYLINE
  5
301
100
AcDbEntity
  8
0
 62
7
100
AcDbPolyline
 90
2
 70
0
 10
71.287500
 20
54.420000
 30
0.0
 10
70.372500
 20
53.730000
 30
0.0
  0
LWPOLYLINE
  5
302
100
AcDbEntity
  8
0
 62
7
100
AcDbPolyline
 90
3
 70
0
 10
67.275000
 20
53.730000
 30
0.0
 10
67.275000
 20
53.730000
 30
0.0
 10
67.267500
 20
53.730000
 30
0.0
  0
SPLINE
  5
303
100
AcDbEntity
  8
0
 62
7
100
AcDbSpline
 70
8
 71
3
 72
8
 73
4
 74
0
 40
0
 40
0
 40
0
 40
0
 40
1
 40
1
 40
1
 40
1
 10
72.090000
 20
54.420000
 30
0.0
 10
73.327500
 20
56.070000
 30
0.0
 10
75.795000
 20
56.070000
 30
0.0
 10
77.025000
 20
54.420000
 30
0.0
  0
LWPOLYLINE
  5
304
100
AcDbEntity
  8
0
 62
7
100
AcDbPolyline
 90
2
 70
0
 10
73.005000
 20
53.730000
 30
0.0
 10
72.090000
 20
54.420000
 30
0.0
  0
SPLINE
  5
305
100
AcDbEntity
  8
0
 62
7
100
AcDbSpline
 70
8
 71
3
 72
8
 73
4
 74
0
 40
0
 40
0
 40
0
 40
0
 40
1
 40
1
 40
1
 40
1
 10
76.110000
 20
53.730000
 30
0.0
 10
75.337500
 20
54.765000
 30
0.0
 10
73.785000
 20
54.765000
 30
0.0
 10
73.012500
 20
53.730000
 30
0.0
  0
LWPOLYLINE
  5
306
100
AcDbEntity
  8
0
 62
7
100
AcDbPolyline
 90
2
 70
0
 10
77.025000
 20
54.420000
 30
0.0
 10
76.110000
 20
53.730000
 30
0.0
  0
SPLINE
  5
307
100
AcDbEntity
  8
0
 62
7
100
AcDbSpline
 70
8
 71
3
 72
8
 73
4
 74
0
 40
0
 40
0
 40
0
 40
0
 40
1
 40
1
 40
1
 40
1
 10
75.127500
 20
50.917500
 30
0.0
 10
75.127500
 20
50.670000
 30
0.0
 10
75.015000
 20
50.445000
 30
0.0
 10
74.865000
 20
50.257500
 30
0.0
  0
SPLINE
  5
308
100
AcDbEntity
  8
0
 62
7
100
AcDbSpline
 70
8
 71
3
 72
8
 73
4
 74
0
 40
0
 40
0
 40
0
 40
0
 40
1
 40
1
 40
1
 40
1
 10
74.865000
 20
50.257500
 30
0.0
 10
74.850000
 20
50.235000
 30
0.0
 10
74.827500
 20
50.220000
 30
0.0
 10
74.812500
 20
50.197500
 30
0.0
  0
LWPOLYLINE
  5
309
100
AcDbEntity
  8
0
 62
7
100
AcDbPolyline
 90
2
 70
0
 10
73.012500
 20
53.730000
 30
0.0
 10
73.005000
 20
53.730000
 30
0.0
  0
SPLINE
  5
30a
100
AcDbEntity
  8
0
 62
7
100
AcDbSpline
 70
8
 71
3
 72
8
 73
4
 74
0
 40
0
 40
0
 40
0
 40
0
 40
1
 40
1
 40
1
 40
1
 10
74.812500
 20
49.050000
 30
0.0
 10
74.812500
 20
49.050000
 30
0.0
 10
74.850000
 20
49.012500
 30
0.0
 10
74.865000
 20
48.990000
 30
0.0
  0
SPLINE
  5
30b
100
AcDbEntity
  8
0
 62
7
100
AcDbSpline
 70
8
 71
3
 72
8
 73
4
 74
0
 40
0
 40
0
 40
0
 40
0
 40
1
 40
1
 40
1
 40
1
 10
74.865000
 20
48.990000
 30
0.0
 10
75.022500
 20
48.810000
 30
0.0
 10
75.127500
 20
48.577500
 30
0.0
 10
75.127500
 20
48.330000
 30
0.0
  0
SPLINE
  5
30c
100
AcDbEntity
  8
0
 62
7
100
AcDbSpline
 70
8
 71
3
 72
8
 73
4
 74
0
 40
0
 40
0
 40
0
 40
0
 40
1
 40
1
 40
1
 40
1
 10
75.127500
 20
48.330000
 30
0.0
 10
75.127500
 20
48.082500
 30
0.0
 10
75.015000
 20
47.857500
 30
0.0
 10
74.865000
 20
47.670000
 30
0.0
  0
SPLINE
  5
30d
100
AcDbEntity
  8
0
 62
7
100
AcDbSpline
 70
8
 71
3
 72
8
 73
4
 74
0
 40
0
 40
0
 40
0
 40
0
 40
1
 40
1
 40
1
 40
1
 10
74.865000
 20
47.670000
 30
0.0
 10
74.707500
 20
47.482500
 30
0.0
 10
74.505000
 20
47.325000
 30
0.0
 10
74.265000
 20
47.190000
 30
0.0
  0
SPLINE
  5
30e
100
AcDbEntity
  8
0
 62
7
100
AcDbSpline
 70
8
 71
3
 72
8
 73
4
 74
0
 40
0
 40
0
 40
0
 40
0
 40
1
 40
1
 40
1
 40
1
 10
74.265000
 20
47.190000
 30
0.0
 10
73.785000
 20
46.927500
 30
0.0
 10
73.170000
 20
46.747500
 30
0.0
 10
72.540000
 20
46.747500
 30
0.0
  0
LWPOLYLINE
  5
30f
100
AcDbEntity
  8
0
 62
7
100
AcDbPolyline
 90
12
 70
0
 10
74.812500
 20
50.197500
 30
0.0
 10
82.012500
 20
50.197500
 30
0.0
 10
82.012500
 20
53.640000
 30
0.0
 10
79.717500
 20
53.640000
 30
0.0
 10
79.717500
 20
52.492500
 30
0.0
 10
81.442500
 20
52.492500
 30
0.0
 10
81.442500
 20
51.345000
 30
0.0
 10
78.570000
 20
51.345000
 30
0.0
 10
78.570000
 20
54.787500
 30
0.0
 10
83.160000
 20
54.787500
 30
0.0
 10
83.160000
 20
49.050000
 30
0.0
 10
74.812500
 20
49.050000
 30
0.0
  0
SPLINE
  5
310
100
AcDbEntity
  8
0
 62
7
100
AcDbSpline
 70
8
 71
3
 72
8
 73
4
 74
0
 40
0
 40
0
 40
0
 40
0
 40
1
 40
1
 40
1
 40
1
 10
72.397500
 20
47.287500
 30
0.0
 10
72.397500
 20
47.287500
 30
0.0
 10
72.412500
 20
47.302500
 30
0.0
 10
72.427500
 20
47.310000
 30
0.0
  0
SPLINE
  5
311
100
AcDbEntity
  8
0
 62
7
100
AcDbSpline
 70
8
 71
3
 72
8
 73
4
 74
0
 40
0
 40
0
 40
0
 40
0
 40
1
 40
1
 40
1
 40
1
 10
72.427500
 20
47.310000
 30
0.0
 10
72.457500
 20
47.325000
 30
0.0
 10
72.502500
 20
47.355000
 30
0.0
 10
72.547500
 20
47.385000
 30
0.0
  0
SPLINE
  5
312
100
AcDbEntity
  8
0
 62
7
100
AcDbSpline
 70
8
 71
3
 72
8
 73
4
 74
0
 40
0
 40
0
 40
0
 40
0
 40
1
 40
1
 40
1
 40
1
 10
72.547500
 20
47.385000
 30
0.0
 10
72.645000
 20
47.452500
 30
0.0
 10
72.780000
 20
47.550000
 30
0.0
 10
72.915000
 20
47.655000
 30
0.0
  0
SPLINE
  5
313
100
AcDbEntity
  8
0
 62
7
100
AcDbSpline
 70
8
 71
3
 72
8
 73
4
 74
0
 40
0
 40
0
 40
0
 40
0
 40
1
 40
1
 40
1
 40
1
 10
72.915000
 20
47.655000
 30
0.0
 10
73.050000
 20
47.760000
 30
0.0
 10
73.170000
 20
47.895000
 30
0.0
 10
73.260000
 20
48.015000
 30
0.0
  0
SPLINE
  5
314
100
AcDbEntity
  8
0
 62
7
100
AcDbSpline
 70
8
 71
3
 72
8
 73
4
 74
0
 40
0
 40
0
 40
0
 40
0
 40
1
 40
1
 40
1
 40
1
 10
73.260000
 20
48.015000
 30
0.0
 10
73.350000
 20
48.142500
 30
0.0
 10
73.387500
 20
48.247500
 30
0.0
 10
73.387500
 20
48.322500
 30
0.0
  0
SPLINE
  5
315
100
AcDbEntity
  8
0
 62
7
100
AcDbSpline
 70
8
 71
3
 72
8
 73
4
 74
0
 40
0
 40
0
 40
0
 40
0
 40
1
 40
1
 40
1
 40
1
 10
73.387500
 20
48.322500
 30
0.0
 10
73.387500
 20
48.397500
 30
0.0
 10
73.350000
 20
48.502500
 30
0.0
 10
73.260000
 20
48.630000
 30
0.0
  0
SPLINE
  5
316
100
AcDbEntity
  8
0
 62
7
100
AcDbSpline
 70
8
 71
3
 72
8
 73
4
 74
0
 40
0
 40
0
 40
0
 40
0
 40
1
 40
1
 40
1
 40
1
 10
73.260000
 20
48.630000
 30
0.0
 10
73.170000
 20
48.757500
 30
0.0
 10
73.050000
 20
48.877500
 30
0.0
 10
72.915000
 20
48.990000
 30
0.0
  0
SPLINE
  5
317
100
AcDbEntity
  8
0
 62
7
100
AcDbSpline
 70
8
 71
3
 72
8
 73
4
 74
0
 40
0
 40
0
 40
0
 40
0
 40
1
 40
1
 40
1
 40
1
 10
72.915000
 20
48.990000
 30
0.0
 10
72.780000
 20
49.102500
 30
0.0
 10
72.652500
 20
49.192500
 30
0.0
 10
72.547500
 20
49.260000
 30
0.0
  0
SPLINE
  5
318
100
AcDbEntity
  8
0
 62
7
100
AcDbSpline
 70
8
 71
3
 72
8
 73
4
 74
0
 40
0
 40
0
 40
0
 40
0
 40
1
 40
1
 40
1
 40
1
 10
72.547500
 20
49.260000
 30
0.0
 10
72.495000
 20
49.290000
 30
0.0
 10
72.457500
 20
49.320000
 30
0.0
 10
72.427500
 20
49.335000
 30
0.0
  0
SPLINE
  5
319
100
AcDbEntity
  8
0
 62
7
100
AcDbSpline
 70
8
 71
3
 72
8
 73
4
 74
0
 40
0
 40
0
 40
0
 40
0
 40
1
 40
1
 40
1
 40
1
 10
72.427500
 20
49.335000
 30
0.0
 10
72.412500
 20
49.335000
 30
0.0
 10
72.405000
 20
49.350000
 30
0.0
 10
72.397500
 20
49.350000
 30
0.0
  0
LWPOLYLINE
  5
31a
100
AcDbEntity
  8
0
 62
7
100
AcDbPolyline
 90
3
 70
0
 10
72.540000
 20
46.747500
 30
0.0
 10
72.397500
 20
47.287500
 30
0.0
 10
72.397500
 20
47.287500
 30
0.0
  0
SPLINE
  5
31b
100
AcDbEntity
  8
0
 62
7
100
AcDbSpline
 70
8
 71
3
 72
8
 73
4
 74
0
 40
0
 40
0
 40
0
 40
0
 40
1
 40
1
 40
1
 40
1
 10
72.397500
 20
49.852500
 30
0.0
 10
72.397500
 20
49.852500
 30
0.0
 10
72.412500
 20
49.867500
 30
0.0
 10
72.427500
 20
49.875000
 30
0.0
  0
SPLINE
  5
31c
100
AcDbEntity
  8
0
 62
7
100
AcDbSpline
 70
8
 71
3
 72
8
 73
4
 74
0
 40
0
 40
0
 40
0
 40
0
 40
1
 40
1
 40
1
 40
1
 10
72.427500
 20
49.875000
 30
0.0
 10
72.457500
 20
49.890000
 30
0.0
 10
72.502500
 20
49.920000
 30
0.0
 10
72.547500
 20
49.950000
 30
0.0
  0
SPLINE
  5
31d
100
AcDbEntity
  8
0
 62
7
100
AcDbSpline
 70
8
 71
3
 72
8
 73
4
 74
0
 40
0
 40
0
 40
0
 40
0
 40
1
 40
1
 40
1
 40
1
 10
72.547500
 20
49.950000
 30
0.0
 10
72.645000
 20
50.017500
 30
0.0
 10
72.780000
 20
50.115000
 30
0.0
 10
72.915000
 20
50.220000
 30
0.0
  0
SPLINE
  5
31e
100
AcDbEntity
  8
0
 62
7
100
AcDbSpline
 70
8
 71
3
 72
8
 73
4
 74
0
 40
0
 40
0
 40
0
 40
0
 40
1
 40
1
 40
1
 40
1
 10
72.915000
 20
50.220000
 30
0.0
 10
73.050000
 20
50.325000
 30
0.0
 10
73.170000
 20
50.460000
 30
0.0
 10
73.260000
 20
50.580000
 30
0.0
  0
SPLINE
  5
31f
100
AcDbEntity
  8
0
 62
7
100
AcDbSpline
 70
8
 71
3
 72
8
 73
4
 74
0
 40
0
 40
0
 40
0
 40
0
 40
1
 40
1
 40
1
 40
1
 10
73.260000
 20
50.580000
 30
0.0
 10
73.350000
 20
50.707500
 30
0.0
 10
73.387500
 20
50.812500
 30
0.0
 10
73.387500
 20
50.887500
 30
0.0
  0
SPLINE
  5
320
100
AcDbEntity
  8
0
 62
7
100
AcDbSpline
 70
8
 71
3
 72
8
 73
4
 74
0
 40
0
 40
0
 40
0
 40
0
 40
1
 40
1
 40
1
 40
1
 10
73.387500
 20
50.887500
 30
0.0
 10
73.387500
 20
50.962500
 30
0.0
 10
73.350000
 20
51.067500
 30
0.0
 10
73.260000
 20
51.195000
 30
0.0
  0
SPLINE
  5
321
100
AcDbEntity
  8
0
 62
7
100
AcDbSpline
 70
8
 71
3
 72
8
 73
4
 74
0
 40
0
 40
0
 40
0
 40
0
 40
1
 40
1
 40
1
 40
1
 10
73.260000
 20
51.195000
 30
0.0
 10
73.170000
 20
51.322500
 30
0.0
 10
73.050000
 20
51.442500
 30
0.0
 10
72.915000
 20
51.555000
 30
0.0
  0
SPLINE
  5
322
100
AcDbEntity
  8
0
 62
7
100
AcDbSpline
 70
8
 71
3
 72
8
 73
4
 74
0
 40
0
 40
0
 40
0
 40
0
 40
1
 40
1
 40
1
 40
1
 10
72.915000
 20
51.555000
 30
0.0
 10
72.780000
 20
51.667500
 30
0.0
 10
72.652500
 20
51.757500
 30
0.0
 10
72.547500
 20
51.825000
 30
0.0
  0
SPLINE
  5
323
100
AcDbEntity
  8
0
 62
7
100
AcDbSpline
 70
8
 71
3
 72
8
 73
4
 74
0
 40
0
 40
0
 40
0
 40
0
 40
1
 40
1
 40
1
 40
1
 10
72.547500
 20
51.825000
 30
0.0
 10
72.495000
 20
51.855000
 30
0.0
 10
72.457500
 20
51.885000
 30
0.0
 10
72.427500
 20
51.900000
 30
0.0
  0
SPLINE
  5
324
100
AcDbEntity
  8
0
 62
7
100
AcDbSpline
 70
8
 71
3
 72
8
 73
4
 74
0
 40
0
 40
0
 40
0
 40
0
 40
1
 40
1
 40
1
 40
1
 10
72.427500
 20
51.900000
 30
0.0
 10
72.412500
 20
51.900000
 30
0.0
 10
72.405000
 20
51.915000
 30
0.0
 10
72.397500
 20
51.915000
 30
0.0
  0
LWPOLYLINE
  5
325
100
AcDbEntity
  8
0
 62
7
100
AcDbPolyline
 90
4
 70
0
 10
72.397500
 20
49.350000
 30
0.0
 10
72.397500
 20
49.350000
 30
0.0
 10
72.397500
 20
49.852500
 30
0.0
 10
72.397500
 20
49.852500
 30
0.0
  0
SPLINE
  5
326
100
AcDbEntity
  8
0
 62
7
100
AcDbSpline
 70
8
 71
3
 72
8
 73
4
 74
0
 40
0
 40
0
 40
0
 40
0
 40
1
 40
1
 40
1
 40
1
 10
72.540000
 20
52.455000
 30
0.0
 10
73.162500
 20
52.455000
 30
0.0
 10
73.785000
 20
52.282500
 30
0.0
 10
74.257500
 20
52.012500
 30
0.0
  0
SPLINE
  5
327
100
AcDbEntity
  8
0
 62
7
100
AcDbSpline
 70
8
 71
3
 72
8
 73
4
 74
0
 40
0
 40
0
 40
0
 40
0
 40
1
 40
1
 40
1
 40
1
 10
74.257500
 20
52.012500
 30
0.0
 10
74.497500
 20
51.877500
 30
0.0
 10
74.707500
 20
51.720000
 30
0.0
 10
74.857500
 20
51.532500
 30
0.0
  0
SPLINE
  5
328
100
AcDbEntity
  8
0
 62
7
100
AcDbSpline
 70
8
 71
3
 72
8
 73
4
 74
0
 40
0
 40
0
 40
0
 40
0
 40
1
 40
1
 40
1
 40
1
 10
74.857500
 20
51.532500
 30
0.0
 10
75.015000
 20
51.352500
 30
0.0
 10
75.120000
 20
51.120000
 30
0.0
 10
75.120000
 20
50.872500
 30
0.0
  0
LWPOLYLINE
  5
329
100
AcDbEntity
  8
0
 62
7
100
AcDbPolyline
 90
3
 70
0
 10
72.397500
 20
51.915000
 30
0.0
 10
72.397500
 20
51.915000
 30
0.0
 10
72.540000
 20
52.455000
 30
0.0
  0
SPLINE
  5
32a
100
AcDbEntity
  8
0
 62
7
100
AcDbSpline
 70
8
 71
3
 72
8
 73
4
 74
0
 40
0
 40
0
 40
0
 40
0
 40
1
 40
1
 40
1
 40
1
 10
73.950000
 20
49.627500
 30
0.0
 10
73.950000
 20
49.627500
 30
0.0
 10
73.965000
 20
49.627500
 30
0.0
 10
73.980000
 20
49.620000
 30
0.0
  0
LWPOLYLINE
  5
32b
100
AcDbEntity
  8
0
 62
7
100
AcDbPolyline
 90
3
 70
0
 10
75.120000
 20
50.872500
 30
0.0
 10
75.120000
 20
50.872500
 30
0.0
 10
75.127500
 20
50.917500
 30
0.0
  0
SPLINE
  5
32c
100
AcDbEntity
  8
0
 62
7
100
AcDbSpline
 70
8
 71
3
 72
8
 73
4
 74
0
 40
0
 40
0
 40
0
 40
0
 40
1
 40
1
 40
1
 40
1
 10
73.980000
 20
49.642500
 30
0.0
 10
73.980000
 20
49.642500
 30
0.0
 10
73.965000
 20
49.642500
 30
0.0
 10
73.950000
 20
49.635000
 30
0.0
  0
LWPOLYLINE
  5
32d
100
AcDbEntity
  8
0
 62
7
100
AcDbPolyline
 90
2
 70
0
 10
73.980000
 20
49.620000
 30
0.0
 10
73.980000
 20
49.642500
 30
0.0
  0
SPLINE
  5
32e
100
AcDbEntity
  8
0
 62
7
100
AcDbSpline
 70
8
 71
3
 72
8
 73
4
 74
0
 40
0
 40
0
 40
0
 40
0
 40
1
 40
1
 40
1
 40
1
 10
27.465000
 20
19.755000
 30
0.0
 10
27.255000
 20
19.567500
 30
0.0
 10
26.962500
 20
19.477500
 30
0.0
 10
26.572500
 20
19.477500
 30
0.0
  0
SPLINE
  5
32f
100
AcDbEntity
  8
0
 62
7
100
AcDbSpline
 70
8
 71
3
 72
8
 73
4
 74
0
 40
0
 40
0
 40
0
 40
0
 40
1
 40
1
 40
1
 40
1
 10
26.572500
 20
19.477500
 30
0.0
 10
26.145000
 20
19.477500
 30
0.0
 10
25.815000
 20
19.575000
 30
0.0
 10
25.575000
 20
19.762500
 30
0.0
  0
SPLINE
  5
330
100
AcDbEntity
  8
0
 62
7
100
AcDbSpline
 70
8
 71
3
 72
8
 73
4
 74
0
 40
0
 40
0
 40
0
 40
0
 40
1
 40
1
 40
1
 40
1
 10
25.575000
 20
19.762500
 30
0.0
 10
25.342500
 20
19.950000
 30
0.0
 10
25.222500
 20
20.242500
 30
0.0
 10
25.222500
 20
20.632500
 30
0.0
  0
SPLINE
  5
331
100
AcDbEntity
  8
0
 62
7
100
AcDbSpline
 70
8
 71
3
 72
8
 73
4
 74
0
 40
0
 40
0
 40
0
 40
0
 40
1
 40
1
 40
1
 40
1
 10
25.222500
 20
20.632500
 30
0.0
 10
25.222500
 20
20.685000
 30
0.0
 10
25.222500
 20
20.752500
 30
0.0
 10
25.237500
 20
20.827500
 30
0.0
  0
SPLINE
  5
332
100
AcDbEntity
  8
0
 62
7
100
AcDbSpline
 70
8
 71
3
 72
8
 73
4
 74
0
 40
0
 40
0
 40
0
 40
0
 40
1
 40
1
 40
1
 40
1
 10
25.237500
 20
20.827500
 30
0.0
 10
25.245000
 20
20.902500
 30
0.0
 10
25.260000
 20
20.985000
 30
0.0
 10
25.275000
 20
21.067500
 30
0.0
  0
LWPOLYLINE
  5
333
100
AcDbEntity
  8
0
 62
7
100
AcDbPolyline
 90
3
 70
0
 10
73.950000
 20
49.635000
 30
0.0
 10
73.950000
 20
49.635000
 30
0.0
 10
73.950000
 20
49.627500
 30
0.0
  0
SPLINE
  5
334
100
AcDbEntity
  8
0
 62
7
100
AcDbSpline
 70
8
 71
3
 72
8
 73
4
 74
0
 40
0
 40
0
 40
0
 40
0
 40
1
 40
1
 40
1
 40
1
 10
26.205000
 20
21.052500
 30
0.0
 10
26.182500
 20
20.932500
 30
0.0
 10
26.167500
 20
20.835000
 30
0.0
 10
26.167500
 20
20.767500
 30
0.0
  0
SPLINE
  5
335
100
AcDbEntity
  8
0
 62
7
100
AcDbSpline
 70
8
 71
3
 72
8
 73
4
 74
0
 40
0
 40
0
 40
0
 40
0
 40
1
 40
1
 40
1
 40
1
 10
26.167500
 20
20.767500
 30
0.0
 10
26.167500
 20
20.565000
 30
0.0
 10
26.220000
 20
20.430000
 30
0.0
 10
26.317500
 20
20.355000
 30
0.0
  0
SPLINE
  5
336
100
AcDbEntity
  8
0
 62
7
100
AcDbSpline
 70
8
 71
3
 72
8
 73
4
 74
0
 40
0
 40
0
 40
0
 40
0
 40
1
 40
1
 40
1
 40
1
 10
26.317500
 20
20.355000
 30
0.0
 10
26.422500
 20
20.280000
 30
0.0
 10
26.572500
 20
20.235000
 30
0.0
 10
26.775000
 20
20.235000
 30
0.0
  0
SPLINE
  5
337
100
AcDbEntity
  8
0
 62
7
100
AcDbSpline
 70
8
 71
3
 72
8
 73
4
 74
0
 40
0
 40
0
 40
0
 40
0
 40
1
 40
1
 40
1
 40
1
 10
26.775000
 20
20.235000
 30
0.0
 10
26.925000
 20
20.235000
 30
0.0
 10
27.052500
 20
20.250000
 30
0.0
 10
27.157500
 20
20.272500
 30
0.0
  0
SPLINE
  5
338
100
AcDbEntity
  8
0
 62
7
100
AcDbSpline
 70
8
 71
3
 72
8
 73
4
 74
0
 40
0
 40
0
 40
0
 40
0
 40
1
 40
1
 40
1
 40
1
 10
27.157500
 20
20.272500
 30
0.0
 10
27.262500
 20
20.302500
 30
0.0
 10
27.352500
 20
20.340000
 30
0.0
 10
27.420000
 20
20.400000
 30
0.0
  0
SPLINE
  5
339
100
AcDbEntity
  8
0
 62
7
100
AcDbSpline
 70
8
 71
3
 72
8
 73
4
 74
0
 40
0
 40
0
 40
0
 40
0
 40
1
 40
1
 40
1
 40
1
 10
27.420000
 20
20.400000
 30
0.0
 10
27.487500
 20
20.460000
 30
0.0
 10
27.547500
 20
20.542500
 30
0.0
 10
27.592500
 20
20.655000
 30
0.0
  0
SPLINE
  5
33a
100
AcDbEntity
  8
0
 62
7
100
AcDbSpline
 70
8
 71
3
 72
8
 73
4
 74
0
 40
0
 40
0
 40
0
 40
0
 40
1
 40
1
 40
1
 40
1
 10
27.592500
 20
20.655000
 30
0.0
 10
27.637500
 20
20.760000
 30
0.0
 10
27.675000
 20
20.895000
 30
0.0
 10
27.705000
 20
21.052500
 30
0.0
  0
LWPOLYLINE
  5
33b
100
AcDbEntity
  8
0
 62
7
100
AcDbPolyline
 90
4
 70
0
 10
25.275000
 20
21.067500
 30
0.0
 10
25.672500
 20
23.122500
 30
0.0
 10
26.602500
 20
23.122500
 30
0.0
 10
26.205000
 20
21.052500
 30
0.0
  0
SPLINE
  5
33c
100
AcDbEntity
  8
0
 62
7
100
AcDbSpline
 70
8
 71
3
 72
8
 73
4
 74
0
 40
0
 40
0
 40
0
 40
0
 40
1
 40
1
 40
1
 40
1
 10
28.372500
 20
19.702500
 30
0.0
 10
28.312500
 20
19.402500
 30
0.0
 10
28.237500
 20
19.155000
 30
0.0
 10
28.132500
 20
18.937500
 30
0.0
  0
SPLINE
  5
33d
100
AcDbEntity
  8
0
 62
7
100
AcDbSpline
 70
8
 71
3
 72
8
 73
4
 74
0
 40
0
 40
0
 40
0
 40
0
 40
1
 40
1
 40
1
 40
1
 10
28.132500
 20
18.937500
 30
0.0
 10
28.035000
 20
18.727500
 30
0.0
 10
27.907500
 20
18.555000
 30
0.0
 10
27.742500
 20
18.420000
 30
0.0
  0
SPLINE
  5
33e
100
AcDbEntity
  8
0
 62
7
100
AcDbSpline
 70
8
 71
3
 72
8
 73
4
 74
0
 40
0
 40
0
 40
0
 40
0
 40
1
 40
1
 40
1
 40
1
 10
27.742500
 20
18.420000
 30
0.0
 10
27.585000
 20
18.285000
 30
0.0
 10
27.397500
 20
18.187500
 30
0.0
 10
27.180000
 20
18.127500
 30
0.0
  0
SPLINE
  5
33f
100
AcDbEntity
  8
0
 62
7
100
AcDbSpline
 70
8
 71
3
 72
8
 73
4
 74
0
 40
0
 40
0
 40
0
 40
0
 40
1
 40
1
 40
1
 40
1
 10
27.180000
 20
18.127500
 30
0.0
 10
26.962500
 20
18.067500
 30
0.0
 10
26.707500
 20
18.030000
 30
0.0
 10
26.415000
 20
18.030000
 30
0.0
  0
LWPOLYLINE
  5
340
100
AcDbEntity
  8
0
 62
7
100
AcDbPolyline
 90
4
 70
0
 10
27.705000
 20
21.052500
 30
0.0
 10
28.102500
 20
23.115000
 30
0.0
 10
29.040000
 20
23.115000
 30
0.0
 10
28.372500
 20
19.702500
 30
0.0
  0
SPLINE
  5
341
100
AcDbEntity
  8
0
 62
7
100
AcDbSpline
 70
8
 71
3
 72
8
 73
4
 74
0
 40
0
 40
0
 40
0
 40
0
 40
1
 40
1
 40
1
 40
1
 10
25.687500
 20
18.030000
 30
0.0
 10
25.462500
 20
18.030000
 30
0.0
 10
25.222500
 20
18.030000
 30
0.0
 10
24.960000
 20
18.045000
 30
0.0
  0
LWPOLYLINE
  5
342
100
AcDbEntity
  8
0
 62
7
100
AcDbPolyline
 90
2
 70
0
 10
26.415000
 20
18.030000
 30
0.0
 10
25.687500
 20
18.030000
 30
0.0
  0
SPLINE
  5
343
100
AcDbEntity
  8
0
 62
7
100
AcDbSpline
 70
8
 71
3
 72
8
 73
4
 74
0
 40
0
 40
0
 40
0
 40
0
 40
1
 40
1
 40
1
 40
1
 10
25.252500
 20
18.802500
 30
0.0
 10
25.425000
 20
18.802500
 30
0.0
 10
25.612500
 20
18.795000
 30
0.0
 10
25.800000
 20
18.795000
 30
0.0
  0
SPLINE
  5
344
100
AcDbEntity
  8
0
 62
7
100
AcDbSpline
 70
8
 71
3
 72
8
 73
4
 74
0
 40
0
 40
0
 40
0
 40
0
 40
1
 40
1
 40
1
 40
1
 10
25.800000
 20
18.795000
 30
0.0
 10
25.995000
 20
18.795000
 30
0.0
 10
26.190000
 20
18.795000
 30
0.0
 10
26.392500
 20
18.795000
 30
0.0
  0
SPLINE
  5
345
100
AcDbEntity
  8
0
 62
7
100
AcDbSpline
 70
8
 71
3
 72
8
 73
4
 74
0
 40
0
 40
0
 40
0
 40
0
 40
1
 40
1
 40
1
 40
1
 10
26.392500
 20
18.795000
 30
0.0
 10
26.692500
 20
18.795000
 30
0.0
 10
26.917500
 20
18.855000
 30
0.0
 10
27.075000
 20
18.975000
 30
0.0
  0
SPLINE
  5
346
100
AcDbEntity
  8
0
 62
7
100
AcDbSpline
 70
8
 71
3
 72
8
 73
4
 74
0
 40
0
 40
0
 40
0
 40
0
 40
1
 40
1
 40
1
 40
1
 10
27.075000
 20
18.975000
 30
0.0
 10
27.232500
 20
19.095000
 30
0.0
 10
27.345000
 20
19.320000
 30
0.0
 10
27.412500
 20
19.635000
 30
0.0
  0
LWPOLYLINE
  5
347
100
AcDbEntity
  8
0
 62
7
100
AcDbPolyline
 90
2
 70
0
 10
24.960000
 20
18.045000
 30
0.0
 10
25.252500
 20
18.802500
 30
0.0
  0
SPLINE
  5
348
100
AcDbEntity
  8
0
 62
7
100
AcDbSpline
 70
8
 71
3
 72
8
 73
4
 74
0
 40
0
 40
0
 40
0
 40
0
 40
1
 40
1
 40
1
 40
1
 10
30.247500
 20
20.880000
 30
0.0
 10
30.247500
 20
20.880000
 30
0.0
 10
30.240000
 20
20.812500
 30
0.0
 10
30.240000
 20
20.782500
 30
0.0
  0
SPLINE
  5
349
100
AcDbEntity
  8
0
 62
7
100
AcDbSpline
 70
8
 71
3
 72
8
 73
4
 74
0
 40
0
 40
0
 40
0
 40
0
 40
1
 40
1
 40
1
 40
1
 10
30.240000
 20
20.782500
 30
0.0
 10
30.240000
 20
20.752500
 30
0.0
 10
30.240000
 20
20.730000
 30
0.0
 10
30.240000
 20
20.700000
 30
0.0
  0
SPLINE
  5
34a
100
AcDbEntity
  8
0
 62
7
100
AcDbSpline
 70
8
 71
3
 72
8
 73
4
 74
0
 40
0
 40
0
 40
0
 40
0
 40
1
 40
1
 40
1
 40
1
 10
30.240000
 20
20.700000
 30
0.0
 10
30.240000
 20
20.475000
 30
0.0
 10
30.300000
 20
20.302500
 30
0.0
 10
30.412500
 20
20.197500
 30
0.0
  0
SPLINE
  5
34b
100
AcDbEntity
  8
0
 62
7
100
AcDbSpline
 70
8
 71
3
 72
8
 73
4
 74
0
 40
0
 40
0
 40
0
 40
0
 40
1
 40
1
 40
1
 40
1
 10
30.412500
 20
20.197500
 30
0.0
 10
30.525000
 20
20.092500
 30
0.0
 10
30.727500
 20
20.040000
 30
0.0
 10
31.012500
 20
20.040000
 30
0.0
  0
LWPOLYLINE
  5
34c
100
AcDbEntity
  8
0
 62
7
100
AcDbPolyline
 90
3
 70
0
 10
27.412500
 20
19.635000
 30
0.0
 10
27.435000
 20
19.747500
 30
0.0
 10
27.465000
 20
19.755000
 30
0.0
  0
SPLINE
  5
34d
100
AcDbEntity
  8
0
 62
7
100
AcDbSpline
 70
8
 71
3
 72
8
 73
4
 74
0
 40
0
 40
0
 40
0
 40
0
 40
1
 40
1
 40
1
 40
1
 10
31.380000
 20
20.040000
 30
0.0
 10
31.492500
 20
20.040000
 30
0.0
 10
31.597500
 20
20.040000
 30
0.0
 10
31.695000
 20
20.040000
 30
0.0
  0
SPLINE
  5
34e
100
AcDbEntity
  8
0
 62
7
100
AcDbSpline
 70
8
 71
3
 72
8
 73
4
 74
0
 40
0
 40
0
 40
0
 40
0
 40
1
 40
1
 40
1
 40
1
 10
31.695000
 20
20.040000
 30
0.0
 10
31.792500
 20
20.040000
 30
0.0
 10
31.890000
 20
20.040000
 30
0.0
 10
31.987500
 20
20.040000
 30
0.0
  0
SPLINE
  5
34f
100
AcDbEntity
  8
0
 62
7
100
AcDbSpline
 70
8
 71
3
 72
8
 73
4
 74
0
 40
0
 40
0
 40
0
 40
0
 40
1
 40
1
 40
1
 40
1
 10
31.987500
 20
20.040000
 30
0.0
 10
32.085000
 20
20.040000
 30
0.0
 10
32.182500
 20
20.047500
 30
0.0
 10
32.295000
 20
20.055000
 30
0.0
  0
LWPOLYLINE
  5
350
100
AcDbEntity
  8
0
 62
7
100
AcDbPolyline
 90
2
 70
0
 10
31.012500
 20
20.040000
 30
0.0
 10
31.380000
 20
20.040000
 30
0.0
  0
SPLINE
  5
351
100
AcDbEntity
  8
0
 62
7
100
AcDbSpline
 70
8
 71
3
 72
8
 73
4
 74
0
 40
0
 40
0
 40
0
 40
0
 40
1
 40
1
 40
1
 40
1
 10
32.017500
 20
19.335000
 30
0.0
 10
31.860000
 20
19.320000
 30
0.0
 10
31.687500
 20
19.312500
 30
0.0
 10
31.500000
 20
19.305000
 30
0.0
  0
SPLINE
  5
352
100
AcDbEntity
  8
0
 62
7
100
AcDbSpline
 70
8
 71
3
 72
8
 73
4
 74
0
 40
0
 40
0
 40
0
 40
0
 40
1
 40
1
 40
1
 40
1
 10
31.500000
 20
19.305000
 30
0.0
 10
31.312500
 20
19.305000
 30
0.0
 10
31.102500
 20
19.305000
 30
0.0
 10
30.870000
 20
19.305000
 30
0.0
  0
SPLINE
  5
353
100
AcDbEntity
  8
0
 62
7
100
AcDbSpline
 70
8
 71
3
 72
8
 73
4
 74
0
 40
0
 40
0
 40
0
 40
0
 40
1
 40
1
 40
1
 40
1
 10
30.870000
 20
19.305000
 30
0.0
 10
30.577500
 20
19.305000
 30
0.0
 10
30.337500
 20
19.342500
 30
0.0
 10
30.135000
 20
19.410000
 30
0.0
  0
SPLINE
  5
354
100
AcDbEntity
  8
0
 62
7
100
AcDbSpline
 70
8
 71
3
 72
8
 73
4
 74
0
 40
0
 40
0
 40
0
 40
0
 40
1
 40
1
 40
1
 40
1
 10
30.135000
 20
19.410000
 30
0.0
 10
29.940000
 20
19.477500
 30
0.0
 10
29.782500
 20
19.575000
 30
0.0
 10
29.662500
 20
19.687500
 30
0.0
  0
SPLINE
  5
355
100
AcDbEntity
  8
0
 62
7
100
AcDbSpline
 70
8
 71
3
 72
8
 73
4
 74
0
 40
0
 40
0
 40
0
 40
0
 40
1
 40
1
 40
1
 40
1
 10
29.662500
 20
19.687500
 30
0.0
 10
29.542500
 20
19.807500
 30
0.0
 10
29.460000
 20
19.950000
 30
0.0
 10
29.407500
 20
20.115000
 30
0.0
  0
SPLINE
  5
356
100
AcDbEntity
  8
0
 62
7
100
AcDbSpline
 70
8
 71
3
 72
8
 73
4
 74
0
 40
0
 40
0
 40
0
 40
0
 40
1
 40
1
 40
1
 40
1
 10
29.407500
 20
20.115000
 30
0.0
 10
29.355000
 20
20.280000
 30
0.0
 10
29.332500
 20
20.460000
 30
0.0
 10
29.332500
 20
20.655000
 30
0.0
  0
SPLINE
  5
357
100
AcDbEntity
  8
0
 62
7
100
AcDbSpline
 70
8
 71
3
 72
8
 73
4
 74
0
 40
0
 40
0
 40
0
 40
0
 40
1
 40
1
 40
1
 40
1
 10
29.332500
 20
20.655000
 30
0.0
 10
29.332500
 20
20.760000
 30
0.0
 10
29.332500
 20
20.872500
 30
0.0
 10
29.347500
 20
20.977500
 30
0.0
  0
SPLINE
  5
358
100
AcDbEntity
  8
0
 62
7
100
AcDbSpline
 70
8
 71
3
 72
8
 73
4
 74
0
 40
0
 40
0
 40
0
 40
0
 40
1
 40
1
 40
1
 40
1
 10
29.347500
 20
20.977500
 30
0.0
 10
29.362500
 20
21.090000
 30
0.0
 10
29.377500
 20
21.202500
 30
0.0
 10
29.400000
 20
21.322500
 30
0.0
  0
SPLINE
  5
359
100
AcDbEntity
  8
0
 62
7
100
AcDbSpline
 70
8
 71
3
 72
8
 73
4
 74
0
 40
0
 40
0
 40
0
 40
0
 40
1
 40
1
 40
1
 40
1
 10
29.400000
 20
21.322500
 30
0.0
 10
29.475000
 20
21.720000
 30
0.0
 10
29.587500
 20
22.035000
 30
0.0
 10
29.722500
 20
22.282500
 30
0.0
  0
SPLINE
  5
35a
100
AcDbEntity
  8
0
 62
7
100
AcDbSpline
 70
8
 71
3
 72
8
 73
4
 74
0
 40
0
 40
0
 40
0
 40
0
 40
1
 40
1
 40
1
 40
1
 10
29.722500
 20
22.282500
 30
0.0
 10
29.857500
 20
22.530000
 30
0.0
 10
30.022500
 20
22.725000
 30
0.0
 10
30.202500
 20
22.860000
 30
0.0
  0
SPLINE
  5
35b
100
AcDbEntity
  8
0
 62
7
100
AcDbSpline
 70
8
 71
3
 72
8
 73
4
 74
0
 40
0
 40
0
 40
0
 40
0
 40
1
 40
1
 40
1
 40
1
 10
30.202500
 20
22.860000
 30
0.0
 10
30.382500
 20
22.995000
 30
0.0
 10
30.577500
 20
23.092500
 30
0.0
 10
30.795000
 20
23.145000
 30
0.0
  0
SPLINE
  5
35c
100
AcDbEntity
  8
0
 62
7
100
AcDbSpline
 70
8
 71
3
 72
8
 73
4
 74
0
 40
0
 40
0
 40
0
 40
0
 40
1
 40
1
 40
1
 40
1
 10
30.795000
 20
23.145000
 30
0.0
 10
31.012500
 20
23.197500
 30
0.0
 10
31.230000
 20
23.220000
 30
0.0
 10
31.455000
 20
23.220000
 30
0.0
  0
SPLINE
  5
35d
100
AcDbEntity
  8
0
 62
7
100
AcDbSpline
 70
8
 71
3
 72
8
 73
4
 74
0
 40
0
 40
0
 40
0
 40
0
 40
1
 40
1
 40
1
 40
1
 10
31.455000
 20
23.220000
 30
0.0
 10
31.942500
 20
23.220000
 30
0.0
 10
32.302500
 20
23.130000
 30
0.0
 10
32.527500
 20
22.950000
 30
0.0
  0
SPLINE
  5
35e
100
AcDbEntity
  8
0
 62
7
100
AcDbSpline
 70
8
 71
3
 72
8
 73
4
 74
0
 40
0
 40
0
 40
0
 40
0
 40
1
 40
1
 40
1
 40
1
 10
32.527500
 20
22.950000
 30
0.0
 10
32.752500
 20
22.770000
 30
0.0
 10
32.865000
 20
22.522500
 30
0.0
 10
32.865000
 20
22.207500
 30
0.0
  0
SPLINE
  5
35f
100
AcDbEntity
  8
0
 62
7
100
AcDbSpline
 70
8
 71
3
 72
8
 73
4
 74
0
 40
0
 40
0
 40
0
 40
0
 40
1
 40
1
 40
1
 40
1
 10
32.865000
 20
22.207500
 30
0.0
 10
32.865000
 20
22.095000
 30
0.0
 10
32.850000
 20
21.975000
 30
0.0
 10
32.820000
 20
21.840000
 30
0.0
  0
SPLINE
  5
360
100
AcDbEntity
  8
0
 62
7
100
AcDbSpline
 70
8
 71
3
 72
8
 73
4
 74
0
 40
0
 40
0
 40
0
 40
0
 40
1
 40
1
 40
1
 40
1
 10
32.820000
 20
21.840000
 30
0.0
 10
32.745000
 20
21.495000
 30
0.0
 10
32.572500
 20
21.247500
 30
0.0
 10
32.310000
 20
21.090000
 30
0.0
  0
SPLINE
  5
361
100
AcDbEntity
  8
0
 62
7
100
AcDbSpline
 70
8
 71
3
 72
8
 73
4
 74
0
 40
0
 40
0
 40
0
 40
0
 40
1
 40
1
 40
1
 40
1
 10
32.310000
 20
21.090000
 30
0.0
 10
32.047500
 20
20.932500
 30
0.0
 10
31.642500
 20
20.857500
 30
0.0
 10
31.110000
 20
20.857500
 30
0.0
  0
LWPOLYLINE
  5
362
100
AcDbEntity
  8
0
 62
7
100
AcDbPolyline
 90
2
 70
0
 10
32.295000
 20
20.055000
 30
0.0
 10
32.017500
 20
19.335000
 30
0.0
  0
SPLINE
  5
363
100
AcDbEntity
  8
0
 62
7
100
AcDbSpline
 70
8
 71
3
 72
8
 73
4
 74
0
 40
0
 40
0
 40
0
 40
0
 40
1
 40
1
 40
1
 40
1
 10
31.387500
 20
22.530000
 30
0.0
 10
31.102500
 20
22.530000
 30
0.0
 10
30.885000
 20
22.462500
 30
0.0
 10
30.727500
 20
22.320000
 30
0.0
  0
SPLINE
  5
364
100
AcDbEntity
  8
0
 62
7
100
AcDbSpline
 70
8
 71
3
 72
8
 73
4
 74
0
 40
0
 40
0
 40
0
 40
0
 40
1
 40
1
 40
1
 40
1
 10
30.727500
 20
22.320000
 30
0.0
 10
30.577500
 20
22.185000
 30
0.0
 10
30.457500
 20
21.930000
 30
0.0
 10
30.367500
 20
21.570000
 30
0.0
  0
LWPOLYLINE
  5
365
100
AcDbEntity
  8
0
 62
7
100
AcDbPolyline
 90
3
 70
0
 10
31.110000
 20
20.857500
 30
0.0
 10
30.247500
 20
20.857500
 30
0.0
 10
30.247500
 20
20.880000
 30
0.0
  0
SPLINE
  5
366
100
AcDbEntity
  8
0
 62
7
100
AcDbSpline
 70
8
 71
3
 72
8
 73
4
 74
0
 40
0
 40
0
 40
0
 40
0
 40
1
 40
1
 40
1
 40
1
 10
31.102500
 20
21.570000
 30
0.0
 10
31.245000
 20
21.570000
 30
0.0
 10
31.372500
 20
21.570000
 30
0.0
 10
31.470000
 20
21.585000
 30
0.0
  0
SPLINE
  5
367
100
AcDbEntity
  8
0
 62
7
100
AcDbSpline
 70
8
 71
3
 72
8
 73
4
 74
0
 40
0
 40
0
 40
0
 40
0
 40
1
 40
1
 40
1
 40
1
 10
31.470000
 20
21.585000
 30
0.0
 10
31.567500
 20
21.600000
 30
0.0
 10
31.650000
 20
21.622500
 30
0.0
 10
31.710000
 20
21.652500
 30
0.0
  0
SPLINE
  5
368
100
AcDbEntity
  8
0
 62
7
100
AcDbSpline
 70
8
 71
3
 72
8
 73
4
 74
0
 40
0
 40
0
 40
0
 40
0
 40
1
 40
1
 40
1
 40
1
 10
31.710000
 20
21.652500
 30
0.0
 10
31.770000
 20
21.682500
 30
0.0
 10
31.815000
 20
21.727500
 30
0.0
 10
31.852500
 20
21.772500
 30
0.0
  0
SPLINE
  5
369
100
AcDbEntity
  8
0
 62
7
100
AcDbSpline
 70
8
 71
3
 72
8
 73
4
 74
0
 40
0
 40
0
 40
0
 40
0
 40
1
 40
1
 40
1
 40
1
 10
31.852500
 20
21.772500
 30
0.0
 10
31.890000
 20
21.817500
 30
0.0
 10
31.912500
 20
21.885000
 30
0.0
 10
31.942500
 20
21.952500
 30
0.0
  0
SPLINE
  5
36a
100
AcDbEntity
  8
0
 62
7
100
AcDbSpline
 70
8
 71
3
 72
8
 73
4
 74
0
 40
0
 40
0
 40
0
 40
0
 40
1
 40
1
 40
1
 40
1
 10
31.942500
 20
21.952500
 30
0.0
 10
31.957500
 20
21.997500
 30
0.0
 10
31.965000
 20
22.035000
 30
0.0
 10
31.972500
 20
22.072500
 30
0.0
  0
SPLINE
  5
36b
100
AcDbEntity
  8
0
 62
7
100
AcDbSpline
 70
8
 71
3
 72
8
 73
4
 74
0
 40
0
 40
0
 40
0
 40
0
 40
1
 40
1
 40
1
 40
1
 10
31.972500
 20
22.072500
 30
0.0
 10
31.972500
 20
22.110000
 30
0.0
 10
31.972500
 20
22.132500
 30
0.0
 10
31.972500
 20
22.162500
 30
0.0
  0
SPLINE
  5
36c
100
AcDbEntity
  8
0
 62
7
100
AcDbSpline
 70
8
 71
3
 72
8
 73
4
 74
0
 40
0
 40
0
 40
0
 40
0
 40
1
 40
1
 40
1
 40
1
 10
31.972500
 20
22.162500
 30
0.0
 10
31.972500
 20
22.275000
 30
0.0
 10
31.927500
 20
22.365000
 30
0.0
 10
31.837500
 20
22.432500
 30
0.0
  0
SPLINE
  5
36d
100
AcDbEntity
  8
0
 62
7
100
AcDbSpline
 70
8
 71
3
 72
8
 73
4
 74
0
 40
0
 40
0
 40
0
 40
0
 40
1
 40
1
 40
1
 40
1
 10
31.837500
 20
22.432500
 30
0.0
 10
31.747500
 20
22.500000
 30
0.0
 10
31.597500
 20
22.530000
 30
0.0
 10
31.372500
 20
22.530000
 30
0.0
  0
LWPOLYLINE
  5
36e
100
AcDbEntity
  8
0
 62
7
100
AcDbPolyline
 90
2
 70
0
 10
30.367500
 20
21.570000
 30
0.0
 10
31.102500
 20
21.570000
 30
0.0
  0
SPLINE
  5
36f
100
AcDbEntity
  8
0
 62
7
100
AcDbSpline
 70
8
 71
3
 72
8
 73
4
 74
0
 40
0
 40
0
 40
0
 40
0
 40
1
 40
1
 40
1
 40
1
 10
34.702500
 20
21.772500
 30
0.0
 10
34.942500
 20
21.772500
 30
0.0
 10
35.145000
 20
21.750000
 30
0.0
 10
35.325000
 20
21.697500
 30
0.0
  0
SPLINE
  5
370
100
AcDbEntity
  8
0
 62
7
100
AcDbSpline
 70
8
 71
3
 72
8
 73
4
 74
0
 40
0
 40
0
 40
0
 40
0
 40
1
 40
1
 40
1
 40
1
 10
35.325000
 20
21.697500
 30
0.0
 10
35.497500
 20
21.652500
 30
0.0
 10
35.647500
 20
21.570000
 30
0.0
 10
35.760000
 20
21.457500
 30
0.0
  0
LWPOLYLINE
  5
371
100
AcDbEntity
  8
0
 62
7
100
AcDbPolyline
 90
2
 70
0
 10
31.372500
 20
22.530000
 30
0.0
 10
31.387500
 20
22.530000
 30
0.0
  0
SPLINE
  5
372
100
AcDbEntity
  8
0
 62
7
100
AcDbSpline
 70
8
 71
3
 72
8
 73
4
 74
0
 40
0
 40
0
 40
0
 40
0
 40
1
 40
1
 40
1
 40
1
 10
35.782500
 20
21.562500
 30
0.0
 10
35.790000
 20
21.615000
 30
0.0
 10
35.805000
 20
21.675000
 30
0.0
 10
35.812500
 20
21.742500
 30
0.0
  0
SPLINE
  5
373
100
AcDbEntity
  8
0
 62
7
100
AcDbSpline
 70
8
 71
3
 72
8
 73
4
 74
0
 40
0
 40
0
 40
0
 40
0
 40
1
 40
1
 40
1
 40
1
 10
35.812500
 20
21.742500
 30
0.0
 10
35.820000
 20
21.810000
 30
0.0
 10
35.827500
 20
21.862500
 30
0.0
 10
35.827500
 20
21.900000
 30
0.0
  0
SPLINE
  5
374
100
AcDbEntity
  8
0
 62
7
100
AcDbSpline
 70
8
 71
3
 72
8
 73
4
 74
0
 40
0
 40
0
 40
0
 40
0
 40
1
 40
1
 40
1
 40
1
 10
35.827500
 20
21.900000
 30
0.0
 10
35.827500
 20
22.065000
 30
0.0
 10
35.767500
 20
22.185000
 30
0.0
 10
35.655000
 20
22.260000
 30
0.0
  0
SPLINE
  5
375
100
AcDbEntity
  8
0
 62
7
100
AcDbSpline
 70
8
 71
3
 72
8
 73
4
 74
0
 40
0
 40
0
 40
0
 40
0
 40
1
 40
1
 40
1
 40
1
 10
35.655000
 20
22.260000
 30
0.0
 10
35.535000
 20
22.335000
 30
0.0
 10
35.340000
 20
22.372500
 30
0.0
 10
35.062500
 20
22.372500
 30
0.0
  0
LWPOLYLINE
  5
376
100
AcDbEntity
  8
0
 62
7
100
AcDbPolyline
 90
2
 70
0
 10
35.760000
 20
21.457500
 30
0.0
 10
35.782500
 20
21.562500
 30
0.0
  0
SPLINE
  5
377
100
AcDbEntity
  8
0
 62
7
100
AcDbSpline
 70
8
 71
3
 72
8
 73
4
 74
0
 40
0
 40
0
 40
0
 40
0
 40
1
 40
1
 40
1
 40
1
 10
34.417500
 20
22.372500
 30
0.0
 10
34.312500
 20
22.372500
 30
0.0
 10
34.207500
 20
22.372500
 30
0.0
 10
34.095000
 20
22.372500
 30
0.0
  0
SPLINE
  5
378
100
AcDbEntity
  8
0
 62
7
100
AcDbSpline
 70
8
 71
3
 72
8
 73
4
 74
0
 40
0
 40
0
 40
0
 40
0
 40
1
 40
1
 40
1
 40
1
 10
34.095000
 20
22.372500
 30
0.0
 10
33.982500
 20
22.372500
 30
0.0
 10
33.855000
 20
22.372500
 30
0.0
 10
33.712500
 20
22.365000
 30
0.0
  0
LWPOLYLINE
  5
379
100
AcDbEntity
  8
0
 62
7
100
AcDbPolyline
 90
2
 70
0
 10
35.062500
 20
22.372500
 30
0.0
 10
34.417500
 20
22.372500
 30
0.0
  0
SPLINE
  5
37a
100
AcDbEntity
  8
0
 62
7
100
AcDbSpline
 70
8
 71
3
 72
8
 73
4
 74
0
 40
0
 40
0
 40
0
 40
0
 40
1
 40
1
 40
1
 40
1
 10
34.005000
 20
23.130000
 30
0.0
 10
34.162500
 20
23.137500
 30
0.0
 10
34.335000
 20
23.145000
 30
0.0
 10
34.537500
 20
23.145000
 30
0.0
  0
LWPOLYLINE
  5
37b
100
AcDbEntity
  8
0
 62
7
100
AcDbPolyline
 90
2
 70
0
 10
33.712500
 20
22.365000
 30
0.0
 10
34.005000
 20
23.130000
 30
0.0
  0
SPLINE
  5
37c
100
AcDbEntity
  8
0
 62
7
100
AcDbSpline
 70
8
 71
3
 72
8
 73
4
 74
0
 40
0
 40
0
 40
0
 40
0
 40
1
 40
1
 40
1
 40
1
 10
35.145000
 20
23.145000
 30
0.0
 10
35.685000
 20
23.145000
 30
0.0
 10
36.075000
 20
23.047500
 30
0.0
 10
36.322500
 20
22.860000
 30
0.0
  0
SPLINE
  5
37d
100
AcDbEntity
  8
0
 62
7
100
AcDbSpline
 70
8
 71
3
 72
8
 73
4
 74
0
 40
0
 40
0
 40
0
 40
0
 40
1
 40
1
 40
1
 40
1
 10
36.322500
 20
22.860000
 30
0.0
 10
36.562500
 20
22.665000
 30
0.0
 10
36.690000
 20
22.387500
 30
0.0
 10
36.690000
 20
22.012500
 30
0.0
  0
SPLINE
  5
37e
100
AcDbEntity
  8
0
 62
7
100
AcDbSpline
 70
8
 71
3
 72
8
 73
4
 74
0
 40
0
 40
0
 40
0
 40
0
 40
1
 40
1
 40
1
 40
1
 10
36.690000
 20
22.012500
 30
0.0
 10
36.690000
 20
21.937500
 30
0.0
 10
36.690000
 20
21.862500
 30
0.0
 10
36.675000
 20
21.787500
 30
0.0
  0
SPLINE
  5
37f
100
AcDbEntity
  8
0
 62
7
100
AcDbSpline
 70
8
 71
3
 72
8
 73
4
 74
0
 40
0
 40
0
 40
0
 40
0
 40
1
 40
1
 40
1
 40
1
 10
36.675000
 20
21.787500
 30
0.0
 10
36.660000
 20
21.712500
 30
0.0
 10
36.652500
 20
21.630000
 30
0.0
 10
36.637500
 20
21.540000
 30
0.0
  0
LWPOLYLINE
  5
380
100
AcDbEntity
  8
0
 62
7
100
AcDbPolyline
 90
2
 70
0
 10
34.537500
 20
23.145000
 30
0.0
 10
35.145000
 20
23.145000
 30
0.0
  0
SPLINE
  5
381
100
AcDbEntity
  8
0
 62
7
100
AcDbSpline
 70
8
 71
3
 72
8
 73
4
 74
0
 40
0
 40
0
 40
0
 40
0
 40
1
 40
1
 40
1
 40
1
 10
36.352500
 20
20.017500
 30
0.0
 10
36.307500
 20
19.777500
 30
0.0
 10
36.217500
 20
19.605000
 30
0.0
 10
36.097500
 20
19.507500
 30
0.0
  0
SPLINE
  5
382
100
AcDbEntity
  8
0
 62
7
100
AcDbSpline
 70
8
 71
3
 72
8
 73
4
 74
0
 40
0
 40
0
 40
0
 40
0
 40
1
 40
1
 40
1
 40
1
 10
36.097500
 20
19.507500
 30
0.0
 10
35.977500
 20
19.410000
 30
0.0
 10
35.797500
 20
19.350000
 30
0.0
 10
35.557500
 20
19.327500
 30
0.0
  0
SPLINE
  5
383
100
AcDbEntity
  8
0
 62
7
100
AcDbSpline
 70
8
 71
3
 72
8
 73
4
 74
0
 40
0
 40
0
 40
0
 40
0
 40
1
 40
1
 40
1
 40
1
 10
35.557500
 20
19.327500
 30
0.0
 10
35.430000
 20
19.312500
 30
0.0
 10
35.280000
 20
19.297500
 30
0.0
 10
35.100000
 20
19.290000
 30
0.0
  0
SPLINE
  5
384
100
AcDbEntity
  8
0
 62
7
100
AcDbSpline
 70
8
 71
3
 72
8
 73
4
 74
0
 40
0
 40
0
 40
0
 40
0
 40
1
 40
1
 40
1
 40
1
 10
35.100000
 20
19.290000
 30
0.0
 10
34.920000
 20
19.282500
 30
0.0
 10
34.755000
 20
19.275000
 30
0.0
 10
34.597500
 20
19.275000
 30
0.0
  0
SPLINE
  5
385
100
AcDbEntity
  8
0
 62
7
100
AcDbSpline
 70
8
 71
3
 72
8
 73
4
 74
0
 40
0
 40
0
 40
0
 40
0
 40
1
 40
1
 40
1
 40
1
 10
34.597500
 20
19.275000
 30
0.0
 10
34.095000
 20
19.275000
 30
0.0
 10
33.727500
 20
19.357500
 30
0.0
 10
33.487500
 20
19.515000
 30
0.0
  0
SPLINE
  5
386
100
AcDbEntity
  8
0
 62
7
100
AcDbSpline
 70
8
 71
3
 72
8
 73
4
 74
0
 40
0
 40
0
 40
0
 40
0
 40
1
 40
1
 40
1
 40
1
 10
33.487500
 20
19.515000
 30
0.0
 10
33.247500
 20
19.672500
 30
0.0
 10
33.127500
 20
19.927500
 30
0.0
 10
33.127500
 20
20.272500
 30
0.0
  0
SPLINE
  5
387
100
AcDbEntity
  8
0
 62
7
100
AcDbSpline
 70
8
 71
3
 72
8
 73
4
 74
0
 40
0
 40
0
 40
0
 40
0
 40
1
 40
1
 40
1
 40
1
 10
33.127500
 20
20.272500
 30
0.0
 10
33.127500
 20
20.430000
 30
0.0
 10
33.142500
 20
20.580000
 30
0.0
 10
33.180000
 20
20.730000
 30
0.0
  0
SPLINE
  5
388
100
AcDbEntity
  8
0
 62
7
100
AcDbSpline
 70
8
 71
3
 72
8
 73
4
 74
0
 40
0
 40
0
 40
0
 40
0
 40
1
 40
1
 40
1
 40
1
 10
33.180000
 20
20.730000
 30
0.0
 10
33.255000
 20
21.060000
 30
0.0
 10
33.412500
 20
21.315000
 30
0.0
 10
33.652500
 20
21.502500
 30
0.0
  0
SPLINE
  5
389
100
AcDbEntity
  8
0
 62
7
100
AcDbSpline
 70
8
 71
3
 72
8
 73
4
 74
0
 40
0
 40
0
 40
0
 40
0
 40
1
 40
1
 40
1
 40
1
 10
33.652500
 20
21.502500
 30
0.0
 10
33.892500
 20
21.690000
 30
0.0
 10
34.252500
 20
21.780000
 30
0.0
 10
34.725000
 20
21.780000
 30
0.0
  0
LWPOLYLINE
  5
38a
100
AcDbEntity
  8
0
 62
7
100
AcDbPolyline
 90
2
 70
0
 10
36.637500
 20
21.540000
 30
0.0
 10
36.352500
 20
20.017500
 30
0.0
  0
SPLINE
  5
38b
100
AcDbEntity
  8
0
 62
7
100
AcDbSpline
 70
8
 71
3
 72
8
 73
4
 74
0
 40
0
 40
0
 40
0
 40
0
 40
1
 40
1
 40
1
 40
1
 10
34.807500
 20
21.112500
 30
0.0
 10
34.552500
 20
21.112500
 30
0.0
 10
34.365000
 20
21.075000
 30
0.0
 10
34.245000
 20
20.992500
 30
0.0
  0
SPLINE
  5
38c
100
AcDbEntity
  8
0
 62
7
100
AcDbSpline
 70
8
 71
3
 72
8
 73
4
 74
0
 40
0
 40
0
 40
0
 40
0
 40
1
 40
1
 40
1
 40
1
 10
34.245000
 20
20.992500
 30
0.0
 10
34.125000
 20
20.917500
 30
0.0
 10
34.042500
 20
20.775000
 30
0.0
 10
34.005000
 20
20.572500
 30
0.0
  0
SPLINE
  5
38d
100
AcDbEntity
  8
0
 62
7
100
AcDbSpline
 70
8
 71
3
 72
8
 73
4
 74
0
 40
0
 40
0
 40
0
 40
0
 40
1
 40
1
 40
1
 40
1
 10
34.005000
 20
20.572500
 30
0.0
 10
33.990000
 20
20.490000
 30
0.0
 10
33.982500
 20
20.422500
 30
0.0
 10
33.982500
 20
20.370000
 30
0.0
  0
SPLINE
  5
38e
100
AcDbEntity
  8
0
 62
7
100
AcDbSpline
 70
8
 71
3
 72
8
 73
4
 74
0
 40
0
 40
0
 40
0
 40
0
 40
1
 40
1
 40
1
 40
1
 10
33.982500
 20
20.370000
 30
0.0
 10
33.982500
 20
20.197500
 30
0.0
 10
34.042500
 20
20.085000
 30
0.0
 10
34.162500
 20
20.032500
 30
0.0
  0
SPLINE
  5
38f
100
AcDbEntity
  8
0
 62
7
100
AcDbSpline
 70
8
 71
3
 72
8
 73
4
 74
0
 40
0
 40
0
 40
0
 40
0
 40
1
 40
1
 40
1
 40
1
 10
34.162500
 20
20.032500
 30
0.0
 10
34.282500
 20
19.980000
 30
0.0
 10
34.470000
 20
19.957500
 30
0.0
 10
34.725000
 20
19.957500
 30
0.0
  0
SPLINE
  5
390
100
AcDbEntity
  8
0
 62
7
100
AcDbSpline
 70
8
 71
3
 72
8
 73
4
 74
0
 40
0
 40
0
 40
0
 40
0
 40
1
 40
1
 40
1
 40
1
 10
34.725000
 20
19.957500
 30
0.0
 10
34.860000
 20
19.957500
 30
0.0
 10
34.987500
 20
19.957500
 30
0.0
 10
35.107500
 20
19.957500
 30
0.0
  0
SPLINE
  5
391
100
AcDbEntity
  8
0
 62
7
100
AcDbSpline
 70
8
 71
3
 72
8
 73
4
 74
0
 40
0
 40
0
 40
0
 40
0
 40
1
 40
1
 40
1
 40
1
 10
35.107500
 20
19.957500
 30
0.0
 10
35.227500
 20
19.957500
 30
0.0
 10
35.340000
 20
19.972500
 30
0.0
 10
35.452500
 20
19.987500
 30
0.0
  0
LWPOLYLINE
  5
392
100
AcDbEntity
  8
0
 62
7
100
AcDbPolyline
 90
2
 70
0
 10
34.725000
 20
21.780000
 30
0.0
 10
34.702500
 20
21.772500
 30
0.0
  0
SPLINE
  5
393
100
AcDbEntity
  8
0
 62
7
100
AcDbSpline
 70
8
 71
3
 72
8
 73
4
 74
0
 40
0
 40
0
 40
0
 40
0
 40
1
 40
1
 40
1
 40
1
 10
35.527500
 20
20.340000
 30
0.0
 10
35.542500
 20
20.400000
 30
0.0
 10
35.550000
 20
20.460000
 30
0.0
 10
35.557500
 20
20.512500
 30
0.0
  0
SPLINE
  5
394
100
AcDbEntity
  8
0
 62
7
100
AcDbSpline
 70
8
 71
3
 72
8
 73
4
 74
0
 40
0
 40
0
 40
0
 40
0
 40
1
 40
1
 40
1
 40
1
 10
35.557500
 20
20.512500
 30
0.0
 10
35.557500
 20
20.565000
 30
0.0
 10
35.557500
 20
20.610000
 30
0.0
 10
35.557500
 20
20.640000
 30
0.0
  0
SPLINE
  5
395
100
AcDbEntity
  8
0
 62
7
100
AcDbSpline
 70
8
 71
3
 72
8
 73
4
 74
0
 40
0
 40
0
 40
0
 40
0
 40
1
 40
1
 40
1
 40
1
 10
35.557500
 20
20.640000
 30
0.0
 10
35.557500
 20
20.812500
 30
0.0
 10
35.497500
 20
20.932500
 30
0.0
 10
35.377500
 20
21.007500
 30
0.0
  0
SPLINE
  5
396
100
AcDbEntity
  8
0
 62
7
100
AcDbSpline
 70
8
 71
3
 72
8
 73
4
 74
0
 40
0
 40
0
 40
0
 40
0
 40
1
 40
1
 40
1
 40
1
 10
35.377500
 20
21.007500
 30
0.0
 10
35.257500
 20
21.082500
 30
0.0
 10
35.070000
 20
21.120000
 30
0.0
 10
34.807500
 20
21.120000
 30
0.0
  0
LWPOLYLINE
  5
397
100
AcDbEntity
  8
0
 62
7
100
AcDbPolyline
 90
2
 70
0
 10
35.452500
 20
19.987500
 30
0.0
 10
35.527500
 20
20.340000
 30
0.0
  0
SPLINE
  5
398
100
AcDbEntity
  8
0
 62
7
100
AcDbSpline
 70
8
 71
3
 72
8
 73
4
 74
0
 40
0
 40
0
 40
0
 40
0
 40
1
 40
1
 40
1
 40
1
 10
39.292500
 20
23.137500
 30
0.0
 10
39.435000
 20
23.137500
 30
0.0
 10
39.562500
 20
23.137500
 30
0.0
 10
39.682500
 20
23.137500
 30
0.0
  0
SPLINE
  5
399
100
AcDbEntity
  8
0
 62
7
100
AcDbSpline
 70
8
 71
3
 72
8
 73
4
 74
0
 40
0
 40
0
 40
0
 40
0
 40
1
 40
1
 40
1
 40
1
 10
39.682500
 20
23.137500
 30
0.0
 10
39.802500
 20
23.137500
 30
0.0
 10
39.892500
 20
23.130000
 30
0.0
 10
39.952500
 20
23.122500
 30
0.0
  0
LWPOLYLINE
  5
39a
100
AcDbEntity
  8
0
 62
7
100
AcDbPolyline
 90
2
 70
0
 10
34.807500
 20
21.120000
 30
0.0
 10
34.807500
 20
21.112500
 30
0.0
  0
SPLINE
  5
39b
100
AcDbEntity
  8
0
 62
7
100
AcDbSpline
 70
8
 71
3
 72
8
 73
4
 74
0
 40
0
 40
0
 40
0
 40
0
 40
1
 40
1
 40
1
 40
1
 10
39.652500
 20
22.350000
 30
0.0
 10
39.577500
 20
22.350000
 30
0.0
 10
39.510000
 20
22.357500
 30
0.0
 10
39.450000
 20
22.357500
 30
0.0
  0
SPLINE
  5
39c
100
AcDbEntity
  8
0
 62
7
100
AcDbSpline
 70
8
 71
3
 72
8
 73
4
 74
0
 40
0
 40
0
 40
0
 40
0
 40
1
 40
1
 40
1
 40
1
 10
39.450000
 20
22.357500
 30
0.0
 10
39.390000
 20
22.357500
 30
0.0
 10
39.322500
 20
22.357500
 30
0.0
 10
39.270000
 20
22.357500
 30
0.0
  0
SPLINE
  5
39d
100
AcDbEntity
  8
0
 62
7
100
AcDbSpline
 70
8
 71
3
 72
8
 73
4
 74
0
 40
0
 40
0
 40
0
 40
0
 40
1
 40
1
 40
1
 40
1
 10
39.270000
 20
22.357500
 30
0.0
 10
39.112500
 20
22.357500
 30
0.0
 10
38.985000
 20
22.350000
 30
0.0
 10
38.872500
 20
22.327500
 30
0.0
  0
SPLINE
  5
39e
100
AcDbEntity
  8
0
 62
7
100
AcDbSpline
 70
8
 71
3
 72
8
 73
4
 74
0
 40
0
 40
0
 40
0
 40
0
 40
1
 40
1
 40
1
 40
1
 10
38.872500
 20
22.327500
 30
0.0
 10
38.767500
 20
22.305000
 30
0.0
 10
38.677500
 20
22.260000
 30
0.0
 10
38.610000
 20
22.200000
 30
0.0
  0
SPLINE
  5
39f
100
AcDbEntity
  8
0
 62
7
100
AcDbSpline
 70
8
 71
3
 72
8
 73
4
 74
0
 40
0
 40
0
 40
0
 40
0
 40
1
 40
1
 40
1
 40
1
 10
38.610000
 20
22.200000
 30
0.0
 10
38.542500
 20
22.140000
 30
0.0
 10
38.482500
 20
22.050000
 30
0.0
 10
38.445000
 20
21.945000
 30
0.0
  0
SPLINE
  5
3a0
100
AcDbEntity
  8
0
 62
7
100
AcDbSpline
 70
8
 71
3
 72
8
 73
4
 74
0
 40
0
 40
0
 40
0
 40
0
 40
1
 40
1
 40
1
 40
1
 10
38.445000
 20
21.945000
 30
0.0
 10
38.400000
 20
21.840000
 30
0.0
 10
38.362500
 20
21.697500
 30
0.0
 10
38.325000
 20
21.532500
 30
0.0
  0
LWPOLYLINE
  5
3a1
100
AcDbEntity
  8
0
 62
7
100
AcDbPolyline
 90
2
 70
0
 10
39.952500
 20
23.122500
 30
0.0
 10
39.652500
 20
22.350000
 30
0.0
  0
SPLINE
  5
3a2
100
AcDbEntity
  8
0
 62
7
100
AcDbSpline
 70
8
 71
3
 72
8
 73
4
 74
0
 40
0
 40
0
 40
0
 40
0
 40
1
 40
1
 40
1
 40
1
 10
37.402500
 20
21.592500
 30
0.0
 10
37.462500
 20
21.915000
 30
0.0
 10
37.552500
 20
22.177500
 30
0.0
 10
37.657500
 20
22.380000
 30
0.0
  0
SPLINE
  5
3a3
100
AcDbEntity
  8
0
 62
7
100
AcDbSpline
 70
8
 71
3
 72
8
 73
4
 74
0
 40
0
 40
0
 40
0
 40
0
 40
1
 40
1
 40
1
 40
1
 10
37.657500
 20
22.380000
 30
0.0
 10
37.762500
 20
22.582500
 30
0.0
 10
37.890000
 20
22.740000
 30
0.0
 10
38.047500
 20
22.852500
 30
0.0
  0
SPLINE
  5
3a4
100
AcDbEntity
  8
0
 62
7
100
AcDbSpline
 70
8
 71
3
 72
8
 73
4
 74
0
 40
0
 40
0
 40
0
 40
0
 40
1
 40
1
 40
1
 40
1
 10
38.047500
 20
22.852500
 30
0.0
 10
38.197500
 20
22.965000
 30
0.0
 10
38.377500
 20
23.040000
 30
0.0
 10
38.587500
 20
23.085000
 30
0.0
  0
SPLINE
  5
3a5
100
AcDbEntity
  8
0
 62
7
100
AcDbSpline
 70
8
 71
3
 72
8
 73
4
 74
0
 40
0
 40
0
 40
0
 40
0
 40
1
 40
1
 40
1
 40
1
 10
38.587500
 20
23.085000
 30
0.0
 10
38.797500
 20
23.130000
 30
0.0
 10
39.030000
 20
23.145000
 30
0.0
 10
39.300000
 20
23.145000
 30
0.0
  0
LWPOLYLINE
  5
3a6
100
AcDbEntity
  8
0
 62
7
100
AcDbPolyline
 90
4
 70
0
 10
38.325000
 20
21.532500
 30
0.0
 10
37.897500
 20
19.335000
 30
0.0
 10
36.967500
 20
19.335000
 30
0.0
 10
37.402500
 20
21.592500
 30
0.0
  0
SPLINE
  5
3a7
100
AcDbEntity
  8
0
 62
7
100
AcDbSpline
 70
8
 71
3
 72
8
 73
4
 74
0
 40
0
 40
0
 40
0
 40
0
 40
1
 40
1
 40
1
 40
1
 10
41.130000
 20
21.997500
 30
0.0
 10
41.130000
 20
21.930000
 30
0.0
 10
41.152500
 20
21.877500
 30
0.0
 10
41.205000
 20
21.840000
 30
0.0
  0
SPLINE
  5
3a8
100
AcDbEntity
  8
0
 62
7
100
AcDbSpline
 70
8
 71
3
 72
8
 73
4
 74
0
 40
0
 40
0
 40
0
 40
0
 40
1
 40
1
 40
1
 40
1
 10
41.205000
 20
21.840000
 30
0.0
 10
41.250000
 20
21.802500
 30
0.0
 10
41.332500
 20
21.765000
 30
0.0
 10
41.430000
 20
21.735000
 30
0.0
  0
LWPOLYLINE
  5
3a9
100
AcDbEntity
  8
0
 62
7
100
AcDbPolyline
 90
2
 70
0
 10
39.300000
 20
23.145000
 30
0.0
 10
39.292500
 20
23.137500
 30
0.0
  0
SPLINE
  5
3aa
100
AcDbEntity
  8
0
 62
7
100
AcDbSpline
 70
8
 71
3
 72
8
 73
4
 74
0
 40
0
 40
0
 40
0
 40
0
 40
1
 40
1
 40
1
 40
1
 10
42.052500
 20
21.562500
 30
0.0
 10
42.382500
 20
21.465000
 30
0.0
 10
42.622500
 20
21.345000
 30
0.0
 10
42.772500
 20
21.202500
 30
0.0
  0
SPLINE
  5
3ab
100
AcDbEntity
  8
0
 62
7
100
AcDbSpline
 70
8
 71
3
 72
8
 73
4
 74
0
 40
0
 40
0
 40
0
 40
0
 40
1
 40
1
 40
1
 40
1
 10
42.772500
 20
21.202500
 30
0.0
 10
42.922500
 20
21.060000
 30
0.0
 10
42.997500
 20
20.865000
 30
0.0
 10
42.997500
 20
20.617500
 30
0.0
  0
SPLINE
  5
3ac
100
AcDbEntity
  8
0
 62
7
100
AcDbSpline
 70
8
 71
3
 72
8
 73
4
 74
0
 40
0
 40
0
 40
0
 40
0
 40
1
 40
1
 40
1
 40
1
 10
42.997500
 20
20.617500
 30
0.0
 10
42.997500
 20
20.520000
 30
0.0
 10
42.982500
 20
20.400000
 30
0.0
 10
42.960000
 20
20.265000
 30
0.0
  0
SPLINE
  5
3ad
100
AcDbEntity
  8
0
 62
7
100
AcDbSpline
 70
8
 71
3
 72
8
 73
4
 74
0
 40
0
 40
0
 40
0
 40
0
 40
1
 40
1
 40
1
 40
1
 10
42.960000
 20
20.265000
 30
0.0
 10
42.900000
 20
19.950000
 30
0.0
 10
42.735000
 20
19.710000
 30
0.0
 10
42.457500
 20
19.552500
 30
0.0
  0
SPLINE
  5
3ae
100
AcDbEntity
  8
0
 62
7
100
AcDbSpline
 70
8
 71
3
 72
8
 73
4
 74
0
 40
0
 40
0
 40
0
 40
0
 40
1
 40
1
 40
1
 40
1
 10
42.457500
 20
19.552500
 30
0.0
 10
42.180000
 20
19.395000
 30
0.0
 10
41.767500
 20
19.312500
 30
0.0
 10
41.227500
 20
19.312500
 30
0.0
  0
LWPOLYLINE
  5
3af
100
AcDbEntity
  8
0
 62
7
100
AcDbPolyline
 90
2
 70
0
 10
41.430000
 20
21.735000
 30
0.0
 10
42.052500
 20
21.562500
 30
0.0
  0
SPLINE
  5
3b0
100
AcDbEntity
  8
0
 62
7
100
AcDbSpline
 70
8
 71
3
 72
8
 73
4
 74
0
 40
0
 40
0
 40
0
 40
0
 40
1
 40
1
 40
1
 40
1
 10
40.522500
 20
19.312500
 30
0.0
 10
40.282500
 20
19.312500
 30
0.0
 10
40.035000
 20
19.312500
 30
0.0
 10
39.772500
 20
19.327500
 30
0.0
  0
LWPOLYLINE
  5
3b1
100
AcDbEntity
  8
0
 62
7
100
AcDbPolyline
 90
2
 70
0
 10
41.227500
 20
19.312500
 30
0.0
 10
40.522500
 20
19.312500
 30
0.0
  0
SPLINE
  5
3b2
100
AcDbEntity
  8
0
 62
7
100
AcDbSpline
 70
8
 71
3
 72
8
 73
4
 74
0
 40
0
 40
0
 40
0
 40
0
 40
1
 40
1
 40
1
 40
1
 10
40.050000
 20
20.100000
 30
0.0
 10
40.200000
 20
20.100000
 30
0.0
 10
40.327500
 20
20.092500
 30
0.0
 10
40.432500
 20
20.092500
 30
0.0
  0
SPLINE
  5
3b3
100
AcDbEntity
  8
0
 62
7
100
AcDbSpline
 70
8
 71
3
 72
8
 73
4
 74
0
 40
0
 40
0
 40
0
 40
0
 40
1
 40
1
 40
1
 40
1
 10
40.432500
 20
20.092500
 30
0.0
 10
40.537500
 20
20.092500
 30
0.0
 10
40.635000
 20
20.092500
 30
0.0
 10
40.725000
 20
20.092500
 30
0.0
  0
LWPOLYLINE
  5
3b4
100
AcDbEntity
  8
0
 62
7
100
AcDbPolyline
 90
2
 70
0
 10
39.772500
 20
19.327500
 30
0.0
 10
40.050000
 20
20.100000
 30
0.0
  0
SPLINE
  5
3b5
100
AcDbEntity
  8
0
 62
7
100
AcDbSpline
 70
8
 71
3
 72
8
 73
4
 74
0
 40
0
 40
0
 40
0
 40
0
 40
1
 40
1
 40
1
 40
1
 10
41.295000
 20
20.092500
 30
0.0
 10
41.430000
 20
20.092500
 30
0.0
 10
41.542500
 20
20.092500
 30
0.0
 10
41.632500
 20
20.092500
 30
0.0
  0
SPLINE
  5
3b6
100
AcDbEntity
  8
0
 62
7
100
AcDbSpline
 70
8
 71
3
 72
8
 73
4
 74
0
 40
0
 40
0
 40
0
 40
0
 40
1
 40
1
 40
1
 40
1
 10
41.632500
 20
20.092500
 30
0.0
 10
41.722500
 20
20.092500
 30
0.0
 10
41.797500
 20
20.107500
 30
0.0
 10
41.857500
 20
20.122500
 30
0.0
  0
SPLINE
  5
3b7
100
AcDbEntity
  8
0
 62
7
100
AcDbSpline
 70
8
 71
3
 72
8
 73
4
 74
0
 40
0
 40
0
 40
0
 40
0
 40
1
 40
1
 40
1
 40
1
 10
41.857500
 20
20.122500
 30
0.0
 10
41.917500
 20
20.137500
 30
0.0
 10
41.962500
 20
20.167500
 30
0.0
 10
41.992500
 20
20.205000
 30
0.0
  0
SPLINE
  5
3b8
100
AcDbEntity
  8
0
 62
7
100
AcDbSpline
 70
8
 71
3
 72
8
 73
4
 74
0
 40
0
 40
0
 40
0
 40
0
 40
1
 40
1
 40
1
 40
1
 10
41.992500
 20
20.205000
 30
0.0
 10
42.022500
 20
20.242500
 30
0.0
 10
42.045000
 20
20.295000
 30
0.0
 10
42.060000
 20
20.355000
 30
0.0
  0
SPLINE
  5
3b9
100
AcDbEntity
  8
0
 62
7
100
AcDbSpline
 70
8
 71
3
 72
8
 73
4
 74
0
 40
0
 40
0
 40
0
 40
0
 40
1
 40
1
 40
1
 40
1
 10
42.060000
 20
20.355000
 30
0.0
 10
42.067500
 20
20.392500
 30
0.0
 10
42.075000
 20
20.430000
 30
0.0
 10
42.075000
 20
20.475000
 30
0.0
  0
SPLINE
  5
3ba
100
AcDbEntity
  8
0
 62
7
100
AcDbSpline
 70
8
 71
3
 72
8
 73
4
 74
0
 40
0
 40
0
 40
0
 40
0
 40
1
 40
1
 40
1
 40
1
 10
42.075000
 20
20.475000
 30
0.0
 10
42.075000
 20
20.550000
 30
0.0
 10
42.052500
 20
20.610000
 30
0.0
 10
42.000000
 20
20.662500
 30
0.0
  0
SPLINE
  5
3bb
100
AcDbEntity
  8
0
 62
7
100
AcDbSpline
 70
8
 71
3
 72
8
 73
4
 74
0
 40
0
 40
0
 40
0
 40
0
 40
1
 40
1
 40
1
 40
1
 10
42.000000
 20
20.662500
 30
0.0
 10
41.947500
 20
20.715000
 30
0.0
 10
41.857500
 20
20.752500
 30
0.0
 10
41.737500
 20
20.790000
 30
0.0
  0
LWPOLYLINE
  5
3bc
100
AcDbEntity
  8
0
 62
7
100
AcDbPolyline
 90
2
 70
0
 10
40.725000
 20
20.092500
 30
0.0
 10
41.295000
 20
20.092500
 30
0.0
  0
SPLINE
  5
3bd
100
AcDbEntity
  8
0
 62
7
100
AcDbSpline
 70
8
 71
3
 72
8
 73
4
 74
0
 40
0
 40
0
 40
0
 40
0
 40
1
 40
1
 40
1
 40
1
 10
41.040000
 20
20.977500
 30
0.0
 10
40.800000
 20
21.045000
 30
0.0
 10
40.612500
 20
21.150000
 30
0.0
 10
40.470000
 20
21.285000
 30
0.0
  0
SPLINE
  5
3be
100
AcDbEntity
  8
0
 62
7
100
AcDbSpline
 70
8
 71
3
 72
8
 73
4
 74
0
 40
0
 40
0
 40
0
 40
0
 40
1
 40
1
 40
1
 40
1
 10
40.470000
 20
21.285000
 30
0.0
 10
40.327500
 20
21.420000
 30
0.0
 10
40.260000
 20
21.622500
 30
0.0
 10
40.260000
 20
21.877500
 30
0.0
  0
SPLINE
  5
3bf
100
AcDbEntity
  8
0
 62
7
100
AcDbSpline
 70
8
 71
3
 72
8
 73
4
 74
0
 40
0
 40
0
 40
0
 40
0
 40
1
 40
1
 40
1
 40
1
 10
40.260000
 20
21.877500
 30
0.0
 10
40.260000
 20
21.922500
 30
0.0
 10
40.260000
 20
21.967500
 30
0.0
 10
40.260000
 20
22.020000
 30
0.0
  0
SPLINE
  5
3c0
100
AcDbEntity
  8
0
 62
7
100
AcDbSpline
 70
8
 71
3
 72
8
 73
4
 74
0
 40
0
 40
0
 40
0
 40
0
 40
1
 40
1
 40
1
 40
1
 10
40.260000
 20
22.020000
 30
0.0
 10
40.260000
 20
22.072500
 30
0.0
 10
40.275000
 20
22.125000
 30
0.0
 10
40.282500
 20
22.177500
 30
0.0
  0
SPLINE
  5
3c1
100
AcDbEntity
  8
0
 62
7
100
AcDbSpline
 70
8
 71
3
 72
8
 73
4
 74
0
 40
0
 40
0
 40
0
 40
0
 40
1
 40
1
 40
1
 40
1
 10
40.282500
 20
22.177500
 30
0.0
 10
40.342500
 20
22.500000
 30
0.0
 10
40.507500
 20
22.740000
 30
0.0
 10
40.762500
 20
22.897500
 30
0.0
  0
SPLINE
  5
3c2
100
AcDbEntity
  8
0
 62
7
100
AcDbSpline
 70
8
 71
3
 72
8
 73
4
 74
0
 40
0
 40
0
 40
0
 40
0
 40
1
 40
1
 40
1
 40
1
 10
40.762500
 20
22.897500
 30
0.0
 10
41.017500
 20
23.055000
 30
0.0
 10
41.400000
 20
23.137500
 30
0.0
 10
41.902500
 20
23.137500
 30
0.0
  0
LWPOLYLINE
  5
3c3
100
AcDbEntity
  8
0
 62
7
100
AcDbPolyline
 90
2
 70
0
 10
41.737500
 20
20.790000
 30
0.0
 10
41.040000
 20
20.977500
 30
0.0
  0
SPLINE
  5
3c4
100
AcDbEntity
  8
0
 62
7
100
AcDbSpline
 70
8
 71
3
 72
8
 73
4
 74
0
 40
0
 40
0
 40
0
 40
0
 40
1
 40
1
 40
1
 40
1
 10
42.262500
 20
23.137500
 30
0.0
 10
42.367500
 20
23.137500
 30
0.0
 10
42.480000
 20
23.137500
 30
0.0
 10
42.585000
 20
23.137500
 30
0.0
  0
SPLINE
  5
3c5
100
AcDbEntity
  8
0
 62
7
100
AcDbSpline
 70
8
 71
3
 72
8
 73
4
 74
0
 40
0
 40
0
 40
0
 40
0
 40
1
 40
1
 40
1
 40
1
 10
42.585000
 20
23.137500
 30
0.0
 10
42.697500
 20
23.137500
 30
0.0
 10
42.810000
 20
23.137500
 30
0.0
 10
42.930000
 20
23.130000
 30
0.0
  0
SPLINE
  5
3c6
100
AcDbEntity
  8
0
 62
7
100
AcDbSpline
 70
8
 71
3
 72
8
 73
4
 74
0
 40
0
 40
0
 40
0
 40
0
 40
1
 40
1
 40
1
 40
1
 10
42.930000
 20
23.130000
 30
0.0
 10
43.050000
 20
23.130000
 30
0.0
 10
43.192500
 20
23.122500
 30
0.0
 10
43.350000
 20
23.115000
 30
0.0
  0
LWPOLYLINE
  5
3c7
100
AcDbEntity
  8
0
 62
7
100
AcDbPolyline
 90
2
 70
0
 10
41.902500
 20
23.137500
 30
0.0
 10
42.262500
 20
23.137500
 30
0.0
  0
SPLINE
  5
3c8
100
AcDbEntity
  8
0
 62
7
100
AcDbSpline
 70
8
 71
3
 72
8
 73
4
 74
0
 40
0
 40
0
 40
0
 40
0
 40
1
 40
1
 40
1
 40
1
 10
43.065000
 20
22.350000
 30
0.0
 10
42.892500
 20
22.350000
 30
0.0
 10
42.750000
 20
22.357500
 30
0.0
 10
42.630000
 20
22.357500
 30
0.0
  0
SPLINE
  5
3c9
100
AcDbEntity
  8
0
 62
7
100
AcDbSpline
 70
8
 71
3
 72
8
 73
4
 74
0
 40
0
 40
0
 40
0
 40
0
 40
1
 40
1
 40
1
 40
1
 10
42.630000
 20
22.357500
 30
0.0
 10
42.510000
 20
22.357500
 30
0.0
 10
42.405000
 20
22.357500
 30
0.0
 10
42.307500
 20
22.357500
 30
0.0
  0
SPLINE
  5
3ca
100
AcDbEntity
  8
0
 62
7
100
AcDbSpline
 70
8
 71
3
 72
8
 73
4
 74
0
 40
0
 40
0
 40
0
 40
0
 40
1
 40
1
 40
1
 40
1
 10
42.307500
 20
22.357500
 30
0.0
 10
42.210000
 20
22.357500
 30
0.0
 10
42.127500
 20
22.357500
 30
0.0
 10
42.045000
 20
22.357500
 30
0.0
  0
LWPOLYLINE
  5
3cb
100
AcDbEntity
  8
0
 62
7
100
AcDbPolyline
 90
2
 70
0
 10
43.350000
 20
23.115000
 30
0.0
 10
43.065000
 20
22.350000
 30
0.0
  0
SPLINE
  5
3cc
100
AcDbEntity
  8
0
 62
7
100
AcDbSpline
 70
8
 71
3
 72
8
 73
4
 74
0
 40
0
 40
0
 40
0
 40
0
 40
1
 40
1
 40
1
 40
1
 10
41.790000
 20
22.357500
 30
0.0
 10
41.587500
 20
22.357500
 30
0.0
 10
41.445000
 20
22.342500
 30
0.0
 10
41.355000
 20
22.320000
 30
0.0
  0
SPLINE
  5
3cd
100
AcDbEntity
  8
0
 62
7
100
AcDbSpline
 70
8
 71
3
 72
8
 73
4
 74
0
 40
0
 40
0
 40
0
 40
0
 40
1
 40
1
 40
1
 40
1
 10
41.355000
 20
22.320000
 30
0.0
 10
41.265000
 20
22.297500
 30
0.0
 10
41.197500
 20
22.230000
 30
0.0
 10
41.160000
 20
22.132500
 30
0.0
  0
SPLINE
  5
3ce
100
AcDbEntity
  8
0
 62
7
100
AcDbSpline
 70
8
 71
3
 72
8
 73
4
 74
0
 40
0
 40
0
 40
0
 40
0
 40
1
 40
1
 40
1
 40
1
 10
41.160000
 20
22.132500
 30
0.0
 10
41.137500
 20
22.087500
 30
0.0
 10
41.130000
 20
22.035000
 30
0.0
 10
41.130000
 20
21.990000
 30
0.0
  0
LWPOLYLINE
  5
3cf
100
AcDbEntity
  8
0
 62
7
100
AcDbPolyline
 90
2
 70
0
 10
42.045000
 20
22.357500
 30
0.0
 10
41.790000
 20
22.357500
 30
0.0
  0
SPLINE
  5
3d0
100
AcDbEntity
  8
0
 62
7
100
AcDbSpline
 70
8
 71
3
 72
8
 73
4
 74
0
 40
0
 40
0
 40
0
 40
0
 40
1
 40
1
 40
1
 40
1
 10
15.082500
 20
28.590000
 30
0.0
 10
14.460000
 20
28.342500
 30
0.0
 10
13.942500
 20
28.080000
 30
0.0
 10
13.537500
 20
27.810000
 30
0.0
  0
SPLINE
  5
3d1
100
AcDbEntity
  8
0
 62
7
100
AcDbSpline
 70
8
 71
3
 72
8
 73
4
 74
0
 40
0
 40
0
 40
0
 40
0
 40
1
 40
1
 40
1
 40
1
 10
13.537500
 20
27.810000
 30
0.0
 10
13.132500
 20
27.540000
 30
0.0
 10
12.802500
 20
27.225000
 30
0.0
 10
12.540000
 20
26.872500
 30
0.0
  0
SPLINE
  5
3d2
100
AcDbEntity
  8
0
 62
7
100
AcDbSpline
 70
8
 71
3
 72
8
 73
4
 74
0
 40
0
 40
0
 40
0
 40
0
 40
1
 40
1
 40
1
 40
1
 10
12.540000
 20
26.872500
 30
0.0
 10
12.277500
 20
26.520000
 30
0.0
 10
12.075000
 20
26.100000
 30
0.0
 10
11.917500
 20
25.627500
 30
0.0
  0
SPLINE
  5
3d3
100
AcDbEntity
  8
0
 62
7
100
AcDbSpline
 70
8
 71
3
 72
8
 73
4
 74
0
 40
0
 40
0
 40
0
 40
0
 40
1
 40
1
 40
1
 40
1
 10
11.917500
 20
25.627500
 30
0.0
 10
11.760000
 20
25.147500
 30
0.0
 10
11.610000
 20
24.555000
 30
0.0
 10
11.467500
 20
23.850000
 30
0.0
  0
SPLINE
  5
3d4
100
AcDbEntity
  8
0
 62
7
100
AcDbSpline
 70
8
 71
3
 72
8
 73
4
 74
0
 40
0
 40
0
 40
0
 40
0
 40
1
 40
1
 40
1
 40
1
 10
11.467500
 20
23.850000
 30
0.0
 10
11.400000
 20
23.535000
 30
0.0
 10
11.325000
 20
23.220000
 30
0.0
 10
11.257500
 20
22.912500
 30
0.0
  0
SPLINE
  5
3d5
100
AcDbEntity
  8
0
 62
7
100
AcDbSpline
 70
8
 71
3
 72
8
 73
4
 74
0
 40
0
 40
0
 40
0
 40
0
 40
1
 40
1
 40
1
 40
1
 10
11.257500
 20
22.912500
 30
0.0
 10
14.677500
 20
22.897500
 30
0.0
 10
18.097500
 20
22.875000
 30
0.0
 10
21.517500
 20
22.860000
 30
0.0
  0
SPLINE
  5
3d6
100
AcDbEntity
  8
0
 62
7
100
AcDbSpline
 70
8
 71
3
 72
8
 73
4
 74
0
 40
0
 40
0
 40
0
 40
0
 40
1
 40
1
 40
1
 40
1
 10
21.517500
 20
22.860000
 30
0.0
 10
21.195000
 20
22.005000
 30
0.0
 10
20.872500
 20
21.157500
 30
0.0
 10
20.550000
 20
20.302500
 30
0.0
  0
LWPOLYLINE
  5
3d7
100
AcDbEntity
  8
0
 62
7
100
AcDbPolyline
 90
2
 70
0
 10
41.130000
 20
21.990000
 30
0.0
 10
41.130000
 20
21.997500
 30
0.0
  0
SPLINE
  5
3d8
100
AcDbEntity
  8
0
 62
7
100
AcDbSpline
 70
8
 71
3
 72
8
 73
4
 74
0
 40
0
 40
0
 40
0
 40
0
 40
1
 40
1
 40
1
 40
1
 10
8.152500
 20
23.700000
 30
0.0
 10
8.362500
 20
24.840000
 30
0.0
 10
8.602500
 20
25.807500
 30
0.0
 10
8.887500
 20
26.602500
 30
0.0
  0
SPLINE
  5
3d9
100
AcDbEntity
  8
0
 62
7
100
AcDbSpline
 70
8
 71
3
 72
8
 73
4
 74
0
 40
0
 40
0
 40
0
 40
0
 40
1
 40
1
 40
1
 40
1
 10
8.887500
 20
26.602500
 30
0.0
 10
9.165000
 20
27.390000
 30
0.0
 10
9.525000
 20
28.072500
 30
0.0
 10
9.960000
 20
28.642500
 30
0.0
  0
SPLINE
  5
3da
100
AcDbEntity
  8
0
 62
7
100
AcDbSpline
 70
8
 71
3
 72
8
 73
4
 74
0
 40
0
 40
0
 40
0
 40
0
 40
1
 40
1
 40
1
 40
1
 10
9.960000
 20
28.642500
 30
0.0
 10
10.395000
 20
29.212500
 30
0.0
 10
10.942500
 20
29.707500
 30
0.0
 10
11.595000
 20
30.127500
 30
0.0
  0
SPLINE
  5
3db
100
AcDbEntity
  8
0
 62
7
100
AcDbSpline
 70
8
 71
3
 72
8
 73
4
 74
0
 40
0
 40
0
 40
0
 40
0
 40
1
 40
1
 40
1
 40
1
 10
11.595000
 20
30.127500
 30
0.0
 10
12.247500
 20
30.540000
 30
0.0
 10
13.057500
 20
30.945000
 30
0.0
 10
14.010000
 20
31.342500
 30
0.0
  0
LWPOLYLINE
  5
3dc
100
AcDbEntity
  8
0
 62
7
100
AcDbPolyline
 90
3
 70
0
 10
20.550000
 20
20.302500
 30
0.0
 10
7.500000
 20
20.302500
 30
0.0
 10
8.152500
 20
23.700000
 30
0.0
  0
SPLINE
  5
3dd
100
AcDbEntity
  8
0
 62
7
100
AcDbSpline
 70
8
 71
3
 72
8
 73
4
 74
0
 40
0
 40
0
 40
0
 40
0
 40
1
 40
1
 40
1
 40
1
 10
16.912500
 20
32.557500
 30
0.0
 10
17.595000
 20
32.827500
 30
0.0
 10
18.150000
 20
33.090000
 30
0.0
 10
18.562500
 20
33.352500
 30
0.0
  0
SPLINE
  5
3de
100
AcDbEntity
  8
0
 62
7
100
AcDbSpline
 70
8
 71
3
 72
8
 73
4
 74
0
 40
0
 40
0
 40
0
 40
0
 40
1
 40
1
 40
1
 40
1
 10
18.562500
 20
33.352500
 30
0.0
 10
18.975000
 20
33.615000
 30
0.0
 10
19.305000
 20
33.892500
 30
0.0
 10
19.545000
 20
34.192500
 30
0.0
  0
SPLINE
  5
3df
100
AcDbEntity
  8
0
 62
7
100
AcDbSpline
 70
8
 71
3
 72
8
 73
4
 74
0
 40
0
 40
0
 40
0
 40
0
 40
1
 40
1
 40
1
 40
1
 10
19.545000
 20
34.192500
 30
0.0
 10
19.785000
 20
34.492500
 30
0.0
 10
19.942500
 20
34.837500
 30
0.0
 10
20.025000
 20
35.220000
 30
0.0
  0
SPLINE
  5
3e0
100
AcDbEntity
  8
0
 62
7
100
AcDbSpline
 70
8
 71
3
 72
8
 73
4
 74
0
 40
0
 40
0
 40
0
 40
0
 40
1
 40
1
 40
1
 40
1
 10
20.025000
 20
35.220000
 30
0.0
 10
20.107500
 20
35.602500
 30
0.0
 10
20.152500
 20
36.060000
 30
0.0
 10
20.152500
 20
36.577500
 30
0.0
  0
SPLINE
  5
3e1
100
AcDbEntity
  8
0
 62
7
100
AcDbSpline
 70
8
 71
3
 72
8
 73
4
 74
0
 40
0
 40
0
 40
0
 40
0
 40
1
 40
1
 40
1
 40
1
 10
20.152500
 20
36.577500
 30
0.0
 10
20.152500
 20
37.350000
 30
0.0
 10
19.912500
 20
37.905000
 30
0.0
 10
19.432500
 20
38.242500
 30
0.0
  0
SPLINE
  5
3e2
100
AcDbEntity
  8
0
 62
7
100
AcDbSpline
 70
8
 71
3
 72
8
 73
4
 74
0
 40
0
 40
0
 40
0
 40
0
 40
1
 40
1
 40
1
 40
1
 10
19.432500
 20
38.242500
 30
0.0
 10
18.952500
 20
38.587500
 30
0.0
 10
18.112500
 20
38.760000
 30
0.0
 10
16.905000
 20
38.760000
 30
0.0
  0
LWPOLYLINE
  5
3e3
100
AcDbEntity
  8
0
 62
7
100
AcDbPolyline
 90
2
 70
0
 10
14.010000
 20
31.342500
 30
0.0
 10
16.912500
 20
32.557500
 30
0.0
  0
SPLINE
  5
3e4
100
AcDbEntity
  8
0
 62
7
100
AcDbSpline
 70
8
 71
3
 72
8
 73
4
 74
0
 40
0
 40
0
 40
0
 40
0
 40
1
 40
1
 40
1
 40
1
 10
15.202500
 20
38.760000
 30
0.0
 10
14.692500
 20
38.760000
 30
0.0
 10
14.205000
 20
38.760000
 30
0.0
 10
13.740000
 20
38.745000
 30
0.0
  0
SPLINE
  5
3e5
100
AcDbEntity
  8
0
 62
7
100
AcDbSpline
 70
8
 71
3
 72
8
 73
4
 74
0
 40
0
 40
0
 40
0
 40
0
 40
1
 40
1
 40
1
 40
1
 10
13.740000
 20
38.745000
 30
0.0
 10
13.275000
 20
38.737500
 30
0.0
 10
12.802500
 20
38.722500
 30
0.0
 10
12.322500
 20
38.715000
 30
0.0
  0
SPLINE
  5
3e6
100
AcDbEntity
  8
0
 62
7
100
AcDbSpline
 70
8
 71
3
 72
8
 73
4
 74
0
 40
0
 40
0
 40
0
 40
0
 40
1
 40
1
 40
1
 40
1
 10
12.322500
 20
38.715000
 30
0.0
 10
11.842500
 20
38.707500
 30
0.0
 10
11.325000
 20
38.685000
 30
0.0
 10
10.762500
 20
38.670000
 30
0.0
  0
LWPOLYLINE
  5
3e7
100
AcDbEntity
  8
0
 62
7
100
AcDbPolyline
 90
2
 70
0
 10
16.905000
 20
38.760000
 30
0.0
 10
15.202500
 20
38.760000
 30
0.0
  0
SPLINE
  5
3e8
100
AcDbEntity
  8
0
 62
7
100
AcDbSpline
 70
8
 71
3
 72
8
 73
4
 74
0
 40
0
 40
0
 40
0
 40
0
 40
1
 40
1
 40
1
 40
1
 10
11.820000
 20
41.445000
 30
0.0
 10
12.465000
 20
41.467500
 30
0.0
 10
13.027500
 20
41.490000
 30
0.0
 10
13.507500
 20
41.505000
 30
0.0
  0
SPLINE
  5
3e9
100
AcDbEntity
  8
0
 62
7
100
AcDbSpline
 70
8
 71
3
 72
8
 73
4
 74
0
 40
0
 40
0
 40
0
 40
0
 40
1
 40
1
 40
1
 40
1
 10
13.507500
 20
41.505000
 30
0.0
 10
13.987500
 20
41.527500
 30
0.0
 10
14.415000
 20
41.542500
 30
0.0
 10
14.805000
 20
41.550000
 30
0.0
  0
SPLINE
  5
3ea
100
AcDbEntity
  8
0
 62
7
100
AcDbSpline
 70
8
 71
3
 72
8
 73
4
 74
0
 40
0
 40
0
 40
0
 40
0
 40
1
 40
1
 40
1
 40
1
 10
14.805000
 20
41.550000
 30
0.0
 10
15.187500
 20
41.557500
 30
0.0
 10
15.555000
 20
41.565000
 30
0.0
 10
15.915000
 20
41.565000
 30
0.0
  0
LWPOLYLINE
  5
3eb
100
AcDbEntity
  8
0
 62
7
100
AcDbPolyline
 90
2
 70
0
 10
10.762500
 20
38.670000
 30
0.0
 10
11.820000
 20
41.445000
 30
0.0
  0
SPLINE
  5
3ec
100
AcDbEntity
  8
0
 62
7
100
AcDbSpline
 70
8
 71
3
 72
8
 73
4
 74
0
 40
0
 40
0
 40
0
 40
0
 40
1
 40
1
 40
1
 40
1
 10
17.070000
 20
41.565000
 30
0.0
 10
19.297500
 20
41.565000
 30
0.0
 10
20.925000
 20
41.167500
 30
0.0
 10
21.967500
 20
40.365000
 30
0.0
  0
SPLINE
  5
3ed
100
AcDbEntity
  8
0
 62
7
100
AcDbSpline
 70
8
 71
3
 72
8
 73
4
 74
0
 40
0
 40
0
 40
0
 40
0
 40
1
 40
1
 40
1
 40
1
 10
21.967500
 20
40.365000
 30
0.0
 10
23.010000
 20
39.562500
 30
0.0
 10
23.527500
 20
38.415000
 30
0.0
 10
23.527500
 20
36.915000
 30
0.0
  0
SPLINE
  5
3ee
100
AcDbEntity
  8
0
 62
7
100
AcDbSpline
 70
8
 71
3
 72
8
 73
4
 74
0
 40
0
 40
0
 40
0
 40
0
 40
1
 40
1
 40
1
 40
1
 10
23.527500
 20
36.915000
 30
0.0
 10
23.527500
 20
36.352500
 30
0.0
 10
23.467500
 20
35.760000
 30
0.0
 10
23.340000
 20
35.137500
 30
0.0
  0
SPLINE
  5
3ef
100
AcDbEntity
  8
0
 62
7
100
AcDbSpline
 70
8
 71
3
 72
8
 73
4
 74
0
 40
0
 40
0
 40
0
 40
0
 40
1
 40
1
 40
1
 40
1
 10
23.340000
 20
35.137500
 30
0.0
 10
23.197500
 20
34.455000
 30
0.0
 10
22.995000
 20
33.847500
 30
0.0
 10
22.732500
 20
33.330000
 30
0.0
  0
SPLINE
  5
3f0
100
AcDbEntity
  8
0
 62
7
100
AcDbSpline
 70
8
 71
3
 72
8
 73
4
 74
0
 40
0
 40
0
 40
0
 40
0
 40
1
 40
1
 40
1
 40
1
 10
22.732500
 20
33.330000
 30
0.0
 10
22.470000
 20
32.812500
 30
0.0
 10
22.132500
 20
32.347500
 30
0.0
 10
21.705000
 20
31.942500
 30
0.0
  0
SPLINE
  5
3f1
100
AcDbEntity
  8
0
 62
7
100
AcDbSpline
 70
8
 71
3
 72
8
 73
4
 74
0
 40
0
 40
0
 40
0
 40
0
 40
1
 40
1
 40
1
 40
1
 10
21.705000
 20
31.942500
 30
0.0
 10
21.277500
 20
31.537500
 30
0.0
 10
20.767500
 20
31.162500
 30
0.0
 10
20.175000
 20
30.817500
 30
0.0
  0
SPLINE
  5
3f2
100
AcDbEntity
  8
0
 62
7
100
AcDbSpline
 70
8
 71
3
 72
8
 73
4
 74
0
 40
0
 40
0
 40
0
 40
0
 40
1
 40
1
 40
1
 40
1
 10
20.175000
 20
30.817500
 30
0.0
 10
19.582500
 20
30.472500
 30
0.0
 10
18.877500
 20
30.135000
 30
0.0
 10
18.067500
 20
29.805000
 30
0.0
  0
LWPOLYLINE
  5
3f3
100
AcDbEntity
  8
0
 62
7
100
AcDbPolyline
 90
2
 70
0
 10
15.915000
 20
41.565000
 30
0.0
 10
17.070000
 20
41.565000
 30
0.0
  0
LWPOLYLINE
  5
3f4
100
AcDbEntity
  8
0
 62
7
100
AcDbPolyline
 90
3
 70
0
 10
18.067500
 20
29.805000
 30
0.0
 10
15.075000
 20
28.590000
 30
0.0
 10
15.082500
 20
28.590000
 30
0.0
  0
ENDSEC
  0
SECTION
  2
OBJECTS
  0
DICTIONARY
  5
C
330
0
100
AcDbDictionary
  3
ACAD_GROUP
350
D
  3
ACAD_MLINESTYLE
350
17
  0
DICTIONARY
  5
D
330
C
100
AcDbDictionary
  0
DICTIONARY
  5
1A
330
C
100
AcDbDictionary
  0
DICTIONARY
  5
17
330
C
100
AcDbDictionary
  3
STANDARD
350
18
  0
DICTIONARY
  5
19
330
C
100
AcDbDictionary
  0
ENDSEC
  0
EOF
