  0
SECTION
  2
HEADER
  9
$ACADVER
  1
AC1014
  9
$HANDSEED
  5
FFFF
  9
$MEASUREMENT
 70
     1
  0
ENDSEC
  0
SECTION
  2
TABLES
  0
TABLE
  2
VPORT
  5
8
330
0
100
AcDbSymbolTable
 70
     4
  0
VPORT
  5
2E
330
8
100
AcDbSymbolTableRecord
100
AcDbViewportTableRecord
  2
*ACTIVE
 70
     0
 10
0.0
 20
0.0
 11
1.0
 21
1.0
 12
210.0
 22
148.5
 13
0.0
 23
0.0
 14
10.0
 24
10.0
 15
10.0
 25
10.0
 16
0.0
 26
0.0
 36
1.0
 17
0.0
 27
0.0
 37
0.0
 40
341.0
 41
1.24
 42
50.0
 43
0.0
 44
0.0
 50
0.0
 51
0.0
 71
     0
 72
   100
 73
     1
 74
     3
 75
     0
 76
     0
 77
     0
 78
     0
  0
ENDTAB
  0
TABLE
  2
LTYPE
  5
5
330
0
100
AcDbSymbolTable
 70
     1
  0
LTYPE
  5
14
330
5
100
AcDbSymbolTableRecord
100
AcDbLinetypeTableRecord
  2
BYBLOCK
 70
     0
  3

 72
    65
 73
     0
 40
0.0
  0
LTYPE
  5
15
330
5
100
AcDbSymbolTableRecord
100
AcDbLinetypeTableRecord
  2
BYLAYER
 70
     0
  3

 72
    65
 73
     0
 40
0.0
  0
LTYPE
  5
16
330
5
100
AcDbSymbolTableRecord
100
AcDbLinetypeTableRecord
  2
CONTINUOUS
 70
     0
  3
Solid line
 72
    65
 73
     0
 40
0.0
  0
ENDTAB
  0
TABLE
  2
LAYER
  5
2
100
AcDbSymbolTable
 70
1
  0
LAYER
  5
50
100
AcDbSymbolTableRecord
100
AcDbLayerTableRecord
  2
0
 70
0
  6
CONTINUOUS
  0
ENDTAB
  0
TABLE
  2
STYLE
  5
3
330
0
100
AcDbSymbolTable
 70
     1
  0
STYLE
  5
11
330
3
100
AcDbSymbolTableRecord
100
AcDbTextStyleTableRecord
  2
STANDARD
 70
     0
 40
0.0
 41
1.0
 50
0.0
 71
     0
 42
2.5
  3
txt
  4

  0
ENDTAB
  0
TABLE
  2
VIEW
  5
6
330
0
100
AcDbSymbolTable
 70
     0
  0
ENDTAB
  0
TABLE
  2
UCS
  5
7
330
0
100
AcDbSymbolTable
 70
     0
  0
ENDTAB
  0
TABLE
  2
APPID
  5
9
330
0
100
AcDbSymbolTable
 70
     2
  0
APPID
  5
12
330
9
100
AcDbSymbolTableRecord
100
AcDbRegAppTableRecord
  2
ACAD
 70
     0
  0
ENDTAB
  0
TABLE
  2
DIMSTYLE
  5
A
330
0
100
AcDbSymbolTable
 70
     1
  0
DIMSTYLE
105
27
330
A
100
AcDbSymbolTableRecord
100
AcDbDimStyleTableRecord
  2
ISO-25
 70
     0
  3

  4

  5

  6

  7

 40
1.0
 41
2.5
 42
0.625
 43
3.75
 44
1.25
 45
0.0
 46
0.0
 47
0.0
 48
0.0
140
2.5
141
2.5
142
0.0
143
0.03937007874016
144
1.0
145
0.0
146
1.0
147
0.625
 71
     0
 72
     0
 73
     0
 74
     0
 75
     0
 76
     0
 77
     1
 78
     8
170
     0
171
     3
172
     1
173
     0
174
     0
175
     0
176
     0
177
     0
178
     0
270
     2
271
     2
272
     2
273
     2
274
     3
340
11
275
     0
280
     0
281
     0
282
     0
283
     0
284
     8
285
     0
286
     0
287
     3
288
     0
  0
ENDTAB
  0
TABLE
  2
BLOCK_RECORD
  5
1
330
0
100
AcDbSymbolTable
 70
     1
  0
BLOCK_RECORD
  5
1F
330
1
100
AcDbSymbolTableRecord
100
AcDbBlockTableRecord
  2
*MODEL_SPACE
  0
BLOCK_RECORD
  5
1B
330
1
100
AcDbSymbolTableRecord
100
AcDbBlockTableRecord
  2
*PAPER_SPACE
  0
ENDTAB
  0
ENDSEC
  0
SECTION
  2
BLOCKS
  0
BLOCK
  5
20
330
1F
100
AcDbEntity
  8
0
100
AcDbBlockBegin
  2
*MODEL_SPACE
 70
     0
 10
0.0
 20
0.0
 30
0.0
  3
*MODEL_SPACE
  1

  0
ENDBLK
  5
21
330
1F
100
AcDbEntity
  8
0
100
AcDbBlockEnd
  0
BLOCK
  5
1C
330
1B
100
AcDbEntity
 67
     1
  8
0
100
AcDbBlockBegin
  2
*PAPER_SPACE
  1

  0
ENDBLK
  5
1D
330
1B
100
AcDbEntity
 67
     1
  8
0
100
AcDbBlockEnd
  0
ENDSEC
  0
SECTION
  2
ENTITIES
  0
SPLINE
  5
100
100
AcDbEntity
  8
0
 62
7
100
AcDbSpline
 70
8
 71
3
 72
8
 73
4
 74
0
 40
0
 40
0
 40
0
 40
0
 40
1
 40
1
 40
1
 40
1
 10
290.151000
 20
1.238250
 30
0.0
 10
292.036500
 20
1.238250
 30
0.0
 10
293.601750
 20
2.802750
 30
0.0
 10
293.601750
 20
4.743000
 30
0.0
  0
LWPOLYLINE
  5
101
100
AcDbEntity
  8
0
 62
7
100
AcDbPolyline
 90
2
 70
0
 10
169.119750
 20
1.238250
 30
0.0
 10
290.151000
 20
1.238250
 30
0.0
  0
SPLINE
  5
102
100
AcDbEntity
  8
0
 62
7
100
AcDbSpline
 70
8
 71
3
 72
8
 73
4
 74
0
 40
0
 40
0
 40
0
 40
0
 40
1
 40
1
 40
1
 40
1
 10
293.601750
 20
15.523500
 30
0.0
 10
293.601750
 20
17.414250
 30
0.0
 10
292.036500
 20
18.973500
 30
0.0
 10
290.151000
 20
18.973500
 30
0.0
  0
LWPOLYLINE
  5
103
100
AcDbEntity
  8
0
 62
7
100
AcDbPolyline
 90
2
 70
0
 10
293.601750
 20
4.743000
 30
0.0
 10
293.601750
 20
15.523500
 30
0.0
  0
SPLINE
  5
104
100
AcDbEntity
  8
0
 62
7
100
AcDbSpline
 70
8
 71
3
 72
8
 73
4
 74
0
 40
0
 40
0
 40
0
 40
0
 40
1
 40
1
 40
1
 40
1
 10
169.119750
 20
18.973500
 30
0.0
 10
167.178000
 20
18.973500
 30
0.0
 10
165.615750
 20
17.414250
 30
0.0
 10
165.615750
 20
15.523500
 30
0.0
  0
LWPOLYLINE
  5
105
100
AcDbEntity
  8
0
 62
7
100
AcDbPolyline
 90
2
 70
0
 10
290.151000
 20
18.973500
 30
0.0
 10
169.119750
 20
18.973500
 30
0.0
  0
SPLINE
  5
106
100
AcDbEntity
  8
0
 62
7
100
AcDbSpline
 70
8
 71
3
 72
8
 73
4
 74
0
 40
0
 40
0
 40
0
 40
0
 40
1
 40
1
 40
1
 40
1
 10
165.615750
 20
4.742250
 30
0.0
 10
165.615750
 20
2.802000
 30
0.0
 10
167.178000
 20
1.238250
 30
0.0
 10
169.119750
 20
1.238250
 30
0.0
  0
LWPOLYLINE
  5
107
100
AcDbEntity
  8
0
 62
7
100
AcDbPolyline
 90
2
 70
0
 10
165.615750
 20
15.523500
 30
0.0
 10
165.615750
 20
4.742250
 30
0.0
  0
SPLINE
  5
108
100
AcDbEntity
  8
0
 62
7
100
AcDbSpline
 70
8
 71
3
 72
8
 73
4
 74
0
 40
0
 40
0
 40
0
 40
0
 40
1
 40
1
 40
1
 40
1
 10
249.342000
 20
8.034000
 30
0.0
 10
250.476000
 20
8.034000
 30
0.0
 10
251.178000
 20
8.142000
 30
0.0
 10
251.497500
 20
8.463000
 30
0.0
  0
SPLINE
  5
109
100
AcDbEntity
  8
0
 62
7
100
AcDbSpline
 70
8
 71
3
 72
8
 73
4
 74
0
 40
0
 40
0
 40
0
 40
0
 40
1
 40
1
 40
1
 40
1
 10
251.497500
 20
8.463000
 30
0.0
 10
251.823750
 20
8.681250
 30
0.0
 10
251.935500
 20
9.165750
 30
0.0
 10
251.935500
 20
9.864000
 30
0.0
  0
LWPOLYLINE
  5
10a
100
AcDbEntity
  8
0
 62
7
100
AcDbPolyline
 90
3
 70
0
 10
246.264750
 20
5.985750
 30
0.0
 10
246.264750
 20
8.034000
 30
0.0
 10
249.342000
 20
8.034000
 30
0.0
  0
SPLINE
  5
10b
100
AcDbEntity
  8
0
 62
7
100
AcDbSpline
 70
8
 71
3
 72
8
 73
4
 74
0
 40
0
 40
0
 40
0
 40
0
 40
1
 40
1
 40
1
 40
1
 10
251.935500
 20
13.910250
 30
0.0
 10
251.823750
 20
14.664000
 30
0.0
 10
250.740000
 20
15.041250
 30
0.0
 10
248.643000
 20
15.041250
 30
0.0
  0
LWPOLYLINE
  5
10c
100
AcDbEntity
  8
0
 62
7
100
AcDbPolyline
 90
5
 70
0
 10
251.935500
 20
9.864000
 30
0.0
 10
251.935500
 20
11.856750
 30
0.0
 10
246.264750
 20
11.856750
 30
0.0
 10
246.264750
 20
13.910250
 30
0.0
 10
251.935500
 20
13.910250
 30
0.0
  0
SPLINE
  5
10d
100
AcDbEntity
  8
0
 62
7
100
AcDbSpline
 70
8
 71
3
 72
8
 73
4
 74
0
 40
0
 40
0
 40
0
 40
0
 40
1
 40
1
 40
1
 40
1
 10
247.186500
 20
15.041250
 30
0.0
 10
246.589500
 20
15.041250
 30
0.0
 10
246.264750
 20
15.309000
 30
0.0
 10
246.264750
 20
15.956250
 30
0.0
  0
LWPOLYLINE
  5
10e
100
AcDbEntity
  8
0
 62
7
100
AcDbPolyline
 90
2
 70
0
 10
248.643000
 20
15.041250
 30
0.0
 10
247.186500
 20
15.041250
 30
0.0
  0
SPLINE
  5
10f
100
AcDbEntity
  8
0
 62
7
100
AcDbSpline
 70
8
 71
3
 72
8
 73
4
 74
0
 40
0
 40
0
 40
0
 40
0
 40
1
 40
1
 40
1
 40
1
 10
246.264750
 20
16.171500
 30
0.0
 10
246.264750
 20
16.764750
 30
0.0
 10
246.589500
 20
17.090250
 30
0.0
 10
247.186500
 20
17.090250
 30
0.0
  0
SPLINE
  5
110
100
AcDbEntity
  8
0
 62
7
100
AcDbSpline
 70
8
 71
3
 72
8
 73
4
 74
0
 40
0
 40
0
 40
0
 40
0
 40
1
 40
1
 40
1
 40
1
 10
247.186500
 20
17.090250
 30
0.0
 10
249.231750
 20
17.090250
 30
0.0
 10
250.740000
 20
16.980750
 30
0.0
 10
251.658750
 20
16.711500
 30
0.0
  0
SPLINE
  5
111
100
AcDbEntity
  8
0
 62
7
100
AcDbSpline
 70
8
 71
3
 72
8
 73
4
 74
0
 40
0
 40
0
 40
0
 40
0
 40
1
 40
1
 40
1
 40
1
 10
251.658750
 20
16.711500
 30
0.0
 10
253.441500
 20
16.227000
 30
0.0
 10
254.352750
 20
15.202500
 30
0.0
 10
254.352750
 20
13.692750
 30
0.0
  0
LWPOLYLINE
  5
112
100
AcDbEntity
  8
0
 62
7
100
AcDbPolyline
 90
2
 70
0
 10
246.264750
 20
15.956250
 30
0.0
 10
246.264750
 20
16.171500
 30
0.0
  0
SPLINE
  5
113
100
AcDbEntity
  8
0
 62
7
100
AcDbSpline
 70
8
 71
3
 72
8
 73
4
 74
0
 40
0
 40
0
 40
0
 40
0
 40
1
 40
1
 40
1
 40
1
 10
254.352750
 20
9.326250
 30
0.0
 10
254.352750
 20
7.060500
 30
0.0
 10
252.684750
 20
5.985750
 30
0.0
 10
249.342000
 20
5.985750
 30
0.0
  0
LWPOLYLINE
  5
114
100
AcDbEntity
  8
0
 62
7
100
AcDbPolyline
 90
2
 70
0
 10
254.352750
 20
13.692750
 30
0.0
 10
254.352750
 20
9.326250
 30
0.0
  0
SPLINE
  5
115
100
AcDbEntity
  8
0
 62
7
100
AcDbSpline
 70
8
 71
3
 72
8
 73
4
 74
0
 40
0
 40
0
 40
0
 40
0
 40
1
 40
1
 40
1
 40
1
 10
271.067250
 20
6.900750
 30
0.0
 10
271.067250
 20
6.252750
 30
0.0
 10
270.747000
 20
5.985000
 30
0.0
 10
270.150000
 20
5.985000
 30
0.0
  0
SPLINE
  5
116
100
AcDbEntity
  8
0
 62
7
100
AcDbSpline
 70
8
 71
3
 72
8
 73
4
 74
0
 40
0
 40
0
 40
0
 40
0
 40
1
 40
1
 40
1
 40
1
 10
270.150000
 20
5.985000
 30
0.0
 10
269.559750
 20
5.985000
 30
0.0
 10
269.231250
 20
5.985000
 30
0.0
 10
269.070000
 20
6.040500
 30
0.0
  0
SPLINE
  5
117
100
AcDbEntity
  8
0
 62
7
100
AcDbSpline
 70
8
 71
3
 72
8
 73
4
 74
0
 40
0
 40
0
 40
0
 40
0
 40
1
 40
1
 40
1
 40
1
 10
269.070000
 20
6.040500
 30
0.0
 10
268.750500
 20
6.143250
 30
0.0
 10
268.589250
 20
6.413250
 30
0.0
 10
268.589250
 20
6.900000
 30
0.0
  0
LWPOLYLINE
  5
118
100
AcDbEntity
  8
0
 62
7
100
AcDbPolyline
 90
2
 70
0
 10
249.342000
 20
5.985750
 30
0.0
 10
246.264750
 20
5.985750
 30
0.0
  0
SPLINE
  5
119
100
AcDbEntity
  8
0
 62
7
100
AcDbSpline
 70
8
 71
3
 72
8
 73
4
 74
0
 40
0
 40
0
 40
0
 40
0
 40
1
 40
1
 40
1
 40
1
 10
268.589250
 20
13.962000
 30
0.0
 10
268.589250
 20
14.499750
 30
0.0
 10
268.155000
 20
14.823750
 30
0.0
 10
267.346500
 20
14.933250
 30
0.0
  0
SPLINE
  5
11a
100
AcDbEntity
  8
0
 62
7
100
AcDbSpline
 70
8
 71
3
 72
8
 73
4
 74
0
 40
0
 40
0
 40
0
 40
0
 40
1
 40
1
 40
1
 40
1
 10
267.346500
 20
14.933250
 30
0.0
 10
267.024750
 20
14.987250
 30
0.0
 10
266.433750
 20
15.041250
 30
0.0
 10
265.509750
 20
15.041250
 30
0.0
  0
LWPOLYLINE
  5
11b
100
AcDbEntity
  8
0
 62
7
100
AcDbPolyline
 90
2
 70
0
 10
268.589250
 20
6.900000
 30
0.0
 10
268.589250
 20
13.962000
 30
0.0
  0
SPLINE
  5
11c
100
AcDbEntity
  8
0
 62
7
100
AcDbSpline
 70
8
 71
3
 72
8
 73
4
 74
0
 40
0
 40
0
 40
0
 40
0
 40
1
 40
1
 40
1
 40
1
 10
261.525750
 20
15.041250
 30
0.0
 10
260.556000
 20
15.041250
 30
0.0
 10
259.909500
 20
14.988000
 30
0.0
 10
259.581000
 20
14.933250
 30
0.0
  0
SPLINE
  5
11d
100
AcDbEntity
  8
0
 62
7
100
AcDbSpline
 70
8
 71
3
 72
8
 73
4
 74
0
 40
0
 40
0
 40
0
 40
0
 40
1
 40
1
 40
1
 40
1
 10
259.581000
 20
14.933250
 30
0.0
 10
258.773250
 20
14.823750
 30
0.0
 10
258.343500
 20
14.448750
 30
0.0
 10
258.343500
 20
13.962000
 30
0.0
  0
LWPOLYLINE
  5
11e
100
AcDbEntity
  8
0
 62
7
100
AcDbPolyline
 90
2
 70
0
 10
265.509750
 20
15.041250
 30
0.0
 10
261.525750
 20
15.041250
 30
0.0
  0
SPLINE
  5
11f
100
AcDbEntity
  8
0
 62
7
100
AcDbSpline
 70
8
 71
3
 72
8
 73
4
 74
0
 40
0
 40
0
 40
0
 40
0
 40
1
 40
1
 40
1
 40
1
 10
258.343500
 20
6.900000
 30
0.0
 10
258.343500
 20
6.252000
 30
0.0
 10
258.022500
 20
5.984250
 30
0.0
 10
257.433000
 20
5.984250
 30
0.0
  0
SPLINE
  5
120
100
AcDbEntity
  8
0
 62
7
100
AcDbSpline
 70
8
 71
3
 72
8
 73
4
 74
0
 40
0
 40
0
 40
0
 40
0
 40
1
 40
1
 40
1
 40
1
 10
257.433000
 20
5.984250
 30
0.0
 10
256.835250
 20
5.984250
 30
0.0
 10
256.513500
 20
5.984250
 30
0.0
 10
256.348500
 20
6.039750
 30
0.0
  0
SPLINE
  5
121
100
AcDbEntity
  8
0
 62
7
100
AcDbSpline
 70
8
 71
3
 72
8
 73
4
 74
0
 40
0
 40
0
 40
0
 40
0
 40
1
 40
1
 40
1
 40
1
 10
256.348500
 20
6.039750
 30
0.0
 10
256.026750
 20
6.142500
 30
0.0
 10
255.868500
 20
6.412500
 30
0.0
 10
255.868500
 20
6.899250
 30
0.0
  0
LWPOLYLINE
  5
122
100
AcDbEntity
  8
0
 62
7
100
AcDbPolyline
 90
2
 70
0
 10
258.343500
 20
13.962000
 30
0.0
 10
258.343500
 20
6.900000
 30
0.0
  0
SPLINE
  5
123
100
AcDbEntity
  8
0
 62
7
100
AcDbSpline
 70
8
 71
3
 72
8
 73
4
 74
0
 40
0
 40
0
 40
0
 40
0
 40
1
 40
1
 40
1
 40
1
 10
255.868500
 20
13.909500
 30
0.0
 10
255.868500
 20
16.011000
 30
0.0
 10
257.746500
 20
17.088750
 30
0.0
 10
261.468750
 20
17.088750
 30
0.0
  0
LWPOLYLINE
  5
124
100
AcDbEntity
  8
0
 62
7
100
AcDbPolyline
 90
2
 70
0
 10
255.868500
 20
6.899250
 30
0.0
 10
255.868500
 20
13.909500
 30
0.0
  0
SPLINE
  5
125
100
AcDbEntity
  8
0
 62
7
100
AcDbSpline
 70
8
 71
3
 72
8
 73
4
 74
0
 40
0
 40
0
 40
0
 40
0
 40
1
 40
1
 40
1
 40
1
 10
265.509750
 20
17.088750
 30
0.0
 10
269.181000
 20
17.088750
 30
0.0
 10
271.067250
 20
16.062000
 30
0.0
 10
271.067250
 20
13.961250
 30
0.0
  0
LWPOLYLINE
  5
126
100
AcDbEntity
  8
0
 62
7
100
AcDbPolyline
 90
2
 70
0
 10
261.468750
 20
17.088750
 30
0.0
 10
265.509750
 20
17.088750
 30
0.0
  0
SPLINE
  5
127
100
AcDbEntity
  8
0
 62
7
100
AcDbSpline
 70
8
 71
3
 72
8
 73
4
 74
0
 40
0
 40
0
 40
0
 40
0
 40
1
 40
1
 40
1
 40
1
 10
287.293500
 20
6.144000
 30
0.0
 10
287.293500
 20
4.581000
 30
0.0
 10
286.375500
 20
3.612750
 30
0.0
 10
284.542500
 20
3.182250
 30
0.0
  0
SPLINE
  5
128
100
AcDbEntity
  8
0
 62
7
100
AcDbSpline
 70
8
 71
3
 72
8
 73
4
 74
0
 40
0
 40
0
 40
0
 40
0
 40
1
 40
1
 40
1
 40
1
 10
284.542500
 20
3.182250
 30
0.0
 10
283.733250
 20
2.964750
 30
0.0
 10
282.225000
 20
2.910750
 30
0.0
 10
280.069500
 20
2.910750
 30
0.0
  0
SPLINE
  5
129
100
AcDbEntity
  8
0
 62
7
100
AcDbSpline
 70
8
 71
3
 72
8
 73
4
 74
0
 40
0
 40
0
 40
0
 40
0
 40
1
 40
1
 40
1
 40
1
 10
280.069500
 20
2.910750
 30
0.0
 10
279.639000
 20
2.910750
 30
0.0
 10
279.421500
 20
3.018750
 30
0.0
 10
279.259500
 20
3.234000
 30
0.0
  0
SPLINE
  5
12a
100
AcDbEntity
  8
0
 62
7
100
AcDbSpline
 70
8
 71
3
 72
8
 73
4
 74
0
 40
0
 40
0
 40
0
 40
0
 40
1
 40
1
 40
1
 40
1
 10
279.259500
 20
3.234000
 30
0.0
 10
279.152250
 20
3.395250
 30
0.0
 10
279.152250
 20
3.666750
 30
0.0
 10
279.152250
 20
4.097250
 30
0.0
  0
SPLINE
  5
12b
100
AcDbEntity
  8
0
 62
7
100
AcDbSpline
 70
8
 71
3
 72
8
 73
4
 74
0
 40
0
 40
0
 40
0
 40
0
 40
1
 40
1
 40
1
 40
1
 10
279.152250
 20
4.097250
 30
0.0
 10
279.152250
 20
4.688250
 30
0.0
 10
279.420750
 20
5.014500
 30
0.0
 10
280.069500
 20
5.014500
 30
0.0
  0
SPLINE
  5
12c
100
AcDbEntity
  8
0
 62
7
100
AcDbSpline
 70
8
 71
3
 72
8
 73
4
 74
0
 40
0
 40
0
 40
0
 40
0
 40
1
 40
1
 40
1
 40
1
 10
280.069500
 20
5.014500
 30
0.0
 10
280.069500
 20
5.014500
 30
0.0
 10
280.238250
 20
5.014500
 30
0.0
 10
280.607250
 20
4.960500
 30
0.0
  0
LWPOLYLINE
  5
12d
100
AcDbEntity
  8
0
 62
7
100
AcDbPolyline
 90
3
 70
0
 10
271.067250
 20
13.961250
 30
0.0
 10
271.067250
 20
6.900750
 30
0.0
 10
271.067250
 20
6.900750
 30
0.0
  0
SPLINE
  5
12e
100
AcDbEntity
  8
0
 62
7
100
AcDbSpline
 70
8
 71
3
 72
8
 73
4
 74
0
 40
0
 40
0
 40
0
 40
0
 40
1
 40
1
 40
1
 40
1
 10
281.527500
 20
4.960500
 30
0.0
 10
283.733250
 20
4.960500
 30
0.0
 10
284.817750
 20
5.340000
 30
0.0
 10
284.817750
 20
6.042000
 30
0.0
  0
LWPOLYLINE
  5
12f
100
AcDbEntity
  8
0
 62
7
100
AcDbPolyline
 90
2
 70
0
 10
280.607250
 20
4.960500
 30
0.0
 10
281.527500
 20
4.960500
 30
0.0
  0
SPLINE
  5
130
100
AcDbEntity
  8
0
 62
7
100
AcDbSpline
 70
8
 71
3
 72
8
 73
4
 74
0
 40
0
 40
0
 40
0
 40
0
 40
1
 40
1
 40
1
 40
1
 10
277.484250
 20
6.042000
 30
0.0
 10
273.813750
 20
6.042000
 30
0.0
 10
271.983750
 20
7.170750
 30
0.0
 10
271.983750
 20
9.378000
 30
0.0
  0
LWPOLYLINE
  5
131
100
AcDbEntity
  8
0
 62
7
100
AcDbPolyline
 90
2
 70
0
 10
284.817750
 20
6.042000
 30
0.0
 10
277.484250
 20
6.042000
 30
0.0
  0
SPLINE
  5
132
100
AcDbEntity
  8
0
 62
7
100
AcDbSpline
 70
8
 71
3
 72
8
 73
4
 74
0
 40
0
 40
0
 40
0
 40
0
 40
1
 40
1
 40
1
 40
1
 10
271.983750
 20
16.173000
 30
0.0
 10
271.983750
 20
16.661250
 30
0.0
 10
272.146500
 20
16.927500
 30
0.0
 10
272.468250
 20
17.037000
 30
0.0
  0
SPLINE
  5
133
100
AcDbEntity
  8
0
 62
7
100
AcDbSpline
 70
8
 71
3
 72
8
 73
4
 74
0
 40
0
 40
0
 40
0
 40
0
 40
1
 40
1
 40
1
 40
1
 10
272.468250
 20
17.037000
 30
0.0
 10
272.626500
 20
17.091000
 30
0.0
 10
272.952750
 20
17.091000
 30
0.0
 10
273.544500
 20
17.091000
 30
0.0
  0
SPLINE
  5
134
100
AcDbEntity
  8
0
 62
7
100
AcDbSpline
 70
8
 71
3
 72
8
 73
4
 74
0
 40
0
 40
0
 40
0
 40
0
 40
1
 40
1
 40
1
 40
1
 10
273.544500
 20
17.091000
 30
0.0
 10
274.141500
 20
17.091000
 30
0.0
 10
274.410750
 20
16.765500
 30
0.0
 10
274.410750
 20
16.172250
 30
0.0
  0
LWPOLYLINE
  5
135
100
AcDbEntity
  8
0
 62
7
100
AcDbPolyline
 90
2
 70
0
 10
271.983750
 20
9.378000
 30
0.0
 10
271.983750
 20
16.173000
 30
0.0
  0
SPLINE
  5
136
100
AcDbEntity
  8
0
 62
7
100
AcDbSpline
 70
8
 71
3
 72
8
 73
4
 74
0
 40
0
 40
0
 40
0
 40
0
 40
1
 40
1
 40
1
 40
1
 10
274.410750
 20
9.377250
 30
0.0
 10
274.410750
 20
8.517000
 30
0.0
 10
275.438250
 20
8.087250
 30
0.0
 10
277.484250
 20
8.087250
 30
0.0
  0
LWPOLYLINE
  5
137
100
AcDbEntity
  8
0
 62
7
100
AcDbPolyline
 90
2
 70
0
 10
274.410750
 20
16.172250
 30
0.0
 10
274.410750
 20
9.377250
 30
0.0
  0
SPLINE
  5
138
100
AcDbEntity
  8
0
 62
7
100
AcDbSpline
 70
8
 71
3
 72
8
 73
4
 74
0
 40
0
 40
0
 40
0
 40
0
 40
1
 40
1
 40
1
 40
1
 10
284.817750
 20
16.171500
 30
0.0
 10
284.817750
 20
16.764750
 30
0.0
 10
285.138750
 20
17.090250
 30
0.0
 10
285.729000
 20
17.090250
 30
0.0
  0
SPLINE
  5
139
100
AcDbEntity
  8
0
 62
7
100
AcDbSpline
 70
8
 71
3
 72
8
 73
4
 74
0
 40
0
 40
0
 40
0
 40
0
 40
1
 40
1
 40
1
 40
1
 10
285.729000
 20
17.090250
 30
0.0
 10
286.326000
 20
17.090250
 30
0.0
 10
286.649250
 20
17.090250
 30
0.0
 10
286.809000
 20
17.036250
 30
0.0
  0
SPLINE
  5
13a
100
AcDbEntity
  8
0
 62
7
100
AcDbSpline
 70
8
 71
3
 72
8
 73
4
 74
0
 40
0
 40
0
 40
0
 40
0
 40
1
 40
1
 40
1
 40
1
 10
286.809000
 20
17.036250
 30
0.0
 10
287.135250
 20
16.926750
 30
0.0
 10
287.293500
 20
16.605000
 30
0.0
 10
287.293500
 20
16.172250
 30
0.0
  0
LWPOLYLINE
  5
13b
100
AcDbEntity
  8
0
 62
7
100
AcDbPolyline
 90
3
 70
0
 10
277.484250
 20
8.087250
 30
0.0
 10
284.817750
 20
8.087250
 30
0.0
 10
284.817750
 20
16.171500
 30
0.0
  0
LWPOLYLINE
  5
13c
100
AcDbEntity
  8
0
 62
7
100
AcDbPolyline
 90
3
 70
0
 10
287.293500
 20
16.172250
 30
0.0
 10
287.293500
 20
6.144000
 30
0.0
 10
287.293500
 20
6.144000
 30
0.0
  0
SPLINE
  5
13d
100
AcDbEntity
  8
0
 62
7
100
AcDbSpline
 70
8
 71
3
 72
8
 73
4
 74
0
 40
0
 40
0
 40
0
 40
0
 40
1
 40
1
 40
1
 40
1
 10
243.191250
 20
11.857500
 30
0.0
 10
242.706750
 20
11.857500
 30
0.0
 10
242.170500
 20
11.755500
 30
0.0
 10
241.627500
 20
11.536500
 30
0.0
  0
SPLINE
  5
13e
100
AcDbEntity
  8
0
 62
7
100
AcDbSpline
 70
8
 71
3
 72
8
 73
4
 74
0
 40
0
 40
0
 40
0
 40
0
 40
1
 40
1
 40
1
 40
1
 10
241.627500
 20
11.536500
 30
0.0
 10
240.924750
 20
11.318250
 30
0.0
 10
240.546750
 20
11.000250
 30
0.0
 10
240.546750
 20
10.619250
 30
0.0
  0
LWPOLYLINE
  5
13f
100
AcDbEntity
  8
0
 62
7
100
AcDbPolyline
 90
3
 70
0
 10
246.264750
 20
13.911000
 30
0.0
 10
246.264750
 20
11.857500
 30
0.0
 10
243.191250
 20
11.857500
 30
0.0
  0
SPLINE
  5
140
100
AcDbEntity
  8
0
 62
7
100
AcDbSpline
 70
8
 71
3
 72
8
 73
4
 74
0
 40
0
 40
0
 40
0
 40
0
 40
1
 40
1
 40
1
 40
1
 10
240.546750
 20
9.220500
 30
0.0
 10
240.546750
 20
8.841750
 30
0.0
 10
240.925500
 20
8.517000
 30
0.0
 10
241.684500
 20
8.301750
 30
0.0
  0
SPLINE
  5
141
100
AcDbEntity
  8
0
 62
7
100
AcDbSpline
 70
8
 71
3
 72
8
 73
4
 74
0
 40
0
 40
0
 40
0
 40
0
 40
1
 40
1
 40
1
 40
1
 10
241.684500
 20
8.301750
 30
0.0
 10
242.222250
 20
8.087250
 30
0.0
 10
242.761500
 20
8.034000
 30
0.0
 10
243.301500
 20
8.034000
 30
0.0
  0
LWPOLYLINE
  5
142
100
AcDbEntity
  8
0
 62
7
100
AcDbPolyline
 90
2
 70
0
 10
240.546750
 20
10.619250
 30
0.0
 10
240.546750
 20
9.220500
 30
0.0
  0
SPLINE
  5
143
100
AcDbEntity
  8
0
 62
7
100
AcDbSpline
 70
8
 71
3
 72
8
 73
4
 74
0
 40
0
 40
0
 40
0
 40
0
 40
1
 40
1
 40
1
 40
1
 10
243.357750
 20
5.985750
 30
0.0
 10
242.170500
 20
5.985750
 30
0.0
 10
241.033500
 20
6.198000
 30
0.0
 10
240.012000
 20
6.687000
 30
0.0
  0
SPLINE
  5
144
100
AcDbEntity
  8
0
 62
7
100
AcDbSpline
 70
8
 71
3
 72
8
 73
4
 74
0
 40
0
 40
0
 40
0
 40
0
 40
1
 40
1
 40
1
 40
1
 10
240.012000
 20
6.687000
 30
0.0
 10
238.771500
 20
7.280250
 30
0.0
 10
238.125750
 20
8.142000
 30
0.0
 10
238.125750
 20
9.166500
 30
0.0
  0
LWPOLYLINE
  5
145
100
AcDbEntity
  8
0
 62
7
100
AcDbPolyline
 90
4
 70
0
 10
243.301500
 20
8.034000
 30
0.0
 10
246.264750
 20
8.034000
 30
0.0
 10
246.264750
 20
5.985750
 30
0.0
 10
243.357750
 20
5.985750
 30
0.0
  0
SPLINE
  5
146
100
AcDbEntity
  8
0
 62
7
100
AcDbSpline
 70
8
 71
3
 72
8
 73
4
 74
0
 40
0
 40
0
 40
0
 40
0
 40
1
 40
1
 40
1
 40
1
 10
238.125750
 20
10.620000
 30
0.0
 10
238.125750
 20
11.756250
 30
0.0
 10
238.718250
 20
12.615000
 30
0.0
 10
239.956500
 20
13.207500
 30
0.0
  0
SPLINE
  5
147
100
AcDbEntity
  8
0
 62
7
100
AcDbSpline
 70
8
 71
3
 72
8
 73
4
 74
0
 40
0
 40
0
 40
0
 40
0
 40
1
 40
1
 40
1
 40
1
 10
239.956500
 20
13.207500
 30
0.0
 10
240.873750
 20
13.641000
 30
0.0
 10
242.003250
 20
13.911000
 30
0.0
 10
243.300750
 20
13.911000
 30
0.0
  0
LWPOLYLINE
  5
148
100
AcDbEntity
  8
0
 62
7
100
AcDbPolyline
 90
2
 70
0
 10
238.125750
 20
9.166500
 30
0.0
 10
238.125750
 20
10.620000
 30
0.0
  0
LWPOLYLINE
  5
149
100
AcDbEntity
  8
0
 62
7
100
AcDbPolyline
 90
3
 70
0
 10
243.300750
 20
13.911000
 30
0.0
 10
246.264750
 20
13.911000
 30
0.0
 10
246.264750
 20
13.911000
 30
0.0
  0
SPLINE
  5
14a
100
AcDbEntity
  8
0
 62
7
100
AcDbSpline
 70
8
 71
3
 72
8
 73
4
 74
0
 40
0
 40
0
 40
0
 40
0
 40
1
 40
1
 40
1
 40
1
 10
197.262000
 20
7.978500
 30
0.0
 10
197.746500
 20
7.926750
 30
0.0
 10
197.962500
 20
7.545000
 30
0.0
 10
197.962500
 20
6.900750
 30
0.0
  0
SPLINE
  5
14b
100
AcDbEntity
  8
0
 62
7
100
AcDbSpline
 70
8
 71
3
 72
8
 73
4
 74
0
 40
0
 40
0
 40
0
 40
0
 40
1
 40
1
 40
1
 40
1
 10
197.962500
 20
6.900750
 30
0.0
 10
197.961750
 20
6.362250
 30
0.0
 10
197.746500
 20
6.041250
 30
0.0
 10
197.262000
 20
5.985750
 30
0.0
  0
LWPOLYLINE
  5
14c
100
AcDbEntity
  8
0
 62
7
100
AcDbPolyline
 90
2
 70
0
 10
197.262000
 20
5.985750
 30
0.0
 10
197.262000
 20
7.978500
 30
0.0
  0
SPLINE
  5
14d
100
AcDbEntity
  8
0
 62
7
100
AcDbSpline
 70
8
 71
3
 72
8
 73
4
 74
0
 40
0
 40
0
 40
0
 40
0
 40
1
 40
1
 40
1
 40
1
 10
202.541250
 20
13.801500
 30
0.0
 10
202.541250
 20
14.664750
 30
0.0
 10
200.875500
 20
15.095250
 30
0.0
 10
197.532000
 20
15.095250
 30
0.0
  0
LWPOLYLINE
  5
14e
100
AcDbEntity
  8
0
 62
7
100
AcDbPolyline
 90
4
 70
0
 10
197.262000
 20
10.350000
 30
0.0
 10
197.262000
 20
12.454500
 30
0.0
 10
202.541250
 20
12.454500
 30
0.0
 10
202.541250
 20
13.801500
 30
0.0
  0
SPLINE
  5
14f
100
AcDbEntity
  8
0
 62
7
100
AcDbSpline
 70
8
 71
3
 72
8
 73
4
 74
0
 40
0
 40
0
 40
0
 40
0
 40
1
 40
1
 40
1
 40
1
 10
199.956750
 20
17.091000
 30
0.0
 10
201.193500
 20
17.091000
 30
0.0
 10
202.274250
 20
16.876500
 30
0.0
 10
203.136750
 20
16.446750
 30
0.0
  0
SPLINE
  5
150
100
AcDbEntity
  8
0
 62
7
100
AcDbSpline
 70
8
 71
3
 72
8
 73
4
 74
0
 40
0
 40
0
 40
0
 40
0
 40
1
 40
1
 40
1
 40
1
 10
203.136750
 20
16.446750
 30
0.0
 10
204.322500
 20
15.903000
 30
0.0
 10
204.916500
 20
15.095250
 30
0.0
 10
204.916500
 20
14.016750
 30
0.0
  0
LWPOLYLINE
  5
151
100
AcDbEntity
  8
0
 62
7
100
AcDbPolyline
 90
4
 70
0
 10
197.532000
 20
15.095250
 30
0.0
 10
197.262000
 20
15.095250
 30
0.0
 10
197.262000
 20
17.091000
 30
0.0
 10
199.956750
 20
17.091000
 30
0.0
  0
SPLINE
  5
152
100
AcDbEntity
  8
0
 62
7
100
AcDbSpline
 70
8
 71
3
 72
8
 73
4
 74
0
 40
0
 40
0
 40
0
 40
0
 40
1
 40
1
 40
1
 40
1
 10
204.916500
 20
11.319000
 30
0.0
 10
204.916500
 20
10.674000
 30
0.0
 10
204.698250
 20
10.350750
 30
0.0
 10
204.213750
 20
10.350750
 30
0.0
  0
LWPOLYLINE
  5
153
100
AcDbEntity
  8
0
 62
7
100
AcDbPolyline
 90
2
 70
0
 10
204.916500
 20
14.016750
 30
0.0
 10
204.916500
 20
11.319000
 30
0.0
  0
SPLINE
  5
154
100
AcDbEntity
  8
0
 62
7
100
AcDbSpline
 70
8
 71
3
 72
8
 73
4
 74
0
 40
0
 40
0
 40
0
 40
0
 40
1
 40
1
 40
1
 40
1
 10
213.701250
 20
15.957000
 30
0.0
 10
213.701250
 20
15.310500
 30
0.0
 10
213.380250
 20
15.042000
 30
0.0
 10
212.786250
 20
15.042000
 30
0.0
  0
LWPOLYLINE
  5
155
100
AcDbEntity
  8
0
 62
7
100
AcDbPolyline
 90
3
 70
0
 10
204.213750
 20
10.350750
 30
0.0
 10
197.262000
 20
10.350750
 30
0.0
 10
197.262000
 20
10.350000
 30
0.0
  0
SPLINE
  5
156
100
AcDbEntity
  8
0
 62
7
100
AcDbSpline
 70
8
 71
3
 72
8
 73
4
 74
0
 40
0
 40
0
 40
0
 40
0
 40
1
 40
1
 40
1
 40
1
 10
211.709250
 20
15.042000
 30
0.0
 10
209.822250
 20
15.042000
 30
0.0
 10
208.904250
 20
14.558250
 30
0.0
 10
208.904250
 20
13.641000
 30
0.0
  0
LWPOLYLINE
  5
157
100
AcDbEntity
  8
0
 62
7
100
AcDbPolyline
 90
2
 70
0
 10
212.786250
 20
15.042000
 30
0.0
 10
211.709250
 20
15.042000
 30
0.0
  0
SPLINE
  5
158
100
AcDbEntity
  8
0
 62
7
100
AcDbSpline
 70
8
 71
3
 72
8
 73
4
 74
0
 40
0
 40
0
 40
0
 40
0
 40
1
 40
1
 40
1
 40
1
 10
208.904250
 20
6.901500
 30
0.0
 10
208.904250
 20
6.414750
 30
0.0
 10
208.743750
 20
6.144000
 30
0.0
 10
208.419750
 20
6.042000
 30
0.0
  0
SPLINE
  5
159
100
AcDbEntity
  8
0
 62
7
100
AcDbSpline
 70
8
 71
3
 72
8
 73
4
 74
0
 40
0
 40
0
 40
0
 40
0
 40
1
 40
1
 40
1
 40
1
 10
208.419750
 20
6.042000
 30
0.0
 10
208.259250
 20
5.986500
 30
0.0
 10
207.881250
 20
5.986500
 30
0.0
 10
207.342000
 20
5.986500
 30
0.0
  0
SPLINE
  5
15a
100
AcDbEntity
  8
0
 62
7
100
AcDbSpline
 70
8
 71
3
 72
8
 73
4
 74
0
 40
0
 40
0
 40
0
 40
0
 40
1
 40
1
 40
1
 40
1
 10
207.342000
 20
5.986500
 30
0.0
 10
206.692500
 20
5.986500
 30
0.0
 10
206.424750
 20
6.253500
 30
0.0
 10
206.424750
 20
6.902250
 30
0.0
  0
LWPOLYLINE
  5
15b
100
AcDbEntity
  8
0
 62
7
100
AcDbPolyline
 90
2
 70
0
 10
208.904250
 20
13.641000
 30
0.0
 10
208.904250
 20
6.901500
 30
0.0
  0
SPLINE
  5
15c
100
AcDbEntity
  8
0
 62
7
100
AcDbSpline
 70
8
 71
3
 72
8
 73
4
 74
0
 40
0
 40
0
 40
0
 40
0
 40
1
 40
1
 40
1
 40
1
 10
206.424750
 20
13.641750
 30
0.0
 10
206.424750
 20
15.957750
 30
0.0
 10
208.529250
 20
17.091750
 30
0.0
 10
212.785500
 20
17.091750
 30
0.0
  0
SPLINE
  5
15d
100
AcDbEntity
  8
0
 62
7
100
AcDbSpline
 70
8
 71
3
 72
8
 73
4
 74
0
 40
0
 40
0
 40
0
 40
0
 40
1
 40
1
 40
1
 40
1
 10
212.785500
 20
17.091750
 30
0.0
 10
213.380250
 20
17.090250
 30
0.0
 10
213.701250
 20
16.711500
 30
0.0
 10
213.701250
 20
15.957000
 30
0.0
  0
SPLINE
  5
15e
100
AcDbEntity
  8
0
 62
7
100
AcDbSpline
 70
8
 71
3
 72
8
 73
4
 74
0
 40
0
 40
0
 40
0
 40
0
 40
1
 40
1
 40
1
 40
1
 10
236.562750
 20
6.900750
 30
0.0
 10
236.562750
 20
6.252750
 30
0.0
 10
236.292750
 20
5.985000
 30
0.0
 10
235.644750
 20
5.985000
 30
0.0
  0
SPLINE
  5
15f
100
AcDbEntity
  8
0
 62
7
100
AcDbSpline
 70
8
 71
3
 72
8
 73
4
 74
0
 40
0
 40
0
 40
0
 40
0
 40
1
 40
1
 40
1
 40
1
 10
235.644750
 20
5.985000
 30
0.0
 10
235.106250
 20
5.985000
 30
0.0
 10
234.729750
 20
5.985000
 30
0.0
 10
234.621000
 20
6.040500
 30
0.0
  0
SPLINE
  5
160
100
AcDbEntity
  8
0
 62
7
100
AcDbSpline
 70
8
 71
3
 72
8
 73
4
 74
0
 40
0
 40
0
 40
0
 40
0
 40
1
 40
1
 40
1
 40
1
 10
234.621000
 20
6.040500
 30
0.0
 10
234.296250
 20
6.143250
 30
0.0
 10
234.081750
 20
6.413250
 30
0.0
 10
234.081750
 20
6.900000
 30
0.0
  0
LWPOLYLINE
  5
161
100
AcDbEntity
  8
0
 62
7
100
AcDbPolyline
 90
2
 70
0
 10
206.424750
 20
6.902250
 30
0.0
 10
206.424750
 20
13.641750
 30
0.0
  0
SPLINE
  5
162
100
AcDbEntity
  8
0
 62
7
100
AcDbSpline
 70
8
 71
3
 72
8
 73
4
 74
0
 40
0
 40
0
 40
0
 40
0
 40
1
 40
1
 40
1
 40
1
 10
234.081750
 20
13.746750
 30
0.0
 10
234.081750
 20
14.607750
 30
0.0
 10
233.059500
 20
15.041250
 30
0.0
 10
231.006000
 20
15.041250
 30
0.0
  0
LWPOLYLINE
  5
163
100
AcDbEntity
  8
0
 62
7
100
AcDbPolyline
 90
2
 70
0
 10
234.081750
 20
6.900000
 30
0.0
 10
234.081750
 20
13.746750
 30
0.0
  0
SPLINE
  5
164
100
AcDbEntity
  8
0
 62
7
100
AcDbSpline
 70
8
 71
3
 72
8
 73
4
 74
0
 40
0
 40
0
 40
0
 40
0
 40
1
 40
1
 40
1
 40
1
 10
229.771500
 20
15.041250
 30
0.0
 10
228.099750
 20
15.041250
 30
0.0
 10
227.289750
 20
14.499750
 30
0.0
 10
227.289750
 20
13.422000
 30
0.0
  0
LWPOLYLINE
  5
165
100
AcDbEntity
  8
0
 62
7
100
AcDbPolyline
 90
2
 70
0
 10
231.006000
 20
15.041250
 30
0.0
 10
229.771500
 20
15.041250
 30
0.0
  0
SPLINE
  5
166
100
AcDbEntity
  8
0
 62
7
100
AcDbSpline
 70
8
 71
3
 72
8
 73
4
 74
0
 40
0
 40
0
 40
0
 40
0
 40
1
 40
1
 40
1
 40
1
 10
227.289750
 20
6.900750
 30
0.0
 10
227.289750
 20
6.414000
 30
0.0
 10
227.123250
 20
6.143250
 30
0.0
 10
226.803750
 20
6.041250
 30
0.0
  0
SPLINE
  5
167
100
AcDbEntity
  8
0
 62
7
100
AcDbSpline
 70
8
 71
3
 72
8
 73
4
 74
0
 40
0
 40
0
 40
0
 40
0
 40
1
 40
1
 40
1
 40
1
 10
226.803750
 20
6.041250
 30
0.0
 10
226.643250
 20
5.985750
 30
0.0
 10
226.315500
 20
5.985750
 30
0.0
 10
225.725250
 20
5.985750
 30
0.0
  0
SPLINE
  5
168
100
AcDbEntity
  8
0
 62
7
100
AcDbSpline
 70
8
 71
3
 72
8
 73
4
 74
0
 40
0
 40
0
 40
0
 40
0
 40
1
 40
1
 40
1
 40
1
 10
225.725250
 20
5.985750
 30
0.0
 10
225.135000
 20
5.985750
 30
0.0
 10
224.811000
 20
6.252750
 30
0.0
 10
224.811000
 20
6.901500
 30
0.0
  0
LWPOLYLINE
  5
169
100
AcDbEntity
  8
0
 62
7
100
AcDbPolyline
 90
2
 70
0
 10
227.289750
 20
13.422000
 30
0.0
 10
227.289750
 20
6.900750
 30
0.0
  0
SPLINE
  5
16a
100
AcDbEntity
  8
0
 62
7
100
AcDbSpline
 70
8
 71
3
 72
8
 73
4
 74
0
 40
0
 40
0
 40
0
 40
0
 40
1
 40
1
 40
1
 40
1
 10
224.811000
 20
13.422750
 30
0.0
 10
224.811000
 20
14.123250
 30
0.0
 10
224.596500
 20
14.559000
 30
0.0
 10
224.107500
 20
14.770500
 30
0.0
  0
SPLINE
  5
16b
100
AcDbEntity
  8
0
 62
7
100
AcDbSpline
 70
8
 71
3
 72
8
 73
4
 74
0
 40
0
 40
0
 40
0
 40
0
 40
1
 40
1
 40
1
 40
1
 10
224.107500
 20
14.770500
 30
0.0
 10
223.783500
 20
14.934750
 30
0.0
 10
223.245000
 20
15.042000
 30
0.0
 10
222.542250
 20
15.042000
 30
0.0
  0
LWPOLYLINE
  5
16c
100
AcDbEntity
  8
0
 62
7
100
AcDbPolyline
 90
2
 70
0
 10
224.811000
 20
6.901500
 30
0.0
 10
224.811000
 20
13.422750
 30
0.0
  0
SPLINE
  5
16d
100
AcDbEntity
  8
0
 62
7
100
AcDbSpline
 70
8
 71
3
 72
8
 73
4
 74
0
 40
0
 40
0
 40
0
 40
0
 40
1
 40
1
 40
1
 40
1
 10
221.145000
 20
15.042000
 30
0.0
 10
219.042000
 20
15.042000
 30
0.0
 10
217.962750
 20
14.609250
 30
0.0
 10
217.962750
 20
13.692750
 30
0.0
  0
LWPOLYLINE
  5
16e
100
AcDbEntity
  8
0
 62
7
100
AcDbPolyline
 90
2
 70
0
 10
222.542250
 20
15.042000
 30
0.0
 10
221.145000
 20
15.042000
 30
0.0
  0
SPLINE
  5
16f
100
AcDbEntity
  8
0
 62
7
100
AcDbSpline
 70
8
 71
3
 72
8
 73
4
 74
0
 40
0
 40
0
 40
0
 40
0
 40
1
 40
1
 40
1
 40
1
 10
217.962750
 20
6.900750
 30
0.0
 10
217.962750
 20
6.414000
 30
0.0
 10
217.802250
 20
6.143250
 30
0.0
 10
217.480500
 20
6.041250
 30
0.0
  0
SPLINE
  5
170
100
AcDbEntity
  8
0
 62
7
100
AcDbSpline
 70
8
 71
3
 72
8
 73
4
 74
0
 40
0
 40
0
 40
0
 40
0
 40
1
 40
1
 40
1
 40
1
 10
217.480500
 20
6.041250
 30
0.0
 10
217.317000
 20
5.985750
 30
0.0
 10
216.993750
 20
5.985750
 30
0.0
 10
216.397500
 20
5.985750
 30
0.0
  0
SPLINE
  5
171
100
AcDbEntity
  8
0
 62
7
100
AcDbSpline
 70
8
 71
3
 72
8
 73
4
 74
0
 40
0
 40
0
 40
0
 40
0
 40
1
 40
1
 40
1
 40
1
 10
216.397500
 20
5.985750
 30
0.0
 10
215.806500
 20
5.985750
 30
0.0
 10
215.535000
 20
6.252750
 30
0.0
 10
215.535000
 20
6.901500
 30
0.0
  0
LWPOLYLINE
  5
172
100
AcDbEntity
  8
0
 62
7
100
AcDbPolyline
 90
2
 70
0
 10
217.962750
 20
13.692750
 30
0.0
 10
217.962750
 20
6.900750
 30
0.0
  0
SPLINE
  5
173
100
AcDbEntity
  8
0
 62
7
100
AcDbSpline
 70
8
 71
3
 72
8
 73
4
 74
0
 40
0
 40
0
 40
0
 40
0
 40
1
 40
1
 40
1
 40
1
 10
215.535000
 20
13.479000
 30
0.0
 10
215.535000
 20
15.903000
 30
0.0
 10
217.317750
 20
17.091000
 30
0.0
 10
220.875750
 20
17.091000
 30
0.0
  0
SPLINE
  5
174
100
AcDbEntity
  8
0
 62
7
100
AcDbSpline
 70
8
 71
3
 72
8
 73
4
 74
0
 40
0
 40
0
 40
0
 40
0
 40
1
 40
1
 40
1
 40
1
 10
220.875750
 20
17.091000
 30
0.0
 10
222.330000
 20
17.091000
 30
0.0
 10
223.245000
 20
17.091000
 30
0.0
 10
223.569000
 20
17.037000
 30
0.0
  0
SPLINE
  5
175
100
AcDbEntity
  8
0
 62
7
100
AcDbSpline
 70
8
 71
3
 72
8
 73
4
 74
0
 40
0
 40
0
 40
0
 40
0
 40
1
 40
1
 40
1
 40
1
 10
223.569000
 20
17.037000
 30
0.0
 10
224.483250
 20
16.927500
 30
0.0
 10
225.295500
 20
16.605750
 30
0.0
 10
226.104000
 20
16.119000
 30
0.0
  0
SPLINE
  5
176
100
AcDbEntity
  8
0
 62
7
100
AcDbSpline
 70
8
 71
3
 72
8
 73
4
 74
0
 40
0
 40
0
 40
0
 40
0
 40
1
 40
1
 40
1
 40
1
 10
226.104000
 20
16.119000
 30
0.0
 10
226.856250
 20
16.605000
 30
0.0
 10
227.721000
 20
16.876500
 30
0.0
 10
228.692250
 20
17.037000
 30
0.0
  0
SPLINE
  5
177
100
AcDbEntity
  8
0
 62
7
100
AcDbSpline
 70
8
 71
3
 72
8
 73
4
 74
0
 40
0
 40
0
 40
0
 40
0
 40
1
 40
1
 40
1
 40
1
 10
228.692250
 20
17.037000
 30
0.0
 10
229.123500
 20
17.091000
 30
0.0
 10
230.037000
 20
17.091000
 30
0.0
 10
231.441750
 20
17.091000
 30
0.0
  0
SPLINE
  5
178
100
AcDbEntity
  8
0
 62
7
100
AcDbSpline
 70
8
 71
3
 72
8
 73
4
 74
0
 40
0
 40
0
 40
0
 40
0
 40
1
 40
1
 40
1
 40
1
 10
231.441750
 20
17.091000
 30
0.0
 10
234.837750
 20
17.091000
 30
0.0
 10
236.563500
 20
15.903000
 30
0.0
 10
236.563500
 20
13.479000
 30
0.0
  0
LWPOLYLINE
  5
179
100
AcDbEntity
  8
0
 62
7
100
AcDbPolyline
 90
2
 70
0
 10
215.535000
 20
6.901500
 30
0.0
 10
215.535000
 20
13.479000
 30
0.0
  0
SPLINE
  5
17a
100
AcDbEntity
  8
0
 62
7
100
AcDbSpline
 70
8
 71
3
 72
8
 73
4
 74
0
 40
0
 40
0
 40
0
 40
0
 40
1
 40
1
 40
1
 40
1
 10
188.098500
 20
6.362250
 30
0.0
 10
188.098500
 20
5.069250
 30
0.0
 10
187.287000
 20
4.147500
 30
0.0
 10
185.666250
 20
3.503250
 30
0.0
  0
SPLINE
  5
17b
100
AcDbEntity
  8
0
 62
7
100
AcDbSpline
 70
8
 71
3
 72
8
 73
4
 74
0
 40
0
 40
0
 40
0
 40
0
 40
1
 40
1
 40
1
 40
1
 10
185.666250
 20
3.503250
 30
0.0
 10
184.538250
 20
3.128250
 30
0.0
 10
183.190500
 20
2.910000
 30
0.0
 10
181.683000
 20
2.910000
 30
0.0
  0
LWPOLYLINE
  5
17c
100
AcDbEntity
  8
0
 62
7
100
AcDbPolyline
 90
3
 70
0
 10
236.563500
 20
13.479000
 30
0.0
 10
236.563500
 20
6.900750
 30
0.0
 10
236.562750
 20
6.900750
 30
0.0
  0
SPLINE
  5
17d
100
AcDbEntity
  8
0
 62
7
100
AcDbSpline
 70
8
 71
3
 72
8
 73
4
 74
0
 40
0
 40
0
 40
0
 40
0
 40
1
 40
1
 40
1
 40
1
 10
180.386250
 20
4.905750
 30
0.0
 10
180.496500
 20
4.959000
 30
0.0
 10
180.550500
 20
4.959000
 30
0.0
 10
180.657000
 20
4.959000
 30
0.0
  0
LWPOLYLINE
  5
17e
100
AcDbEntity
  8
0
 62
7
100
AcDbPolyline
 90
3
 70
0
 10
181.683000
 20
2.910000
 30
0.0
 10
180.386250
 20
2.910000
 30
0.0
 10
180.386250
 20
4.905750
 30
0.0
  0
SPLINE
  5
17f
100
AcDbEntity
  8
0
 62
7
100
AcDbSpline
 70
8
 71
3
 72
8
 73
4
 74
0
 40
0
 40
0
 40
0
 40
0
 40
1
 40
1
 40
1
 40
1
 10
182.433000
 20
4.959000
 30
0.0
 10
182.812500
 20
4.959000
 30
0.0
 10
183.408750
 20
5.068500
 30
0.0
 10
184.162500
 20
5.286750
 30
0.0
  0
SPLINE
  5
180
100
AcDbEntity
  8
0
 62
7
100
AcDbSpline
 70
8
 71
3
 72
8
 73
4
 74
0
 40
0
 40
0
 40
0
 40
0
 40
1
 40
1
 40
1
 40
1
 10
184.162500
 20
5.286750
 30
0.0
 10
185.077500
 20
5.552250
 30
0.0
 10
185.561250
 20
5.822250
 30
0.0
 10
185.561250
 20
6.041250
 30
0.0
  0
LWPOLYLINE
  5
181
100
AcDbEntity
  8
0
 62
7
100
AcDbPolyline
 90
2
 70
0
 10
180.657000
 20
4.959000
 30
0.0
 10
182.433000
 20
4.959000
 30
0.0
  0
SPLINE
  5
182
100
AcDbEntity
  8
0
 62
7
100
AcDbSpline
 70
8
 71
3
 72
8
 73
4
 74
0
 40
0
 40
0
 40
0
 40
0
 40
1
 40
1
 40
1
 40
1
 10
185.616000
 20
13.479000
 30
0.0
 10
185.616000
 20
14.072250
 30
0.0
 10
185.186250
 20
14.450250
 30
0.0
 10
184.211250
 20
14.771250
 30
0.0
  0
SPLINE
  5
183
100
AcDbEntity
  8
0
 62
7
100
AcDbSpline
 70
8
 71
3
 72
8
 73
4
 74
0
 40
0
 40
0
 40
0
 40
0
 40
1
 40
1
 40
1
 40
1
 10
184.211250
 20
14.771250
 30
0.0
 10
183.570000
 20
14.935500
 30
0.0
 10
182.920500
 20
15.042750
 30
0.0
 10
182.219250
 20
15.042750
 30
0.0
  0
LWPOLYLINE
  5
184
100
AcDbEntity
  8
0
 62
7
100
AcDbPolyline
 90
5
 70
0
 10
185.561250
 20
6.041250
 30
0.0
 10
180.386250
 20
6.041250
 30
0.0
 10
180.386250
 20
8.088000
 30
0.0
 10
185.616000
 20
8.088000
 30
0.0
 10
185.616000
 20
13.479000
 30
0.0
  0
SPLINE
  5
185
100
AcDbEntity
  8
0
 62
7
100
AcDbSpline
 70
8
 71
3
 72
8
 73
4
 74
0
 40
0
 40
0
 40
0
 40
0
 40
1
 40
1
 40
1
 40
1
 10
180.387000
 20
17.142000
 30
0.0
 10
180.551250
 20
17.142000
 30
0.0
 10
180.708750
 20
17.091750
 30
0.0
 10
180.869250
 20
17.091750
 30
0.0
  0
LWPOLYLINE
  5
186
100
AcDbEntity
  8
0
 62
7
100
AcDbPolyline
 90
3
 70
0
 10
182.219250
 20
15.042750
 30
0.0
 10
180.387000
 20
15.042750
 30
0.0
 10
180.387000
 20
17.142000
 30
0.0
  0
SPLINE
  5
187
100
AcDbEntity
  8
0
 62
7
100
AcDbSpline
 70
8
 71
3
 72
8
 73
4
 74
0
 40
0
 40
0
 40
0
 40
0
 40
1
 40
1
 40
1
 40
1
 10
181.845000
 20
17.091750
 30
0.0
 10
183.351750
 20
17.091750
 30
0.0
 10
184.645500
 20
16.877250
 30
0.0
 10
185.778000
 20
16.447500
 30
0.0
  0
SPLINE
  5
188
100
AcDbEntity
  8
0
 62
7
100
AcDbSpline
 70
8
 71
3
 72
8
 73
4
 74
0
 40
0
 40
0
 40
0
 40
0
 40
1
 40
1
 40
1
 40
1
 10
185.778000
 20
16.447500
 30
0.0
 10
187.343250
 20
15.853500
 30
0.0
 10
188.100000
 20
14.880750
 30
0.0
 10
188.100000
 20
13.587750
 30
0.0
  0
LWPOLYLINE
  5
189
100
AcDbEntity
  8
0
 62
7
100
AcDbPolyline
 90
2
 70
0
 10
180.869250
 20
17.091750
 30
0.0
 10
181.845000
 20
17.091750
 30
0.0
  0
LWPOLYLINE
  5
18a
100
AcDbEntity
  8
0
 62
7
100
AcDbPolyline
 90
3
 70
0
 10
188.100000
 20
13.587750
 30
0.0
 10
188.100000
 20
6.362250
 30
0.0
 10
188.098500
 20
6.362250
 30
0.0
  0
SPLINE
  5
18b
100
AcDbEntity
  8
0
 62
7
100
AcDbSpline
 70
8
 71
3
 72
8
 73
4
 74
0
 40
0
 40
0
 40
0
 40
0
 40
1
 40
1
 40
1
 40
1
 10
197.262000
 20
15.094500
 30
0.0
 10
196.937250
 20
15.094500
 30
0.0
 10
196.614750
 20
15.042000
 30
0.0
 10
196.293750
 20
15.042000
 30
0.0
  0
LWPOLYLINE
  5
18c
100
AcDbEntity
  8
0
 62
7
100
AcDbPolyline
 90
2
 70
0
 10
197.262000
 20
17.090250
 30
0.0
 10
197.262000
 20
15.094500
 30
0.0
  0
SPLINE
  5
18d
100
AcDbEntity
  8
0
 62
7
100
AcDbSpline
 70
8
 71
3
 72
8
 73
4
 74
0
 40
0
 40
0
 40
0
 40
0
 40
1
 40
1
 40
1
 40
1
 10
195.695250
 20
15.042000
 30
0.0
 10
193.219500
 20
15.042000
 30
0.0
 10
191.974500
 20
14.609250
 30
0.0
 10
191.974500
 20
13.747500
 30
0.0
  0
LWPOLYLINE
  5
18e
100
AcDbEntity
  8
0
 62
7
100
AcDbPolyline
 90
2
 70
0
 10
196.293750
 20
15.042000
 30
0.0
 10
195.695250
 20
15.042000
 30
0.0
  0
SPLINE
  5
18f
100
AcDbEntity
  8
0
 62
7
100
AcDbSpline
 70
8
 71
3
 72
8
 73
4
 74
0
 40
0
 40
0
 40
0
 40
0
 40
1
 40
1
 40
1
 40
1
 10
192.084750
 20
10.349250
 30
0.0
 10
191.975250
 20
8.786250
 30
0.0
 10
193.220250
 20
8.033250
 30
0.0
 10
195.805500
 20
8.033250
 30
0.0
  0
LWPOLYLINE
  5
190
100
AcDbEntity
  8
0
 62
7
100
AcDbPolyline
 90
5
 70
0
 10
191.974500
 20
13.747500
 30
0.0
 10
191.974500
 20
12.453750
 30
0.0
 10
197.262000
 20
12.453750
 30
0.0
 10
197.262000
 20
10.349250
 30
0.0
 10
192.084750
 20
10.349250
 30
0.0
  0
SPLINE
  5
191
100
AcDbEntity
  8
0
 62
7
100
AcDbSpline
 70
8
 71
3
 72
8
 73
4
 74
0
 40
0
 40
0
 40
0
 40
0
 40
1
 40
1
 40
1
 40
1
 10
197.043000
 20
8.033250
 30
0.0
 10
197.152500
 20
8.033250
 30
0.0
 10
197.204250
 20
8.033250
 30
0.0
 10
197.262000
 20
7.977750
 30
0.0
  0
LWPOLYLINE
  5
192
100
AcDbEntity
  8
0
 62
7
100
AcDbPolyline
 90
2
 70
0
 10
195.805500
 20
8.033250
 30
0.0
 10
197.043000
 20
8.033250
 30
0.0
  0
SPLINE
  5
193
100
AcDbEntity
  8
0
 62
7
100
AcDbSpline
 70
8
 71
3
 72
8
 73
4
 74
0
 40
0
 40
0
 40
0
 40
0
 40
1
 40
1
 40
1
 40
1
 10
197.043000
 20
5.985000
 30
0.0
 10
195.485250
 20
5.985000
 30
0.0
 10
194.406750
 20
5.985000
 30
0.0
 10
193.866000
 20
6.040500
 30
0.0
  0
SPLINE
  5
194
100
AcDbEntity
  8
0
 62
7
100
AcDbSpline
 70
8
 71
3
 72
8
 73
4
 74
0
 40
0
 40
0
 40
0
 40
0
 40
1
 40
1
 40
1
 40
1
 10
193.866000
 20
6.040500
 30
0.0
 10
192.517500
 20
6.197250
 30
0.0
 10
191.544000
 20
6.521250
 30
0.0
 10
190.901250
 20
7.006500
 30
0.0
  0
SPLINE
  5
195
100
AcDbEntity
  8
0
 62
7
100
AcDbSpline
 70
8
 71
3
 72
8
 73
4
 74
0
 40
0
 40
0
 40
0
 40
0
 40
1
 40
1
 40
1
 40
1
 10
190.901250
 20
7.006500
 30
0.0
 10
189.979500
 20
7.708500
 30
0.0
 10
189.549750
 20
8.516250
 30
0.0
 10
189.549750
 20
9.489000
 30
0.0
  0
LWPOLYLINE
  5
196
100
AcDbEntity
  8
0
 62
7
100
AcDbPolyline
 90
3
 70
0
 10
197.262000
 20
7.977750
 30
0.0
 10
197.262000
 20
5.985000
 30
0.0
 10
197.043000
 20
5.985000
 30
0.0
  0
SPLINE
  5
197
100
AcDbEntity
  8
0
 62
7
100
AcDbSpline
 70
8
 71
3
 72
8
 73
4
 74
0
 40
0
 40
0
 40
0
 40
0
 40
1
 40
1
 40
1
 40
1
 10
189.549750
 20
13.586250
 30
0.0
 10
189.549750
 20
14.879250
 30
0.0
 10
190.251750
 20
15.796500
 30
0.0
 10
191.655000
 20
16.446000
 30
0.0
  0
SPLINE
  5
198
100
AcDbEntity
  8
0
 62
7
100
AcDbSpline
 70
8
 71
3
 72
8
 73
4
 74
0
 40
0
 40
0
 40
0
 40
0
 40
1
 40
1
 40
1
 40
1
 10
191.655000
 20
16.446000
 30
0.0
 10
192.678750
 20
16.875750
 30
0.0
 10
193.916250
 20
17.090250
 30
0.0
 10
195.431250
 20
17.090250
 30
0.0
  0
LWPOLYLINE
  5
199
100
AcDbEntity
  8
0
 62
7
100
AcDbPolyline
 90
2
 70
0
 10
189.549750
 20
9.489000
 30
0.0
 10
189.549750
 20
13.586250
 30
0.0
  0
SPLINE
  5
19a
100
AcDbEntity
  8
0
 62
7
100
AcDbSpline
 70
8
 71
3
 72
8
 73
4
 74
0
 40
0
 40
0
 40
0
 40
0
 40
1
 40
1
 40
1
 40
1
 10
180.386250
 20
2.910000
 30
0.0
 10
179.953500
 20
3.018000
 30
0.0
 10
179.742750
 20
3.394500
 30
0.0
 10
179.742750
 20
4.041750
 30
0.0
  0
SPLINE
  5
19b
100
AcDbEntity
  8
0
 62
7
100
AcDbSpline
 70
8
 71
3
 72
8
 73
4
 74
0
 40
0
 40
0
 40
0
 40
0
 40
1
 40
1
 40
1
 40
1
 10
179.742750
 20
4.041750
 30
0.0
 10
179.742750
 20
4.529250
 30
0.0
 10
179.953500
 20
4.851000
 30
0.0
 10
180.386250
 20
4.905750
 30
0.0
  0
LWPOLYLINE
  5
19c
100
AcDbEntity
  8
0
 62
7
100
AcDbPolyline
 90
3
 70
0
 10
195.431250
 20
17.090250
 30
0.0
 10
197.262000
 20
17.090250
 30
0.0
 10
197.262000
 20
17.090250
 30
0.0
  0
LWPOLYLINE
  5
19d
100
AcDbEntity
  8
0
 62
7
100
AcDbPolyline
 90
3
 70
0
 10
180.386250
 20
4.905750
 30
0.0
 10
180.386250
 20
2.910000
 30
0.0
 10
180.386250
 20
2.910000
 30
0.0
  0
SPLINE
  5
19e
100
AcDbEntity
  8
0
 62
7
100
AcDbSpline
 70
8
 71
3
 72
8
 73
4
 74
0
 40
0
 40
0
 40
0
 40
0
 40
1
 40
1
 40
1
 40
1
 10
178.878000
 20
6.041250
 30
0.0
 10
177.313500
 20
6.041250
 30
0.0
 10
176.016750
 20
6.252750
 30
0.0
 10
174.996750
 20
6.631500
 30
0.0
  0
SPLINE
  5
19f
100
AcDbEntity
  8
0
 62
7
100
AcDbSpline
 70
8
 71
3
 72
8
 73
4
 74
0
 40
0
 40
0
 40
0
 40
0
 40
1
 40
1
 40
1
 40
1
 10
174.996750
 20
6.631500
 30
0.0
 10
173.540250
 20
7.224000
 30
0.0
 10
172.782750
 20
8.194500
 30
0.0
 10
172.782750
 20
9.489750
 30
0.0
  0
LWPOLYLINE
  5
1a0
100
AcDbEntity
  8
0
 62
7
100
AcDbPolyline
 90
2
 70
0
 10
180.386250
 20
6.041250
 30
0.0
 10
178.878000
 20
6.041250
 30
0.0
  0
SPLINE
  5
1a1
100
AcDbEntity
  8
0
 62
7
100
AcDbSpline
 70
8
 71
3
 72
8
 73
4
 74
0
 40
0
 40
0
 40
0
 40
0
 40
1
 40
1
 40
1
 40
1
 10
172.782750
 20
13.641000
 30
0.0
 10
172.782750
 20
15.957000
 30
0.0
 10
175.102500
 20
17.141250
 30
0.0
 10
179.632500
 20
17.141250
 30
0.0
  0
LWPOLYLINE
  5
1a2
100
AcDbEntity
  8
0
 62
7
100
AcDbPolyline
 90
2
 70
0
 10
172.782750
 20
9.489750
 30
0.0
 10
172.782750
 20
13.641000
 30
0.0
  0
SPLINE
  5
1a3
100
AcDbEntity
  8
0
 62
7
100
AcDbSpline
 70
8
 71
3
 72
8
 73
4
 74
0
 40
0
 40
0
 40
0
 40
0
 40
1
 40
1
 40
1
 40
1
 10
178.339500
 20
15.042000
 30
0.0
 10
177.474000
 20
15.042000
 30
0.0
 10
176.829000
 20
14.988750
 30
0.0
 10
176.453250
 20
14.879250
 30
0.0
  0
SPLINE
  5
1a4
100
AcDbEntity
  8
0
 62
7
100
AcDbSpline
 70
8
 71
3
 72
8
 73
4
 74
0
 40
0
 40
0
 40
0
 40
0
 40
1
 40
1
 40
1
 40
1
 10
176.453250
 20
14.879250
 30
0.0
 10
175.641000
 20
14.715750
 30
0.0
 10
175.212000
 20
14.286750
 30
0.0
 10
175.212000
 20
13.692750
 30
0.0
  0
LWPOLYLINE
  5
1a5
100
AcDbEntity
  8
0
 62
7
100
AcDbPolyline
 90
4
 70
0
 10
179.632500
 20
17.141250
 30
0.0
 10
180.386250
 20
17.141250
 30
0.0
 10
180.386250
 20
15.042000
 30
0.0
 10
178.339500
 20
15.042000
 30
0.0
  0
SPLINE
  5
1a6
100
AcDbEntity
  8
0
 62
7
100
AcDbSpline
 70
8
 71
3
 72
8
 73
4
 74
0
 40
0
 40
0
 40
0
 40
0
 40
1
 40
1
 40
1
 40
1
 10
175.212000
 20
9.543750
 30
0.0
 10
175.212000
 20
8.571750
 30
0.0
 10
176.453250
 20
8.088000
 30
0.0
 10
178.824750
 20
8.088000
 30
0.0
  0
LWPOLYLINE
  5
1a7
100
AcDbEntity
  8
0
 62
7
100
AcDbPolyline
 90
2
 70
0
 10
175.212000
 20
13.692750
 30
0.0
 10
175.212000
 20
9.543750
 30
0.0
  0
LWPOLYLINE
  5
1a8
100
AcDbEntity
  8
0
 62
7
100
AcDbPolyline
 90
4
 70
0
 10
178.824750
 20
8.088000
 30
0.0
 10
180.386250
 20
8.088000
 30
0.0
 10
180.386250
 20
6.041250
 30
0.0
 10
180.386250
 20
6.041250
 30
0.0
  0
SPLINE
  5
1a9
100
AcDbEntity
  8
0
 62
7
100
AcDbSpline
 70
8
 71
3
 72
8
 73
4
 74
0
 40
0
 40
0
 40
0
 40
0
 40
1
 40
1
 40
1
 40
1
 10
109.869750
 20
3.394500
 30
0.0
 10
110.626500
 20
3.285000
 30
0.0
 10
111.057000
 20
2.643750
 30
0.0
 10
111.057000
 20
1.566000
 30
0.0
  0
SPLINE
  5
1aa
100
AcDbEntity
  8
0
 62
7
100
AcDbSpline
 70
8
 71
3
 72
8
 73
4
 74
0
 40
0
 40
0
 40
0
 40
0
 40
1
 40
1
 40
1
 40
1
 10
111.057000
 20
1.566000
 30
0.0
 10
111.057000
 20
0.702000
 30
0.0
 10
110.626500
 20
0.163500
 30
0.0
 10
109.869750
 20
0.108000
 30
0.0
  0
LWPOLYLINE
  5
1ab
100
AcDbEntity
  8
0
 62
7
100
AcDbPolyline
 90
2
 70
0
 10
109.869750
 20
0.108000
 30
0.0
 10
109.869750
 20
3.394500
 30
0.0
  0
SPLINE
  5
1ac
100
AcDbEntity
  8
0
 62
7
100
AcDbSpline
 70
8
 71
3
 72
8
 73
4
 74
0
 40
0
 40
0
 40
0
 40
0
 40
1
 40
1
 40
1
 40
1
 10
118.500000
 20
12.884250
 30
0.0
 10
118.500000
 20
14.286750
 30
0.0
 10
115.798500
 20
14.934000
 30
0.0
 10
110.357250
 20
14.934000
 30
0.0
  0
LWPOLYLINE
  5
1ad
100
AcDbEntity
  8
0
 62
7
100
AcDbPolyline
 90
4
 70
0
 10
109.869750
 20
7.170000
 30
0.0
 10
109.869750
 20
10.673250
 30
0.0
 10
118.500000
 20
10.673250
 30
0.0
 10
118.500000
 20
12.884250
 30
0.0
  0
SPLINE
  5
1ae
100
AcDbEntity
  8
0
 62
7
100
AcDbSpline
 70
8
 71
3
 72
8
 73
4
 74
0
 40
0
 40
0
 40
0
 40
0
 40
1
 40
1
 40
1
 40
1
 10
114.348000
 20
18.273750
 30
0.0
 10
116.286000
 20
18.273750
 30
0.0
 10
118.011750
 20
17.897250
 30
0.0
 10
119.520000
 20
17.250000
 30
0.0
  0
SPLINE
  5
1af
100
AcDbEntity
  8
0
 62
7
100
AcDbSpline
 70
8
 71
3
 72
8
 73
4
 74
0
 40
0
 40
0
 40
0
 40
0
 40
1
 40
1
 40
1
 40
1
 10
119.520000
 20
17.250000
 30
0.0
 10
121.461000
 20
16.332750
 30
0.0
 10
122.378250
 20
14.988000
 30
0.0
 10
122.378250
 20
13.206750
 30
0.0
  0
LWPOLYLINE
  5
1b0
100
AcDbEntity
  8
0
 62
7
100
AcDbPolyline
 90
4
 70
0
 10
110.357250
 20
14.934000
 30
0.0
 10
109.869750
 20
14.934000
 30
0.0
 10
109.869750
 20
18.273750
 30
0.0
 10
114.348000
 20
18.273750
 30
0.0
  0
SPLINE
  5
1b1
100
AcDbEntity
  8
0
 62
7
100
AcDbSpline
 70
8
 71
3
 72
8
 73
4
 74
0
 40
0
 40
0
 40
0
 40
0
 40
1
 40
1
 40
1
 40
1
 10
122.378250
 20
8.841750
 30
0.0
 10
122.378250
 20
7.763250
 30
0.0
 10
122.003250
 20
7.170000
 30
0.0
 10
121.303500
 20
7.170000
 30
0.0
  0
LWPOLYLINE
  5
1b2
100
AcDbEntity
  8
0
 62
7
100
AcDbPolyline
 90
2
 70
0
 10
122.378250
 20
13.206750
 30
0.0
 10
122.378250
 20
8.841750
 30
0.0
  0
SPLINE
  5
1b3
100
AcDbEntity
  8
0
 62
7
100
AcDbSpline
 70
8
 71
3
 72
8
 73
4
 74
0
 40
0
 40
0
 40
0
 40
0
 40
1
 40
1
 40
1
 40
1
 10
149.658000
 20
1.565250
 30
0.0
 10
149.658000
 20
0.539250
 30
0.0
 10
149.174250
 20
0.053250
 30
0.0
 10
148.150500
 20
0.053250
 30
0.0
  0
SPLINE
  5
1b4
100
AcDbEntity
  8
0
 62
7
100
AcDbSpline
 70
8
 71
3
 72
8
 73
4
 74
0
 40
0
 40
0
 40
0
 40
0
 40
1
 40
1
 40
1
 40
1
 10
148.150500
 20
0.053250
 30
0.0
 10
147.232500
 20
0.053250
 30
0.0
 10
146.639250
 20
0.107250
 30
0.0
 10
146.424000
 20
0.162750
 30
0.0
  0
SPLINE
  5
1b5
100
AcDbEntity
  8
0
 62
7
100
AcDbSpline
 70
8
 71
3
 72
8
 73
4
 74
0
 40
0
 40
0
 40
0
 40
0
 40
1
 40
1
 40
1
 40
1
 10
146.424000
 20
0.162750
 30
0.0
 10
145.885500
 20
0.378000
 30
0.0
 10
145.615500
 20
0.810750
 30
0.0
 10
145.615500
 20
1.564500
 30
0.0
  0
LWPOLYLINE
  5
1b6
100
AcDbEntity
  8
0
 62
7
100
AcDbPolyline
 90
3
 70
0
 10
121.303500
 20
7.170000
 30
0.0
 10
109.869750
 20
7.170000
 30
0.0
 10
109.869750
 20
7.170000
 30
0.0
  0
SPLINE
  5
1b7
100
AcDbEntity
  8
0
 62
7
100
AcDbSpline
 70
8
 71
3
 72
8
 73
4
 74
0
 40
0
 40
0
 40
0
 40
0
 40
1
 40
1
 40
1
 40
1
 10
145.615500
 20
13.156500
 30
0.0
 10
145.615500
 20
13.962000
 30
0.0
 10
144.916500
 20
14.499750
 30
0.0
 10
143.562750
 20
14.769000
 30
0.0
  0
SPLINE
  5
1b8
100
AcDbEntity
  8
0
 62
7
100
AcDbSpline
 70
8
 71
3
 72
8
 73
4
 74
0
 40
0
 40
0
 40
0
 40
0
 40
1
 40
1
 40
1
 40
1
 10
143.562750
 20
14.769000
 30
0.0
 10
143.081250
 20
14.823750
 30
0.0
 10
142.054500
 20
14.878500
 30
0.0
 10
140.601000
 20
14.878500
 30
0.0
  0
LWPOLYLINE
  5
1b9
100
AcDbEntity
  8
0
 62
7
100
AcDbPolyline
 90
2
 70
0
 10
145.615500
 20
1.564500
 30
0.0
 10
145.615500
 20
13.156500
 30
0.0
  0
SPLINE
  5
1ba
100
AcDbEntity
  8
0
 62
7
100
AcDbSpline
 70
8
 71
3
 72
8
 73
4
 74
0
 40
0
 40
0
 40
0
 40
0
 40
1
 40
1
 40
1
 40
1
 10
134.021250
 20
14.878500
 30
0.0
 10
132.462000
 20
14.878500
 30
0.0
 10
131.436000
 20
14.824500
 30
0.0
 10
130.950750
 20
14.769000
 30
0.0
  0
SPLINE
  5
1bb
100
AcDbEntity
  8
0
 62
7
100
AcDbSpline
 70
8
 71
3
 72
8
 73
4
 74
0
 40
0
 40
0
 40
0
 40
0
 40
1
 40
1
 40
1
 40
1
 10
130.950750
 20
14.769000
 30
0.0
 10
129.549000
 20
14.499750
 30
0.0
 10
128.846250
 20
13.962000
 30
0.0
 10
128.846250
 20
13.101000
 30
0.0
  0
LWPOLYLINE
  5
1bc
100
AcDbEntity
  8
0
 62
7
100
AcDbPolyline
 90
2
 70
0
 10
140.601000
 20
14.878500
 30
0.0
 10
134.021250
 20
14.878500
 30
0.0
  0
SPLINE
  5
1bd
100
AcDbEntity
  8
0
 62
7
100
AcDbSpline
 70
8
 71
3
 72
8
 73
4
 74
0
 40
0
 40
0
 40
0
 40
0
 40
1
 40
1
 40
1
 40
1
 10
128.846250
 20
1.563750
 30
0.0
 10
128.846250
 20
0.537750
 30
0.0
 10
128.361750
 20
0.051750
 30
0.0
 10
127.392750
 20
0.051750
 30
0.0
  0
SPLINE
  5
1be
100
AcDbEntity
  8
0
 62
7
100
AcDbSpline
 70
8
 71
3
 72
8
 73
4
 74
0
 40
0
 40
0
 40
0
 40
0
 40
1
 40
1
 40
1
 40
1
 10
127.392750
 20
0.051750
 30
0.0
 10
126.420750
 20
0.051750
 30
0.0
 10
125.885250
 20
0.105750
 30
0.0
 10
125.667000
 20
0.161250
 30
0.0
  0
SPLINE
  5
1bf
100
AcDbEntity
  8
0
 62
7
100
AcDbSpline
 70
8
 71
3
 72
8
 73
4
 74
0
 40
0
 40
0
 40
0
 40
0
 40
1
 40
1
 40
1
 40
1
 10
125.667000
 20
0.161250
 30
0.0
 10
125.127750
 20
0.376500
 30
0.0
 10
124.857750
 20
0.809250
 30
0.0
 10
124.857750
 20
1.563000
 30
0.0
  0
LWPOLYLINE
  5
1c0
100
AcDbEntity
  8
0
 62
7
100
AcDbPolyline
 90
2
 70
0
 10
128.846250
 20
13.101000
 30
0.0
 10
128.846250
 20
1.563750
 30
0.0
  0
SPLINE
  5
1c1
100
AcDbEntity
  8
0
 62
7
100
AcDbSpline
 70
8
 71
3
 72
8
 73
4
 74
0
 40
0
 40
0
 40
0
 40
0
 40
1
 40
1
 40
1
 40
1
 10
124.857750
 20
13.100250
 30
0.0
 10
124.857750
 20
16.548000
 30
0.0
 10
127.932000
 20
18.272250
 30
0.0
 10
134.021250
 20
18.272250
 30
0.0
  0
LWPOLYLINE
  5
1c2
100
AcDbEntity
  8
0
 62
7
100
AcDbPolyline
 90
2
 70
0
 10
124.857750
 20
1.563000
 30
0.0
 10
124.857750
 20
13.100250
 30
0.0
  0
SPLINE
  5
1c3
100
AcDbEntity
  8
0
 62
7
100
AcDbSpline
 70
8
 71
3
 72
8
 73
4
 74
0
 40
0
 40
0
 40
0
 40
0
 40
1
 40
1
 40
1
 40
1
 10
140.601000
 20
18.272250
 30
0.0
 10
146.639250
 20
18.272250
 30
0.0
 10
149.658000
 20
16.548000
 30
0.0
 10
149.658000
 20
13.100250
 30
0.0
  0
LWPOLYLINE
  5
1c4
100
AcDbEntity
  8
0
 62
7
100
AcDbPolyline
 90
2
 70
0
 10
134.021250
 20
18.272250
 30
0.0
 10
140.601000
 20
18.272250
 30
0.0
  0
SPLINE
  5
1c5
100
AcDbEntity
  8
0
 62
7
100
AcDbSpline
 70
8
 71
3
 72
8
 73
4
 74
0
 40
0
 40
0
 40
0
 40
0
 40
1
 40
1
 40
1
 40
1
 10
165.398250
 20
16.227000
 30
0.0
 10
165.398250
 20
15.258000
 30
0.0
 10
164.862000
 20
14.770500
 30
0.0
 10
163.890000
 20
14.770500
 30
0.0
  0
LWPOLYLINE
  5
1c6
100
AcDbEntity
  8
0
 62
7
100
AcDbPolyline
 90
3
 70
0
 10
149.658000
 20
13.100250
 30
0.0
 10
149.658000
 20
1.565250
 30
0.0
 10
149.658000
 20
1.565250
 30
0.0
  0
SPLINE
  5
1c7
100
AcDbEntity
  8
0
 62
7
100
AcDbSpline
 70
8
 71
3
 72
8
 73
4
 74
0
 40
0
 40
0
 40
0
 40
0
 40
1
 40
1
 40
1
 40
1
 10
157.528500
 20
1.566000
 30
0.0
 10
157.528500
 20
0.540000
 30
0.0
 10
157.043250
 20
0.054000
 30
0.0
 10
156.071250
 20
0.054000
 30
0.0
  0
SPLINE
  5
1c8
100
AcDbEntity
  8
0
 62
7
100
AcDbSpline
 70
8
 71
3
 72
8
 73
4
 74
0
 40
0
 40
0
 40
0
 40
0
 40
1
 40
1
 40
1
 40
1
 10
156.071250
 20
0.054000
 30
0.0
 10
155.157000
 20
0.054000
 30
0.0
 10
154.566750
 20
0.108000
 30
0.0
 10
154.348500
 20
0.216000
 30
0.0
  0
SPLINE
  5
1c9
100
AcDbEntity
  8
0
 62
7
100
AcDbSpline
 70
8
 71
3
 72
8
 73
4
 74
0
 40
0
 40
0
 40
0
 40
0
 40
1
 40
1
 40
1
 40
1
 10
154.348500
 20
0.216000
 30
0.0
 10
153.810000
 20
0.379500
 30
0.0
 10
153.536250
 20
0.812250
 30
0.0
 10
153.536250
 20
1.566000
 30
0.0
  0
LWPOLYLINE
  5
1ca
100
AcDbEntity
  8
0
 62
7
100
AcDbPolyline
 90
3
 70
0
 10
163.890000
 20
14.770500
 30
0.0
 10
157.528500
 20
14.770500
 30
0.0
 10
157.528500
 20
1.566000
 30
0.0
  0
SPLINE
  5
1cb
100
AcDbEntity
  8
0
 62
7
100
AcDbSpline
 70
8
 71
3
 72
8
 73
4
 74
0
 40
0
 40
0
 40
0
 40
0
 40
1
 40
1
 40
1
 40
1
 10
152.134500
 20
14.770500
 30
0.0
 10
151.114500
 20
14.770500
 30
0.0
 10
150.575250
 20
15.310500
 30
0.0
 10
150.575250
 20
16.446000
 30
0.0
  0
SPLINE
  5
1cc
100
AcDbEntity
  8
0
 62
7
100
AcDbSpline
 70
8
 71
3
 72
8
 73
4
 74
0
 40
0
 40
0
 40
0
 40
0
 40
1
 40
1
 40
1
 40
1
 10
150.575250
 20
16.446000
 30
0.0
 10
150.575250
 20
17.574000
 30
0.0
 10
151.114500
 20
18.117000
 30
0.0
 10
152.134500
 20
18.117000
 30
0.0
  0
LWPOLYLINE
  5
1cd
100
AcDbEntity
  8
0
 62
7
100
AcDbPolyline
 90
3
 70
0
 10
153.536250
 20
1.566000
 30
0.0
 10
153.536250
 20
14.770500
 30
0.0
 10
152.134500
 20
14.770500
 30
0.0
  0
SPLINE
  5
1ce
100
AcDbEntity
  8
0
 62
7
100
AcDbSpline
 70
8
 71
3
 72
8
 73
4
 74
0
 40
0
 40
0
 40
0
 40
0
 40
1
 40
1
 40
1
 40
1
 10
153.536250
 20
21.674250
 30
0.0
 10
153.536250
 20
22.695000
 30
0.0
 10
154.025250
 20
23.183250
 30
0.0
 10
154.996500
 20
23.183250
 30
0.0
  0
SPLINE
  5
1cf
100
AcDbEntity
  8
0
 62
7
100
AcDbSpline
 70
8
 71
3
 72
8
 73
4
 74
0
 40
0
 40
0
 40
0
 40
0
 40
1
 40
1
 40
1
 40
1
 10
154.996500
 20
23.183250
 30
0.0
 10
155.965500
 20
23.183250
 30
0.0
 10
156.504000
 20
23.129250
 30
0.0
 10
156.720000
 20
23.073750
 30
0.0
  0
SPLINE
  5
1d0
100
AcDbEntity
  8
0
 62
7
100
AcDbSpline
 70
8
 71
3
 72
8
 73
4
 74
0
 40
0
 40
0
 40
0
 40
0
 40
1
 40
1
 40
1
 40
1
 10
156.720000
 20
23.073750
 30
0.0
 10
157.254750
 20
22.858500
 30
0.0
 10
157.528500
 20
22.428750
 30
0.0
 10
157.528500
 20
21.675000
 30
0.0
  0
LWPOLYLINE
  5
1d1
100
AcDbEntity
  8
0
 62
7
100
AcDbPolyline
 90
3
 70
0
 10
152.134500
 20
18.117000
 30
0.0
 10
153.536250
 20
18.117000
 30
0.0
 10
153.536250
 20
21.674250
 30
0.0
  0
SPLINE
  5
1d2
100
AcDbEntity
  8
0
 62
7
100
AcDbSpline
 70
8
 71
3
 72
8
 73
4
 74
0
 40
0
 40
0
 40
0
 40
0
 40
1
 40
1
 40
1
 40
1
 10
163.890000
 20
18.117750
 30
0.0
 10
164.862000
 20
18.116250
 30
0.0
 10
165.398250
 20
17.465250
 30
0.0
 10
165.398250
 20
16.227000
 30
0.0
  0
LWPOLYLINE
  5
1d3
100
AcDbEntity
  8
0
 62
7
100
AcDbPolyline
 90
3
 70
0
 10
157.528500
 20
21.675000
 30
0.0
 10
157.528500
 20
18.117750
 30
0.0
 10
163.890000
 20
18.117750
 30
0.0
  0
SPLINE
  5
1d4
100
AcDbEntity
  8
0
 62
7
100
AcDbSpline
 70
8
 71
3
 72
8
 73
4
 74
0
 40
0
 40
0
 40
0
 40
0
 40
1
 40
1
 40
1
 40
1
 10
108.252000
 20
14.934000
 30
0.0
 10
107.553750
 20
14.879250
 30
0.0
 10
107.229000
 20
14.879250
 30
0.0
 10
107.283750
 20
14.879250
 30
0.0
  0
SPLINE
  5
1d5
100
AcDbEntity
  8
0
 62
7
100
AcDbSpline
 70
8
 71
3
 72
8
 73
4
 74
0
 40
0
 40
0
 40
0
 40
0
 40
1
 40
1
 40
1
 40
1
 10
107.283750
 20
14.879250
 30
0.0
 10
103.293000
 20
14.879250
 30
0.0
 10
101.246250
 20
14.175750
 30
0.0
 10
101.246250
 20
12.778500
 30
0.0
  0
LWPOLYLINE
  5
1d6
100
AcDbEntity
  8
0
 62
7
100
AcDbPolyline
 90
3
 70
0
 10
109.869750
 20
18.273750
 30
0.0
 10
109.869750
 20
14.934000
 30
0.0
 10
108.252000
 20
14.934000
 30
0.0
  0
SPLINE
  5
1d7
100
AcDbEntity
  8
0
 62
7
100
AcDbSpline
 70
8
 71
3
 72
8
 73
4
 74
0
 40
0
 40
0
 40
0
 40
0
 40
1
 40
1
 40
1
 40
1
 10
101.406750
 20
7.169250
 30
0.0
 10
101.246250
 20
4.686750
 30
0.0
 10
103.293000
 20
3.393750
 30
0.0
 10
107.499000
 20
3.393750
 30
0.0
  0
LWPOLYLINE
  5
1d8
100
AcDbEntity
  8
0
 62
7
100
AcDbPolyline
 90
5
 70
0
 10
101.246250
 20
12.778500
 30
0.0
 10
101.246250
 20
10.672500
 30
0.0
 10
109.869750
 20
10.672500
 30
0.0
 10
109.869750
 20
7.169250
 30
0.0
 10
101.406750
 20
7.169250
 30
0.0
  0
SPLINE
  5
1d9
100
AcDbEntity
  8
0
 62
7
100
AcDbSpline
 70
8
 71
3
 72
8
 73
4
 74
0
 40
0
 40
0
 40
0
 40
0
 40
1
 40
1
 40
1
 40
1
 10
109.869750
 20
0.107250
 30
0.0
 10
109.760250
 20
0.053250
 30
0.0
 10
109.657500
 20
0.053250
 30
0.0
 10
109.548750
 20
0.053250
 30
0.0
  0
SPLINE
  5
1da
100
AcDbEntity
  8
0
 62
7
100
AcDbSpline
 70
8
 71
3
 72
8
 73
4
 74
0
 40
0
 40
0
 40
0
 40
0
 40
1
 40
1
 40
1
 40
1
 10
109.548750
 20
0.053250
 30
0.0
 10
106.959750
 20
0.053250
 30
0.0
 10
105.237000
 20
0.107250
 30
0.0
 10
104.319000
 20
0.215250
 30
0.0
  0
SPLINE
  5
1db
100
AcDbEntity
  8
0
 62
7
100
AcDbSpline
 70
8
 71
3
 72
8
 73
4
 74
0
 40
0
 40
0
 40
0
 40
0
 40
1
 40
1
 40
1
 40
1
 10
104.319000
 20
0.215250
 30
0.0
 10
102.108750
 20
0.429750
 30
0.0
 10
100.488750
 20
0.917250
 30
0.0
 10
99.468750
 20
1.777500
 30
0.0
  0
SPLINE
  5
1dc
100
AcDbEntity
  8
0
 62
7
100
AcDbSpline
 70
8
 71
3
 72
8
 73
4
 74
0
 40
0
 40
0
 40
0
 40
0
 40
1
 40
1
 40
1
 40
1
 10
99.468750
 20
1.777500
 30
0.0
 10
98.011500
 20
2.910000
 30
0.0
 10
97.254750
 20
4.260000
 30
0.0
 10
97.254750
 20
5.822250
 30
0.0
  0
LWPOLYLINE
  5
1dd
100
AcDbEntity
  8
0
 62
7
100
AcDbPolyline
 90
3
 70
0
 10
107.499000
 20
3.393750
 30
0.0
 10
109.869750
 20
3.393750
 30
0.0
 10
109.869750
 20
0.107250
 30
0.0
  0
SPLINE
  5
1de
100
AcDbEntity
  8
0
 62
7
100
AcDbSpline
 70
8
 71
3
 72
8
 73
4
 74
0
 40
0
 40
0
 40
0
 40
0
 40
1
 40
1
 40
1
 40
1
 10
97.254750
 20
12.506250
 30
0.0
 10
97.254750
 20
14.609250
 30
0.0
 10
98.387250
 20
16.172250
 30
0.0
 10
100.707000
 20
17.141250
 30
0.0
  0
SPLINE
  5
1df
100
AcDbEntity
  8
0
 62
7
100
AcDbSpline
 70
8
 71
3
 72
8
 73
4
 74
0
 40
0
 40
0
 40
0
 40
0
 40
1
 40
1
 40
1
 40
1
 10
100.707000
 20
17.141250
 30
0.0
 10
102.375750
 20
17.898000
 30
0.0
 10
104.424750
 20
18.274500
 30
0.0
 10
106.853250
 20
18.274500
 30
0.0
  0
LWPOLYLINE
  5
1e0
100
AcDbEntity
  8
0
 62
7
100
AcDbPolyline
 90
2
 70
0
 10
97.254750
 20
5.822250
 30
0.0
 10
97.254750
 20
12.506250
 30
0.0
  0
LWPOLYLINE
  5
1e1
100
AcDbEntity
  8
0
 62
7
100
AcDbPolyline
 90
3
 70
0
 10
106.853250
 20
18.274500
 30
0.0
 10
109.869750
 20
18.274500
 30
0.0
 10
109.869750
 20
18.273750
 30
0.0
  0
SPLINE
  5
1e2
100
AcDbEntity
  8
0
 62
7
100
AcDbSpline
 70
8
 71
3
 72
8
 73
4
 74
0
 40
0
 40
0
 40
0
 40
0
 40
1
 40
1
 40
1
 40
1
 10
84.694500
 20
3.450750
 30
0.0
 10
88.791000
 20
3.450750
 30
0.0
 10
90.841500
 20
4.201500
 30
0.0
 10
90.841500
 20
5.713500
 30
0.0
  0
LWPOLYLINE
  5
1e3
100
AcDbEntity
  8
0
 62
7
100
AcDbPolyline
 90
3
 70
0
 10
82.162500
 20
0.053250
 30
0.0
 10
82.162500
 20
3.450750
 30
0.0
 10
84.694500
 20
3.450750
 30
0.0
  0
SPLINE
  5
1e4
100
AcDbEntity
  8
0
 62
7
100
AcDbSpline
 70
8
 71
3
 72
8
 73
4
 74
0
 40
0
 40
0
 40
0
 40
0
 40
1
 40
1
 40
1
 40
1
 10
90.841500
 20
21.673500
 30
0.0
 10
90.841500
 20
22.639500
 30
0.0
 10
91.377000
 20
23.127750
 30
0.0
 10
92.349000
 20
23.127750
 30
0.0
  0
SPLINE
  5
1e5
100
AcDbEntity
  8
0
 62
7
100
AcDbSpline
 70
8
 71
3
 72
8
 73
4
 74
0
 40
0
 40
0
 40
0
 40
0
 40
1
 40
1
 40
1
 40
1
 10
92.349000
 20
23.127750
 30
0.0
 10
93.264000
 20
23.127750
 30
0.0
 10
93.806250
 20
23.127750
 30
0.0
 10
94.020750
 20
23.018250
 30
0.0
  0
SPLINE
  5
1e6
100
AcDbEntity
  8
0
 62
7
100
AcDbSpline
 70
8
 71
3
 72
8
 73
4
 74
0
 40
0
 40
0
 40
0
 40
0
 40
1
 40
1
 40
1
 40
1
 10
94.020750
 20
23.018250
 30
0.0
 10
94.617750
 20
22.857000
 30
0.0
 10
94.886250
 20
22.374000
 30
0.0
 10
94.886250
 20
21.673500
 30
0.0
  0
LWPOLYLINE
  5
1e7
100
AcDbEntity
  8
0
 62
7
100
AcDbPolyline
 90
6
 70
0
 10
90.841500
 20
5.713500
 30
0.0
 10
90.841500
 20
14.769750
 30
0.0
 10
82.162500
 20
14.769750
 30
0.0
 10
82.162500
 20
18.116250
 30
0.0
 10
90.841500
 20
18.116250
 30
0.0
 10
90.841500
 20
21.673500
 30
0.0
  0
SPLINE
  5
1e8
100
AcDbEntity
  8
0
 62
7
100
AcDbSpline
 70
8
 71
3
 72
8
 73
4
 74
0
 40
0
 40
0
 40
0
 40
0
 40
1
 40
1
 40
1
 40
1
 10
94.886250
 20
5.658000
 30
0.0
 10
94.886250
 20
3.720750
 30
0.0
 10
93.642000
 20
2.264250
 30
0.0
 10
91.165500
 20
1.236750
 30
0.0
  0
SPLINE
  5
1e9
100
AcDbEntity
  8
0
 62
7
100
AcDbSpline
 70
8
 71
3
 72
8
 73
4
 74
0
 40
0
 40
0
 40
0
 40
0
 40
1
 40
1
 40
1
 40
1
 10
91.165500
 20
1.236750
 30
0.0
 10
89.330250
 20
0.429000
 30
0.0
 10
87.283500
 20
0.052500
 30
0.0
 10
85.070250
 20
0.052500
 30
0.0
  0
LWPOLYLINE
  5
1ea
100
AcDbEntity
  8
0
 62
7
100
AcDbPolyline
 90
2
 70
0
 10
94.886250
 20
21.673500
 30
0.0
 10
94.886250
 20
5.658000
 30
0.0
  0
SPLINE
  5
1eb
100
AcDbEntity
  8
0
 62
7
100
AcDbSpline
 70
8
 71
3
 72
8
 73
4
 74
0
 40
0
 40
0
 40
0
 40
0
 40
1
 40
1
 40
1
 40
1
 10
23.019750
 20
5.286750
 30
0.0
 10
23.019750
 20
1.777500
 30
0.0
 10
20.379000
 20
0.053250
 30
0.0
 10
15.098250
 20
0.053250
 30
0.0
  0
LWPOLYLINE
  5
1ec
100
AcDbEntity
  8
0
 62
7
100
AcDbPolyline
 90
3
 70
0
 10
85.070250
 20
0.052500
 30
0.0
 10
82.162500
 20
0.052500
 30
0.0
 10
82.162500
 20
0.053250
 30
0.0
  0
SPLINE
  5
1ed
100
AcDbEntity
  8
0
 62
7
100
AcDbSpline
 70
8
 71
3
 72
8
 73
4
 74
0
 40
0
 40
0
 40
0
 40
0
 40
1
 40
1
 40
1
 40
1
 10
1.566000
 20
0.053250
 30
0.0
 10
0.593250
 20
0.053250
 30
0.0
 10
0.109500
 20
0.538500
 30
0.0
 10
0.109500
 20
1.565250
 30
0.0
  0
SPLINE
  5
1ee
100
AcDbEntity
  8
0
 62
7
100
AcDbSpline
 70
8
 71
3
 72
8
 73
4
 74
0
 40
0
 40
0
 40
0
 40
0
 40
1
 40
1
 40
1
 40
1
 10
0.109500
 20
1.565250
 30
0.0
 10
0.109500
 20
2.802000
 30
0.0
 10
0.593250
 20
3.451500
 30
0.0
 10
1.566000
 20
3.451500
 30
0.0
  0
LWPOLYLINE
  5
1ef
100
AcDbEntity
  8
0
 62
7
100
AcDbPolyline
 90
2
 70
0
 10
15.098250
 20
0.053250
 30
0.0
 10
1.566000
 20
0.053250
 30
0.0
  0
SPLINE
  5
1f0
100
AcDbEntity
  8
0
 62
7
100
AcDbSpline
 70
8
 71
3
 72
8
 73
4
 74
0
 40
0
 40
0
 40
0
 40
0
 40
1
 40
1
 40
1
 40
1
 10
15.150000
 20
3.451500
 30
0.0
 10
17.632500
 20
3.451500
 30
0.0
 10
18.871500
 20
4.041750
 30
0.0
 10
18.871500
 20
5.286750
 30
0.0
  0
LWPOLYLINE
  5
1f1
100
AcDbEntity
  8
0
 62
7
100
AcDbPolyline
 90
2
 70
0
 10
1.566000
 20
3.451500
 30
0.0
 10
15.150000
 20
3.451500
 30
0.0
  0
SPLINE
  5
1f2
100
AcDbEntity
  8
0
 62
7
100
AcDbSpline
 70
8
 71
3
 72
8
 73
4
 74
0
 40
0
 40
0
 40
0
 40
0
 40
1
 40
1
 40
1
 40
1
 10
18.871500
 20
5.928000
 30
0.0
 10
18.871500
 20
7.060500
 30
0.0
 10
17.735250
 20
7.599750
 30
0.0
 10
15.473250
 20
7.599750
 30
0.0
  0
LWPOLYLINE
  5
1f3
100
AcDbEntity
  8
0
 62
7
100
AcDbPolyline
 90
2
 70
0
 10
18.871500
 20
5.286750
 30
0.0
 10
18.871500
 20
5.928000
 30
0.0
  0
SPLINE
  5
1f4
100
AcDbEntity
  8
0
 62
7
100
AcDbSpline
 70
8
 71
3
 72
8
 73
4
 74
0
 40
0
 40
0
 40
0
 40
0
 40
1
 40
1
 40
1
 40
1
 10
8.951250
 20
7.599750
 30
0.0
 10
2.964750
 20
7.600500
 30
0.0
 10
0.000000
 20
9.270750
 30
0.0
 10
0.000000
 20
12.614250
 30
0.0
  0
LWPOLYLINE
  5
1f5
100
AcDbEntity
  8
0
 62
7
100
AcDbPolyline
 90
2
 70
0
 10
15.473250
 20
7.599750
 30
0.0
 10
8.951250
 20
7.599750
 30
0.0
  0
SPLINE
  5
1f6
100
AcDbEntity
  8
0
 62
7
100
AcDbSpline
 70
8
 71
3
 72
8
 73
4
 74
0
 40
0
 40
0
 40
0
 40
0
 40
1
 40
1
 40
1
 40
1
 10
0.000000
 20
13.586250
 30
0.0
 10
0.000000
 20
15.796500
 30
0.0
 10
1.508250
 20
17.250000
 30
0.0
 10
4.581750
 20
17.897250
 30
0.0
  0
SPLINE
  5
1f7
100
AcDbEntity
  8
0
 62
7
100
AcDbSpline
 70
8
 71
3
 72
8
 73
4
 74
0
 40
0
 40
0
 40
0
 40
0
 40
1
 40
1
 40
1
 40
1
 10
4.581750
 20
17.897250
 30
0.0
 10
5.768250
 20
18.116250
 30
0.0
 10
8.142750
 20
18.273750
 30
0.0
 10
11.591250
 20
18.273750
 30
0.0
  0
SPLINE
  5
1f8
100
AcDbEntity
  8
0
 62
7
100
AcDbSpline
 70
8
 71
3
 72
8
 73
4
 74
0
 40
0
 40
0
 40
0
 40
0
 40
1
 40
1
 40
1
 40
1
 10
11.591250
 20
18.273750
 30
0.0
 10
12.563250
 20
18.273750
 30
0.0
 10
13.044750
 20
17.733750
 30
0.0
 10
13.044750
 20
16.764750
 30
0.0
  0
LWPOLYLINE
  5
1f9
100
AcDbEntity
  8
0
 62
7
100
AcDbPolyline
 90
2
 70
0
 10
0.000000
 20
12.614250
 30
0.0
 10
0.000000
 20
13.586250
 30
0.0
  0
SPLINE
  5
1fa
100
AcDbEntity
  8
0
 62
7
100
AcDbSpline
 70
8
 71
3
 72
8
 73
4
 74
0
 40
0
 40
0
 40
0
 40
0
 40
1
 40
1
 40
1
 40
1
 10
13.044750
 20
16.332750
 30
0.0
 10
13.044750
 20
15.363000
 30
0.0
 10
12.563250
 20
14.879250
 30
0.0
 10
11.591250
 20
14.879250
 30
0.0
  0
LWPOLYLINE
  5
1fb
100
AcDbEntity
  8
0
 62
7
100
AcDbPolyline
 90
2
 70
0
 10
13.044750
 20
16.764750
 30
0.0
 10
13.044750
 20
16.332750
 30
0.0
  0
SPLINE
  5
1fc
100
AcDbEntity
  8
0
 62
7
100
AcDbSpline
 70
8
 71
3
 72
8
 73
4
 74
0
 40
0
 40
0
 40
0
 40
0
 40
1
 40
1
 40
1
 40
1
 10
8.682000
 20
14.879250
 30
0.0
 10
7.224750
 20
14.879250
 30
0.0
 10
6.308250
 20
14.879250
 30
0.0
 10
5.984250
 20
14.825250
 30
0.0
  0
SPLINE
  5
1fd
100
AcDbEntity
  8
0
 62
7
100
AcDbSpline
 70
8
 71
3
 72
8
 73
4
 74
0
 40
0
 40
0
 40
0
 40
0
 40
1
 40
1
 40
1
 40
1
 10
5.984250
 20
14.825250
 30
0.0
 10
4.632750
 20
14.664750
 30
0.0
 10
3.991500
 20
14.286750
 30
0.0
 10
3.991500
 20
13.587000
 30
0.0
  0
LWPOLYLINE
  5
1fe
100
AcDbEntity
  8
0
 62
7
100
AcDbPolyline
 90
2
 70
0
 10
11.591250
 20
14.879250
 30
0.0
 10
8.682000
 20
14.879250
 30
0.0
  0
SPLINE
  5
1ff
100
AcDbEntity
  8
0
 62
7
100
AcDbSpline
 70
8
 71
3
 72
8
 73
4
 74
0
 40
0
 40
0
 40
0
 40
0
 40
1
 40
1
 40
1
 40
1
 10
3.991500
 20
12.615000
 30
0.0
 10
3.991500
 20
11.857500
 30
0.0
 10
4.690500
 20
11.377500
 30
0.0
 10
6.038250
 20
11.158500
 30
0.0
  0
SPLINE
  5
200
100
AcDbEntity
  8
0
 62
7
100
AcDbSpline
 70
8
 71
3
 72
8
 73
4
 74
0
 40
0
 40
0
 40
0
 40
0
 40
1
 40
1
 40
1
 40
1
 10
6.038250
 20
11.158500
 30
0.0
 10
6.577500
 20
11.049000
 30
0.0
 10
7.545750
 20
11.001000
 30
0.0
 10
9.005250
 20
11.001000
 30
0.0
  0
LWPOLYLINE
  5
201
100
AcDbEntity
  8
0
 62
7
100
AcDbPolyline
 90
2
 70
0
 10
3.991500
 20
13.587000
 30
0.0
 10
3.991500
 20
12.615000
 30
0.0
  0
SPLINE
  5
202
100
AcDbEntity
  8
0
 62
7
100
AcDbSpline
 70
8
 71
3
 72
8
 73
4
 74
0
 40
0
 40
0
 40
0
 40
0
 40
1
 40
1
 40
1
 40
1
 10
15.636750
 20
11.001000
 30
0.0
 10
20.539500
 20
11.001000
 30
0.0
 10
23.019750
 20
9.378000
 30
0.0
 10
23.019750
 20
6.093000
 30
0.0
  0
LWPOLYLINE
  5
203
100
AcDbEntity
  8
0
 62
7
100
AcDbPolyline
 90
2
 70
0
 10
9.005250
 20
11.001000
 30
0.0
 10
15.636750
 20
11.001000
 30
0.0
  0
LWPOLYLINE
  5
204
100
AcDbEntity
  8
0
 62
7
100
AcDbPolyline
 90
3
 70
0
 10
23.019750
 20
6.093000
 30
0.0
 10
23.019750
 20
5.286750
 30
0.0
 10
23.019750
 20
5.286750
 30
0.0
  0
SPLINE
  5
205
100
AcDbEntity
  8
0
 62
7
100
AcDbSpline
 70
8
 71
3
 72
8
 73
4
 74
0
 40
0
 40
0
 40
0
 40
0
 40
1
 40
1
 40
1
 40
1
 10
78.820500
 20
14.769750
 30
0.0
 10
75.207750
 20
14.769750
 30
0.0
 10
73.427250
 20
13.962750
 30
0.0
 10
73.427250
 20
12.399750
 30
0.0
  0
LWPOLYLINE
  5
206
100
AcDbEntity
  8
0
 62
7
100
AcDbPolyline
 90
3
 70
0
 10
82.162500
 20
18.116250
 30
0.0
 10
82.162500
 20
14.769750
 30
0.0
 10
78.820500
 20
14.769750
 30
0.0
  0
SPLINE
  5
207
100
AcDbEntity
  8
0
 62
7
100
AcDbSpline
 70
8
 71
3
 72
8
 73
4
 74
0
 40
0
 40
0
 40
0
 40
0
 40
1
 40
1
 40
1
 40
1
 10
73.427250
 20
5.928000
 30
0.0
 10
73.427250
 20
4.742250
 30
0.0
 10
74.129250
 20
3.986250
 30
0.0
 10
75.477000
 20
3.665250
 30
0.0
  0
SPLINE
  5
208
100
AcDbEntity
  8
0
 62
7
100
AcDbSpline
 70
8
 71
3
 72
8
 73
4
 74
0
 40
0
 40
0
 40
0
 40
0
 40
1
 40
1
 40
1
 40
1
 10
75.477000
 20
3.665250
 30
0.0
 10
76.067250
 20
3.502500
 30
0.0
 10
77.203500
 20
3.450750
 30
0.0
 10
78.930000
 20
3.450750
 30
0.0
  0
LWPOLYLINE
  5
209
100
AcDbEntity
  8
0
 62
7
100
AcDbPolyline
 90
2
 70
0
 10
73.427250
 20
12.399750
 30
0.0
 10
73.427250
 20
5.928000
 30
0.0
  0
SPLINE
  5
20a
100
AcDbEntity
  8
0
 62
7
100
AcDbSpline
 70
8
 71
3
 72
8
 73
4
 74
0
 40
0
 40
0
 40
0
 40
0
 40
1
 40
1
 40
1
 40
1
 10
78.981000
 20
0.053250
 30
0.0
 10
72.724500
 20
0.053250
 30
0.0
 10
69.490500
 20
1.777500
 30
0.0
 10
69.384750
 20
5.228250
 30
0.0
  0
SPLINE
  5
20b
100
AcDbEntity
  8
0
 62
7
100
AcDbSpline
 70
8
 71
3
 72
8
 73
4
 74
0
 40
0
 40
0
 40
0
 40
0
 40
1
 40
1
 40
1
 40
1
 10
69.384750
 20
5.228250
 30
0.0
 10
69.330750
 20
7.114500
 30
0.0
 10
69.330750
 20
9.543000
 30
0.0
 10
69.438750
 20
12.453750
 30
0.0
  0
SPLINE
  5
20c
100
AcDbEntity
  8
0
 62
7
100
AcDbSpline
 70
8
 71
3
 72
8
 73
4
 74
0
 40
0
 40
0
 40
0
 40
0
 40
1
 40
1
 40
1
 40
1
 10
69.438750
 20
12.453750
 30
0.0
 10
69.548250
 20
16.226250
 30
0.0
 10
72.724500
 20
18.116250
 30
0.0
 10
78.930000
 20
18.116250
 30
0.0
  0
LWPOLYLINE
  5
20d
100
AcDbEntity
  8
0
 62
7
100
AcDbPolyline
 90
4
 70
0
 10
78.930000
 20
3.450750
 30
0.0
 10
82.162500
 20
3.450750
 30
0.0
 10
82.162500
 20
0.053250
 30
0.0
 10
78.981000
 20
0.053250
 30
0.0
  0
SPLINE
  5
20e
100
AcDbEntity
  8
0
 62
7
100
AcDbSpline
 70
8
 71
3
 72
8
 73
4
 74
0
 40
0
 40
0
 40
0
 40
0
 40
1
 40
1
 40
1
 40
1
 10
38.762250
 20
16.227000
 30
0.0
 10
38.762250
 20
15.258000
 30
0.0
 10
38.277750
 20
14.770500
 30
0.0
 10
37.254000
 20
14.770500
 30
0.0
  0
LWPOLYLINE
  5
20f
100
AcDbEntity
  8
0
 62
7
100
AcDbPolyline
 90
3
 70
0
 10
78.930000
 20
18.116250
 30
0.0
 10
82.162500
 20
18.116250
 30
0.0
 10
82.162500
 20
18.116250
 30
0.0
  0
SPLINE
  5
210
100
AcDbEntity
  8
0
 62
7
100
AcDbSpline
 70
8
 71
3
 72
8
 73
4
 74
0
 40
0
 40
0
 40
0
 40
0
 40
1
 40
1
 40
1
 40
1
 10
30.946500
 20
1.566000
 30
0.0
 10
30.946500
 20
0.540000
 30
0.0
 10
30.459750
 20
0.054000
 30
0.0
 10
29.433000
 20
0.054000
 30
0.0
  0
SPLINE
  5
211
100
AcDbEntity
  8
0
 62
7
100
AcDbSpline
 70
8
 71
3
 72
8
 73
4
 74
0
 40
0
 40
0
 40
0
 40
0
 40
1
 40
1
 40
1
 40
1
 10
29.433000
 20
0.054000
 30
0.0
 10
28.521750
 20
0.054000
 30
0.0
 10
27.927750
 20
0.108000
 30
0.0
 10
27.713250
 20
0.216000
 30
0.0
  0
SPLINE
  5
212
100
AcDbEntity
  8
0
 62
7
100
AcDbSpline
 70
8
 71
3
 72
8
 73
4
 74
0
 40
0
 40
0
 40
0
 40
0
 40
1
 40
1
 40
1
 40
1
 10
27.713250
 20
0.216000
 30
0.0
 10
27.171000
 20
0.379500
 30
0.0
 10
26.904750
 20
0.812250
 30
0.0
 10
26.904750
 20
1.566000
 30
0.0
  0
LWPOLYLINE
  5
213
100
AcDbEntity
  8
0
 62
7
100
AcDbPolyline
 90
3
 70
0
 10
37.254000
 20
14.770500
 30
0.0
 10
30.946500
 20
14.770500
 30
0.0
 10
30.946500
 20
1.566000
 30
0.0
  0
SPLINE
  5
214
100
AcDbEntity
  8
0
 62
7
100
AcDbSpline
 70
8
 71
3
 72
8
 73
4
 74
0
 40
0
 40
0
 40
0
 40
0
 40
1
 40
1
 40
1
 40
1
 10
25.499250
 20
14.770500
 30
0.0
 10
24.475500
 20
14.770500
 30
0.0
 10
23.991750
 20
15.310500
 30
0.0
 10
23.991750
 20
16.446000
 30
0.0
  0
SPLINE
  5
215
100
AcDbEntity
  8
0
 62
7
100
AcDbSpline
 70
8
 71
3
 72
8
 73
4
 74
0
 40
0
 40
0
 40
0
 40
0
 40
1
 40
1
 40
1
 40
1
 10
23.991750
 20
16.446000
 30
0.0
 10
23.991750
 20
17.574000
 30
0.0
 10
24.475500
 20
18.117000
 30
0.0
 10
25.499250
 20
18.117000
 30
0.0
  0
LWPOLYLINE
  5
216
100
AcDbEntity
  8
0
 62
7
100
AcDbPolyline
 90
3
 70
0
 10
26.904750
 20
1.566000
 30
0.0
 10
26.904750
 20
14.770500
 30
0.0
 10
25.499250
 20
14.770500
 30
0.0
  0
SPLINE
  5
217
100
AcDbEntity
  8
0
 62
7
100
AcDbSpline
 70
8
 71
3
 72
8
 73
4
 74
0
 40
0
 40
0
 40
0
 40
0
 40
1
 40
1
 40
1
 40
1
 10
26.904750
 20
21.674250
 30
0.0
 10
26.904750
 20
22.695000
 30
0.0
 10
27.439500
 20
23.183250
 30
0.0
 10
28.412250
 20
23.183250
 30
0.0
  0
SPLINE
  5
218
100
AcDbEntity
  8
0
 62
7
100
AcDbSpline
 70
8
 71
3
 72
8
 73
4
 74
0
 40
0
 40
0
 40
0
 40
0
 40
1
 40
1
 40
1
 40
1
 10
28.412250
 20
23.183250
 30
0.0
 10
29.330250
 20
23.183250
 30
0.0
 10
29.920500
 20
23.129250
 30
0.0
 10
30.135000
 20
23.073750
 30
0.0
  0
SPLINE
  5
219
100
AcDbEntity
  8
0
 62
7
100
AcDbSpline
 70
8
 71
3
 72
8
 73
4
 74
0
 40
0
 40
0
 40
0
 40
0
 40
1
 40
1
 40
1
 40
1
 10
30.135000
 20
23.073750
 30
0.0
 10
30.678000
 20
22.858500
 30
0.0
 10
30.946500
 20
22.428750
 30
0.0
 10
30.946500
 20
21.675000
 30
0.0
  0
LWPOLYLINE
  5
21a
100
AcDbEntity
  8
0
 62
7
100
AcDbPolyline
 90
3
 70
0
 10
25.499250
 20
18.117000
 30
0.0
 10
26.904750
 20
18.117000
 30
0.0
 10
26.904750
 20
21.674250
 30
0.0
  0
SPLINE
  5
21b
100
AcDbEntity
  8
0
 62
7
100
AcDbSpline
 70
8
 71
3
 72
8
 73
4
 74
0
 40
0
 40
0
 40
0
 40
0
 40
1
 40
1
 40
1
 40
1
 10
37.254000
 20
18.117750
 30
0.0
 10
38.277750
 20
18.116250
 30
0.0
 10
38.762250
 20
17.465250
 30
0.0
 10
38.762250
 20
16.227000
 30
0.0
  0
SPLINE
  5
21c
100
AcDbEntity
  8
0
 62
7
100
AcDbSpline
 70
8
 71
3
 72
8
 73
4
 74
0
 40
0
 40
0
 40
0
 40
0
 40
1
 40
1
 40
1
 40
1
 10
66.687000
 20
5.499000
 30
0.0
 10
66.687000
 20
1.830750
 30
0.0
 10
62.805000
 20
0.000000
 30
0.0
 10
55.044000
 20
0.000000
 30
0.0
  0
SPLINE
  5
21d
100
AcDbEntity
  8
0
 62
7
100
AcDbSpline
 70
8
 71
3
 72
8
 73
4
 74
0
 40
0
 40
0
 40
0
 40
0
 40
1
 40
1
 40
1
 40
1
 10
55.044000
 20
0.000000
 30
0.0
 10
54.450000
 20
0.000000
 30
0.0
 10
53.642250
 20
0.000000
 30
0.0
 10
52.724250
 20
0.053250
 30
0.0
  0
LWPOLYLINE
  5
21e
100
AcDbEntity
  8
0
 62
7
100
AcDbPolyline
 90
3
 70
0
 10
30.946500
 20
21.675000
 30
0.0
 10
30.946500
 20
18.117750
 30
0.0
 10
37.254000
 20
18.117750
 30
0.0
  0
SPLINE
  5
21f
100
AcDbEntity
  8
0
 62
7
100
AcDbSpline
 70
8
 71
3
 72
8
 73
4
 74
0
 40
0
 40
0
 40
0
 40
0
 40
1
 40
1
 40
1
 40
1
 10
50.998500
 20
0.053250
 30
0.0
 10
44.475750
 20
0.053250
 30
0.0
 10
41.242500
 20
1.885500
 30
0.0
 10
41.242500
 20
5.499000
 30
0.0
  0
LWPOLYLINE
  5
220
100
AcDbEntity
  8
0
 62
7
100
AcDbPolyline
 90
2
 70
0
 10
52.724250
 20
0.053250
 30
0.0
 10
50.998500
 20
0.053250
 30
0.0
  0
SPLINE
  5
221
100
AcDbEntity
  8
0
 62
7
100
AcDbSpline
 70
8
 71
3
 72
8
 73
4
 74
0
 40
0
 40
0
 40
0
 40
0
 40
1
 40
1
 40
1
 40
1
 10
41.242500
 20
16.764750
 30
0.0
 10
41.242500
 20
17.733750
 30
0.0
 10
41.726250
 20
18.273750
 30
0.0
 10
42.698250
 20
18.273750
 30
0.0
  0
SPLINE
  5
222
100
AcDbEntity
  8
0
 62
7
100
AcDbSpline
 70
8
 71
3
 72
8
 73
4
 74
0
 40
0
 40
0
 40
0
 40
0
 40
1
 40
1
 40
1
 40
1
 10
42.698250
 20
18.273750
 30
0.0
 10
43.668000
 20
18.273750
 30
0.0
 10
44.210250
 20
18.219750
 30
0.0
 10
44.421750
 20
18.116250
 30
0.0
  0
SPLINE
  5
223
100
AcDbEntity
  8
0
 62
7
100
AcDbSpline
 70
8
 71
3
 72
8
 73
4
 74
0
 40
0
 40
0
 40
0
 40
0
 40
1
 40
1
 40
1
 40
1
 10
44.421750
 20
18.116250
 30
0.0
 10
44.960250
 20
17.952000
 30
0.0
 10
45.233250
 20
17.519250
 30
0.0
 10
45.233250
 20
16.764750
 30
0.0
  0
LWPOLYLINE
  5
224
100
AcDbEntity
  8
0
 62
7
100
AcDbPolyline
 90
2
 70
0
 10
41.242500
 20
5.499000
 30
0.0
 10
41.242500
 20
16.764750
 30
0.0
  0
SPLINE
  5
225
100
AcDbEntity
  8
0
 62
7
100
AcDbSpline
 70
8
 71
3
 72
8
 73
4
 74
0
 40
0
 40
0
 40
0
 40
0
 40
1
 40
1
 40
1
 40
1
 10
45.233250
 20
5.499000
 30
0.0
 10
45.233250
 20
4.096500
 30
0.0
 10
47.174250
 20
3.393750
 30
0.0
 10
50.998500
 20
3.393750
 30
0.0
  0
LWPOLYLINE
  5
226
100
AcDbEntity
  8
0
 62
7
100
AcDbPolyline
 90
2
 70
0
 10
45.233250
 20
16.764750
 30
0.0
 10
45.233250
 20
5.499000
 30
0.0
  0
SPLINE
  5
227
100
AcDbEntity
  8
0
 62
7
100
AcDbSpline
 70
8
 71
3
 72
8
 73
4
 74
0
 40
0
 40
0
 40
0
 40
0
 40
1
 40
1
 40
1
 40
1
 10
56.985000
 20
3.393750
 30
0.0
 10
60.706500
 20
3.393750
 30
0.0
 10
62.589750
 20
4.096500
 30
0.0
 10
62.589750
 20
5.443500
 30
0.0
  0
LWPOLYLINE
  5
228
100
AcDbEntity
  8
0
 62
7
100
AcDbPolyline
 90
2
 70
0
 10
50.998500
 20
3.393750
 30
0.0
 10
56.985000
 20
3.393750
 30
0.0
  0
SPLINE
  5
229
100
AcDbEntity
  8
0
 62
7
100
AcDbSpline
 70
8
 71
3
 72
8
 73
4
 74
0
 40
0
 40
0
 40
0
 40
0
 40
1
 40
1
 40
1
 40
1
 10
62.589750
 20
16.764750
 30
0.0
 10
62.589750
 20
17.519250
 30
0.0
 10
62.862750
 20
17.952000
 30
0.0
 10
63.398250
 20
18.116250
 30
0.0
  0
SPLINE
  5
22a
100
AcDbEntity
  8
0
 62
7
100
AcDbSpline
 70
8
 71
3
 72
8
 73
4
 74
0
 40
0
 40
0
 40
0
 40
0
 40
1
 40
1
 40
1
 40
1
 10
63.398250
 20
18.116250
 30
0.0
 10
63.616500
 20
18.219750
 30
0.0
 10
64.206750
 20
18.273750
 30
0.0
 10
65.178750
 20
18.273750
 30
0.0
  0
SPLINE
  5
22b
100
AcDbEntity
  8
0
 62
7
100
AcDbSpline
 70
8
 71
3
 72
8
 73
4
 74
0
 40
0
 40
0
 40
0
 40
0
 40
1
 40
1
 40
1
 40
1
 10
65.178750
 20
18.273750
 30
0.0
 10
66.150750
 20
18.273750
 30
0.0
 10
66.687000
 20
17.733750
 30
0.0
 10
66.687000
 20
16.764750
 30
0.0
  0
LWPOLYLINE
  5
22c
100
AcDbEntity
  8
0
 62
7
100
AcDbPolyline
 90
2
 70
0
 10
62.589750
 20
5.443500
 30
0.0
 10
62.589750
 20
16.764750
 30
0.0
  0
LWPOLYLINE
  5
22d
100
AcDbEntity
  8
0
 62
7
100
AcDbPolyline
 90
3
 70
0
 10
66.687000
 20
16.764750
 30
0.0
 10
66.687000
 20
5.499000
 30
0.0
 10
66.687000
 20
5.499000
 30
0.0
  0
SPLINE
  5
22e
100
AcDbEntity
  8
0
 62
7
100
AcDbSpline
 70
8
 71
3
 72
8
 73
4
 74
0
 40
0
 40
0
 40
0
 40
0
 40
1
 40
1
 40
1
 40
1
 10
236.184750
 20
27.279000
 30
0.0
 10
237.964500
 20
27.279000
 30
0.0
 10
239.148750
 20
27.544500
 30
0.0
 10
239.686500
 20
27.981750
 30
0.0
  0
SPLINE
  5
22f
100
AcDbEntity
  8
0
 62
7
100
AcDbSpline
 70
8
 71
3
 72
8
 73
4
 74
0
 40
0
 40
0
 40
0
 40
0
 40
1
 40
1
 40
1
 40
1
 10
239.686500
 20
27.981750
 30
0.0
 10
240.175500
 20
28.408500
 30
0.0
 10
240.443250
 20
29.166000
 30
0.0
 10
240.443250
 20
30.349500
 30
0.0
  0
SPLINE
  5
230
100
AcDbEntity
  8
0
 62
7
100
AcDbSpline
 70
8
 71
3
 72
8
 73
4
 74
0
 40
0
 40
0
 40
0
 40
0
 40
1
 40
1
 40
1
 40
1
 10
240.443250
 20
30.349500
 30
0.0
 10
240.443250
 20
30.618750
 30
0.0
 10
240.443250
 20
31.105500
 30
0.0
 10
240.389250
 20
31.806000
 30
0.0
  0
SPLINE
  5
231
100
AcDbEntity
  8
0
 62
7
100
AcDbSpline
 70
8
 71
3
 72
8
 73
4
 74
0
 40
0
 40
0
 40
0
 40
0
 40
1
 40
1
 40
1
 40
1
 10
240.389250
 20
31.806000
 30
0.0
 10
240.389250
 20
32.509500
 30
0.0
 10
240.336750
 20
33.046500
 30
0.0
 10
240.336750
 20
33.532500
 30
0.0
  0
LWPOLYLINE
  5
232
100
AcDbEntity
  8
0
 62
7
100
AcDbPolyline
 90
3
 70
0
 10
231.114750
 20
23.936250
 30
0.0
 10
231.114750
 20
27.279000
 30
0.0
 10
236.184750
 20
27.279000
 30
0.0
  0
SPLINE
  5
233
100
AcDbEntity
  8
0
 62
7
100
AcDbSpline
 70
8
 71
3
 72
8
 73
4
 74
0
 40
0
 40
0
 40
0
 40
0
 40
1
 40
1
 40
1
 40
1
 10
240.444000
 20
36.871500
 30
0.0
 10
240.226500
 20
38.168250
 30
0.0
 10
238.398000
 20
38.816250
 30
0.0
 10
234.996750
 20
38.816250
 30
0.0
  0
SPLINE
  5
234
100
AcDbEntity
  8
0
 62
7
100
AcDbSpline
 70
8
 71
3
 72
8
 73
4
 74
0
 40
0
 40
0
 40
0
 40
0
 40
1
 40
1
 40
1
 40
1
 10
234.996750
 20
38.816250
 30
0.0
 10
234.621750
 20
38.816250
 30
0.0
 10
234.189000
 20
38.816250
 30
0.0
 10
233.650500
 20
38.760750
 30
0.0
  0
LWPOLYLINE
  5
235
100
AcDbEntity
  8
0
 62
7
100
AcDbPolyline
 90
4
 70
0
 10
240.336750
 20
33.532500
 30
0.0
 10
231.115500
 20
33.532500
 30
0.0
 10
231.115500
 20
36.871500
 30
0.0
 10
240.444000
 20
36.871500
 30
0.0
  0
SPLINE
  5
236
100
AcDbEntity
  8
0
 62
7
100
AcDbSpline
 70
8
 71
3
 72
8
 73
4
 74
0
 40
0
 40
0
 40
0
 40
0
 40
1
 40
1
 40
1
 40
1
 10
232.682250
 20
38.760750
 30
0.0
 10
231.655500
 20
38.760750
 30
0.0
 10
231.168750
 20
39.246000
 30
0.0
 10
231.168750
 20
40.218000
 30
0.0
  0
LWPOLYLINE
  5
237
100
AcDbEntity
  8
0
 62
7
100
AcDbPolyline
 90
2
 70
0
 10
233.650500
 20
38.760750
 30
0.0
 10
232.682250
 20
38.760750
 30
0.0
  0
SPLINE
  5
238
100
AcDbEntity
  8
0
 62
7
100
AcDbSpline
 70
8
 71
3
 72
8
 73
4
 74
0
 40
0
 40
0
 40
0
 40
0
 40
1
 40
1
 40
1
 40
1
 10
231.168750
 20
40.647000
 30
0.0
 10
231.168750
 20
41.619750
 30
0.0
 10
231.654750
 20
42.103500
 30
0.0
 10
232.625250
 20
42.103500
 30
0.0
  0
SPLINE
  5
239
100
AcDbEntity
  8
0
 62
7
100
AcDbSpline
 70
8
 71
3
 72
8
 73
4
 74
0
 40
0
 40
0
 40
0
 40
0
 40
1
 40
1
 40
1
 40
1
 10
232.625250
 20
42.103500
 30
0.0
 10
236.024250
 20
42.103500
 30
0.0
 10
238.448250
 20
41.943750
 30
0.0
 10
239.956500
 20
41.454750
 30
0.0
  0
SPLINE
  5
23a
100
AcDbEntity
  8
0
 62
7
100
AcDbSpline
 70
8
 71
3
 72
8
 73
4
 74
0
 40
0
 40
0
 40
0
 40
0
 40
1
 40
1
 40
1
 40
1
 10
239.956500
 20
41.454750
 30
0.0
 10
242.871000
 20
40.647000
 30
0.0
 10
244.377000
 20
39.031500
 30
0.0
 10
244.377000
 20
36.550500
 30
0.0
  0
LWPOLYLINE
  5
23b
100
AcDbEntity
  8
0
 62
7
100
AcDbPolyline
 90
2
 70
0
 10
231.168750
 20
40.218000
 30
0.0
 10
231.168750
 20
40.647000
 30
0.0
  0
SPLINE
  5
23c
100
AcDbEntity
  8
0
 62
7
100
AcDbSpline
 70
8
 71
3
 72
8
 73
4
 74
0
 40
0
 40
0
 40
0
 40
0
 40
1
 40
1
 40
1
 40
1
 10
244.377000
 20
29.380500
 30
0.0
 10
244.377000
 20
25.767750
 30
0.0
 10
241.627500
 20
23.935500
 30
0.0
 10
236.184750
 20
23.935500
 30
0.0
  0
LWPOLYLINE
  5
23d
100
AcDbEntity
  8
0
 62
7
100
AcDbPolyline
 90
2
 70
0
 10
244.377000
 20
36.550500
 30
0.0
 10
244.377000
 20
29.380500
 30
0.0
  0
LWPOLYLINE
  5
23e
100
AcDbEntity
  8
0
 62
7
100
AcDbPolyline
 90
2
 70
0
 10
236.184750
 20
23.935500
 30
0.0
 10
231.114750
 20
23.935500
 30
0.0
  0
SPLINE
  5
23f
100
AcDbEntity
  8
0
 62
7
100
AcDbSpline
 70
8
 71
3
 72
8
 73
4
 74
0
 40
0
 40
0
 40
0
 40
0
 40
1
 40
1
 40
1
 40
1
 10
226.158000
 20
33.532500
 30
0.0
 10
225.294750
 20
33.532500
 30
0.0
 10
224.482500
 20
33.372000
 30
0.0
 10
223.568250
 20
33.102750
 30
0.0
  0
SPLINE
  5
240
100
AcDbEntity
  8
0
 62
7
100
AcDbSpline
 70
8
 71
3
 72
8
 73
4
 74
0
 40
0
 40
0
 40
0
 40
0
 40
1
 40
1
 40
1
 40
1
 10
223.568250
 20
33.102750
 30
0.0
 10
222.436500
 20
32.724000
 30
0.0
 10
221.843250
 20
32.184750
 30
0.0
 10
221.843250
 20
31.539750
 30
0.0
  0
LWPOLYLINE
  5
241
100
AcDbEntity
  8
0
 62
7
100
AcDbPolyline
 90
3
 70
0
 10
231.114750
 20
36.871500
 30
0.0
 10
231.114750
 20
33.532500
 30
0.0
 10
226.158000
 20
33.532500
 30
0.0
  0
SPLINE
  5
242
100
AcDbEntity
  8
0
 62
7
100
AcDbSpline
 70
8
 71
3
 72
8
 73
4
 74
0
 40
0
 40
0
 40
0
 40
0
 40
1
 40
1
 40
1
 40
1
 10
221.843250
 20
29.274750
 30
0.0
 10
221.843250
 20
28.571250
 30
0.0
 10
222.436500
 20
28.091250
 30
0.0
 10
223.626750
 20
27.705000
 30
0.0
  0
SPLINE
  5
243
100
AcDbEntity
  8
0
 62
7
100
AcDbSpline
 70
8
 71
3
 72
8
 73
4
 74
0
 40
0
 40
0
 40
0
 40
0
 40
1
 40
1
 40
1
 40
1
 10
223.626750
 20
27.705000
 30
0.0
 10
224.538000
 20
27.441750
 30
0.0
 10
225.405000
 20
27.279000
 30
0.0
 10
226.268250
 20
27.279000
 30
0.0
  0
LWPOLYLINE
  5
244
100
AcDbEntity
  8
0
 62
7
100
AcDbPolyline
 90
2
 70
0
 10
221.843250
 20
31.539750
 30
0.0
 10
221.843250
 20
29.274750
 30
0.0
  0
SPLINE
  5
245
100
AcDbEntity
  8
0
 62
7
100
AcDbSpline
 70
8
 71
3
 72
8
 73
4
 74
0
 40
0
 40
0
 40
0
 40
0
 40
1
 40
1
 40
1
 40
1
 10
226.374750
 20
23.936250
 30
0.0
 10
224.435250
 20
23.936250
 30
0.0
 10
222.599250
 20
24.365250
 30
0.0
 10
220.926750
 20
25.124250
 30
0.0
  0
SPLINE
  5
246
100
AcDbEntity
  8
0
 62
7
100
AcDbSpline
 70
8
 71
3
 72
8
 73
4
 74
0
 40
0
 40
0
 40
0
 40
0
 40
1
 40
1
 40
1
 40
1
 10
220.926750
 20
25.124250
 30
0.0
 10
218.878500
 20
26.142750
 30
0.0
 10
217.854000
 20
27.490500
 30
0.0
 10
217.854000
 20
29.217750
 30
0.0
  0
LWPOLYLINE
  5
247
100
AcDbEntity
  8
0
 62
7
100
AcDbPolyline
 90
4
 70
0
 10
226.268250
 20
27.279000
 30
0.0
 10
231.114750
 20
27.279000
 30
0.0
 10
231.114750
 20
23.936250
 30
0.0
 10
226.374750
 20
23.936250
 30
0.0
  0
SPLINE
  5
248
100
AcDbEntity
  8
0
 62
7
100
AcDbSpline
 70
8
 71
3
 72
8
 73
4
 74
0
 40
0
 40
0
 40
0
 40
0
 40
1
 40
1
 40
1
 40
1
 10
217.854000
 20
31.539750
 30
0.0
 10
217.854000
 20
33.423750
 30
0.0
 10
218.827500
 20
34.825500
 30
0.0
 10
220.819500
 20
35.796750
 30
0.0
  0
SPLINE
  5
249
100
AcDbEntity
  8
0
 62
7
100
AcDbSpline
 70
8
 71
3
 72
8
 73
4
 74
0
 40
0
 40
0
 40
0
 40
0
 40
1
 40
1
 40
1
 40
1
 10
220.819500
 20
35.796750
 30
0.0
 10
222.329250
 20
36.551250
 30
0.0
 10
224.162250
 20
36.872250
 30
0.0
 10
226.268250
 20
36.872250
 30
0.0
  0
LWPOLYLINE
  5
24a
100
AcDbEntity
  8
0
 62
7
100
AcDbPolyline
 90
2
 70
0
 10
217.854000
 20
29.217750
 30
0.0
 10
217.854000
 20
31.539750
 30
0.0
  0
LWPOLYLINE
  5
24b
100
AcDbEntity
  8
0
 62
7
100
AcDbPolyline
 90
3
 70
0
 10
226.268250
 20
36.872250
 30
0.0
 10
231.114750
 20
36.872250
 30
0.0
 10
231.114750
 20
36.871500
 30
0.0
  0
SPLINE
  5
24c
100
AcDbEntity
  8
0
 62
7
100
AcDbSpline
 70
8
 71
3
 72
8
 73
4
 74
0
 40
0
 40
0
 40
0
 40
0
 40
1
 40
1
 40
1
 40
1
 10
120.219750
 20
27.279000
 30
0.0
 10
121.300500
 20
27.279000
 30
0.0
 10
122.272500
 20
27.442500
 30
0.0
 10
123.187500
 20
27.763500
 30
0.0
  0
SPLINE
  5
24d
100
AcDbEntity
  8
0
 62
7
100
AcDbSpline
 70
8
 71
3
 72
8
 73
4
 74
0
 40
0
 40
0
 40
0
 40
0
 40
1
 40
1
 40
1
 40
1
 10
123.187500
 20
27.763500
 30
0.0
 10
124.479750
 20
28.194000
 30
0.0
 10
125.127750
 20
28.790250
 30
0.0
 10
125.127750
 20
29.599500
 30
0.0
  0
LWPOLYLINE
  5
24e
100
AcDbEntity
  8
0
 62
7
100
AcDbPolyline
 90
3
 70
0
 10
116.773500
 20
23.936250
 30
0.0
 10
116.773500
 20
27.279000
 30
0.0
 10
120.219750
 20
27.279000
 30
0.0
  0
SPLINE
  5
24f
100
AcDbEntity
  8
0
 62
7
100
AcDbSpline
 70
8
 71
3
 72
8
 73
4
 74
0
 40
0
 40
0
 40
0
 40
0
 40
1
 40
1
 40
1
 40
1
 10
125.127750
 20
36.605250
 30
0.0
 10
125.127750
 20
38.062500
 30
0.0
 10
123.510750
 20
38.760750
 30
0.0
 10
120.219750
 20
38.760750
 30
0.0
  0
LWPOLYLINE
  5
250
100
AcDbEntity
  8
0
 62
7
100
AcDbPolyline
 90
2
 70
0
 10
125.127750
 20
29.599500
 30
0.0
 10
125.127750
 20
36.605250
 30
0.0
  0
SPLINE
  5
251
100
AcDbEntity
  8
0
 62
7
100
AcDbSpline
 70
8
 71
3
 72
8
 73
4
 74
0
 40
0
 40
0
 40
0
 40
0
 40
1
 40
1
 40
1
 40
1
 10
120.328500
 20
42.104250
 30
0.0
 10
126.257250
 20
42.104250
 30
0.0
 10
129.225000
 20
40.218000
 30
0.0
 10
129.225000
 20
36.337500
 30
0.0
  0
LWPOLYLINE
  5
252
100
AcDbEntity
  8
0
 62
7
100
AcDbPolyline
 90
4
 70
0
 10
120.219750
 20
38.760750
 30
0.0
 10
116.773500
 20
38.760750
 30
0.0
 10
116.773500
 20
42.104250
 30
0.0
 10
120.328500
 20
42.104250
 30
0.0
  0
SPLINE
  5
253
100
AcDbEntity
  8
0
 62
7
100
AcDbSpline
 70
8
 71
3
 72
8
 73
4
 74
0
 40
0
 40
0
 40
0
 40
0
 40
1
 40
1
 40
1
 40
1
 10
129.225000
 20
29.600250
 30
0.0
 10
129.225000
 20
27.546000
 30
0.0
 10
128.201250
 20
26.038500
 30
0.0
 10
126.096750
 20
25.070250
 30
0.0
  0
SPLINE
  5
254
100
AcDbEntity
  8
0
 62
7
100
AcDbSpline
 70
8
 71
3
 72
8
 73
4
 74
0
 40
0
 40
0
 40
0
 40
0
 40
1
 40
1
 40
1
 40
1
 10
126.096750
 20
25.070250
 30
0.0
 10
124.589250
 20
24.315750
 30
0.0
 10
122.648250
 20
23.937000
 30
0.0
 10
120.328500
 20
23.937000
 30
0.0
  0
LWPOLYLINE
  5
255
100
AcDbEntity
  8
0
 62
7
100
AcDbPolyline
 90
2
 70
0
 10
129.225000
 20
36.337500
 30
0.0
 10
129.225000
 20
29.600250
 30
0.0
  0
SPLINE
  5
256
100
AcDbEntity
  8
0
 62
7
100
AcDbSpline
 70
8
 71
3
 72
8
 73
4
 74
0
 40
0
 40
0
 40
0
 40
0
 40
1
 40
1
 40
1
 40
1
 10
143.511000
 20
40.218000
 30
0.0
 10
143.511000
 20
39.246000
 30
0.0
 10
143.023500
 20
38.760750
 30
0.0
 10
142.054500
 20
38.760750
 30
0.0
  0
LWPOLYLINE
  5
257
100
AcDbEntity
  8
0
 62
7
100
AcDbPolyline
 90
3
 70
0
 10
120.328500
 20
23.937000
 30
0.0
 10
116.773500
 20
23.937000
 30
0.0
 10
116.773500
 20
23.936250
 30
0.0
  0
SPLINE
  5
258
100
AcDbEntity
  8
0
 62
7
100
AcDbSpline
 70
8
 71
3
 72
8
 73
4
 74
0
 40
0
 40
0
 40
0
 40
0
 40
1
 40
1
 40
1
 40
1
 10
140.328750
 20
38.760750
 30
0.0
 10
137.258250
 20
38.760750
 30
0.0
 10
135.692250
 20
38.008500
 30
0.0
 10
135.692250
 20
36.445500
 30
0.0
  0
LWPOLYLINE
  5
259
100
AcDbEntity
  8
0
 62
7
100
AcDbPolyline
 90
2
 70
0
 10
142.054500
 20
38.760750
 30
0.0
 10
140.328750
 20
38.760750
 30
0.0
  0
SPLINE
  5
25a
100
AcDbEntity
  8
0
 62
7
100
AcDbSpline
 70
8
 71
3
 72
8
 73
4
 74
0
 40
0
 40
0
 40
0
 40
0
 40
1
 40
1
 40
1
 40
1
 10
135.692250
 20
25.444500
 30
0.0
 10
135.692250
 20
24.690750
 30
0.0
 10
135.423750
 20
24.260250
 30
0.0
 10
134.887500
 20
24.042000
 30
0.0
  0
SPLINE
  5
25b
100
AcDbEntity
  8
0
 62
7
100
AcDbSpline
 70
8
 71
3
 72
8
 73
4
 74
0
 40
0
 40
0
 40
0
 40
0
 40
1
 40
1
 40
1
 40
1
 10
134.887500
 20
24.042000
 30
0.0
 10
134.669250
 20
23.987250
 30
0.0
 10
134.079000
 20
23.936250
 30
0.0
 10
133.161000
 20
23.936250
 30
0.0
  0
SPLINE
  5
25c
100
AcDbEntity
  8
0
 62
7
100
AcDbSpline
 70
8
 71
3
 72
8
 73
4
 74
0
 40
0
 40
0
 40
0
 40
0
 40
1
 40
1
 40
1
 40
1
 10
133.161000
 20
23.936250
 30
0.0
 10
132.134250
 20
23.936250
 30
0.0
 10
131.650500
 20
24.423000
 30
0.0
 10
131.650500
 20
25.444500
 30
0.0
  0
LWPOLYLINE
  5
25d
100
AcDbEntity
  8
0
 62
7
100
AcDbPolyline
 90
2
 70
0
 10
135.692250
 20
36.445500
 30
0.0
 10
135.692250
 20
25.444500
 30
0.0
  0
SPLINE
  5
25e
100
AcDbEntity
  8
0
 62
7
100
AcDbSpline
 70
8
 71
3
 72
8
 73
4
 74
0
 40
0
 40
0
 40
0
 40
0
 40
1
 40
1
 40
1
 40
1
 10
131.704500
 20
36.497250
 30
0.0
 10
131.704500
 20
40.273500
 30
0.0
 10
135.156750
 20
42.104250
 30
0.0
 10
142.054500
 20
42.104250
 30
0.0
  0
SPLINE
  5
25f
100
AcDbEntity
  8
0
 62
7
100
AcDbSpline
 70
8
 71
3
 72
8
 73
4
 74
0
 40
0
 40
0
 40
0
 40
0
 40
1
 40
1
 40
1
 40
1
 10
142.054500
 20
42.104250
 30
0.0
 10
143.023500
 20
42.104250
 30
0.0
 10
143.511000
 20
41.510250
 30
0.0
 10
143.511000
 20
40.218000
 30
0.0
  0
SPLINE
  5
260
100
AcDbEntity
  8
0
 62
7
100
AcDbSpline
 70
8
 71
3
 72
8
 73
4
 74
0
 40
0
 40
0
 40
0
 40
0
 40
1
 40
1
 40
1
 40
1
 10
180.925500
 20
25.444500
 30
0.0
 10
180.925500
 20
24.423750
 30
0.0
 10
180.385500
 20
23.936250
 30
0.0
 10
179.416500
 20
23.936250
 30
0.0
  0
SPLINE
  5
261
100
AcDbEntity
  8
0
 62
7
100
AcDbSpline
 70
8
 71
3
 72
8
 73
4
 74
0
 40
0
 40
0
 40
0
 40
0
 40
1
 40
1
 40
1
 40
1
 10
179.416500
 20
23.936250
 30
0.0
 10
178.499250
 20
23.936250
 30
0.0
 10
177.909000
 20
23.986500
 30
0.0
 10
177.690000
 20
24.042000
 30
0.0
  0
SPLINE
  5
262
100
AcDbEntity
  8
0
 62
7
100
AcDbSpline
 70
8
 71
3
 72
8
 73
4
 74
0
 40
0
 40
0
 40
0
 40
0
 40
1
 40
1
 40
1
 40
1
 10
177.690000
 20
24.042000
 30
0.0
 10
177.203250
 20
24.260250
 30
0.0
 10
176.934000
 20
24.690750
 30
0.0
 10
176.934000
 20
25.444500
 30
0.0
  0
LWPOLYLINE
  5
263
100
AcDbEntity
  8
0
 62
7
100
AcDbPolyline
 90
2
 70
0
 10
131.650500
 20
25.444500
 30
0.0
 10
131.704500
 20
36.497250
 30
0.0
  0
SPLINE
  5
264
100
AcDbEntity
  8
0
 62
7
100
AcDbSpline
 70
8
 71
3
 72
8
 73
4
 74
0
 40
0
 40
0
 40
0
 40
0
 40
1
 40
1
 40
1
 40
1
 10
176.934000
 20
36.660750
 30
0.0
 10
176.934000
 20
38.112750
 30
0.0
 10
175.211250
 20
38.816250
 30
0.0
 10
171.813750
 20
38.816250
 30
0.0
  0
SPLINE
  5
265
100
AcDbEntity
  8
0
 62
7
100
AcDbSpline
 70
8
 71
3
 72
8
 73
4
 74
0
 40
0
 40
0
 40
0
 40
0
 40
1
 40
1
 40
1
 40
1
 10
171.813750
 20
38.816250
 30
0.0
 10
171.489750
 20
38.816250
 30
0.0
 10
171.111000
 20
38.816250
 30
0.0
 10
170.626500
 20
38.760750
 30
0.0
  0
LWPOLYLINE
  5
266
100
AcDbEntity
  8
0
 62
7
100
AcDbPolyline
 90
2
 70
0
 10
176.934000
 20
25.444500
 30
0.0
 10
176.934000
 20
36.660750
 30
0.0
  0
SPLINE
  5
267
100
AcDbEntity
  8
0
 62
7
100
AcDbSpline
 70
8
 71
3
 72
8
 73
4
 74
0
 40
0
 40
0
 40
0
 40
0
 40
1
 40
1
 40
1
 40
1
 10
169.818000
 20
38.760750
 30
0.0
 10
167.123250
 20
38.760750
 30
0.0
 10
165.776250
 20
37.898250
 30
0.0
 10
165.776250
 20
36.119250
 30
0.0
  0
LWPOLYLINE
  5
268
100
AcDbEntity
  8
0
 62
7
100
AcDbPolyline
 90
2
 70
0
 10
170.626500
 20
38.760750
 30
0.0
 10
169.818000
 20
38.760750
 30
0.0
  0
SPLINE
  5
269
100
AcDbEntity
  8
0
 62
7
100
AcDbSpline
 70
8
 71
3
 72
8
 73
4
 74
0
 40
0
 40
0
 40
0
 40
0
 40
1
 40
1
 40
1
 40
1
 10
165.776250
 20
25.445250
 30
0.0
 10
165.776250
 20
24.691500
 30
0.0
 10
165.505500
 20
24.261000
 30
0.0
 10
164.967000
 20
24.042750
 30
0.0
  0
SPLINE
  5
26a
100
AcDbEntity
  8
0
 62
7
100
AcDbSpline
 70
8
 71
3
 72
8
 73
4
 74
0
 40
0
 40
0
 40
0
 40
0
 40
1
 40
1
 40
1
 40
1
 10
164.967000
 20
24.042750
 30
0.0
 10
164.751750
 20
23.988000
 30
0.0
 10
164.158500
 20
23.937000
 30
0.0
 10
163.241250
 20
23.937000
 30
0.0
  0
SPLINE
  5
26b
100
AcDbEntity
  8
0
 62
7
100
AcDbSpline
 70
8
 71
3
 72
8
 73
4
 74
0
 40
0
 40
0
 40
0
 40
0
 40
1
 40
1
 40
1
 40
1
 10
163.241250
 20
23.937000
 30
0.0
 10
162.272250
 20
23.937000
 30
0.0
 10
161.784000
 20
24.423750
 30
0.0
 10
161.784000
 20
25.445250
 30
0.0
  0
LWPOLYLINE
  5
26c
100
AcDbEntity
  8
0
 62
7
100
AcDbPolyline
 90
2
 70
0
 10
165.776250
 20
36.119250
 30
0.0
 10
165.776250
 20
25.445250
 30
0.0
  0
SPLINE
  5
26d
100
AcDbEntity
  8
0
 62
7
100
AcDbSpline
 70
8
 71
3
 72
8
 73
4
 74
0
 40
0
 40
0
 40
0
 40
0
 40
1
 40
1
 40
1
 40
1
 10
161.784000
 20
36.174000
 30
0.0
 10
161.784000
 20
37.254750
 30
0.0
 10
161.355000
 20
37.953750
 30
0.0
 10
160.603500
 20
38.328750
 30
0.0
  0
SPLINE
  5
26e
100
AcDbEntity
  8
0
 62
7
100
AcDbSpline
 70
8
 71
3
 72
8
 73
4
 74
0
 40
0
 40
0
 40
0
 40
0
 40
1
 40
1
 40
1
 40
1
 10
160.603500
 20
38.328750
 30
0.0
 10
160.116750
 20
38.602500
 30
0.0
 10
159.198750
 20
38.761500
 30
0.0
 10
158.011500
 20
38.761500
 30
0.0
  0
LWPOLYLINE
  5
26f
100
AcDbEntity
  8
0
 62
7
100
AcDbPolyline
 90
2
 70
0
 10
161.784000
 20
25.445250
 30
0.0
 10
161.784000
 20
36.174000
 30
0.0
  0
SPLINE
  5
270
100
AcDbEntity
  8
0
 62
7
100
AcDbSpline
 70
8
 71
3
 72
8
 73
4
 74
0
 40
0
 40
0
 40
0
 40
0
 40
1
 40
1
 40
1
 40
1
 10
157.042500
 20
38.761500
 30
0.0
 10
156.503250
 20
38.817000
 30
0.0
 10
156.070500
 20
38.817000
 30
0.0
 10
155.695500
 20
38.817000
 30
0.0
  0
SPLINE
  5
271
100
AcDbEntity
  8
0
 62
7
100
AcDbSpline
 70
8
 71
3
 72
8
 73
4
 74
0
 40
0
 40
0
 40
0
 40
0
 40
1
 40
1
 40
1
 40
1
 10
155.695500
 20
38.817000
 30
0.0
 10
152.243250
 20
38.817000
 30
0.0
 10
150.574500
 20
38.063250
 30
0.0
 10
150.574500
 20
36.606000
 30
0.0
  0
LWPOLYLINE
  5
272
100
AcDbEntity
  8
0
 62
7
100
AcDbPolyline
 90
2
 70
0
 10
158.011500
 20
38.761500
 30
0.0
 10
157.042500
 20
38.761500
 30
0.0
  0
SPLINE
  5
273
100
AcDbEntity
  8
0
 62
7
100
AcDbSpline
 70
8
 71
3
 72
8
 73
4
 74
0
 40
0
 40
0
 40
0
 40
0
 40
1
 40
1
 40
1
 40
1
 10
150.574500
 20
25.445250
 30
0.0
 10
150.574500
 20
24.691500
 30
0.0
 10
150.306000
 20
24.261000
 30
0.0
 10
149.766750
 20
24.042750
 30
0.0
  0
SPLINE
  5
274
100
AcDbEntity
  8
0
 62
7
100
AcDbSpline
 70
8
 71
3
 72
8
 73
4
 74
0
 40
0
 40
0
 40
0
 40
0
 40
1
 40
1
 40
1
 40
1
 10
149.766750
 20
24.042750
 30
0.0
 10
149.548500
 20
23.988000
 30
0.0
 10
148.954500
 20
23.937000
 30
0.0
 10
148.040250
 20
23.937000
 30
0.0
  0
SPLINE
  5
275
100
AcDbEntity
  8
0
 62
7
100
AcDbSpline
 70
8
 71
3
 72
8
 73
4
 74
0
 40
0
 40
0
 40
0
 40
0
 40
1
 40
1
 40
1
 40
1
 10
148.040250
 20
23.937000
 30
0.0
 10
147.014250
 20
23.937000
 30
0.0
 10
146.529750
 20
24.423750
 30
0.0
 10
146.529750
 20
25.445250
 30
0.0
  0
LWPOLYLINE
  5
276
100
AcDbEntity
  8
0
 62
7
100
AcDbPolyline
 90
2
 70
0
 10
150.574500
 20
36.606000
 30
0.0
 10
150.574500
 20
25.445250
 30
0.0
  0
SPLINE
  5
277
100
AcDbEntity
  8
0
 62
7
100
AcDbSpline
 70
8
 71
3
 72
8
 73
4
 74
0
 40
0
 40
0
 40
0
 40
0
 40
1
 40
1
 40
1
 40
1
 10
146.529750
 20
36.174000
 30
0.0
 10
146.529750
 20
40.164000
 30
0.0
 10
149.439000
 20
42.105000
 30
0.0
 10
155.265750
 20
42.105000
 30
0.0
  0
SPLINE
  5
278
100
AcDbEntity
  8
0
 62
7
100
AcDbSpline
 70
8
 71
3
 72
8
 73
4
 74
0
 40
0
 40
0
 40
0
 40
0
 40
1
 40
1
 40
1
 40
1
 10
155.265750
 20
42.105000
 30
0.0
 10
157.687500
 20
42.105000
 30
0.0
 10
159.198750
 20
42.105000
 30
0.0
 10
159.738000
 20
42.051000
 30
0.0
  0
SPLINE
  5
279
100
AcDbEntity
  8
0
 62
7
100
AcDbSpline
 70
8
 71
3
 72
8
 73
4
 74
0
 40
0
 40
0
 40
0
 40
0
 40
1
 40
1
 40
1
 40
1
 10
159.738000
 20
42.051000
 30
0.0
 10
161.193750
 20
41.835750
 30
0.0
 10
162.541500
 20
41.348250
 30
0.0
 10
163.889250
 20
40.596000
 30
0.0
  0
SPLINE
  5
27a
100
AcDbEntity
  8
0
 62
7
100
AcDbSpline
 70
8
 71
3
 72
8
 73
4
 74
0
 40
0
 40
0
 40
0
 40
0
 40
1
 40
1
 40
1
 40
1
 10
163.889250
 20
40.596000
 30
0.0
 10
165.130500
 20
41.349000
 30
0.0
 10
166.530000
 20
41.778750
 30
0.0
 10
168.092250
 20
41.997000
 30
0.0
  0
SPLINE
  5
27b
100
AcDbEntity
  8
0
 62
7
100
AcDbSpline
 70
8
 71
3
 72
8
 73
4
 74
0
 40
0
 40
0
 40
0
 40
0
 40
1
 40
1
 40
1
 40
1
 10
168.092250
 20
41.997000
 30
0.0
 10
168.798000
 20
42.105750
 30
0.0
 10
170.302500
 20
42.105750
 30
0.0
 10
172.567500
 20
42.105750
 30
0.0
  0
SPLINE
  5
27c
100
AcDbEntity
  8
0
 62
7
100
AcDbSpline
 70
8
 71
3
 72
8
 73
4
 74
0
 40
0
 40
0
 40
0
 40
0
 40
1
 40
1
 40
1
 40
1
 10
172.567500
 20
42.105750
 30
0.0
 10
178.121250
 20
42.105750
 30
0.0
 10
180.925500
 20
40.164750
 30
0.0
 10
180.925500
 20
36.174750
 30
0.0
  0
LWPOLYLINE
  5
27d
100
AcDbEntity
  8
0
 62
7
100
AcDbPolyline
 90
2
 70
0
 10
146.529750
 20
25.445250
 30
0.0
 10
146.529750
 20
36.174000
 30
0.0
  0
SPLINE
  5
27e
100
AcDbEntity
  8
0
 62
7
100
AcDbSpline
 70
8
 71
3
 72
8
 73
4
 74
0
 40
0
 40
0
 40
0
 40
0
 40
1
 40
1
 40
1
 40
1
 10
208.796250
 20
29.381250
 30
0.0
 10
208.796250
 20
25.713750
 30
0.0
 10
204.916500
 20
23.882250
 30
0.0
 10
197.153250
 20
23.882250
 30
0.0
  0
SPLINE
  5
27f
100
AcDbEntity
  8
0
 62
7
100
AcDbSpline
 70
8
 71
3
 72
8
 73
4
 74
0
 40
0
 40
0
 40
0
 40
0
 40
1
 40
1
 40
1
 40
1
 10
197.153250
 20
23.882250
 30
0.0
 10
196.563000
 20
23.882250
 30
0.0
 10
195.805500
 20
23.882250
 30
0.0
 10
194.837250
 20
23.936250
 30
0.0
  0
LWPOLYLINE
  5
280
100
AcDbEntity
  8
0
 62
7
100
AcDbPolyline
 90
3
 70
0
 10
180.925500
 20
36.174750
 30
0.0
 10
180.925500
 20
25.444500
 30
0.0
 10
180.925500
 20
25.444500
 30
0.0
  0
SPLINE
  5
281
100
AcDbEntity
  8
0
 62
7
100
AcDbSpline
 70
8
 71
3
 72
8
 73
4
 74
0
 40
0
 40
0
 40
0
 40
0
 40
1
 40
1
 40
1
 40
1
 10
193.106250
 20
23.936250
 30
0.0
 10
186.586500
 20
23.936250
 30
0.0
 10
183.350250
 20
25.713750
 30
0.0
 10
183.350250
 20
29.381250
 30
0.0
  0
LWPOLYLINE
  5
282
100
AcDbEntity
  8
0
 62
7
100
AcDbPolyline
 90
2
 70
0
 10
194.837250
 20
23.936250
 30
0.0
 10
193.106250
 20
23.936250
 30
0.0
  0
SPLINE
  5
283
100
AcDbEntity
  8
0
 62
7
100
AcDbSpline
 70
8
 71
3
 72
8
 73
4
 74
0
 40
0
 40
0
 40
0
 40
0
 40
1
 40
1
 40
1
 40
1
 10
183.350250
 20
40.647000
 30
0.0
 10
183.350250
 20
41.619750
 30
0.0
 10
183.838500
 20
42.103500
 30
0.0
 10
184.858500
 20
42.103500
 30
0.0
  0
SPLINE
  5
284
100
AcDbEntity
  8
0
 62
7
100
AcDbSpline
 70
8
 71
3
 72
8
 73
4
 74
0
 40
0
 40
0
 40
0
 40
0
 40
1
 40
1
 40
1
 40
1
 10
184.858500
 20
42.103500
 30
0.0
 10
185.777250
 20
42.103500
 30
0.0
 10
186.315000
 20
42.103500
 30
0.0
 10
186.586500
 20
41.994750
 30
0.0
  0
SPLINE
  5
285
100
AcDbEntity
  8
0
 62
7
100
AcDbSpline
 70
8
 71
3
 72
8
 73
4
 74
0
 40
0
 40
0
 40
0
 40
0
 40
1
 40
1
 40
1
 40
1
 10
186.586500
 20
41.994750
 30
0.0
 10
187.072500
 20
41.833500
 30
0.0
 10
187.342500
 20
41.401500
 30
0.0
 10
187.342500
 20
40.646250
 30
0.0
  0
LWPOLYLINE
  5
286
100
AcDbEntity
  8
0
 62
7
100
AcDbPolyline
 90
2
 70
0
 10
183.350250
 20
29.381250
 30
0.0
 10
183.350250
 20
40.647000
 30
0.0
  0
SPLINE
  5
287
100
AcDbEntity
  8
0
 62
7
100
AcDbSpline
 70
8
 71
3
 72
8
 73
4
 74
0
 40
0
 40
0
 40
0
 40
0
 40
1
 40
1
 40
1
 40
1
 10
187.342500
 20
29.380500
 30
0.0
 10
187.342500
 20
27.981000
 30
0.0
 10
189.282000
 20
27.278250
 30
0.0
 10
193.107000
 20
27.278250
 30
0.0
  0
LWPOLYLINE
  5
288
100
AcDbEntity
  8
0
 62
7
100
AcDbPolyline
 90
2
 70
0
 10
187.342500
 20
40.646250
 30
0.0
 10
187.342500
 20
29.380500
 30
0.0
  0
SPLINE
  5
289
100
AcDbEntity
  8
0
 62
7
100
AcDbSpline
 70
8
 71
3
 72
8
 73
4
 74
0
 40
0
 40
0
 40
0
 40
0
 40
1
 40
1
 40
1
 40
1
 10
199.097250
 20
27.278250
 30
0.0
 10
202.870500
 20
27.278250
 30
0.0
 10
204.699000
 20
27.981000
 30
0.0
 10
204.699000
 20
29.325000
 30
0.0
  0
LWPOLYLINE
  5
28a
100
AcDbEntity
  8
0
 62
7
100
AcDbPolyline
 90
2
 70
0
 10
193.107000
 20
27.278250
 30
0.0
 10
199.097250
 20
27.278250
 30
0.0
  0
SPLINE
  5
28b
100
AcDbEntity
  8
0
 62
7
100
AcDbSpline
 70
8
 71
3
 72
8
 73
4
 74
0
 40
0
 40
0
 40
0
 40
0
 40
1
 40
1
 40
1
 40
1
 10
204.699000
 20
40.647000
 30
0.0
 10
204.699000
 20
41.402250
 30
0.0
 10
204.969000
 20
41.834250
 30
0.0
 10
205.565250
 20
41.995500
 30
0.0
  0
SPLINE
  5
28c
100
AcDbEntity
  8
0
 62
7
100
AcDbSpline
 70
8
 71
3
 72
8
 73
4
 74
0
 40
0
 40
0
 40
0
 40
0
 40
1
 40
1
 40
1
 40
1
 10
205.565250
 20
41.995500
 30
0.0
 10
205.725750
 20
42.104250
 30
0.0
 10
206.315250
 20
42.104250
 30
0.0
 10
207.291750
 20
42.104250
 30
0.0
  0
SPLINE
  5
28d
100
AcDbEntity
  8
0
 62
7
100
AcDbSpline
 70
8
 71
3
 72
8
 73
4
 74
0
 40
0
 40
0
 40
0
 40
0
 40
1
 40
1
 40
1
 40
1
 10
207.291750
 20
42.104250
 30
0.0
 10
208.260000
 20
42.104250
 30
0.0
 10
208.797000
 20
41.619750
 30
0.0
 10
208.797000
 20
40.647750
 30
0.0
  0
LWPOLYLINE
  5
28e
100
AcDbEntity
  8
0
 62
7
100
AcDbPolyline
 90
2
 70
0
 10
204.699000
 20
29.325000
 30
0.0
 10
204.699000
 20
40.647000
 30
0.0
  0
SPLINE
  5
28f
100
AcDbEntity
  8
0
 62
7
100
AcDbSpline
 70
8
 71
3
 72
8
 73
4
 74
0
 40
0
 40
0
 40
0
 40
0
 40
1
 40
1
 40
1
 40
1
 10
215.265750
 20
25.444500
 30
0.0
 10
215.265750
 20
24.423750
 30
0.0
 10
214.779000
 20
23.936250
 30
0.0
 10
213.755250
 20
23.936250
 30
0.0
  0
SPLINE
  5
290
100
AcDbEntity
  8
0
 62
7
100
AcDbSpline
 70
8
 71
3
 72
8
 73
4
 74
0
 40
0
 40
0
 40
0
 40
0
 40
1
 40
1
 40
1
 40
1
 10
213.755250
 20
23.936250
 30
0.0
 10
212.841750
 20
23.936250
 30
0.0
 10
212.243250
 20
23.986500
 30
0.0
 10
212.031750
 20
24.097500
 30
0.0
  0
SPLINE
  5
291
100
AcDbEntity
  8
0
 62
7
100
AcDbSpline
 70
8
 71
3
 72
8
 73
4
 74
0
 40
0
 40
0
 40
0
 40
0
 40
1
 40
1
 40
1
 40
1
 10
212.031750
 20
24.097500
 30
0.0
 10
211.547250
 20
24.260250
 30
0.0
 10
211.275000
 20
24.690750
 30
0.0
 10
211.275000
 20
25.444500
 30
0.0
  0
LWPOLYLINE
  5
292
100
AcDbEntity
  8
0
 62
7
100
AcDbPolyline
 90
3
 70
0
 10
208.797000
 20
40.647750
 30
0.0
 10
208.797000
 20
29.381250
 30
0.0
 10
208.796250
 20
29.381250
 30
0.0
  0
SPLINE
  5
293
100
AcDbEntity
  8
0
 62
7
100
AcDbSpline
 70
8
 71
3
 72
8
 73
4
 74
0
 40
0
 40
0
 40
0
 40
0
 40
1
 40
1
 40
1
 40
1
 10
211.275000
 20
45.553500
 30
0.0
 10
211.275000
 20
46.579500
 30
0.0
 10
211.761000
 20
47.065500
 30
0.0
 10
212.729250
 20
47.065500
 30
0.0
  0
SPLINE
  5
294
100
AcDbEntity
  8
0
 62
7
100
AcDbSpline
 70
8
 71
3
 72
8
 73
4
 74
0
 40
0
 40
0
 40
0
 40
0
 40
1
 40
1
 40
1
 40
1
 10
212.729250
 20
47.065500
 30
0.0
 10
213.651750
 20
47.065500
 30
0.0
 10
214.242000
 20
47.010750
 30
0.0
 10
214.457250
 20
46.902000
 30
0.0
  0
SPLINE
  5
295
100
AcDbEntity
  8
0
 62
7
100
AcDbSpline
 70
8
 71
3
 72
8
 73
4
 74
0
 40
0
 40
0
 40
0
 40
0
 40
1
 40
1
 40
1
 40
1
 10
214.457250
 20
46.902000
 30
0.0
 10
214.997250
 20
46.737000
 30
0.0
 10
215.265000
 20
46.308750
 30
0.0
 10
215.265000
 20
45.553500
 30
0.0
  0
LWPOLYLINE
  5
296
100
AcDbEntity
  8
0
 62
7
100
AcDbPolyline
 90
2
 70
0
 10
211.275000
 20
25.444500
 30
0.0
 10
211.275000
 20
45.553500
 30
0.0
  0
SPLINE
  5
297
100
AcDbEntity
  8
0
 62
7
100
AcDbSpline
 70
8
 71
3
 72
8
 73
4
 74
0
 40
0
 40
0
 40
0
 40
0
 40
1
 40
1
 40
1
 40
1
 10
102.483750
 20
40.487250
 30
0.0
 10
102.483750
 20
39.246750
 30
0.0
 10
102.003000
 20
38.656500
 30
0.0
 10
101.031750
 20
38.656500
 30
0.0
  0
LWPOLYLINE
  5
298
100
AcDbEntity
  8
0
 62
7
100
AcDbPolyline
 90
3
 70
0
 10
215.265000
 20
45.553500
 30
0.0
 10
215.265000
 20
25.444500
 30
0.0
 10
215.265750
 20
25.444500
 30
0.0
  0
SPLINE
  5
299
100
AcDbEntity
  8
0
 62
7
100
AcDbSpline
 70
8
 71
3
 72
8
 73
4
 74
0
 40
0
 40
0
 40
0
 40
0
 40
1
 40
1
 40
1
 40
1
 10
94.938750
 20
25.445250
 30
0.0
 10
94.938750
 20
24.424500
 30
0.0
 10
94.399500
 20
23.937000
 30
0.0
 10
93.430500
 20
23.937000
 30
0.0
  0
SPLINE
  5
29a
100
AcDbEntity
  8
0
 62
7
100
AcDbSpline
 70
8
 71
3
 72
8
 73
4
 74
0
 40
0
 40
0
 40
0
 40
0
 40
1
 40
1
 40
1
 40
1
 10
93.430500
 20
23.937000
 30
0.0
 10
92.512500
 20
23.937000
 30
0.0
 10
91.919250
 20
23.987250
 30
0.0
 10
91.704750
 20
24.042750
 30
0.0
  0
SPLINE
  5
29b
100
AcDbEntity
  8
0
 62
7
100
AcDbSpline
 70
8
 71
3
 72
8
 73
4
 74
0
 40
0
 40
0
 40
0
 40
0
 40
1
 40
1
 40
1
 40
1
 10
91.704750
 20
24.042750
 30
0.0
 10
91.165500
 20
24.261000
 30
0.0
 10
90.896250
 20
24.691500
 30
0.0
 10
90.896250
 20
25.445250
 30
0.0
  0
LWPOLYLINE
  5
29c
100
AcDbEntity
  8
0
 62
7
100
AcDbPolyline
 90
3
 70
0
 10
101.031750
 20
38.656500
 30
0.0
 10
94.938750
 20
38.656500
 30
0.0
 10
94.938750
 20
25.445250
 30
0.0
  0
SPLINE
  5
29d
100
AcDbEntity
  8
0
 62
7
100
AcDbSpline
 70
8
 71
3
 72
8
 73
4
 74
0
 40
0
 40
0
 40
0
 40
0
 40
1
 40
1
 40
1
 40
1
 10
90.896250
 20
41.675250
 30
0.0
 10
90.896250
 20
45.288000
 30
0.0
 10
93.915000
 20
47.066250
 30
0.0
 10
99.898500
 20
47.066250
 30
0.0
  0
LWPOLYLINE
  5
29e
100
AcDbEntity
  8
0
 62
7
100
AcDbPolyline
 90
2
 70
0
 10
90.896250
 20
25.445250
 30
0.0
 10
90.896250
 20
41.675250
 30
0.0
  0
SPLINE
  5
29f
100
AcDbEntity
  8
0
 62
7
100
AcDbSpline
 70
8
 71
3
 72
8
 73
4
 74
0
 40
0
 40
0
 40
0
 40
0
 40
1
 40
1
 40
1
 40
1
 10
101.031750
 20
47.066250
 30
0.0
 10
101.625000
 20
47.011500
 30
0.0
 10
102.054750
 20
46.848750
 30
0.0
 10
102.273000
 20
46.527000
 30
0.0
  0
SPLINE
  5
2a0
100
AcDbEntity
  8
0
 62
7
100
AcDbSpline
 70
8
 71
3
 72
8
 73
4
 74
0
 40
0
 40
0
 40
0
 40
0
 40
1
 40
1
 40
1
 40
1
 10
102.273000
 20
46.527000
 30
0.0
 10
102.432750
 20
46.254750
 30
0.0
 10
102.483750
 20
45.823500
 30
0.0
 10
102.483750
 20
45.232500
 30
0.0
  0
SPLINE
  5
2a1
100
AcDbEntity
  8
0
 62
7
100
AcDbSpline
 70
8
 71
3
 72
8
 73
4
 74
0
 40
0
 40
0
 40
0
 40
0
 40
1
 40
1
 40
1
 40
1
 10
102.483750
 20
45.232500
 30
0.0
 10
102.483750
 20
44.205750
 30
0.0
 10
102.003000
 20
43.725000
 30
0.0
 10
101.031750
 20
43.725000
 30
0.0
  0
SPLINE
  5
2a2
100
AcDbEntity
  8
0
 62
7
100
AcDbSpline
 70
8
 71
3
 72
8
 73
4
 74
0
 40
0
 40
0
 40
0
 40
0
 40
1
 40
1
 40
1
 40
1
 10
101.031750
 20
43.725000
 30
0.0
 10
99.141000
 20
43.725000
 30
0.0
 10
98.005500
 20
43.667250
 30
0.0
 10
97.524750
 20
43.613250
 30
0.0
  0
SPLINE
  5
2a3
100
AcDbEntity
  8
0
 62
7
100
AcDbSpline
 70
8
 71
3
 72
8
 73
4
 74
0
 40
0
 40
0
 40
0
 40
0
 40
1
 40
1
 40
1
 40
1
 10
97.524750
 20
43.613250
 30
0.0
 10
95.798250
 20
43.398000
 30
0.0
 10
94.993500
 20
42.858750
 30
0.0
 10
94.993500
 20
41.997000
 30
0.0
  0
LWPOLYLINE
  5
2a4
100
AcDbEntity
  8
0
 62
7
100
AcDbPolyline
 90
2
 70
0
 10
99.898500
 20
47.066250
 30
0.0
 10
101.031750
 20
47.066250
 30
0.0
  0
SPLINE
  5
2a5
100
AcDbEntity
  8
0
 62
7
100
AcDbSpline
 70
8
 71
3
 72
8
 73
4
 74
0
 40
0
 40
0
 40
0
 40
0
 40
1
 40
1
 40
1
 40
1
 10
101.031750
 20
41.997000
 30
0.0
 10
102.003000
 20
41.995500
 30
0.0
 10
102.483750
 20
41.510250
 30
0.0
 10
102.483750
 20
40.487250
 30
0.0
  0
LWPOLYLINE
  5
2a6
100
AcDbEntity
  8
0
 62
7
100
AcDbPolyline
 90
2
 70
0
 10
94.993500
 20
41.997000
 30
0.0
 10
101.031750
 20
41.997000
 30
0.0
  0
SPLINE
  5
2a7
100
AcDbEntity
  8
0
 62
7
100
AcDbSpline
 70
8
 71
3
 72
8
 73
4
 74
0
 40
0
 40
0
 40
0
 40
0
 40
1
 40
1
 40
1
 40
1
 10
113.700000
 20
38.760750
 30
0.0
 10
112.509750
 20
38.760750
 30
0.0
 10
111.435750
 20
38.601750
 30
0.0
 10
110.408250
 20
38.328000
 30
0.0
  0
SPLINE
  5
2a8
100
AcDbEntity
  8
0
 62
7
100
AcDbSpline
 70
8
 71
3
 72
8
 73
4
 74
0
 40
0
 40
0
 40
0
 40
0
 40
1
 40
1
 40
1
 40
1
 10
110.408250
 20
38.328000
 30
0.0
 10
109.061250
 20
37.845000
 30
0.0
 10
108.413250
 20
37.198500
 30
0.0
 10
108.413250
 20
36.282000
 30
0.0
  0
LWPOLYLINE
  5
2a9
100
AcDbEntity
  8
0
 62
7
100
AcDbPolyline
 90
3
 70
0
 10
116.773500
 20
42.104250
 30
0.0
 10
116.773500
 20
38.760750
 30
0.0
 10
113.700000
 20
38.760750
 30
0.0
  0
SPLINE
  5
2aa
100
AcDbEntity
  8
0
 62
7
100
AcDbSpline
 70
8
 71
3
 72
8
 73
4
 74
0
 40
0
 40
0
 40
0
 40
0
 40
1
 40
1
 40
1
 40
1
 10
108.413250
 20
29.599500
 30
0.0
 10
108.413250
 20
28.735500
 30
0.0
 10
109.119000
 20
28.091250
 30
0.0
 10
110.517750
 20
27.705750
 30
0.0
  0
SPLINE
  5
2ab
100
AcDbEntity
  8
0
 62
7
100
AcDbSpline
 70
8
 71
3
 72
8
 73
4
 74
0
 40
0
 40
0
 40
0
 40
0
 40
1
 40
1
 40
1
 40
1
 10
110.517750
 20
27.705750
 30
0.0
 10
111.435750
 20
27.442500
 30
0.0
 10
112.509750
 20
27.279750
 30
0.0
 10
113.700000
 20
27.279750
 30
0.0
  0
LWPOLYLINE
  5
2ac
100
AcDbEntity
  8
0
 62
7
100
AcDbPolyline
 90
2
 70
0
 10
108.413250
 20
36.282000
 30
0.0
 10
108.413250
 20
29.599500
 30
0.0
  0
SPLINE
  5
2ad
100
AcDbEntity
  8
0
 62
7
100
AcDbSpline
 70
8
 71
3
 72
8
 73
4
 74
0
 40
0
 40
0
 40
0
 40
0
 40
1
 40
1
 40
1
 40
1
 10
113.642250
 20
23.937000
 30
0.0
 10
111.377250
 20
23.937000
 30
0.0
 10
109.388250
 20
24.315750
 30
0.0
 10
107.714250
 20
25.070250
 30
0.0
  0
SPLINE
  5
2ae
100
AcDbEntity
  8
0
 62
7
100
AcDbSpline
 70
8
 71
3
 72
8
 73
4
 74
0
 40
0
 40
0
 40
0
 40
0
 40
1
 40
1
 40
1
 40
1
 10
107.714250
 20
25.070250
 30
0.0
 10
105.506250
 20
26.038500
 30
0.0
 10
104.370750
 20
27.546000
 30
0.0
 10
104.370750
 20
29.600250
 30
0.0
  0
LWPOLYLINE
  5
2af
100
AcDbEntity
  8
0
 62
7
100
AcDbPolyline
 90
4
 70
0
 10
113.700000
 20
27.279750
 30
0.0
 10
116.773500
 20
27.279750
 30
0.0
 10
116.773500
 20
23.937000
 30
0.0
 10
113.642250
 20
23.937000
 30
0.0
  0
SPLINE
  5
2b0
100
AcDbEntity
  8
0
 62
7
100
AcDbSpline
 70
8
 71
3
 72
8
 73
4
 74
0
 40
0
 40
0
 40
0
 40
0
 40
1
 40
1
 40
1
 40
1
 10
104.370750
 20
36.282750
 30
0.0
 10
104.370750
 20
38.277750
 30
0.0
 10
105.506250
 20
39.840000
 30
0.0
 10
107.714250
 20
40.921500
 30
0.0
  0
SPLINE
  5
2b1
100
AcDbEntity
  8
0
 62
7
100
AcDbSpline
 70
8
 71
3
 72
8
 73
4
 74
0
 40
0
 40
0
 40
0
 40
0
 40
1
 40
1
 40
1
 40
1
 10
107.714250
 20
40.921500
 30
0.0
 10
109.439250
 20
41.727000
 30
0.0
 10
111.435750
 20
42.105000
 30
0.0
 10
113.642250
 20
42.105000
 30
0.0
  0
LWPOLYLINE
  5
2b2
100
AcDbEntity
  8
0
 62
7
100
AcDbPolyline
 90
2
 70
0
 10
104.370750
 20
29.600250
 30
0.0
 10
104.370750
 20
36.282750
 30
0.0
  0
LWPOLYLINE
  5
2b3
100
AcDbEntity
  8
0
 62
7
100
AcDbPolyline
 90
3
 70
0
 10
113.642250
 20
42.105000
 30
0.0
 10
116.773500
 20
42.105000
 30
0.0
 10
116.773500
 20
42.104250
 30
0.0
  0
SPLINE
  5
2b4
100
AcDbEntity
  8
0
 62
7
100
AcDbSpline
 70
8
 71
3
 72
8
 73
4
 74
0
 40
0
 40
0
 40
0
 40
0
 40
1
 40
1
 40
1
 40
1
 10
92.731500
 20
59.685000
 30
0.0
 10
87.299250
 20
44.690250
 30
0.0
 10
71.576250
 20
36.474750
 30
0.0
 10
57.531000
 20
41.258250
 30
0.0
  0
SPLINE
  5
2b5
100
AcDbEntity
  8
0
 62
7
100
AcDbSpline
 70
8
 71
3
 72
8
 73
4
 74
0
 40
0
 40
0
 40
0
 40
0
 40
1
 40
1
 40
1
 40
1
 10
57.531000
 20
41.258250
 30
0.0
 10
43.331250
 20
46.092750
 30
0.0
 10
36.580500
 20
62.977500
 30
0.0
 10
42.182250
 20
78.210750
 30
0.0
  0
SPLINE
  5
2b6
100
AcDbEntity
  8
0
 62
7
100
AcDbSpline
 70
8
 71
3
 72
8
 73
4
 74
0
 40
0
 40
0
 40
0
 40
0
 40
1
 40
1
 40
1
 40
1
 10
42.182250
 20
78.210750
 30
0.0
 10
47.777250
 20
93.446250
 30
0.0
 10
63.831000
 20
101.868000
 30
0.0
 10
77.806500
 20
96.432750
 30
0.0
  0
SPLINE
  5
2b7
100
AcDbEntity
  8
0
 62
7
100
AcDbSpline
 70
8
 71
3
 72
8
 73
4
 74
0
 40
0
 40
0
 40
0
 40
0
 40
1
 40
1
 40
1
 40
1
 10
77.806500
 20
96.432750
 30
0.0
 10
91.473000
 20
91.114500
 30
0.0
 10
98.605500
 20
75.903750
 30
0.0
 10
92.731500
 20
59.685000
 30
0.0
  0
SPLINE
  5
2b8
100
AcDbEntity
  8
0
 62
7
100
AcDbSpline
 70
8
 71
3
 72
8
 73
4
 74
0
 40
0
 40
0
 40
0
 40
0
 40
1
 40
1
 40
1
 40
1
 10
75.978000
 20
89.448750
 30
0.0
 10
64.370250
 20
94.315500
 30
0.0
 10
52.724250
 20
86.455500
 30
0.0
 10
48.929250
 20
75.879000
 30
0.0
  0
SPLINE
  5
2b9
100
AcDbEntity
  8
0
 62
7
100
AcDbSpline
 70
8
 71
3
 72
8
 73
4
 74
0
 40
0
 40
0
 40
0
 40
0
 40
1
 40
1
 40
1
 40
1
 10
48.929250
 20
75.879000
 30
0.0
 10
44.530500
 20
63.615000
 30
0.0
 10
49.840500
 20
51.636000
 30
0.0
 10
59.599500
 20
48.081750
 30
0.0
  0
SPLINE
  5
2ba
100
AcDbEntity
  8
0
 62
7
100
AcDbSpline
 70
8
 71
3
 72
8
 73
4
 74
0
 40
0
 40
0
 40
0
 40
0
 40
1
 40
1
 40
1
 40
1
 10
59.599500
 20
48.081750
 30
0.0
 10
70.266750
 20
44.193000
 30
0.0
 10
82.060500
 20
50.619750
 30
0.0
 10
86.205750
 20
62.352750
 30
0.0
  0
SPLINE
  5
2bb
100
AcDbEntity
  8
0
 62
7
100
AcDbSpline
 70
8
 71
3
 72
8
 73
4
 74
0
 40
0
 40
0
 40
0
 40
0
 40
1
 40
1
 40
1
 40
1
 10
86.205750
 20
62.352750
 30
0.0
 10
90.254250
 20
73.792500
 30
0.0
 10
85.557750
 20
85.432500
 30
0.0
 10
75.978000
 20
89.448750
 30
0.0
  0
SPLINE
  5
2bc
100
AcDbEntity
  8
0
 62
7
100
AcDbSpline
 70
8
 71
3
 72
8
 73
4
 74
0
 40
0
 40
0
 40
0
 40
0
 40
1
 40
1
 40
1
 40
1
 10
289.561500
 20
58.319250
 30
0.0
 10
284.381250
 20
44.244750
 30
0.0
 10
269.829750
 20
36.647250
 30
0.0
 10
257.040750
 20
41.344500
 30
0.0
  0
SPLINE
  5
2bd
100
AcDbEntity
  8
0
 62
7
100
AcDbSpline
 70
8
 71
3
 72
8
 73
4
 74
0
 40
0
 40
0
 40
0
 40
0
 40
1
 40
1
 40
1
 40
1
 10
257.040750
 20
41.344500
 30
0.0
 10
244.255500
 20
46.041750
 30
0.0
 10
238.084500
 20
61.260750
 30
0.0
 10
243.255000
 20
75.333000
 30
0.0
  0
SPLINE
  5
2be
100
AcDbEntity
  8
0
 62
7
100
AcDbSpline
 70
8
 71
3
 72
8
 73
4
 74
0
 40
0
 40
0
 40
0
 40
0
 40
1
 40
1
 40
1
 40
1
 10
243.255000
 20
75.333000
 30
0.0
 10
248.430750
 20
89.407500
 30
0.0
 10
262.989750
 20
97.004250
 30
0.0
 10
275.771250
 20
92.307750
 30
0.0
  0
SPLINE
  5
2bf
100
AcDbEntity
  8
0
 62
7
100
AcDbSpline
 70
8
 71
3
 72
8
 73
4
 74
0
 40
0
 40
0
 40
0
 40
0
 40
1
 40
1
 40
1
 40
1
 10
275.771250
 20
92.307750
 30
0.0
 10
288.558750
 20
87.607500
 30
0.0
 10
294.724500
 20
72.390000
 30
0.0
 10
289.561500
 20
58.319250
 30
0.0
  0
SPLINE
  5
2c0
100
AcDbEntity
  8
0
 62
7
100
AcDbSpline
 70
8
 71
3
 72
8
 73
4
 74
0
 40
0
 40
0
 40
0
 40
0
 40
1
 40
1
 40
1
 40
1
 10
273.623250
 20
85.560000
 30
0.0
 10
263.886750
 20
89.183250
 30
0.0
 10
253.366500
 20
82.698750
 30
0.0
 10
249.783750
 20
72.962250
 30
0.0
  0
SPLINE
  5
2c1
100
AcDbEntity
  8
0
 62
7
100
AcDbSpline
 70
8
 71
3
 72
8
 73
4
 74
0
 40
0
 40
0
 40
0
 40
0
 40
1
 40
1
 40
1
 40
1
 10
249.783750
 20
72.962250
 30
0.0
 10
246.200250
 20
63.212250
 30
0.0
 10
250.227750
 20
51.322500
 30
0.0
 10
259.145250
 20
48.249000
 30
0.0
  0
SPLINE
  5
2c2
100
AcDbEntity
  8
0
 62
7
100
AcDbSpline
 70
8
 71
3
 72
8
 73
4
 74
0
 40
0
 40
0
 40
0
 40
0
 40
1
 40
1
 40
1
 40
1
 10
259.145250
 20
48.249000
 30
0.0
 10
270.002250
 20
44.505750
 30
0.0
 10
278.992500
 20
50.619750
 30
0.0
 10
282.975750
 20
60.854250
 30
0.0
  0
SPLINE
  5
2c3
100
AcDbEntity
  8
0
 62
7
100
AcDbSpline
 70
8
 71
3
 72
8
 73
4
 74
0
 40
0
 40
0
 40
0
 40
0
 40
1
 40
1
 40
1
 40
1
 10
282.975750
 20
60.854250
 30
0.0
 10
286.757250
 20
70.519500
 30
0.0
 10
282.457500
 20
82.275750
 30
0.0
 10
273.623250
 20
85.560000
 30
0.0
  0
SPLINE
  5
2c4
100
AcDbEntity
  8
0
 62
7
100
AcDbSpline
 70
8
 71
3
 72
8
 73
4
 74
0
 40
0
 40
0
 40
0
 40
0
 40
1
 40
1
 40
1
 40
1
 10
182.218500
 20
119.198250
 30
0.0
 10
182.218500
 20
106.560750
 30
0.0
 10
171.974250
 20
96.313500
 30
0.0
 10
159.334500
 20
96.313500
 30
0.0
  0
SPLINE
  5
2c5
100
AcDbEntity
  8
0
 62
7
100
AcDbSpline
 70
8
 71
3
 72
8
 73
4
 74
0
 40
0
 40
0
 40
0
 40
0
 40
1
 40
1
 40
1
 40
1
 10
159.334500
 20
96.313500
 30
0.0
 10
146.693250
 20
96.313500
 30
0.0
 10
136.446000
 20
106.560750
 30
0.0
 10
136.446000
 20
119.198250
 30
0.0
  0
SPLINE
  5
2c6
100
AcDbEntity
  8
0
 62
7
100
AcDbSpline
 70
8
 71
3
 72
8
 73
4
 74
0
 40
0
 40
0
 40
0
 40
0
 40
1
 40
1
 40
1
 40
1
 10
136.446000
 20
119.198250
 30
0.0
 10
136.446000
 20
131.832750
 30
0.0
 10
146.693250
 20
142.083000
 30
0.0
 10
159.334500
 20
142.083000
 30
0.0
  0
SPLINE
  5
2c7
100
AcDbEntity
  8
0
 62
7
100
AcDbSpline
 70
8
 71
3
 72
8
 73
4
 74
0
 40
0
 40
0
 40
0
 40
0
 40
1
 40
1
 40
1
 40
1
 10
159.334500
 20
142.083000
 30
0.0
 10
171.974250
 20
142.083000
 30
0.0
 10
182.218500
 20
131.832750
 30
0.0
 10
182.218500
 20
119.198250
 30
0.0
  0
SPLINE
  5
2c8
100
AcDbEntity
  8
0
 62
7
100
AcDbSpline
 70
8
 71
3
 72
8
 73
4
 74
0
 40
0
 40
0
 40
0
 40
0
 40
1
 40
1
 40
1
 40
1
 10
159.334500
 20
135.044250
 30
0.0
 10
150.582000
 20
135.044250
 30
0.0
 10
143.488500
 20
127.950750
 30
0.0
 10
143.488500
 20
119.198250
 30
0.0
  0
SPLINE
  5
2c9
100
AcDbEntity
  8
0
 62
7
100
AcDbSpline
 70
8
 71
3
 72
8
 73
4
 74
0
 40
0
 40
0
 40
0
 40
0
 40
1
 40
1
 40
1
 40
1
 10
143.488500
 20
119.198250
 30
0.0
 10
143.488500
 20
110.446500
 30
0.0
 10
150.582000
 20
103.350000
 30
0.0
 10
159.334500
 20
103.350000
 30
0.0
  0
SPLINE
  5
2ca
100
AcDbEntity
  8
0
 62
7
100
AcDbSpline
 70
8
 71
3
 72
8
 73
4
 74
0
 40
0
 40
0
 40
0
 40
0
 40
1
 40
1
 40
1
 40
1
 10
159.334500
 20
103.350000
 30
0.0
 10
168.086250
 20
103.350000
 30
0.0
 10
175.179750
 20
110.446500
 30
0.0
 10
175.179750
 20
119.198250
 30
0.0
  0
SPLINE
  5
2cb
100
AcDbEntity
  8
0
 62
7
100
AcDbSpline
 70
8
 71
3
 72
8
 73
4
 74
0
 40
0
 40
0
 40
0
 40
0
 40
1
 40
1
 40
1
 40
1
 10
175.179750
 20
119.198250
 30
0.0
 10
175.179750
 20
127.950750
 30
0.0
 10
168.086250
 20
135.044250
 30
0.0
 10
159.334500
 20
135.044250
 30
0.0
  0
SPLINE
  5
2cc
100
AcDbEntity
  8
0
 62
7
100
AcDbSpline
 70
8
 71
3
 72
8
 73
4
 74
0
 40
0
 40
0
 40
0
 40
0
 40
1
 40
1
 40
1
 40
1
 10
314.675250
 20
55.690500
 30
0.0
 10
312.801750
 20
55.159500
 30
0.0
 10
310.850250
 20
56.251500
 30
0.0
 10
310.323000
 20
58.131750
 30
0.0
  0
SPLINE
  5
2cd
100
AcDbEntity
  8
0
 62
7
100
AcDbSpline
 70
8
 71
3
 72
8
 73
4
 74
0
 40
0
 40
0
 40
0
 40
0
 40
1
 40
1
 40
1
 40
1
 10
310.323000
 20
58.131750
 30
0.0
 10
309.794250
 20
60.012000
 30
0.0
 10
310.887000
 20
61.962000
 30
0.0
 10
312.767250
 20
62.485500
 30
0.0
  0
SPLINE
  5
2ce
100
AcDbEntity
  8
0
 62
7
100
AcDbSpline
 70
8
 71
3
 72
8
 73
4
 74
0
 40
0
 40
0
 40
0
 40
0
 40
1
 40
1
 40
1
 40
1
 10
312.767250
 20
62.485500
 30
0.0
 10
329.819250
 20
67.314000
 30
0.0
 10
340.833750
 20
71.838750
 30
0.0
 10
345.809250
 20
76.053000
 30
0.0
  0
SPLINE
  5
2cf
100
AcDbEntity
  8
0
 62
7
100
AcDbSpline
 70
8
 71
3
 72
8
 73
4
 74
0
 40
0
 40
0
 40
0
 40
0
 40
1
 40
1
 40
1
 40
1
 10
345.809250
 20
76.053000
 30
0.0
 10
347.550000
 20
77.525250
 30
0.0
 10
348.295500
 20
78.693750
 30
0.0
 10
348.066750
 20
79.569000
 30
0.0
  0
SPLINE
  5
2d0
100
AcDbEntity
  8
0
 62
7
100
AcDbSpline
 70
8
 71
3
 72
8
 73
4
 74
0
 40
0
 40
0
 40
0
 40
0
 40
1
 40
1
 40
1
 40
1
 10
348.066750
 20
79.569000
 30
0.0
 10
347.720250
 20
80.886000
 30
0.0
 10
345.954000
 20
82.395750
 30
0.0
 10
342.777750
 20
84.089250
 30
0.0
  0
SPLINE
  5
2d1
100
AcDbEntity
  8
0
 62
7
100
AcDbSpline
 70
8
 71
3
 72
8
 73
4
 74
0
 40
0
 40
0
 40
0
 40
0
 40
1
 40
1
 40
1
 40
1
 10
342.777750
 20
84.089250
 30
0.0
 10
332.780250
 20
89.435250
 30
0.0
 10
311.585250
 20
94.440750
 30
0.0
 10
279.188250
 20
99.101250
 30
0.0
  0
LWPOLYLINE
  5
2d2
100
AcDbEntity
  8
0
 62
7
100
AcDbPolyline
 90
4
 70
1
 10
8.252250
 20
46.878750
 30
0.0
 10
66.581250
 20
46.878750
 30
0.0
 10
66.581250
 20
39.922500
 30
0.0
 10
1.887000
 20
39.922500
 30
0.0
  0
SPLINE
  5
2d3
100
AcDbEntity
  8
0
 62
7
100
AcDbSpline
 70
8
 71
3
 72
8
 73
4
 74
0
 40
0
 40
0
 40
0
 40
0
 40
1
 40
1
 40
1
 40
1
 10
279.174000
 20
99.101250
 30
0.0
 10
271.439250
 20
100.244250
 30
0.0
 10
263.033250
 20
101.352000
 30
0.0
 10
253.980750
 20
102.439500
 30
0.0
  0
SPLINE
  5
2d4
100
AcDbEntity
  8
0
 62
7
100
AcDbSpline
 70
8
 71
3
 72
8
 73
4
 74
0
 40
0
 40
0
 40
0
 40
0
 40
1
 40
1
 40
1
 40
1
 10
253.980750
 20
102.439500
 30
0.0
 10
245.060250
 20
103.506000
 30
0.0
 10
235.835250
 20
104.523000
 30
0.0
 10
226.278000
 20
105.495000
 30
0.0
  0
SPLINE
  5
2d5
100
AcDbEntity
  8
0
 62
7
100
AcDbSpline
 70
8
 71
3
 72
8
 73
4
 74
0
 40
0
 40
0
 40
0
 40
0
 40
1
 40
1
 40
1
 40
1
 10
226.278000
 20
105.495000
 30
0.0
 10
225.015000
 20
104.625750
 30
0.0
 10
223.674750
 20
103.724250
 30
0.0
 10
222.254250
 20
102.790500
 30
0.0
  0
SPLINE
  5
2d6
100
AcDbEntity
  8
0
 62
7
100
AcDbSpline
 70
8
 71
3
 72
8
 73
4
 74
0
 40
0
 40
0
 40
0
 40
0
 40
1
 40
1
 40
1
 40
1
 10
222.254250
 20
102.790500
 30
0.0
 10
220.364250
 20
101.544750
 30
0.0
 10
218.724750
 20
100.494750
 30
0.0
 10
217.287750
 20
99.600000
 30
0.0
  0
SPLINE
  5
2d7
100
AcDbEntity
  8
0
 62
7
100
AcDbSpline
 70
8
 71
3
 72
8
 73
4
 74
0
 40
0
 40
0
 40
0
 40
0
 40
1
 40
1
 40
1
 40
1
 10
217.287750
 20
99.600000
 30
0.0
 10
217.249500
 20
99.580500
 30
0.0
 10
217.217250
 20
99.555000
 30
0.0
 10
217.172250
 20
99.528750
 30
0.0
  0
SPLINE
  5
2d8
100
AcDbEntity
  8
0
 62
7
100
AcDbSpline
 70
8
 71
3
 72
8
 73
4
 74
0
 40
0
 40
0
 40
0
 40
0
 40
1
 40
1
 40
1
 40
1
 10
217.172250
 20
99.528750
 30
0.0
 10
216.687750
 20
99.229500
 30
0.0
 10
215.839500
 20
98.704500
 30
0.0
 10
214.608000
 20
97.964250
 30
0.0
  0
SPLINE
  5
2d9
100
AcDbEntity
  8
0
 62
7
100
AcDbSpline
 70
8
 71
3
 72
8
 73
4
 74
0
 40
0
 40
0
 40
0
 40
0
 40
1
 40
1
 40
1
 40
1
 10
214.608000
 20
97.964250
 30
0.0
 10
213.618750
 20
97.362000
 30
0.0
 10
212.736750
 20
96.831000
 30
0.0
 10
211.962750
 20
96.377250
 30
0.0
  0
SPLINE
  5
2da
100
AcDbEntity
  8
0
 62
7
100
AcDbSpline
 70
8
 71
3
 72
8
 73
4
 74
0
 40
0
 40
0
 40
0
 40
0
 40
1
 40
1
 40
1
 40
1
 10
211.962750
 20
96.377250
 30
0.0
 10
207.372000
 20
93.672750
 30
0.0
 10
203.010000
 20
91.314000
 30
0.0
 10
198.876000
 20
89.299500
 30
0.0
  0
SPLINE
  5
2db
100
AcDbEntity
  8
0
 62
7
100
AcDbSpline
 70
8
 71
3
 72
8
 73
4
 74
0
 40
0
 40
0
 40
0
 40
0
 40
1
 40
1
 40
1
 40
1
 10
198.876000
 20
89.299500
 30
0.0
 10
198.786000
 20
89.254500
 30
0.0
 10
198.696000
 20
89.216250
 30
0.0
 10
198.606750
 20
89.177250
 30
0.0
  0
SPLINE
  5
2dc
100
AcDbEntity
  8
0
 62
7
100
AcDbSpline
 70
8
 71
3
 72
8
 73
4
 74
0
 40
0
 40
0
 40
0
 40
0
 40
1
 40
1
 40
1
 40
1
 10
198.606750
 20
89.177250
 30
0.0
 10
185.578500
 20
82.811250
 30
0.0
 10
174.093750
 20
79.446750
 30
0.0
 10
164.160000
 20
79.076250
 30
0.0
  0
SPLINE
  5
2dd
100
AcDbEntity
  8
0
 62
7
100
AcDbSpline
 70
8
 71
3
 72
8
 73
4
 74
0
 40
0
 40
0
 40
0
 40
0
 40
1
 40
1
 40
1
 40
1
 10
164.160000
 20
79.076250
 30
0.0
 10
155.892750
 20
78.776250
 30
0.0
 10
148.692750
 20
80.528250
 30
0.0
 10
142.563000
 20
84.332250
 30
0.0
  0
SPLINE
  5
2de
100
AcDbEntity
  8
0
 62
7
100
AcDbSpline
 70
8
 71
3
 72
8
 73
4
 74
0
 40
0
 40
0
 40
0
 40
0
 40
1
 40
1
 40
1
 40
1
 10
142.563000
 20
84.332250
 30
0.0
 10
136.470750
 20
88.117500
 30
0.0
 10
131.523000
 20
93.884250
 30
0.0
 10
127.711500
 20
101.645250
 30
0.0
  0
SPLINE
  5
2df
100
AcDbEntity
  8
0
 62
7
100
AcDbSpline
 70
8
 71
3
 72
8
 73
4
 74
0
 40
0
 40
0
 40
0
 40
0
 40
1
 40
1
 40
1
 40
1
 10
127.711500
 20
101.645250
 30
0.0
 10
123.114000
 20
111.005250
 30
0.0
 10
120.188250
 20
123.326250
 30
0.0
 10
118.938750
 20
138.599250
 30
0.0
  0
SPLINE
  5
2e0
100
AcDbEntity
  8
0
 62
7
100
AcDbSpline
 70
8
 71
3
 72
8
 73
4
 74
0
 40
0
 40
0
 40
0
 40
0
 40
1
 40
1
 40
1
 40
1
 10
118.938750
 20
138.599250
 30
0.0
 10
116.999250
 20
136.413000
 30
0.0
 10
114.984000
 20
134.316000
 30
0.0
 10
112.895250
 20
132.308250
 30
0.0
  0
SPLINE
  5
2e1
100
AcDbEntity
  8
0
 62
7
100
AcDbSpline
 70
8
 71
3
 72
8
 73
4
 74
0
 40
0
 40
0
 40
0
 40
0
 40
1
 40
1
 40
1
 40
1
 10
112.895250
 20
132.308250
 30
0.0
 10
101.746500
 20
121.599000
 30
0.0
 10
87.979500
 20
112.776000
 30
0.0
 10
71.598000
 20
105.885000
 30
0.0
  0
SPLINE
  5
2e2
100
AcDbEntity
  8
0
 62
7
100
AcDbSpline
 70
8
 71
3
 72
8
 73
4
 74
0
 40
0
 40
0
 40
0
 40
0
 40
1
 40
1
 40
1
 40
1
 10
71.598000
 20
105.885000
 30
0.0
 10
69.805500
 20
105.130500
 30
0.0
 10
67.738500
 20
105.974250
 30
0.0
 10
66.984750
 20
107.764500
 30
0.0
  0
SPLINE
  5
2e3
100
AcDbEntity
  8
0
 62
7
100
AcDbSpline
 70
8
 71
3
 72
8
 73
4
 74
0
 40
0
 40
0
 40
0
 40
0
 40
1
 40
1
 40
1
 40
1
 10
66.984750
 20
107.764500
 30
0.0
 10
66.228000
 20
109.561500
 30
0.0
 10
67.068750
 20
111.626250
 30
0.0
 10
68.865000
 20
112.380000
 30
0.0
  0
SPLINE
  5
2e4
100
AcDbEntity
  8
0
 62
7
100
AcDbSpline
 70
8
 71
3
 72
8
 73
4
 74
0
 40
0
 40
0
 40
0
 40
0
 40
1
 40
1
 40
1
 40
1
 10
68.865000
 20
112.380000
 30
0.0
 10
84.429000
 20
118.926750
 30
0.0
 10
97.476000
 20
127.277250
 30
0.0
 10
108.005250
 20
137.397750
 30
0.0
  0
SPLINE
  5
2e5
100
AcDbEntity
  8
0
 62
7
100
AcDbSpline
 70
8
 71
3
 72
8
 73
4
 74
0
 40
0
 40
0
 40
0
 40
0
 40
1
 40
1
 40
1
 40
1
 10
108.005250
 20
137.397750
 30
0.0
 10
110.067750
 20
139.378500
 30
0.0
 10
112.012500
 20
141.400500
 30
0.0
 10
113.842500
 20
143.471250
 30
0.0
  0
SPLINE
  5
2e6
100
AcDbEntity
  8
0
 62
7
100
AcDbSpline
 70
8
 71
3
 72
8
 73
4
 74
0
 40
0
 40
0
 40
0
 40
0
 40
1
 40
1
 40
1
 40
1
 10
113.842500
 20
143.471250
 30
0.0
 10
115.631250
 20
145.499250
 30
0.0
 10
117.384000
 20
147.659250
 30
0.0
 10
119.096250
 20
149.948250
 30
0.0
  0
LWPOLYLINE
  5
2e7
100
AcDbEntity
  8
0
 62
7
100
AcDbPolyline
 90
3
 70
0
 10
279.188250
 20
99.101250
 30
0.0
 10
279.174000
 20
99.107250
 30
0.0
 10
279.174000
 20
99.101250
 30
0.0
  0
SPLINE
  5
2e8
100
AcDbEntity
  8
0
 62
7
100
AcDbSpline
 70
8
 71
3
 72
8
 73
4
 74
0
 40
0
 40
0
 40
0
 40
0
 40
1
 40
1
 40
1
 40
1
 10
119.103750
 20
149.942250
 30
0.0
 10
119.722500
 20
150.772500
 30
0.0
 10
120.698250
 20
151.323000
 30
0.0
 10
121.805250
 20
151.361250
 30
0.0
  0
SPLINE
  5
2e9
100
AcDbEntity
  8
0
 62
7
100
AcDbSpline
 70
8
 71
3
 72
8
 73
4
 74
0
 40
0
 40
0
 40
0
 40
0
 40
1
 40
1
 40
1
 40
1
 10
121.805250
 20
151.361250
 30
0.0
 10
123.751500
 20
151.430250
 30
0.0
 10
125.382000
 20
149.910000
 30
0.0
 10
125.453250
 20
147.959250
 30
0.0
  0
SPLINE
  5
2ea
100
AcDbEntity
  8
0
 62
7
100
AcDbSpline
 70
8
 71
3
 72
8
 73
4
 74
0
 40
0
 40
0
 40
0
 40
0
 40
1
 40
1
 40
1
 40
1
 10
125.453250
 20
147.959250
 30
0.0
 10
126.138750
 20
129.405750
 30
0.0
 10
129.001500
 20
115.001250
 30
0.0
 10
134.040750
 20
104.739750
 30
0.0
  0
SPLINE
  5
2eb
100
AcDbEntity
  8
0
 62
7
100
AcDbSpline
 70
8
 71
3
 72
8
 73
4
 74
0
 40
0
 40
0
 40
0
 40
0
 40
1
 40
1
 40
1
 40
1
 10
134.040750
 20
104.739750
 30
0.0
 10
137.243250
 20
98.218500
 30
0.0
 10
141.324000
 20
93.411000
 30
0.0
 10
146.289750
 20
90.330000
 30
0.0
  0
SPLINE
  5
2ec
100
AcDbEntity
  8
0
 62
7
100
AcDbSpline
 70
8
 71
3
 72
8
 73
4
 74
0
 40
0
 40
0
 40
0
 40
0
 40
1
 40
1
 40
1
 40
1
 10
146.289750
 20
90.330000
 30
0.0
 10
151.212000
 20
87.280500
 30
0.0
 10
157.086750
 20
85.873500
 30
0.0
 10
163.909500
 20
86.128500
 30
0.0
  0
SPLINE
  5
2ed
100
AcDbEntity
  8
0
 62
7
100
AcDbSpline
 70
8
 71
3
 72
8
 73
4
 74
0
 40
0
 40
0
 40
0
 40
0
 40
1
 40
1
 40
1
 40
1
 10
163.909500
 20
86.128500
 30
0.0
 10
172.848000
 20
86.455500
 30
0.0
 10
183.383250
 20
89.580750
 30
0.0
 10
195.520500
 20
95.508000
 30
0.0
  0
SPLINE
  5
2ee
100
AcDbEntity
  8
0
 62
7
100
AcDbSpline
 70
8
 71
3
 72
8
 73
4
 74
0
 40
0
 40
0
 40
0
 40
0
 40
1
 40
1
 40
1
 40
1
 10
195.520500
 20
95.508000
 30
0.0
 10
195.599250
 20
95.559000
 30
0.0
 10
195.691500
 20
95.610000
 30
0.0
 10
195.780750
 20
95.655000
 30
0.0
  0
SPLINE
  5
2ef
100
AcDbEntity
  8
0
 62
7
100
AcDbSpline
 70
8
 71
3
 72
8
 73
4
 74
0
 40
0
 40
0
 40
0
 40
0
 40
1
 40
1
 40
1
 40
1
 10
195.780750
 20
95.655000
 30
0.0
 10
199.913250
 20
97.668000
 30
0.0
 10
204.118500
 20
99.938250
 30
0.0
 10
208.401000
 20
102.457500
 30
0.0
  0
SPLINE
  5
2f0
100
AcDbEntity
  8
0
 62
7
100
AcDbSpline
 70
8
 71
3
 72
8
 73
4
 74
0
 40
0
 40
0
 40
0
 40
0
 40
1
 40
1
 40
1
 40
1
 10
208.401000
 20
102.457500
 30
0.0
 10
209.348250
 20
103.019250
 30
0.0
 10
210.204750
 20
103.525500
 30
0.0
 10
210.958500
 20
103.985250
 30
0.0
  0
SPLINE
  5
2f1
100
AcDbEntity
  8
0
 62
7
100
AcDbSpline
 70
8
 71
3
 72
8
 73
4
 74
0
 40
0
 40
0
 40
0
 40
0
 40
1
 40
1
 40
1
 40
1
 10
210.958500
 20
103.985250
 30
0.0
 10
211.368750
 20
104.235750
 30
0.0
 10
212.193000
 20
104.745750
 30
0.0
 10
213.432000
 20
105.520500
 30
0.0
  0
SPLINE
  5
2f2
100
AcDbEntity
  8
0
 62
7
100
AcDbSpline
 70
8
 71
3
 72
8
 73
4
 74
0
 40
0
 40
0
 40
0
 40
0
 40
1
 40
1
 40
1
 40
1
 10
213.432000
 20
105.520500
 30
0.0
 10
213.508500
 20
105.570000
 30
0.0
 10
213.586500
 20
105.621750
 30
0.0
 10
213.663000
 20
105.666750
 30
0.0
  0
LWPOLYLINE
  5
2f3
100
AcDbEntity
  8
0
 62
7
100
AcDbPolyline
 90
2
 70
0
 10
119.096250
 20
149.948250
 30
0.0
 10
119.103750
 20
149.942250
 30
0.0
  0
SPLINE
  5
2f4
100
AcDbEntity
  8
0
 62
7
100
AcDbSpline
 70
8
 71
3
 72
8
 73
4
 74
0
 40
0
 40
0
 40
0
 40
0
 40
1
 40
1
 40
1
 40
1
 10
213.669000
 20
105.666750
 30
0.0
 10
215.415000
 20
106.754250
 30
0.0
 10
217.005750
 20
107.771250
 30
0.0
 10
218.389500
 20
108.672000
 30
0.0
  0
SPLINE
  5
2f5
100
AcDbEntity
  8
0
 62
7
100
AcDbSpline
 70
8
 71
3
 72
8
 73
4
 74
0
 40
0
 40
0
 40
0
 40
0
 40
1
 40
1
 40
1
 40
1
 10
218.389500
 20
108.672000
 30
0.0
 10
219.858750
 20
109.643250
 30
0.0
 10
221.481000
 20
110.743500
 30
0.0
 10
223.297500
 20
112.022250
 30
0.0
  0
LWPOLYLINE
  5
2f6
100
AcDbEntity
  8
0
 62
7
100
AcDbPolyline
 90
2
 70
0
 10
213.663000
 20
105.666750
 30
0.0
 10
213.669000
 20
105.666750
 30
0.0
  0
SPLINE
  5
2f7
100
AcDbEntity
  8
0
 62
7
100
AcDbSpline
 70
8
 71
3
 72
8
 73
4
 74
0
 40
0
 40
0
 40
0
 40
0
 40
1
 40
1
 40
1
 40
1
 10
223.304250
 20
112.015500
 30
0.0
 10
223.971750
 20
112.489500
 30
0.0
 10
224.803500
 20
112.731000
 30
0.0
 10
225.679500
 20
112.643250
 30
0.0
  0
SPLINE
  5
2f8
100
AcDbEntity
  8
0
 62
7
100
AcDbSpline
 70
8
 71
3
 72
8
 73
4
 74
0
 40
0
 40
0
 40
0
 40
0
 40
1
 40
1
 40
1
 40
1
 10
225.679500
 20
112.643250
 30
0.0
 10
236.272500
 20
111.575250
 30
0.0
 10
245.996250
 20
110.513250
 30
0.0
 10
254.805750
 20
109.458750
 30
0.0
  0
SPLINE
  5
2f9
100
AcDbEntity
  8
0
 62
7
100
AcDbSpline
 70
8
 71
3
 72
8
 73
4
 74
0
 40
0
 40
0
 40
0
 40
0
 40
1
 40
1
 40
1
 40
1
 10
254.805750
 20
109.458750
 30
0.0
 10
263.883750
 20
108.371250
 30
0.0
 10
272.354250
 20
107.253000
 30
0.0
 10
280.197750
 20
106.094250
 30
0.0
  0
SPLINE
  5
2fa
100
AcDbEntity
  8
0
 62
7
100
AcDbSpline
 70
8
 71
3
 72
8
 73
4
 74
0
 40
0
 40
0
 40
0
 40
0
 40
1
 40
1
 40
1
 40
1
 10
280.197750
 20
106.094250
 30
0.0
 10
313.381500
 20
101.313000
 30
0.0
 10
335.343000
 20
96.051750
 30
0.0
 10
346.095750
 20
90.310500
 30
0.0
  0
SPLINE
  5
2fb
100
AcDbEntity
  8
0
 62
7
100
AcDbSpline
 70
8
 71
3
 72
8
 73
4
 74
0
 40
0
 40
0
 40
0
 40
0
 40
1
 40
1
 40
1
 40
1
 10
346.095750
 20
90.310500
 30
0.0
 10
351.090750
 20
87.637500
 30
0.0
 10
354.023250
 20
84.659250
 30
0.0
 10
354.893250
 20
81.366000
 30
0.0
  0
SPLINE
  5
2fc
100
AcDbEntity
  8
0
 62
7
100
AcDbSpline
 70
8
 71
3
 72
8
 73
4
 74
0
 40
0
 40
0
 40
0
 40
0
 40
1
 40
1
 40
1
 40
1
 10
354.893250
 20
81.366000
 30
0.0
 10
355.876500
 20
77.625000
 30
0.0
 10
354.376500
 20
74.057250
 30
0.0
 10
350.372250
 20
70.669500
 30
0.0
  0
SPLINE
  5
2fd
100
AcDbEntity
  8
0
 62
7
100
AcDbSpline
 70
8
 71
3
 72
8
 73
4
 74
0
 40
0
 40
0
 40
0
 40
0
 40
1
 40
1
 40
1
 40
1
 10
350.372250
 20
70.669500
 30
0.0
 10
344.614500
 20
65.791500
 30
0.0
 10
332.713500
 20
60.796500
 30
0.0
 10
314.675250
 20
55.690500
 30
0.0
  0
LWPOLYLINE
  5
2fe
100
AcDbEntity
  8
0
 62
7
100
AcDbPolyline
 90
2
 70
0
 10
223.297500
 20
112.022250
 30
0.0
 10
223.304250
 20
112.015500
 30
0.0
  0
ENDSEC
  0
SECTION
  2
OBJECTS
  0
DICTIONARY
  5
C
330
0
100
AcDbDictionary
  3
ACAD_GROUP
350
D
  3
ACAD_MLINESTYLE
350
17
  0
DICTIONARY
  5
D
330
C
100
AcDbDictionary
  0
DICTIONARY
  5
1A
330
C
100
AcDbDictionary
  0
DICTIONARY
  5
17
330
C
100
AcDbDictionary
  3
STANDARD
350
18
  0
DICTIONARY
  5
19
330
C
100
AcDbDictionary
  0
ENDSEC
  0
EOF
