<?xml version="1.0" encoding="UTF-8"?>
<svg xmlns="http://www.w3.org/2000/svg" xmlns:xlink="http://www.w3.org/1999/xlink" version="1.1" id="Layer_1" x="0px" y="0px" width="473.58px" height="201.818px" viewBox="0 0 473.58 201.818" xml:space="preserve">
<path fill-rule="evenodd" clip-rule="evenodd" fill="#231F20" d="M225.493,200.167h161.375c2.514,0,4.601-2.086,4.601-4.673V181.12  c0-2.521-2.087-4.6-4.601-4.6H225.493c-2.589,0-4.672,2.079-4.672,4.6v14.375C220.821,198.082,222.904,200.167,225.493,200.167"/>
<path fill-rule="evenodd" clip-rule="evenodd" fill="#FFFFFF" d="M328.353,193.837v-2.731h4.103c1.512,0,2.448-0.144,2.874-0.572  c0.435-0.291,0.584-0.937,0.584-1.868v-2.657h-7.561v-2.738h7.561c-0.149-1.005-1.594-1.508-4.39-1.508h-1.942  c-0.796,0-1.229-0.357-1.229-1.22v-0.287c0-0.791,0.433-1.225,1.229-1.225c2.727,0,4.738,0.146,5.963,0.505  c2.377,0.646,3.592,2.012,3.592,4.025v5.822c0,3.021-2.224,4.454-6.681,4.454H328.353 M361.423,192.617  c0,0.864-0.427,1.221-1.223,1.221c-0.787,0-1.225,0-1.44-0.074c-0.426-0.137-0.641-0.497-0.641-1.146v-9.416  c0-0.717-0.579-1.149-1.657-1.295c-0.429-0.072-1.217-0.144-2.449-0.144h-5.312c-1.293,0-2.155,0.071-2.593,0.144  c-1.077,0.146-1.65,0.646-1.65,1.295v9.416c0,0.864-0.428,1.221-1.214,1.221c-0.797,0-1.226,0-1.446-0.074  c-0.429-0.137-0.64-0.497-0.64-1.146v-9.347c0-2.802,2.504-4.239,7.467-4.239h5.388c4.895,0,7.41,1.369,7.41,4.17V192.617z   M383.058,193.626c0,2.084-1.224,3.375-3.668,3.949c-1.079,0.29-3.09,0.362-5.964,0.362c-0.574,0-0.864-0.144-1.08-0.431  c-0.143-0.215-0.143-0.577-0.143-1.151c0-0.788,0.358-1.223,1.223-1.223c0,0,0.225,0,0.717,0.072h1.227  c2.941,0,4.387-0.506,4.387-1.442h-9.778c-4.894,0-7.334-1.505-7.334-4.448v-9.06c0-0.651,0.217-1.006,0.646-1.152  c0.211-0.072,0.646-0.072,1.435-0.072c0.796,0,1.155,0.434,1.155,1.225v9.06c0,1.147,1.37,1.72,4.098,1.72h9.778v-10.779  c0-0.791,0.428-1.225,1.215-1.225c0.796,0,1.227,0,1.44,0.072c0.435,0.146,0.646,0.575,0.646,1.152V193.626z M328.353,183.27v2.738  h-4.098c-0.646,0-1.361,0.136-2.085,0.428c-0.937,0.291-1.441,0.715-1.441,1.223v1.865c0,0.505,0.505,0.938,1.517,1.225  c0.717,0.286,1.436,0.357,2.156,0.357h3.951v2.731h-3.876c-1.583,0-3.099-0.283-4.461-0.935c-1.654-0.791-2.515-1.94-2.515-3.306  v-1.938c0-1.515,0.79-2.66,2.441-3.45c1.223-0.578,2.729-0.938,4.459-0.938H328.353z M263.016,193.837v-2.657  c0.646,0.069,0.934,0.578,0.934,1.437C263.949,193.335,263.662,193.763,263.016,193.837 M263.016,188.018v-2.806h7.039v-1.796  c0-1.151-2.221-1.725-6.679-1.725h-0.36v-2.661h3.593c1.649,0,3.09,0.286,4.24,0.859c1.581,0.725,2.373,1.802,2.373,3.24v3.597  c0,0.86-0.291,1.291-0.937,1.291H263.016z M284.935,180.542c0,0.862-0.428,1.22-1.22,1.22h-1.436c-2.516,0-3.74,0.645-3.74,1.868  v8.986c0,0.649-0.214,1.01-0.646,1.146c-0.214,0.074-0.718,0.074-1.437,0.074c-0.866,0-1.223-0.356-1.223-1.221v-8.986  c0-3.088,2.806-4.6,8.481-4.6C284.507,179.031,284.935,179.536,284.935,180.542 M315.417,192.617c0,0.864-0.36,1.221-1.224,1.221  c-0.718,0-1.22,0-1.365-0.074c-0.433-0.137-0.719-0.497-0.719-1.146v-9.129c0-1.148-1.363-1.726-4.101-1.726h-1.646  c-2.229,0-3.309,0.722-3.309,2.159v8.695c0,0.649-0.222,1.01-0.648,1.146c-0.214,0.074-0.651,0.074-1.438,0.074  s-1.219-0.356-1.219-1.221v-8.695c0-0.934-0.286-1.515-0.938-1.797c-0.432-0.219-1.15-0.362-2.087-0.362h-1.863  c-2.804,0-4.243,0.577-4.243,1.799v9.056c0,0.649-0.214,1.01-0.643,1.146c-0.218,0.074-0.649,0.074-1.444,0.074  c-0.788,0-1.15-0.356-1.15-1.221v-8.77c0-3.232,2.377-4.816,7.121-4.816c1.939,0,3.159,0,3.591,0.072  c1.219,0.146,2.302,0.575,3.38,1.224c1.003-0.648,2.156-1.01,3.451-1.224c0.575-0.072,1.793-0.072,3.666-0.072  c4.528,0,6.829,1.584,6.829,4.816V192.617z M250.798,193.335c0,1.724-1.082,2.953-3.243,3.812c-1.504,0.5-3.301,0.791-5.311,0.791  h-1.729v-2.661c0.147-0.071,0.219-0.071,0.361-0.071h2.368c0.506,0,1.301-0.146,2.306-0.437c1.22-0.354,1.865-0.714,1.865-1.006  h-6.9v-2.729h6.973v-7.188c0-0.791-0.573-1.295-1.873-1.723c-0.855-0.219-1.721-0.362-2.656-0.362h-2.443v-2.799  c0.219,0,0.429,0.067,0.643,0.067h1.301c2.009,0,3.734,0.286,5.244,0.859c2.087,0.792,3.096,2.089,3.096,3.813V193.335z   M263.016,179.031v2.661c-0.433,0-0.863,0.07-1.291,0.07h-0.798c-3.301,0-4.961,0.577-4.961,1.726v1.725h7.05v2.806h-6.903  c-0.146,2.084,1.514,3.088,4.961,3.088h1.65c0.146,0,0.215,0,0.292,0.074v2.657h-0.292c-2.077,0-3.515,0-4.236-0.074  c-1.798-0.209-3.096-0.641-3.953-1.288c-1.229-0.936-1.802-2.013-1.802-3.31v-5.463c0-1.724,0.936-2.947,2.807-3.813  c1.365-0.573,3.015-0.859,5.035-0.859H263.016z M240.515,197.938c-0.577-0.144-0.858-0.646-0.858-1.509  c0-0.65,0.281-1.079,0.858-1.152V197.938z M240.515,193.763h-2.011c-2.086,0-3.815-0.282-5.175-0.787  c-1.942-0.79-2.952-2.084-2.952-3.811v-5.535c0-3.088,3.093-4.667,9.133-4.667h1.005v2.799h-2.729c-1.154,0-2.014,0.071-2.515,0.217  c-1.083,0.218-1.655,0.79-1.655,1.582v5.532c0,1.296,1.655,1.941,4.817,1.941h2.082V193.763z"/>
<path fill-rule="evenodd" clip-rule="evenodd" fill="#231F20" d="M146.493,201.674v-4.382c1.009,0.146,1.583,1.001,1.583,2.438  C148.076,200.882,147.502,201.6,146.493,201.674 M146.493,192.258v-4.671H158v-2.948c0-1.87-3.602-2.733-10.857-2.733h-0.65v-4.453  h5.971c2.584,0,4.885,0.502,6.896,1.365c2.588,1.223,3.811,3.016,3.811,5.391v5.82c0,1.438-0.5,2.229-1.433,2.229H146.493z   M199.544,199.731c0,1.368-0.645,2.016-2.01,2.016c-1.224,0-2.015-0.072-2.302-0.146c-0.718-0.287-1.078-0.864-1.078-1.869v-15.456  c0-1.074-0.932-1.791-2.737-2.15c-0.642-0.073-2.011-0.146-3.949-0.146h-8.773c-2.079,0-3.447,0.072-4.094,0.146  c-1.869,0.359-2.806,1.076-2.806,2.224v15.383c0,1.368-0.646,2.016-1.938,2.016c-1.296,0-2.01-0.072-2.301-0.146  c-0.719-0.287-1.079-0.864-1.079-1.869v-15.383c0-4.597,4.099-6.896,12.218-6.896h8.773c8.051,0,12.076,2.299,12.076,6.896V199.731z   M220.531,180.182c0,1.292-0.715,1.942-2.011,1.942h-8.482v17.606c0,1.368-0.647,2.016-1.943,2.016  c-1.219,0-2.006-0.072-2.297-0.216c-0.718-0.218-1.083-0.795-1.083-1.8v-17.606h-1.869c-1.36,0-2.079-0.72-2.079-2.234  c0-1.504,0.719-2.228,2.079-2.228h1.869v-4.743c0-1.361,0.652-2.012,1.947-2.012c1.292,0,2.01,0.072,2.298,0.146  c0.713,0.287,1.078,0.86,1.078,1.865v4.743h8.482C219.816,177.663,220.531,178.531,220.531,180.182 M146.493,177.453v4.453h-2.157  c-0.931,0.073-1.364,0.073-1.291,0.073c-5.321,0-8.05,0.938-8.05,2.801v2.808h11.498v4.671h-11.284  c-0.214,3.31,2.515,5.034,8.123,5.034h3.161v4.382c-0.146,0.072-0.283,0.072-0.428,0.072c-3.452,0-5.749-0.072-6.973-0.216  c-2.947-0.286-5.107-0.936-6.467-2.083c-1.943-1.51-2.952-3.31-2.952-5.393v-8.912c0-2.804,1.51-4.888,4.603-6.18  c2.225-1.009,4.957-1.511,8.195-1.511H146.493z M109.55,201.747v-4.53h3.376c5.462,0,8.196-1.001,8.196-3.017v-12.075H109.55v-4.462  h11.572v-4.743c0-1.288,0.714-1.939,2.01-1.939c1.22,0,1.943,0,2.229,0.146c0.796,0.215,1.154,0.859,1.154,1.793v21.354  c0,2.583-1.659,4.525-4.961,5.895c-2.447,1.077-5.176,1.579-8.127,1.579H109.55z M30.693,194.769c0,4.679-3.521,6.978-10.562,6.978  H2.088c-1.297,0-1.942-0.647-1.942-2.016c0-1.649,0.645-2.515,1.942-2.515H20.2c3.31,0,4.962-0.787,4.962-2.447v-0.855  c0-1.51-1.515-2.229-4.531-2.229h-8.696C3.953,191.684,0,189.457,0,184.999v-1.296c0-2.947,2.011-4.885,6.109-5.748  c1.582-0.292,4.748-0.502,9.346-0.502c1.296,0,1.938,0.72,1.938,2.012v0.576c0,1.293-0.642,1.938-1.938,1.938h-3.879  c-1.943,0-3.165,0-3.597,0.072c-1.802,0.214-2.657,0.718-2.657,1.651v1.296c0,1.01,0.932,1.65,2.729,1.942  c0.719,0.146,2.01,0.21,3.956,0.21h8.842c6.537,0,9.844,2.164,9.844,6.544V194.769z M109.55,177.663v4.462h-4.456  c-4.817,0-7.191,1.076-7.191,3.16v8.629c0,1.581,0.936,2.589,2.733,3.017c0.787,0.217,2.302,0.286,4.604,0.286h4.31v4.53h-4.242  c-8.342,0-12.654-2.299-12.795-6.9c-0.072-2.515-0.072-5.753,0.072-9.634c0.146-5.03,4.381-7.55,12.655-7.55H109.55z   M51.683,180.182c0,1.292-0.646,1.942-2.011,1.942h-8.41v17.606c0,1.368-0.649,2.016-2.018,2.016c-1.215,0-2.007-0.072-2.293-0.216  c-0.723-0.218-1.078-0.795-1.078-1.8v-17.606h-1.874c-1.365,0-2.01-0.72-2.01-2.234c0-1.504,0.645-2.228,2.01-2.228h1.874v-4.743  c0-1.361,0.713-2.012,2.01-2.012c1.224,0,2.011,0.072,2.297,0.146c0.724,0.287,1.082,0.86,1.082,1.865v4.743h8.41  C51.037,177.663,51.683,178.531,51.683,180.182 M88.916,194.486c0,4.891-5.176,7.332-15.524,7.332c-0.792,0-1.869,0-3.093-0.071  h-2.301c-8.697,0-13.008-2.443-13.008-7.261v-15.021c0-1.292,0.645-2.012,1.941-2.012c1.293,0,2.016,0.072,2.298,0.21  c0.718,0.219,1.082,0.796,1.082,1.802v15.021c0,1.87,2.588,2.807,7.687,2.807h7.982c4.962,0,7.473-0.937,7.473-2.733v-15.095  c0-1.006,0.364-1.583,1.078-1.802c0.291-0.138,1.078-0.21,2.374-0.21c1.296,0,2.011,0.72,2.011,2.012V194.486z"/>
<path fill-rule="evenodd" clip-rule="evenodd" fill="#231F20" d="M308.153,169.903v-4.457h6.76c2.373,0,3.952-0.354,4.669-0.937  c0.652-0.569,1.009-1.579,1.009-3.157c0-0.359,0-1.008-0.072-1.942c0-0.938-0.07-1.654-0.07-2.302h-12.295v-4.452h12.438  c-0.29-1.729-2.728-2.593-7.263-2.593c-0.5,0-1.077,0-1.795,0.074h-1.291c-1.369,0-2.018-0.647-2.018-1.943v-0.572  c0-1.297,0.648-1.942,1.942-1.942c4.532,0,7.764,0.213,9.775,0.865c3.886,1.077,5.894,3.231,5.894,6.539v9.56  c0,4.817-3.666,7.26-10.923,7.26H308.153 M308.153,152.656v4.452h-6.609c-1.151,0-2.234,0.214-3.453,0.573  c-1.509,0.505-2.3,1.224-2.3,2.084v3.02c0,0.938,0.791,1.578,2.378,2.093c1.215,0.351,2.371,0.568,3.522,0.568h6.462v4.457h-6.32  c-2.586,0-5.034-0.572-7.264-1.584c-2.731-1.358-4.097-3.155-4.097-5.458v-3.096c0-2.512,1.298-4.381,3.954-5.676  c2.013-1.006,4.457-1.434,7.265-1.434H308.153z M155.698,169.903v-4.457h4.595c1.441,0,2.737-0.218,3.957-0.646  c1.723-0.574,2.587-1.369,2.587-2.448v-9.341c0-1.943-2.156-2.874-6.544-2.874h-4.595v-4.458h4.74  c7.905,0,11.862,2.515,11.862,7.689v8.983c0,2.739-1.365,4.749-4.171,6.04c-2.01,1.006-4.598,1.511-7.691,1.511H155.698z   M191.348,148.194c0,1.296-0.65,1.943-1.942,1.943h-2.301c-4.094,0-6.182,1.003-6.182,3.087v14.668c0,1.005-0.358,1.579-1.073,1.87  c-0.291,0.073-1.078,0.141-2.302,0.141c-1.369,0-2.014-0.649-2.014-2.011l0.072-14.737c0-5.035,4.603-7.476,13.8-7.476  C190.698,145.679,191.348,146.471,191.348,148.194 M241.234,167.892c0,1.361-0.72,2.011-2.012,2.011  c-1.223,0-2.01-0.067-2.302-0.141c-0.649-0.291-1.008-0.865-1.008-1.87v-14.955c0-1.936-2.297-2.874-6.827-2.874  c-0.432,0-0.937,0-1.583,0.074h-1.078c-3.593,0-5.389,1.15-5.389,3.522v14.232c0,1.005-0.361,1.579-1.079,1.87  c-0.287,0.073-1.078,0.141-2.301,0.141c-1.292,0-1.943-0.649-1.943-2.011v-14.305c0-1.441-0.572-2.373-1.574-2.873  c-0.649-0.365-1.873-0.577-3.456-0.577h-1.292c-0.719-0.074-1.296-0.074-1.796-0.074c-4.603,0-6.828,1.005-6.828,2.948v14.881  c0,1.005-0.358,1.579-1.077,1.87c-0.291,0.073-1.083,0.141-2.302,0.141c-1.368,0-2.014-0.649-2.014-2.011v-14.305  c0-5.32,3.879-7.908,11.648-7.908c3.229,0,5.244,0,5.963,0.072c1.941,0.287,3.738,0.937,5.535,1.94  c1.655-1.004,3.521-1.577,5.604-1.868c0.941-0.145,2.947-0.145,5.967-0.145c7.405,0,11.144,2.588,11.144,7.908V167.892z   M278.395,162.643c0,4.89-5.173,7.332-15.524,7.332c-0.787,0-1.797,0-3.088-0.072h-2.308c-8.693,0-13.008-2.37-13.008-7.26v-15.021  c0-1.297,0.651-1.942,2.011-1.942c1.225,0,1.942,0,2.304,0.145c0.648,0.215,1.008,0.791,1.008,1.798v15.021  c0,1.866,2.586,2.803,7.686,2.803h7.987c5.031,0,7.469-0.937,7.469-2.729v-15.096c0-1.007,0.36-1.583,1.155-1.798  c0.214-0.145,1-0.145,2.302-0.145c1.291,0,2.007,0.646,2.007,1.942V162.643z M287.021,167.892c0,1.361-0.649,2.011-2.014,2.011  c-1.218,0-2.016-0.067-2.298-0.215c-0.646-0.217-1.009-0.791-1.009-1.796v-26.812c0-1.368,0.648-2.016,1.939-2.016  c1.23,0,2.017,0.073,2.304,0.218c0.72,0.22,1.077,0.791,1.077,1.798V167.892z M136.645,147.835c0,1.654-0.641,2.441-1.936,2.441  h-8.124v17.615c0,1.361-0.719,2.011-2.011,2.011c-1.224,0-2.015-0.067-2.301-0.141c-0.719-0.291-1.078-0.865-1.078-1.87v-21.64  c0-4.817,4.025-7.188,12.003-7.188h1.511c0.791,0.073,1.364,0.29,1.655,0.719c0.213,0.363,0.281,0.938,0.281,1.726  c0,1.369-0.641,2.01-1.936,2.01c-2.521,0-4.035,0.077-4.676,0.149c-2.302,0.287-3.375,1.006-3.375,2.155h8.051  C136.004,145.824,136.645,146.471,136.645,147.835 M155.698,145.679v4.458H151.6c-1.587,0-3.019,0.212-4.389,0.577  c-1.796,0.644-2.66,1.506-2.66,2.728v8.91c0,1.152,0.941,2.011,2.806,2.525c1.224,0.351,2.656,0.568,4.243,0.568h4.098v4.457h-4.175  c-3.02,0-5.672-0.505-7.904-1.511c-2.944-1.291-4.458-3.301-4.458-6.04v-8.91c0-2.66,1.514-4.743,4.458-6.185  c2.3-1.074,4.962-1.578,7.904-1.578H155.698z"/>
<path fill-rule="evenodd" clip-rule="evenodd" fill="#231F20" d="M11.003,139.313h77.772v9.275H2.516L11.003,139.313"/>
<path fill="#231F20" d="M123.642,122.238c-7.243,19.993-28.207,30.947-46.934,24.569c-18.933-6.446-27.934-28.959-20.465-49.27  c7.46-20.314,28.865-31.543,47.499-24.296C121.964,80.332,131.474,100.613,123.642,122.238 M101.304,82.553  c-15.477-6.489-31.005,3.991-36.065,18.093c-5.865,16.352,1.215,32.324,14.227,37.063c14.223,5.185,29.948-3.384,35.475-19.028  C120.339,103.428,114.077,87.908,101.304,82.553"/>
<path fill="#231F20" d="M386.082,124.059c-6.907,18.766-26.309,28.896-43.361,22.633c-17.047-6.263-25.275-26.555-18.381-45.318  c6.901-18.766,26.313-28.895,43.355-22.633C384.745,85.008,392.966,105.298,386.082,124.059 M364.831,87.738  c-12.982-4.831-27.009,3.815-31.786,16.797c-4.778,13,0.592,28.853,12.482,32.951c14.476,4.991,26.463-3.161,31.774-16.807  C382.343,107.792,376.61,92.117,364.831,87.738"/>
<path fill="#FBD130" d="M242.958,42.887c0,16.85-13.659,30.513-30.512,30.513c-16.855,0-30.518-13.663-30.518-30.513  c0-16.846,13.663-30.513,30.518-30.513C229.299,12.374,242.958,26.041,242.958,42.887 M212.446,21.759  c-11.67,0-21.128,9.458-21.128,21.128c0,11.669,9.458,21.131,21.128,21.131c11.669,0,21.127-9.462,21.127-21.131  C233.573,31.217,224.115,21.759,212.446,21.759"/>
<path fill="#ED2129" d="M419.567,127.564c-2.498,0.708-5.1-0.748-5.803-3.255c-0.705-2.507,0.752-5.107,3.259-5.805  c22.736-6.438,37.422-12.471,44.056-18.09c2.321-1.963,3.315-3.521,3.01-4.688c-0.462-1.756-2.817-3.769-7.052-6.027  c-13.33-7.128-41.59-13.802-84.786-20.016l-0.019-0.008v0.008c-10.313-1.524-21.521-3.001-33.591-4.451  c-11.894-1.422-24.194-2.778-36.937-4.074c-1.684,1.159-3.471,2.361-5.365,3.606c-2.52,1.661-4.706,3.061-6.622,4.254  c-0.051,0.026-0.094,0.06-0.154,0.095c-0.646,0.399-1.777,1.099-3.419,2.086c-1.319,0.803-2.495,1.511-3.527,2.116  c-6.121,3.606-11.937,6.751-17.449,9.437c-0.12,0.06-0.24,0.111-0.359,0.163c-17.371,8.488-32.684,12.974-45.929,13.468  c-11.023,0.4-20.623-1.936-28.796-7.008c-8.123-5.047-14.72-12.736-19.802-23.084c-6.13-12.48-10.031-28.908-11.697-49.272  c-2.586,2.915-5.273,5.711-8.058,8.388c-14.865,14.279-33.221,26.043-55.063,35.231c-2.39,1.006-5.146-0.119-6.151-2.506  c-1.009-2.396,0.112-5.149,2.507-6.154c20.752-8.729,38.148-19.863,52.187-33.357c2.75-2.641,5.343-5.337,7.783-8.098  c2.385-2.704,4.722-5.584,7.005-8.636l0.01,0.008c0.825-1.107,2.126-1.841,3.602-1.892c2.595-0.092,4.769,1.935,4.864,4.536  c0.914,24.738,4.731,43.944,11.45,57.626c4.27,8.695,9.711,15.105,16.332,19.213c6.563,4.066,14.396,5.942,23.493,5.602  c11.918-0.436,25.965-4.603,42.148-12.506c0.105-0.068,0.228-0.136,0.347-0.196c5.51-2.684,11.117-5.711,16.827-9.07  c1.263-0.749,2.405-1.424,3.41-2.037c0.547-0.334,1.646-1.014,3.298-2.047c0.102-0.066,0.206-0.135,0.308-0.195h0.008  c2.328-1.45,4.449-2.806,6.294-4.007c1.959-1.295,4.122-2.762,6.544-4.467l0.009,0.009c0.89-0.632,1.999-0.954,3.167-0.837  c14.124,1.424,27.089,2.84,38.835,4.246c12.104,1.45,23.398,2.941,33.856,4.486c44.245,6.375,73.527,13.39,87.864,21.045  c6.66,3.564,10.57,7.535,11.73,11.926c1.311,4.988-0.689,9.745-6.028,14.262C459.486,114.096,443.618,120.756,419.567,127.564"/>
</svg>